<?xml version="1.0" encoding="UTF-8"?>
<svg id="Layer_2" data-name="Layer 2" xmlns="http://www.w3.org/2000/svg" viewBox="0 0 402.77 148.7">
  <defs>
    <style>
      .cls-1 {
        fill: #272827;
      }

      .cls-1, .cls-2 {
        stroke-width: 0px;
      }

      .cls-2 {
        fill: #090c0e;
      }
    </style>
  </defs>
  <g id="Layer_1-2" data-name="Layer 1">
    <g>
      <path class="cls-2" d="m55.11,114.36c-3.69,6.62-7.35,13.25-11.08,19.85-1.89,3.35-4.27,6.32-7.44,8.58-5.8,4.12-13.86,4.14-19.58-.1-9.11-6.75-13.7-16.47-15.88-27.06C-1.22,104.28,0,93.01,5.87,82.65c3.97-7.02,9.66-12,17.65-13.86,10.83-2.51,21.71,7.47,20.31,18.47-.21,1.68-.93,2.67-2.69,2.82-1.79.15-2.85-.48-3.42-2.3-1.48-4.76-4.07-8.69-8.9-10.7-4.24-1.76-6.81-1.06-9.36,2.71-3.73,5.53-5.6,11.77-6.3,18.31-1.35,12.6-.56,25,4.54,36.83.11.25.19.51.31.75,4.35,8.78,12.4,9.68,18.47,1.92,4.03-5.15,6.97-11.02,10.24-16.66,2.13-3.68,4.06-7.48,6.16-11.18.63-1.11.91-2.49,2.64-2.83,1.17-.23.78-1.68.87-2.6.44-4.7.85-9.41,1.17-14.12.15-2.23,1.19-3.11,3.36-2.72,1.16.21,2.48.14,3.46.67,4.7,2.57,9.82,2.27,14.88,2.44,4.23.14,4.99.86,4.58,5.09-.78,7.85-2.6,15.58-3.04,23.47-.42,7.62-.92,15.27.89,22.8.26,1.07.21,2.66,1.55,2.93,1.28.26,2.01-1.08,2.76-1.93,4.79-5.4,7.38-11.97,9.78-18.64,1.71-4.76,3.34-9.56,5.06-14.31.23-.63.29-1.81,1.04-1.75,3.28.27,2.72-2.36,3.23-4.11,1.71-5.88,4.16-11.26,9.66-14.6,3.05-1.85,6.28-2.37,9.53-.49,3.35,1.94,5.08,4.91,4.79,8.8-.5,6.86-3.45,12.27-10.13,14.75-3.01,1.12-4.06,2.48-3.61,5.72.61,4.42,1.43,8.77,2.93,12.95,1.51,4.2,3.97,4.64,6.96,1.27,5.06-5.72,9.53-11.91,14.05-18.06.53-.73,1.09-1.46,1.75-2.07.95-.88,1.86-.27,2.69.31.97.68.47,1.4-.01,2.09-4.54,6.57-8.94,13.26-14,19.43-5.07,6.19-15.35,5.33-20.34-1.5-3.26-4.46-4.74-9.6-5.63-15.71-1.35,3.78-2.38,6.93-3.59,10.01-2.42,6.16-5.05,12.22-9.38,17.36-5.4,6.41-14.02,5.5-17.82-1.91-2.19-4.28-3.18-8.86-3.3-13.62-.29-11.03.71-21.95,3.1-32.72.52-2.33.07-3.49-2.52-3.26-.71.06-1.45-.05-2.17-.18q-4.21-.71-4.42,3.46c-.67,13.63-2.84,27.05-5.6,40.39-.3,1.43-.85,2.89-2.72,2.91-1.63.02-2.92-.39-2.62-2.47.65-4.58,1.3-9.16,1.9-13.74.39-2.96.67-5.94,1-8.91-.16,0-.33-.01-.49-.02Zm67.52-15.16c-.04-1.95.03-3.22-.49-4.43-.33-.79-.72-1.52-1.67-1.52-.87,0-1.2.76-1.47,1.42-1.79,4.46-3.16,9.04-3.57,13.85-.05.58-.4,1.38.25,1.75.77.44,1.38-.28,1.89-.73,3.3-2.92,4.87-6.65,5.05-10.34Z"/>
      <path class="cls-2" d="m198.34,9.4c1.6-2.77,3.9-1.65,6.1-1.09.08,7.62-1.29,15.17-1.1,23.2,1.42-1.27,2.55-2.37,3.77-3.34,5.34-4.23,10.33-2.28,11.4,4.43.07.45.07.91.09,1.36.14,3.93.14,3.9,3.87,3.13,1.21-.25,1.84-.72,1.9-2.08.15-3.47.86-6.85,2.48-9.94,1.46-2.79,3.39-5.14,6.7-5.92,3.42-.8,6.6,1.44,6.99,4.95.52,4.69-1.96,9.13-6.53,10.78-2.19.79-2.54,1.96-2.21,3.85.47,2.67.87,5.37,1.85,7.92,1.08,2.83,2.61,3.19,4.52.95,2.53-2.97,4.82-6.14,7.28-9.17.96-1.18.57-2.47.41-3.66-1.03-7.58-.44-15.04,1.71-22.36,1.03-3.49,2.37-6.86,4.99-9.54,2.25-2.29,4.94-3.59,8.09-2.47,3.25,1.16,4.13,4.12,4.34,7.24.21,3.21-.39,6.33-1.46,9.34-2.21,6.25-4.9,12.28-8.72,17.72-1.46,2.07-1.95,4.07-1.45,6.6.57,2.85,1.07,5.7,2.24,8.36,1.06,2.42,2.79,2.84,4.31.73,3.41-4.72,6.64-9.41,5.58-16-1.47-9.09-.44-18.09,3.35-26.62,1.27-2.86,2.98-5.42,5.89-6.89,4.25-2.15,8.26-.23,9.41,4.41,1.03,4.15.18,8.16-1.18,12.01-2.14,6.06-4.75,11.96-8.51,17.22-1.68,2.34-2.07,4.64-1.47,7.39.52,2.39.97,4.78,1.86,7.07,1.29,3.32,2.98,3.67,5.19.76,3.1-4.07,5.04-8.76,6.22-13.72,1.17-4.93,2.21-9.89,3.28-14.84.28-1.32.24-3.03,1.83-3.32,1.55-.28,2.7,1.05,3.52,2.19,3.04,4.19,5.46,8.74,7.31,13.59,1.5,3.92,1.5,3.94,5.29,1.96,1.12-.58,2.18-1.3,3.28-1.92.67-.38,1.44-.58,1.92.21.46.76-.32,1.13-.78,1.46-1.68,1.24-3.4,2.44-5.42,3.05-1.76.53-2.5,1.38-1.89,3.39.44,1.43.32,3.05.35,4.59.13,6.61-7.62,10.3-13.65,6.98-3.29-1.82-3.82-6.05-1.34-9.19,1.51-1.9,3.55-3.07,5.68-4.12.82-.4,1.81-.75,1.41-1.95-1.39-4.17-2.88-8.3-5.04-12.92-1.46,7.48-2.82,14.26-5.16,20.79-.73,2.04-1.45,4.09-2.26,6.1-.33.83-1.01,2.05-1.92,1.44-1.72-1.16-3.05-.04-4.52.26-2.84.57-5.16-.19-7.05-2.41-1.73-2.03-2.55-4.52-3.79-7.23-.81,1.43-1.51,2.62-2.17,3.83-1.83,3.31-4.06,6.14-8.31,5.99-4.34-.14-6.18-3.31-7.65-6.75-.84-1.96-1.54-3.99-2.37-6.15-1.76,2.37-3.38,4.65-5.1,6.87-3.64,4.7-10.22,4.57-13.7-.23-1.5-2.08-2.55-4.37-3.01-6.91-.25-1.37-.51-2.02-2.4-1.69-3.14.54-5.21,1.83-6.74,4.7-2.26,4.25-6.14,6.68-10.82,7.47-2.05.35-2.91,1.03-2.77,3.08.11,1.6.14,3.18-2.27,3.06-2.07-.1-4.26.7-4.68-2.72-1.26-10.26-1.05-20.48.14-30.72.58-4.95,1.69-9.79,2.91-14.61Zm54.51,23.06c3.21-5.32,5.94-10.83,7.26-16.95.71-3.29,1.15-6.62.13-9.94-.29-.93-.47-2.18-1.57-2.33-1.35-.18-1.74,1.2-2.14,2.14-3.73,8.65-4.55,17.73-3.67,27.08Zm19.58,0c3.18-5.53,6.07-11.17,7.32-17.49.6-3.03,1.04-6.08.08-9.13-.32-1.03-.5-2.4-1.7-2.56-1.47-.19-1.77,1.35-2.2,2.35-3.69,8.58-4.42,17.57-3.51,26.83Zm-58.76,1.22c0-.64.12-1.3-.02-1.9-.28-1.21-.37-2.7-1.75-3.16-1.36-.45-2.11.79-2.89,1.63-2.68,2.89-4.62,6.25-5.95,9.96-.22.61-.5,1.32-.04,1.81.53.56,1.12-.03,1.68-.26,1.42-.57,2.86-1.13,4.31-1.61,4.43-1.46,4.72-1.84,4.66-6.47Zm85.14,13.19c.06,0,.11-.01.17-.02-.21-1.24-.48-2.47-.62-3.71-.18-1.66-1.02-1.37-2.01-.78-1.93,1.15-3.4,2.7-3.93,4.93-.51,2.1,1.12,4.75,3.13,4.97,2.52.28,2.76-1.81,3.24-3.5.17-.58.03-1.25.03-1.89Zm-67.1-13.37c3.56-1.87,5.62-6.24,4.66-9.45-.19-.64-.15-1.57-1.17-1.59-.8-.01-1,.7-1.22,1.27-1.14,3.05-1.99,6.17-2.27,9.77Zm-20.29,8.76c-3.08.69-5.57,1.72-7.76,3.53-1.09.9-1.37,2.08-.78,3.1.62,1.07,1.66.07,2.36-.25,2.76-1.25,4.78-3.29,6.19-6.38Z"/>
      <path class="cls-2" d="m359.93,118.63c-1.47,1.3-1.45,3.25-2.09,4.9-1.74,4.48-3.65,8.86-6.38,12.84-1.41,2.06-3.07,3.81-5.55,4.59-5.64,1.78-9.44-.2-10.99-5.89-1.74-6.42-1.25-12.97-.85-19.5.31-5.17.73-10.34-.31-15.48-.26-1.27-.07-2.92-1.79-3.32-1.58-.37-2.14,1.08-2.91,2.03-6.49,7.96-9.09,17.59-11.6,27.24-1.05,4.02-1.96,8.1-2.66,12.19-.35,2.03-1.16,2.76-3.19,2.76-6.28.01-5.15.9-6.12-5.41-1.06-6.84-.99-13.77-.67-20.68.08-1.76.09-2.58-2.24-1.97-4.3,1.13-8.7,1.73-13.19.75-2.86-.63-2.76-.52-2.28,2.53,1.06,6.67.14,13.08-3.64,18.76-4.23,6.35-14.28,6.11-18.56-.24-1.89-2.8-2.85-5.9-2.81-9.22.1-8.18,2.25-15.75,7.27-22.34.82-1.07,1.83-2.04,2.9-2.86,2.56-1.95,4.64-1.99,7.16,0,1.78,1.4,3.45,2.97,4.99,4.63,5.44,5.85,11.98,6.98,19.41,4.81,1.27-.37,1.18-1.23,1.26-2.07.45-4.69,1.01-9.37,1.75-14.03.35-2.18,1.39-3,3.46-2.87.63.04,1.27-.02,1.91-.02,3.23-.02,3.55.28,3.57,3.62.03,4.55,0,9.09,0,13.64,0,.77,0,1.53.58,2.43.96-1.88,1.91-3.77,2.89-5.64,1.68-3.23,3.56-6.35,6.26-8.84,2.84-2.61,6.04-4.47,10.09-3.11,4.16,1.39,5.14,5.06,5.82,8.77,1.01,5.52.27,11.06-.21,16.57-.49,5.64-.59,11.25.76,16.79.27,1.13.34,2.43,1.78,2.77,1.44.34,2.16-.72,2.86-1.66,4.18-5.69,6.56-12.24,9-18.76.44-1.18.82-2.39,1.23-3.59.4-1.2,1.3-1.4,2.39-1.15,1.24.29,1.5,1.15,1.31,2.27-.22,1.26-1.13,2.4-.61,3.77l.04-.04Zm-77.95,2.31c.13-4.41-1.57-8.94-3.97-13.26-.34-.62-.66-1.48-1.44-1.48-.82,0-.99.94-1.28,1.55-1.85,3.98-2.45,8.28-3.19,12.54-.73,4.26-.58,8.49.7,12.62.4,1.3.83,2.94,2.57,3.19,1.77.25,2.53-1.21,3.26-2.43,2.24-3.71,3.37-7.76,3.35-12.74Z"/>
      <path class="cls-2" d="m225.64,76.87c3.73,0,7.45-.04,11.18.02,1.23.02,2.68-.11,2.77,1.8.09,2.02-1.42,2.08-2.76,2.15-7.17.42-14.34.85-21.51,1.13-2.18.08-3.14.6-3.4,3.05-1.53,14.57-2.38,29.18-1.93,43.82.13,4.33.81,8.67,2.44,12.75,1.25,3.12,2.74,3.27,4.79.54,3.65-4.86,5.3-10.65,7.37-16.24,1.16-3.13,2.28-6.29,3.23-9.49.52-1.77,1.54-2.02,3.07-1.66,1.68.39,1.81,1.42,1.39,2.87-2.21,7.54-3.96,15.24-7.68,22.25-3.37,6.35-8.14,8.59-14.56,6.99-2.95-.74-4.84-2.67-6.17-5.31-3.02-6.02-4.27-12.5-4.87-19.1-1.12-12.35-.87-24.69.99-36.97.28-1.81-.11-2.74-2.17-2.59-1.81.13-3.64.04-5.45-.01-.98-.03-1.81-.39-1.81-1.57,0-1.09.31-1.91,1.64-2.07,2.25-.27,4.48-.78,6.73-.97,1.63-.13,2.51-.8,2.78-2.39.09-.53.29-1.05.42-1.57,1.68-6.88,1.86-6.98,8.71-6.5,1.62.11,2.34.8,2.25,2.36-.09,1.63-.15,3.27-.33,4.9-.17,1.55.42,2.1,1.98,2.07,3.63-.08,7.27-.02,10.9-.02,0-.08,0-.16,0-.24Z"/>
      <path class="cls-2" d="m163.78,119.71c-1.89,2.84-3.39,5.94-5.52,8.64-1.82,2.31-4.02,3.57-7.05,3.11-3.01-.46-4.29-2.6-4.87-5.19-2.01-8.94-1.32-17.55,4.25-25.15,3.69-5.04,8.77-7.42,15.19-6.11,2.74.56,5.36-.71,8.1-.61,3.91.14,4.1.03,4.01,3.89-.22,9.17-.53,18.35-1.01,27.51-.25,4.73-.31,9.44-.28,14.17,0,.68-.28,1.67.58,1.91.83.23,1.14-.74,1.53-1.31,4.99-7.37,8.59-15.5,12.61-23.4.49-.97.98-1.94,1.46-2.91.59-1.19,1.47-1.08,2.5-.63,1.08.48,1.57,1.11,1.02,2.32-4.14,9.04-8.07,18.18-13.21,26.71-1.89,3.14-4.73,4.95-8.68,4.39-3.73-.52-5.63-3-6.84-6.21-2-5.32-2.61-10.9-2.96-16.51-.09-1.5-.01-3.01-.01-4.52-.27-.04-.53-.08-.8-.13Zm-11.78,2.77c0,1.76,0,2.76,0,3.76,0,.71-.15,1.52.73,1.86.98.38,1.55-.26,1.99-.97,4.67-7.65,8.71-15.61,11.84-24.01.5-1.35.79-3.12-.83-4.21-1.55-1.04-2.97-.22-4.27.6-.67.42-1.24,1.05-1.77,1.66-5.53,6.32-7.41,13.92-7.69,21.31Z"/>
      <path class="cls-2" d="m148.62,25.88c-1.8,6-2.85,11.86-4.77,17.51-.93,2.74-1.88,5.47-2.89,8.18-.44,1.19-1,2.7-2.63,1.94-1.44-.67-.22-1.85-.01-2.81.11-.51.2-1.02.36-1.89-1.92.86-3.67,1.48-5.51.43-2.03-1.15-2.67-3.17-3.31-5.12-1.05-3.19-1.41-6.54-1.88-9.86-.1-.67-.14-1.59-.94-1.76-.69-.15-1.01.66-1.37,1.15-3.16,4.27-4.21,9.34-5.36,14.37-.23,1.02-.04,2.4-1.9,2.38-1.79-.02-2.64-.43-2.58-2.44.16-5.45.05-10.91-.37-16.36-.18-2.36-.59-4.66-1.45-6.88-.75-1.92-1.84-1.78-3-.46-1.15,1.3-1.94,2.85-2.54,4.47-2.41,6.58-4.19,13.3-4.46,20.35-.05,1.32.07,2.72-1.91,2.48-1.52-.18-3.43.75-3.76-2.14-1.04-9.19-.62-18.28.51-27.44.38-3.07,1.71-3.49,4.16-3.43,1.18.03,1.61.41,1.57,1.58-.06,1.89-.02,3.79-.02,6.02,1.46-.77,1.92-1.89,2.71-2.68,1.91-1.92,4.06-3.44,6.95-2.9,3,.57,4.33,2.94,4.94,5.57.66,2.82.88,5.73,1.35,8.96,1.03-1.26,1.88-2.44,2.86-3.5,1.68-1.82,3.49-3.76,6.27-2.84,2.66.88,3.01,3.41,3.3,5.78.4,3.33.69,6.68,1.09,10.02.15,1.25.33,2.8,1.79,3.02,1.31.2,1.82-1.27,2.49-2.21,4.43-6.22,4.78-13.74,6.61-20.79.39-1.49.66-3.01,1.05-4.49.72-2.71,1.78-3.01,3.94-1.16,1.12.96,1.98,2.11,2.74,3.36,2.54,4.19,4.87,8.49,6.41,13.14.55,1.67,1.25,1.92,2.66,1.12,1.73-.98,3.47-1.94,5.23-2.88.66-.35,1.45-.61,1.91.2.42.73-.27,1.13-.79,1.5-1.62,1.16-3.23,2.43-5.18,2.93-2.23.58-2.56,1.96-2.06,3.86.49,1.88.31,3.71.15,5.64-.45,5.39-8.48,9.23-14.25,5.04-2.61-1.9-2.9-5.34-.92-8.27,1.43-2.12,3.54-3.38,5.79-4.37,1.49-.66,1.89-1.58,1.36-2.99-1.43-3.79-2.89-7.57-4.33-11.36Zm6.43,21.25c-.18-1.51-.27-2.86-.54-4.18-.09-.45-.08-1.28-1.15-1.06-2.51.51-5.19,4.47-4.68,7.13.37,1.89,1.59,3.19,3.44,3.26,1.86.06,2.44-1.54,2.68-3.16.11-.71.18-1.43.25-1.99Z"/>
      <path class="cls-2" d="m359.89,118.67c1.91-3.08,1.97-6.69,2.79-10.07,1.53-6.33,2.82-12.72,4.32-19.06.91-3.83,2.61-4.28,5.75-1.79,3.46,2.74,5.24,6.68,7.37,10.34,3,5.17,5.58,10.57,7.39,16.27.67,2.1,1.57,2.18,3.31,1.33,2.52-1.23,5.06-2.4,7.42-3.94.53-.35,1.09-.65,1.64-.96.97-.55,1.96-.66,2.64.36.74,1.11-.28,1.66-.96,2.18-2.88,2.22-5.93,4.17-9.43,5.28-2.19.69-2.95,1.73-2.29,4.2.95,3.59,1.18,7.31.24,11.04-1.28,5.08-4.8,7.84-9.54,9.02-4.77,1.19-9.44.67-13.22-2.9-3.17-3-3.38-8.14-.72-11.97,2.31-3.33,5.61-5.42,9.2-6.98,2.33-1.01,2.87-2.27,2.03-4.63-2.15-6.04-4.44-12.01-7.19-18.22-1.44,2.5-1.45,5.02-1.87,7.4-2.09,11.81-5.7,23.16-10.09,34.29-.16.42-.38.83-.64,1.19-.85,1.14-1.95,1.13-3.17.66-1.53-.58-.75-1.54-.46-2.44,1.92-5.93,3.93-11.84,5.33-17.92.2-.87.84-1.76.2-2.71,0,0-.04.04-.04.04Zm21.37,13.21c-.34-2.24-.71-4.64-1.09-7.05-.14-.93-.56-1.5-1.64-1.27-3.62.77-7.85,6.46-7.64,10.27.16,2.88,2.74,5.81,5.31,6.03,2.27.2,3.91-1.63,4.57-5.11.17-.89.3-1.78.48-2.87Z"/>
      <path class="cls-2" d="m233.38,118.76c.22-7.97,1.11-14.79,2.86-21.48.4-1.53.34-3.76,3.01-3.83,3.57-.1,4.17.27,3.92,3.87-.68,9.97-1.53,19.93-.55,29.93.23,2.36.49,4.69,1.41,6.89.37.89.57,2.1,1.77,2.13,1.04.03,1.41-1.02,1.82-1.82,3.32-6.42,6.63-12.85,9.94-19.28.33-.64.67-1.29,1.02-1.92.6-1.06,1.41-1.21,2.51-.71,1.21.54.96,1.48.63,2.28-.98,2.43-2.07,4.81-3.13,7.2-1.83,4.13-3.64,8.26-5.51,12.37-1.59,3.48-4.46,5.28-8.17,5.34-3.74.06-6.58-1.8-8.36-5.12-2.83-5.3-3.02-11.1-3.17-15.86Z"/>
      <path class="cls-2" d="m241.32,88.58c-2.13-.02-3.47-.97-3.55-3.21-.08-2.14,1.79-3.93,3.95-3.92,2.44.01,3.89,1.38,3.81,3.57-.09,2.32-1.61,3.6-4.2,3.56Z"/>
      <path class="cls-1" d="m173.28,48.68c-.12,1.34-.8,1.88-1.99,1.83-1.14-.04-1.99-.57-2.05-1.73-.06-1.16.68-1.79,1.86-1.86,1.36-.09,1.93.71,2.18,1.76Z"/>
      <path class="cls-1" d="m81.97,133.77c.31-1.32,1.22-2.19,2.25-2.97.45-.34.98-.64,1.42-.16.41.45.23,1.01-.2,1.42-.98.93-1.99,1.83-3.49,1.68l.02.02Z"/>
    </g>
  </g>
</svg>