<?xml version="1.0" encoding="UTF-8"?>
<svg id="Layer_2" data-name="Layer 2" xmlns="http://www.w3.org/2000/svg" viewBox="0 0 268.3 268.3">
  <defs>
    <style>
      .cls-1 {
        fill: #5d5c5b;
      }

      .cls-1, .cls-2, .cls-3, .cls-4, .cls-5, .cls-6, .cls-7, .cls-8, .cls-9, .cls-10, .cls-11, .cls-12, .cls-13 {
        stroke-width: 0px;
      }

      .cls-2 {
        fill: #4d4c4b;
      }

      .cls-3 {
        fill: #272827;
      }

      .cls-4 {
        fill: #3f403f;
      }

      .cls-5 {
        fill: #090c0e;
      }

      .cls-6 {
        fill: #dedfde;
      }

      .cls-7 {
        fill: #d7d8d8;
      }

      .cls-8 {
        fill: #cecece;
      }

      .cls-9 {
        fill: #c1c0c0;
      }

      .cls-10 {
        fill: #8a8a8a;
      }

      .cls-11 {
        fill: #323231;
      }

      .cls-12 {
        fill: #747373;
      }

      .cls-13 {
        fill: #e4e5e4;
      }
    </style>
  </defs>
  <g id="Layer_1-2" data-name="Layer 1">
    <circle class="cls-6" cx="134.15" cy="134.15" r="134.15"/>
    <path class="cls-11" d="m12.06,199.8c2.67,2.77,6.75,3.48,10.06,1.74,1.5-.79,2.99-1.62,4.66-2.54-2.12-.79-4.04-1.47-6.05-.15-.62-1.03.47-1.55.7-2.32,3.61,1.01,7.22,1.97,11.03,1.64.69-.06,1.55.11.87-1.05.13-.11.26-.21.39-.32.77.63,1.6.11,2.4.11,0,.19-.02.38-.03.57-1.65.36-1.19,1.43-.82,2.46.26.73,1.11,1.21.89,2.14-2.27-1.18-3.28.38-4.92,2.04h2.7c-.14,1.02-2.76.21-1.6,2.18-.12.12-.23.25-.33.39-.28-.29-.57-.59-.85-.88.04-.33-.04-.61-.4-.72l-.17-.91c-.11-.64-.58-.63-1.07-.57.55-.18.57-.61.53-1.08.02-.19.04-.37.07-.56,1.72-.03,4.18-.17,4.09-1.97-.08-1.62-2.67-.9-3.91-.66-4.24.84-8.36,2.14-11.11,5.89-.63.22-.93-.17-1.19-.64.24-.47,1.09-.28,1.13-1.29-2.53.6-5.33-.08-7.17,2.44-.16-.04-.32-.02-.46.08-.16,0-.32,0-.48.02-.2-.21-.4-.42-.61-.63,0-.16.02-.33.04-.49.18-.07.37-.14.55-.21,1.28-.18,2.25-.98,3.32-1.54-1-1.41-2.99-1.19-3.85-2.65.36-.68.98-.55,1.57-.51Z"/>
    <path class="cls-1" d="m12.06,199.8c-.59-.04-1.21-.17-1.57.51-1.19-.69-2.36-1.54-3.76-.56-.58-1.54,2.29-.49,1.48-2.15,1.03-.9,2.07-1.43,2.36.52.15,1,1.27.89,1.49,1.68Z"/>
    <path class="cls-5" d="m97.98,185.74c.04-18.53,8.89-32.84,21.81-45.28-.39-.15-.62-.31-.84-.31-10.57.24-18.33-5.42-25.55-12.18-4.85-4.54-9.14-9.62-13.63-14.5-3.38-3.68-7.22-6.82-11.7-10.26,9.75-.38,18.44,2,27.59,4.17-4.06-8.85-7.75-17.62-13.82-25.51,3.15.54,5.81,1.52,8.42,2.68,12.93,5.71,25.08,12.68,35.42,22.45,4.65,4.39,8.52,9.4,10.49,16.01,1.01-3.54,1.79-6.78,3.43-9.73.93-1.67,1.9-3.3,3.18-4.73,4.39-4.91,9.32-5.99,15.13-2.98,2.4,1.24,4.63,1.8,7.41,1.57,5.8-.49,11.63-.2,17.37.93.84.17,1.64.49,2.42.88-5.82.37-11.61-.06-17.39.69-3.57.47-6.31,1.84-8.43,4.77-3.33,4.6-5.98,9.48-7.07,15.13-.29,1.51-.82,2.96-1.18,4.46-2.48,10.26-8.49,17.31-18.44,21.19-5.12,2-10.13,4.34-15.05,6.85-9.47,4.83-15.86,12.17-19.02,22.31-.15.48-.36.94-.54,1.41Z"/>
    <path class="cls-3" d="m31.85,152.79c.33-1.22,1.77-1.01,2.4-1.84.28-.21.81-.56.79-.6-.37-.64-.87-.16-1.34-.1-1.55.49-3.1.94-4.54-.56,2.94-.5,5.62-1.95,8.84-.57-.59-1.91-1.99-2.52-2.91-3.54-.42-.46-1.08-1.03-.63-1.62.67-.89,1.33.04,1.82.38,1.19.83,2.08,2,2.87,3.22.59.9,1.05,1.94,2.4,2.27.26-1.62-1.94-2.39-1.3-4.24,2.66,1.22,2.54,4.35,4.3,6.08.26.15.52.3.78.46l-.13-1.2c-.12-1.19-.76-2.38.55-3.47.69-.57.13-1.24-1.39-1.68-1.73-.51-3.77-.33-5.02-2.14,1.02-1.02,1.94.41,3.03-.28-1.86-2.13-5.1-1.23-7.17-3.07,1.49-1.17,2.65-.14,4.06-.08-1.35-3.2-5.13-1.79-6.98-4.03,1.09-.69,2.07-.27,3.06.05.38.13.95.48,1.09.35.49-.44-.17-.66-.36-.97-.38-1.57-1.8-1.86-3-2.45-1.09-.53-2.44-.8-2.74-2.25.93-1.03,1.69.5,2.69-.09-.76-1.37-1.61-2.7-2.23-4.14-.28-.65-.68-1.76.25-2.16.78-.34,1.18.63,1.52,1.24.82,1.48,1.58,2.99,2.51,4.77.89-1.16.15-2.84,1.82-3.45,1.12,2.84-2.45,6.09.72,8.75,1.13-.94.43-2.9,2.05-3.65.58.61.19,1.23,0,1.85-1.13,2.86-1.13,2.92.2,4.21.16-1.11.33-2.26.5-3.41,1.22.04,1.15.04,1.3,1.46.19,1.9-.8,4.07,1.25,5.61.88-1-.46-2.53,1.19-3.73,1.19,3.3.5,7.52,4.85,9.38-1.61-5.36-.08-10.79-1.88-15.94-.82-2.34-1.56-4.54-4.1-5.66-.88-.39-2.48-1.33-.29-2.39-.76-.84-2.07-1.04-2.75-2.26,1.78-.85,2.56,1.01,4.07,1.25-.29-3.39-3.95-5.01-4.44-8.47,2.12.31,2.46,2.24,3.83,3.26,1.25-2.81-1.4-5.9.76-8.68,1.6,2.02,1.41,4.16,1.08,6.29-.08.5-.59.98.21,1.27,1.86.67,1.87.66,1.05,2.62-.24.58-.64,1.11-.49,1.8-.51.01-.52.69-.49.69,2.01.13.89,1.37.7,2.13-.24.94-.34,1.75.51,2.42.5-1.72,2.73-3.35.29-5.23.63-1.12,1.2-.45,1.61.14.55.78.98,1.65,1.58,2.69.96-3.42-3.11-5.51-1.81-8.99,1.94,1.45,1.57,3.88,2.8,5.37,2.62-3.36-1.83-6.23-.83-9.84,1.89,1.41,1.7,3.47,2.52,5.32,1.56-2.97,1.54-6.6,4.77-9.19.11,4.04-2.94,6.26-3.75,9.34-.26.35-.37.72-.18,1.13.26-.14.51-.29.77-.43,1.38-.66,2.76-1.34,4.3-1.5.64-.07,1.63-.45,1.79.57.11.7-.74.88-1.34,1.07-1.7.55-3.48.79-5.15,1.52-1.05.46-1.67.97-1.68,2.11-.07.21-.13.42-.2.62.2-.05.41-.09.61-.14,1.6-1.08,3.08-2.42,5.46-2.42-1.36,3.29-5.95,2.28-7.18,5.75,1.21-.04,1.6-1.13,2.53-.85.45.18.14.54.03.61-3.22,1.86-3.75,4.97-4.09,8.29-.51,5-.55,9.97.44,14.91.13.62.05,1.51,1.35,2.01-.14-4.03.08-7.86,1.37-11.58.27-.78-.67-2-1.07-3.01-.39-.99-1.15-1.9-.53-3.18,1.9.51,1.52,2.65,2.59,3.74.6-1.27.56-1.26-.4-3.76-.46-1.18-1.29-2.4-.25-3.99,1.52,1.49,1.16,3.49,2.17,5.48,1.81-3.05-1.28-6.46,1.32-9.06,1.01.7.64,1.63.52,2.56-.14.98-.12,1.99-.21,3.61,2.17-2.7,3.4-5.34,4.84-7.82.45-.78.79-1.63,1.25-2.41.31-.51.68-1.26,1.43-.91.67.31.55,1.04.42,1.7-.36,1.77-1.5,3.06-2.52,4.46-.61.84-1.71,1.36-1.86,2.58,1.39.42,2.57-1.2,4.08-.16-1.9,3.08-6.83,2.15-8.15,6.08,1.93.52,3.71-1.13,5.7-.13-1.1,1.84-2.89,1.28-4.37,1.41-1.82.16-3.11.67-3.1,2.81,1.49.02,2.58-1.53,4.3-.79-.32,1.19-1.43,1.45-2.23,1.58-3.34.56-3.94,2.88-4.12,5.71-.42,6.62-.48,13.21,1.43,19.6,1.17-4.46,2.97-8.99-.5-13.98,2.81.58,2.35,2.63,3.34,3.67,1.05-.95.58-2,.28-3.02-.37-1.3-.77-2.6-1.14-3.91-.13-.47-.07-.94.44-1.15.57-.24.85.29.97.64.48,1.35.86,2.74,1.31,4.2,2.33-1.57,1.28-3.74,1.22-5.71-.03-1.12-.87-2.96.42-3.12,1.46-.19,1.16,1.83,1.46,2.96.15.58-.35,1.22.28,2.02,1.39-2.06,2.62-4.16,4.47-5.75.46-.39.97-1.09,1.6-.58.53.43.38,1.21,0,1.76-.73,1.03-1.54,2.01-2.31,3.02-.18.25-.37.5-.55.76.43.24.82.08,1.2-.11,1.35-.36,2.69-.56,4.12.69-3.3,2.38-7.85,1.88-11,4.87,1.92.24,3.44-1.82,5.37-.32-2.16,2.25-6.61.94-7.51,5.19,1.55-.54,2.66-1.91,4.34-1.31-.11,1.19-1.14,1.31-1.9,1.53-2.56.75-3.78,2.43-4.09,5.04-.26,2.15-.81,4.27-1.23,6.4-.14.41-.27.83-.41,1.24-.53-.42-1.06-.84-1.59-1.26,0-.2.01-.41.02-.61.44-.06.49-.39.48-.74-.01-.27-.15-.44-.46-.3l.05-.07c-.89-3.67-3.5-6.32-5.56-9.29-.67-.96-1.28-.08-1.83.23-1.29.73-2.43,1.82-4.34,1.74.68-1.85,2.4-1.83,3.58-2.53.44-.26,1.12-.4.94-1.07-.16-.6-.76-.66-1.34-.63-2.01.09-3.86.85-5.75,1.42-.35,0-.71,0-1.06,0-.98-1.48.46-1.63,1.19-1.87,1.33-.45,2.75-.66,4.27-.99-1.65-2.26-3.61-1.88-5.47-.83-1.41.8-2.88,1.35-4.38,1.87-.16-.52-.64-.46-1.02-.56Zm14.82-5.36c-.94,5.63,2.28,9.15,5.17,12.81-1.04-4.45-.47-9.55-5.17-12.81Zm1.92-23.86c-.6,3.05-1.92,5.28-.1,7.57-.35-2.32,1.96-4.49.1-7.57Zm2.55,26.87c.08-.15.24-.31.23-.45-.03-.35.17-1.09-.46-.82-.43.19-.11.87.23,1.27Zm-6.35-25.42c.01-.43-.29-.61-.62-.7-.1-.03-.26.13-.39.21.23.24.46.49.71.72.02.02.2-.15.3-.23Zm15.1,2.16c-.06.06-.18.13-.17.18.03.13.11.25.17.37.06-.06.18-.13.17-.18-.03-.13-.11-.25-.17-.37Z"/>
    <path class="cls-3" d="m119.8,223.02c.8,1.06,1.74.44,2.67.26,1-.2,1.88-1.09,3.22-.53-.92,1.39-2.38,1.37-3.68,1.72-.08.77.87.81,1.01,1.42-.14.16-.27.32-.41.48-.48-.05-1.48-1.33-1.18.43.17,1,1.04,1.9.32,3.22-1.3-.61-1.19-1.9-1.57-2.88-.51-1.3-.32-2.94-1.88-3.7-.2-.05-.41-.11-.61-.16.09.19.18.38.27.57-.06,1.03.55,2.11-.26,3.3-2.22-1.95-.83-5.42-3.21-7.16-.86.95.72,1.79-.01,2.91-1.45-1.82-3.77.12-5.44-1.52,1.26,2.68,5.05,3.24,5.12,6.92-2.49-.86-3.29-3.31-5.19-4.45-.75.76-1.25,1.64-1.33,2.73-.21,1.41-1.25,2.38-1.91,3.54-.45-.16-.9-.33-1.35-.49.8-1.7,1.6-3.4,2.39-5.1.91-1.94.7-3.63-1.32-5.21.17,1.68-.23,3.05-.61,4.42-.2.73-.55,1.88-1.48,1.64-1.08-.29-.47-1.29-.26-2.04.44-1.57.84-3.14,1.22-4.72.19-.79-.04-1.59-.8-1.81-.95-.26-.73.82-1.02,1.29-.72,1.17-.7,2.83-2.45,3.52-.19-2.02,1.13-3.28,1.92-4.74.34-.63.83-1.11-.07-1.74-3.18-2.22-6.08-4.88-9.92-6-.35.14-.7.28-1.05.42-.25-.33-.51-.66-.76-.99.55-.32,1.1-.64,1.65-.95.26-.06.52-.15.79-.19,4.68-.76,9.82-.79,10.65-7.93,1.46,2.28-.03,3.32-.1,4.53-.09.18-.19.37-.28.55.22-.01.45-.02.67-.03,1.66-.3,1.89-1.76,2.41-2.98.57-1.36.45-3.02,1.81-4.29.9,1.2.43,2.29.16,3.37-.25.59-.5,1.17-.79,1.86,1.14,0,1.07-.81,1.41-1.25,1.22-2.45,1.95-5.06,2.59-7.7.15-.64.34-1.72,1.19-1.61,1.03.13.82,1.23.81,2-.02.88-.12,1.75-.22,2.97,1.43-1.1,2.59-2.05,3.82-2.91.53-.37,1.31-.48,1.71.12.36.53-.23,1-.57,1.4-1.66,1.91-3.77,3.3-6.24,4.85,2.23.37,4.28-.33,5.8,1.56-2.9,1.77-6.56-1.53-9.35,1.62,1.52.44,2.8.77,4.05,1.19.48.16,1.11.48.89,1.15-.22.67-.92.49-1.4.37-1.75-.44-3.47-.98-5.23-1.4-.36-.09-.82.21-1.53.42,1.25,1.09,3.04.85,3.7,2.52-2.55,1.08-4.45-2.15-6.97-1.21-2.35.87-4.83,1.29-7.63,1.59,6.97,1.76,13.66,2.38,20.51,1.55,2.78-.33,4.88-.94,5.42-4.09.14-.79.37-1.81,1.76-2.31.33,1.8-.75,3.05-1.34,4.59,2.17-.25,3.29-1.15,3.14-3.45-.1-1.47-.12-3.03,1.26-4.4,1.1,2.04-.32,3.82-.13,5.71,2.37-.19,2.61-2.19,3.43-3.67.8-1.46,1-3.29,2.56-4.42,1.44,1.39-.44,2.75.15,4.32,1.13-.94,2.13-1.79,3.15-2.62,1.06-.87,2.19-1.59,3.55-1.94.77-.2,1.58-.34,1.88.46.25.66-.5,1.08-1.05,1.39-2.2,1.25-4.43,2.48-6.63,3.74-.92.53-1.8,1.13-2.98,1.86,2.04.88,3.97-.33,5.86.55-2.65,3.08-6.19-.33-9.08,1.49,1.69,1.19,3.84.67,5.31,2.24-1.5.96-2.69.21-3.91-.17-1.19-.37-2.21-1.71-3.87-.61,1.08,1.22,3.2.88,3.83,2.51-.46.71-1.2.58-1.52.35-3.2-2.31-6.52-1.22-9.83-.48-2.32.52-4.69.16-7.78.38,4.5,1.82,8.55,1.9,12.58,2,1.45.04,2.9-.16,4.34-.27,3.86-.28,7.79-.43,9.83-4.85.8,1.34-.12,1.73-.34,2.34-.14.25-.72.34-.42.7.2.24.65.14.88-.22,2.14-.38,1.67-2.53,2.54-3.78.72-1.04.88-2.5,2.52-3.14.25,2.49-1.5,3.87-2.24,5.81,1.3.22,2.07-.23,2.43-1.41.55-1.81,1.06-3.63,1.62-5.44.18-.57.32-1.41,1.12-1.2.75.2.68,1.06.52,1.65-.45,1.75-.79,3.56-2.26,5.22,2.71-.08,4.29-1.88,6.26-2.77,1.19-.54,3.04-2.01,3.52-.92.69,1.58-1.63,1.95-2.82,2.49-1.71.77-3.57,1.2-5.6,1.85,1.76,1.2,4.18.71,5.55,2.8-3.52,1.07-6.2-3.42-9.64-.97,1.39,1.41,3.66,1.07,5.3,2.85-3.49,1.34-5.59-2.48-8.68-1.93.63,1.45,2.79,1.16,2.99,2.91-1.35.65-2.08-.78-3.18-.95-2.75-2.34-5.27-.2-8.34.06,3.2,1.9,5.73-.15,8.38-.12-.15,1.32-1.76,1.08-2.48,2.42,3.47-.69,6.76.48,9.82-1.58.28,1.94-1.08,1.74-1.77,2.51,2.39,0,4.61-.02,6.83.01.73,0,1.67.16,1.67,1.01,0,1.08-1.08.74-1.71.76-2.11.06-4.23.02-6.56.02,1.05,1.33,2.83,1.66,3.39,3.74-3.64-.23-5.22-4.2-8.64-4.44.3,1.5,2.13,2.27,1.43,4-1.45-.31-1.39-1.83-2.43-2.72-.17,1.41-1.02,1.92-1.71.62-3-5.63-8.23-5.64-13.54-5.74-2.66-.05-5.32-.48-8.12-.75,1.69,4.22,5.99,3.25,9.01,4.75-1.06,1.17-2.26.92-3.45.93,2,2.38,4.98.45,7.23,1.84-.6,1.55-2.05.75-3.02,1.15-.39-.03-.79-.06-1.18-.08.17.24.35.48.52.72Zm-9.44-6.85c-.89,2.4-3,.36-4.86,1.28,2.56,1.42,4.75,2.64,7.2,3.99-.26-2.24-.28-4.22-1.99-5.64-3.16-4.96-8.57-4.26-13.19-5.56,3.67,3.38,7.72,5.87,12.84,5.92Zm-1.42,4.84s-.19-.21-.35-.39c-.15.15-.57.1-.38.49.1.21.27.39.41.59.15-.15.54-.12.32-.69Zm21.36-19.05c-.06.06-.18.13-.17.18.03.13.11.25.17.37.06-.06.18-.13.17-.18-.03-.13-.11-.25-.17-.37Z"/>
    <path class="cls-6" d="m217.92,93.91c.27.24.53.47.8.71,1.59,2.01-.16,3.87-.25,5.81,0,0-.11.1-.11.1l.08-.13c.64.3.56-1.55,1.46-.5.19.57-.04,1.32.69,1.66.17.19.34.39.51.58.18.19.36.37.54.56.25.26.49.52.74.78,2.13,2.72,2.59,7.13.94,8.97,0,0,.06-.04.06-.04-2.21.83-3.66,2.6-4.84,4.45-.75,1.18-1.75.61-2.45.68-.99.1-.25-1.05-.35-1.63-.1-.61-.01-1.25-.01-1.88,0,0,.08,0,.08,0l-.03-.06c-.52.48-.61,1.11-.59,1.77-2.35-1.21-.23-3.54-1.34-5.04-.95.89.34,2.42-.82,3.31-1.08-4.29-1.77-8.6-.55-13,.53-1.31,1.79-2.32,1.58-3.93.69.56.89,0,1.11-.5.12-.09.24-.19.36-.28-.12-.03-.23-.05-.35-.08l.05.4c-.62-.35-.92,0-1.13.52-.74.39-1.16-.7-2.09-.36,1.93,1.29.17,2.44,0,3.67-.09.16-.18.32-.28.48-.56-.17-1.13-.34-1.69-.51-.23-.3-.23-.95-.9-.59l.03.05c.2-2.21-.85-4.09-1.64-6.03,2.75-.05,3.4-1.41,2.39-3.81,2.45.29,4.43,2.07,6.94,2.18l-.06-.04c-.27.68-.08.88.6.6,0,0-.04-.06-.04-.06-.51.72.07.92.56,1.17Z"/>
    <path class="cls-11" d="m226.65,157.82c-.82-.04-1.65,0-2.44-.16-.5-.1-.94-.11-1.22.27-1.01,1.39.85,1.49,1.04,2.28.12.5-2.27-1.04-1.11,1.06.16.29,1.54.04.46,1.17-.88.92-1.13.59-1.71-.04-.32-.34-.75-.51-1.36-.09,2.5,3.7,2.82,8.42,5.65,12.02-.17.14-.34.29-.5.43-.59.06-.09,1.24-1,.97-.2-.76-.41-1.51-.76-2.84-.84,3.71.2,6.44,1.68,9.09l-.47.41c-.29-.32-.59-.63-.86-.96-1.06-1.33-2.06-2.96-3.77-.65-.21.28-.59.34-.79-.11,1.9-2.18,3.41-4.7,2.63-7.58-.65-2.41-1.47-4.85-2.36-7.73-.99,1.91-.49,3.88-3,5.1,1.76-2.05,1.82-3.81,1.67-5.64-.08-1.01,0-1.03-1.16-.52-5.05,2.23-7.42,6.01-7.52,11.39-.15.18-.3.37-.45.55-.24-1.72-.31-3.44.22-5.12.2-.59.32-1.11-.61-.7-.62.15-1.23.31-1.85.46-.38-.17-.77-.35-1.15-.52,2.3-.53,4.15-1.77,5.6-3.61,1.33-1.7,3.19-2.78,5.19-4.21-2.51.18-2.72-.31-3.59-2.78-.35-.98-2.16-.81-3.35-1,.04-.17.07-.34.09-.52,1.41-1.16,3.03-.24,4.53-.47.48-.08,1.14.16,1.31-.61.19-.89-.45-.95-1.07-1.19-3.19-1.24-6.51-1.66-9.87-1.36-6.15.56-8.26,4.93-9.96,10.79-1.28-4.95,3.86-12.91,13.53-12.04.26-.97-.89-.94-1.11-1.55.31-.04.63-.07.94-.11,2.33,1.08,4.5,2.49,6.98,3.23.97.1.75-.86,1.15-1.28.44-.11.53-.41.46-.8.24-.03.48-.05.73-.08.14,0,.27-.02.39-.08,1.06,1.73,1.56.34,2.17-.39.1.34.21.69.31,1.03.44-.16.44-.49.36-.87.64.19-.04,1.3.82,1.26.39-.02.71-.41.67-.91.13-.14.19-.31.19-.5l.21.03.21-.04c-.68,3.3-.12,4.02,2.91,3.81.63-.05,1.27-.07,1.89-.03,2.89.18,5.54-.2,7.18-3.69-.16,3.47-1.44,4.36-5.98,4.76-.87-.26-2.13-1.79-2.15.67Zm-7.85-2.06c.39.16.77.32,1.16.49-.17.79-.31,1.6-.52,2.38-.16.57-.78,1.18-.19,1.69.72.62,1.68-.23,1.86-.51.58-.9,1.08-2.02,1.1-3.07.02-1.2-1.31-.45-1.94-.82-.28-.23-.56-.45-.84-.68-2.15-1.41-2.52-1.2-2.98,1.86.83-.47,1.59-.91,2.35-1.34Zm-2.13,5.67c.26.07.53.24.73.18.18-.05.39-.34.41-.54.01-.18-.22-.38-.34-.57-.16.19-.32.37-.79.94Z"/>
    <path class="cls-4" d="m216.86,92.23c-2.51-.1-4.49-1.89-6.94-2.18,0,0-.03-.01-.03-.01-.39-.42-.92-.73-1.33-.26-.4.46.1.72.54.84-.56.66-1.75.2-2.11,1.21-.19.08-.39.15-.58.23.18.27.37.55.55.82.05.41.13.81.58.99.79,1.95,1.84,3.82,1.64,6.03-.81.16-.48.8-.55,1.28-.64,4.51.66,8.67,2.33,12.76-.16.18-.32.36-.47.54-1.78-3.18-2.15-7-4.47-9.94.18-.13.36-.27.55-.4.39-.03.44.87.93.38.11-.11-.14-.59-.23-.9,0-.32-.02-.64-.03-.95.22-.09.65-.19.64-.27-.13-3.28-.18-6.58-2.6-9.83v2.9h.06c-.71.12-.36.76-.55,1.13-.15-.01-.31-.03-.46-.04-.76-1.17-2.24-2-1.39-3.87.17-.37-.14-2.43-1.85-1.03-1.21.99-2.8,1.2-4.26,1.67-1.78.57-3.29,1.48-4.15,3.23-1.08,2.2-.31,4.51,1.64,5,.08,3.05-2.62,2.53-4.27,3.14-1.06.39-2.39.07-3.63-.22,1.6-.42,3.29-.32,4.74-1.11.63-.34,1.88-.43,1.45-1.54-.34-.88-1.27-.37-1.9-.12-1.13.46-2.26.54-3.81.17,1.18-.31,2.06-.47,2.89-.77.7-.26,1.81-.08,1.85-1.21.05-1.25-1.1-1.26-1.91-1.51-.4-.12-.88.03-1.32.06-.2.09-.4.19-.6.28-2.06.54-3.54,2.07-5.05,3.37-1.07.92-1.3.32-2.09-.41,3.83-.95,5.87-5.85,10.86-4.29.42-2.45,2.38-3.88,4.59-5.33h-8.9c3.66-2.22,7.43-2,10.54-4.11h-8.68c3.42-.79,6.88-.45,10.27-1.11,0,0-.04-.06-.04-.06.42.84,1.17.52,1.84.53.7-.16,1.4-.33,2.1-.49,1.71.45,3.88.28,3.74,2.95,1.13-.48.41-1.59,1.08-2.13,1.79.94,3.33.02,4.92-.63,0,.46,0,.92,0,1.37-.45.27-.91.54-1.5.9,1.71,1.27,3.96,1.36,5.36,2.93Zm-11.3-3.54c-.14,1.12-2.01,1.52-1.25,2.96.24.46.68.64,1.08.24.95-.93.91-2.03.17-3.2Z"/>
    <path class="cls-11" d="m215.73,114.02c0,.63-.09,1.27,0,1.88.09.58-.64,1.73.35,1.63.71-.07,1.7.5,2.45-.68,1.19-1.85,2.63-3.62,4.84-4.45-1.15,2.26-3.32,3.69-4.73,5.74-.56,1.46.68.64,1.09.86l.13-.17s-.17-.13-.17-.13c0,0,0,.03,0,.03-1.65,2.04-1.41,2.73,1.15,3.22-.43.67-1.45-.1-1.78.73-.03.21-.07.43-.1.64-.98.62-.91,1.29-.01,1.88,2.94,1.94,5.79,4.11,9.24,5.07,3.08.86,5.91.16,8.33-1.98.49-.23.89-.54,1.02-1.11.78-1.74,1.04-3.58,1.17-5.46.3,0,.6,0,.9,0,.07,7.63-5.12,10.65-10.82,10.26.8,1.18.8,2.83,2.72,2.76,0,.18,0,.36.01.53-1.24.85-.07,1.84-.16,2.75-.27,0-.53,0-.8,0-.98-3.57-3.19-6.17-6.3-8.1-1.3-.81-2.59-1.64-3.84-2.53-2.45-1.73-2.68-1.66-3.75,1.36l-3.03.02c-.05-.35-.11-.7-.16-1.05,1.69-.39,3.17-1.18,3.72-2.88.51-1.58.75-3.28-.81-4.59-1.07,1.14-.24,2.89-1.29,4.04l-1.61,3.45c-1.26.31-2.75-.79-3.85.6,0-.22-.02-.45-.03-.67.06-.17.12-.34.15-.52.82-.39,1.84-1,1.36-1.89-.52-.95-1.75-1.01-2.83-.57-1.5-.06-2.99-.12-4.49-.18-.22.04-.44.08-.65.11-1.32.29-2.66.53-3.96.88-3.69.99-5.54,2.22-6.56,7.47-1.16-2.31-.83-4.01,1.07-5.79.54-.51,1.47-.66,1.52-1.62,0-.05-.14-.1-.21-.16.37-.16.74-.31,1.11-.47,1.37.2,2.71-.24,3.74-.92,1.25-.83-.35-.47-.51-.76v-.67c2.33.26,4.66.57,7,.74.88.06,2.42,1.6,2.47-1.06.02-.96,1.84.53,2.77-.87-2.08.02-2.44-2.39-4.39-2.69-.79-.12-.94-.97-.72-1.52.32-.83,1.07-.49,1.58-.13,1.04.72,2.01,1.52,3.01,2.29.26.13.51.55.81.18.3-.37-.13-.55-.33-.78-.05-.47-.81-.91-.22-1.35.45-.34,1.01-.18,1.28.46.34.8.7,1.59,1.14,2.56.68-1.5.31-2.85.26-4.17.46-.03,1.01.16,1.16-.54-.01-.66.07-1.29.59-1.77l-.05.06Z"/>
    <path class="cls-6" d="m209.77,175.69c.1-5.39,2.47-9.16,7.52-11.39,1.15-.51,1.07-.49,1.16.52.15,1.82.09,3.59-1.67,5.64,2.51-1.22,2-3.19,3-5.1.89,2.89,1.71,5.33,2.36,7.73.78,2.88-.73,5.4-2.63,7.58,0,0,.07-.02.07-.02-1.7.38-3.09,1.62-4.87,1.77-.97-.37.03-.77-.01-1.15.18-.18.36-.36.54-.54.18-.18.36-.36.55-.55.18-.18.36-.36.55-.55s.36-.36.55-.55c.27-.1.46-.24.33-.57-.2.08-.4.17-.6.25-.18.18-.36.36-.55.55-.18.18-.36.36-.55.55-.18.18-.37.37-.55.55-.19.19-.38.38-.57.57-.78.41-1.82.56-1.77,1.79-.4.11-.8.23-1.2.34,0,0-.19.07-.19.07l-.14-.15c-.12-.07-.23-.16-.33-.26-.82-2.29-.04-4.8-.98-7.08Zm8.61,1.49c-.06-.07-.11-.13-.17-.2-.06.06-.17.12-.17.19,0,.06.1.13.16.2.06-.06.12-.12.19-.19Z"/>
    <path class="cls-11" d="m203.25,86.85c-.7.16-1.4.33-2.1.49-.19-.6-.78-.49-1.2-.68.01-.89,1.79-.24,1.34-1.53-.49-.14-.48-1.38-1.38-.63h.08c-.39-2.87-3.86-6.34-7.6-7.44-.8-.23-1.64-.79-2.56-.32-.71-1.57,1.33-.31,1.24-1.45h-5.16c.4-.88,1.33-.21,1.54-.89-1.75-.91-3.32.84-5.05.34-.06-.51.96-.43.61-1.1l-.07.03c.76.4,1.33.21,1.71-.57,0,0-.05.02-.05.02,1.12.4,2.11-.11,3.58-.19-1.24-.84-1.65-2.1-3.02-1.77-1.75-1.47-3.93-1.17-5.96-1.46,0,0,0-.26,0-.26,1.14-.12,2.29-.24,3.54-.38-2.54-3.33-4.04-3.87-5.68-2.2-.03-.27-.05-.55-.08-.82-.16-.29-.31-.59-.47-.88-.47-.53.75-1.66-.65-1.87,0-.35,0-.69-.01-1.04.03-.26.05-.53.08-.79,2.13-.67,1.87,1.79,3.05,2.35.36-1.49-.38-2.84-.43-4.26.16-.19.32-.38.48-.57.25.75.83,1.58.68,2.25-.87,3.99,2.17,5.26,4.63,6.95.25-.35.49-.7.74-1.05-.2,1.62,1.89,1.65,1.97,3.36,1.13-2.7.41-4.91-.35-7.13.14-.14.28-.27.41-.41,1.24,1.75,2,3.77,1.5,5.82-.5,2.03.2,3.19,1.73,4.25,1.14.79,2.2,1.71,3.35,2.62.58-1.3-.45-2.09-.37-3.08.2,0,.4-.02.6-.02.08.04.17.13.23.11.06-.02.09-.16.15-.2,1.52-1.1,1.17-2.73,1.23-4.25l.2.04h.21c.15,1.79.44,3.61-.26,5.34-.82,2.02-.63,3.6,1.46,4.77.91.51,1.6,1.42,2.66,2.4-.08-.92-.14-1.56-.2-2.2,1.03.15,2.01,0,2.94-.48.3.71.61,1.42.91,2.14.86-.53.58-1.46.88-2.16.17.39.35.79.52,1.18.02.72-.06,1.46.07,2.17.2,1.1-.84,2.84.41,3.18,1.42.39,3.27,1.12,4.71-.52.58-.66,1.43-1.08,2.16-1.62.11.19.21.38.32.57-.26.43-.79.9-.72,1.28.12.74.84.19,1.29.3.85.21,1.91-.63,2.58.51-2.81-.1-5.28.89-7.6,2.38-1.17-.76-2.27-1.72-3.84-1.3-.1-.41-.1-1.07-.73-.8-.58.25-.31.94-.3,1.45h.02Zm-.9-6.7c.1-.47-.16-.62-.56-.6-.52.03-1.1,0-1.24.68-.07.34-.06.77.36.85.74.15,1.08-.44,1.44-.93Z"/>
    <path class="cls-7" d="m44.48,169.23c.59.15,1.19.3,1.78.45-1.1,1.02-.99,2.29-1.04,3.67-.11,3,.86,5.97.21,8.97-1.18-.81-1.33-2.22-1.96-3.35-.62.86-.05,2.36-1.49,2.78-.68.01-1.37.04-1.45-.91-.75-1.27-1.87-1.86-3.34-1.82h.06c-1.14-.6-1.72-1.64-2.24-2.75l.05.08c.15-2.51,1.4-4.75,1.83-7.19.18-1.03.92-1.09,1.76-1.26,2.17-.43,3.9.8,5.82,1.33Z"/>
    <path class="cls-7" d="m194.33,101.56c-1.95-.48-2.71-2.79-1.64-5,.85-1.75,2.37-2.66,4.15-3.23,1.46-.47,3.05-.68,4.26-1.67,1.71-1.4,2.02.65,1.85,1.03-.85,1.87.63,2.7,1.39,3.87.29,1.7,1.08,3.16,2.1,4.52-.12.69-.24,1.38-.36,2.06-.79-.56-1.19-1.68-2.39-1.63,0,0,.04.03.04.03-1.64-2.01-5.32-2.4-7.69-.82-.57.28-1.14.56-1.71.84Zm9.51-2.85c-.3-.4-.41-.68-.59-.73-.13-.04-.45.2-.5.37-.1.33-.03.71.44.69.21-.01.42-.21.65-.33Z"/>
    <path class="cls-4" d="m47.27,199.63c.51-1.41-.85-2.22-1.08-3.4.14-.14.28-.27.42-.41.54-.42.26-1.01.3-1.53.15-1.1,1.64-1.84,1.03-3.07-.27-.54-1.1-1.1-1.71-1.13-1.42-.07-1.1,1.61-1.89,2.26-.2-.05-.4-.1-.6-.14.02-.22.05-.44.07-.66,0,0-.04.04-.04.04.67-.51.9-1.12.13-1.68-.76-.55-1.2-1.24-1.35-2.14-.04-.19-.08-.39-.12-.58.29-.81.75-.72,1.05-.08,1.37,2.96,4.41,1.65,6.59,2.54.32.13,1.74-.1,1.46-1.38l1.58-.49c-.28.71.16.85.72,1.06,2.43.91,4.88,1.32,7.43.56-.85.99,1.1,1.29.54,2.21-1.65-1.21-2.9.07-3.53,1.1-.49.81-1.16,2.58.79,3.21.31,1.35-1.18,2.33-.75,3.7,0,0,.05.06.05.06-.59.2-.39.75-.51,1.16-.46.66-.89,1.4-1.82.58.8-1.83,1.4-3.72,1.38-5.74-.01-1.61.11-3.71-1.52-4.24-1.54-.5-2.61,1.21-3.4,2.58-.06.1-.25.13-1.06.51.95-1.34,1.42-2.34.19-3.12-.62-.39-1.19-.44-1.76-.03-1.47,1.07-2.6,2.44-2.02,4.34.56,1.85,1.15,3.75,2.58,5.19-.46.21-1.5-.18-1,.99-.03.41-.35.38-.63.41-.22-.51.11-1.31-.78-1.46l-.22.02v.22c.36-.72.3-1.21-.67-1.15.14-.06.19-.16.13-.3Z"/>
    <path class="cls-4" d="m45.44,182.32c.64-3-.32-5.97-.21-8.97.05-1.39-.07-2.65,1.04-3.67.22-.2.43-.41.65-.61.18.17.35.34.53.51-2.1,1.87-1.22,4.39-1.4,6.65-.16,2.07-.6,4.7,3.12,3.3.28-.1.77.37,1.17.58.41.54.8.03,1.19-.03,2.2,1.3,4.13.79,5.71-1.34,1.21,2.73-1.25,2.9-2.02,4.1-.71-.38-1.43-.69-2.26-.5-.35-.58-.85-.61-1.42-.4-.26-.43-.51-.44-.77,0-1.02-.11-2.16-.65-2.68.88-.47,1.38.55,1.6,1.4,2.03.2.1.27.44.41.67-1.11.48.41,2.11-1.07,2.43-.78-.32-1.56-.65-2.33-.97,0-.47.01-.94.02-1.41.04-.07.09-.14.13-.2-.04.07-.09.14-.13.21-.16.02-.32.01-.49-.02-.21.03-.42.07-.63.1-.01-.2-.02-.39-.03-.59.02-.92.05-1.84.07-2.76Z"/>
    <path class="cls-2" d="m213.67,128.79c1.01,0,2.02-.02,3.03-.02.22.48.43.95.65,1.43-.37.33-.55.74-.5,1.24-.07-.25-.07-.57-.24-.73-.4-.38-.59-.03-.67.33-.26,1.11.17,2.32-.47,3.4-.74-1.63.15-3.5-.74-5.24-1.08.75.46,1.88-.6,2.43-1.18-.15-.83,1.15-1.45,1.53-1.23.12-1.19,1.11-1.34,1.97l.02-.06c-.7.5-.83,1.34-1.16,2.05-2.47,5.32-6.97,7.23-12.47,5.3.21-.18.42-.37.63-.55,6.36.97,9.11-.58,11.54-6.54.96-2.35,2.05-4.62,3.77-6.53Z"/>
    <path class="cls-1" d="m24.09,162.63c.22-.38,1.62-.08.74-1.02-.98-1.04-8.13-2.26-9.96-1.69,1.97-1.48-1.82-2.67.51-3.96.67,2.29,2.69,2.76,4.87,2.95,0,0,.05-.05.05-.05,2.17.82,4.33,1.64,6.72,2.55-.4-1.48-1.42-1.99-2.13-2.75.15-.16.29-.31.44-.47,1.45,1,2.78,2.13,3.82,3.56-1.44,1.65-3.36.63-5.05.89Z"/>
    <path class="cls-10" d="m19.78,164.85c-2.01.13-4.65-1.25-5.24,2.27-.12.69-.78,1.38-1.49,1.42-.84.05-.91-.91-1.3-1.47-.53-.78-.79-1.55-.67-2.56.75-.11,1.47.68,2.25.02-2.14-.46-.25-1.92-.67-2.89-.27-.65.34-.53.58-.5,1.06.14,2,.65,2.08,1.77.12,1.83,1.3,1.38,2.31,1.19,1.03-.19,2.03-.56,3.27-.92-.28.74-.46,1.22-.64,1.7-.16.09-.32.08-.47-.03Zm-6.16,2.5s-.1-.13-.15-.14c-.05,0-.11.07-.17.11.05.05.1.13.15.14.05,0,.11-.07.17-.11Z"/>
    <path class="cls-11" d="m214.7,182.42c1.78-.15,3.17-1.39,4.87-1.77-.49,2.26-.95,4.52-1.5,6.77-.25,1.05-.75,2.01-1.58,2.76-.11-.11-.23-.23-.34-.34.24-.65.47-1.3.71-1.95.58-.4.56-.97.46-1.57-.18.1-.35.2-.53.29-.37.05-.69.7-1.11.09-.04-.87,1.25-1.19.9-2.34-.53.39-.99.74-1.45,1.09-1.2.65-2.41,1.29-3.61,1.94-.22-.16-.45-.31-.67-.47.9-1.69,3.49-1.31,4.12-3.34,0,0-.05-.08-.05-.08.48.71.95.24,1.06-.17.2-.72-.51-.3-.79-.45l-.49-.45Z"/>
    <path class="cls-4" d="m54.11,168.27c.14-.41.27-.83.41-1.24.05.91.6,1.19,1.41,1.05,1.23-.21,1.97.4,2.5,1.42-.19.13-.39.25-.58.38-.71-.49-1.13-1.79-2.43-.86,1.17,1.46.88,3.22.98,5.06,1.3-.77,2.42-1.44,3.64-2.16-.63-.54-1.16-.99-1.69-1.44.15-.19.3-.39.46-.58,1.37,1.07,2.58,2.06,4.68,1.61,1.41-.3,3.11.41,4.42,1.42-.16.18-.33.35-.49.53-4.34-2.01-8.13-1.02-11.68,2.46.18-2.93.25-5.52-1.61-7.64Z"/>
    <path class="cls-12" d="m16.48,153.39c.92-.35.22-2.02,1.37-1.92.88.08.78,1.26,1.11,1.94.27.55.41,1.18,1.11,1.38.24.11.5.26.66-.07.03-.06-.2-.23-.31-.35.08-1.25.6-1.48,1.32-.44.42.61.53,1.44.78,2.16-.1.12-.2.23-.3.35.16.02.32.04.47.05,0,0-.03-.02-.03-.02-.05.43-.1.86-.16,1.29-.02,1.8-1.57.53-2.21,1.1,0,0-.05.05-.05.05q1.12-2.9-1.62-2.77c-.33.02-1.23.36-.9-.17,1.03-1.69-1.07-1.67-1.2-2.64l-.04.05Z"/>
    <path class="cls-4" d="m44.48,169.23c-1.91-.54-3.65-1.77-5.82-1.33-.84.17-1.58.23-1.76,1.26-.43,2.44-1.68,4.68-1.83,7.19-1.08-1.03.04-2.22-.24-3.31.05-.37.11-.73.16-1.1.07-.13.17-.25.21-.38.02-.06-.08-.15-.12-.22.18-.33.35-.67.53-1-.13-.28-.27-.56-.4-.84.16-.13.32-.27.48-.4.4-.91,1.49-1.79.09-2.76.15-.16.3-.33.45-.49.16.1.32.21.48.31,1.09,1.2,1.07.11,1.23-.6.4.97.94,1.5,2.18,1.49,1.74-.03,3.41.46,4.35,2.19Z"/>
    <path class="cls-11" d="m211.72,100.95c.09-.16.18-.32.28-.48l.48.54c-1.22,4.39-.53,8.7.55,13l-.07,2.13c-.85.06-.49-1.56-1.59-1.15.02-.13.02-.25-.01-.38,1.23-.64.33-1.5.18-2.24-.78-3.83-1.28-7.64.18-11.42Z"/>
    <path class="cls-4" d="m24.09,162.63c1.69-.26,3.6.76,5.05-.89,1.95,2.09,5.2,1.92,7.09,4.09-.15.16-.3.33-.45.49-1.06-.5-1.9-1.6-3.51-1.46.46.58.72.92.99,1.26-.17.15-.33.3-.5.45-2.53-3.91-6.53-3.46-10.65-3.15.71-1.02,1.39-.74,1.97-.79Z"/>
    <path class="cls-11" d="m196.94,118.6c3.46,1.86,7.28,2.35,11.06,3.06-4.23,1.04-7.99-.14-11.48-2.57.14-.16.28-.33.42-.49Z"/>
    <path class="cls-12" d="m20.91,166.78c-.35.51-.66,1.07-1.06,1.54-.56.65-.54,1.96-1.91,1.73.32-1.42-2.36-1.98-.97-3.85.99-1.33,2.01.48,2.85-.34,0,0-.07-.02-.07-.02.2-.36.5-.51.9-.43.09.46.17.92.26,1.37Z"/>
    <path class="cls-12" d="m13.64,155.84c-.11,2.03-1.91.87-2.66,1.67-.46.48-1.24-.23-1-.64.77-1.31.05-3.81,2.32-3.87,2.13-.06-.25,2.45,1.35,2.83Z"/>
    <path class="cls-4" d="m71.64,188.88c-.46.63-.83,1.21.47,1.03.2.16.39.33.59.49-2.19-.01-3.29,1.87-4.92,2.84.06-.32.13-.63.19-.95.07-.19.14-.37.22-.56-.21.02-.43.04-.64.05-.81.17-1.62.33-2.43.5-.01-.21-.02-.42-.03-.63,2.38-.44,4.12-2.02,6.01-3.34.18.19.36.38.55.56Z"/>
    <path class="cls-12" d="m31.85,152.79c.39.1.86.04,1.02.56.11,1.35.21,2.7.34,4.04.07.81,1.22,1.77.29,2.32-.92.55-2.22.39-3.65-.54,1.22-.21,1.99-.35,3.11-.55-2.81-1.63-.83-3.89-1.12-5.85Z"/>
    <path class="cls-8" d="m208.09,87.51c2.31-1.49,4.78-2.48,7.6-2.38.91.08,1.95-.62,2.69.47l.16.16c-.6.88-1.6-.17-2.24.46-1.24-.3-2.54-.8-3.31.81-1.58.65-3.13,1.57-4.92.63l.03-.15Z"/>
    <path class="cls-4" d="m35.02,176.26c.52,1.1,1.1,2.15,2.24,2.75-.87.91-2.65-1.04-3.09.87-.49,2.1-.96,4.28.3,6.33-.17.1-.33.2-.5.3-.19-.08-.39-.16-.58-.24-.91-.81-.09-2.17-.96-2.99h-.01c-.04-1.3,1.13-2.34.8-3.7.01-.19.02-.39.03-.58.83-.76,2.34-1.08,1.76-2.74Z"/>
    <path class="cls-2" d="m35.61,170.32c-.18.33-.35.67-.53,1-.94-.17-1.88-.36-2.81.02,0,0,.06.05.06.05-.67-1.09-1.89-1.35-2.8-.94-1.12.52-1.75,0-2.53-.44,1.17.74,1.52-1.15,2.54-.8.94.32,1.87.63,2.88.56.19-.03.39-.05.58-.08.78.56,1.61.93,2.6.62Z"/>
    <path class="cls-4" d="m84.84,193.64c1.46,1.95,2.17,4.11,1.65,6.53-.16.74.21,1.19.47,1.73-.13.13-.27.27-.4.4-1.31.1-.87,1.67-1.77,2.12-.03-.28-.06-.56-.09-.85,1.22-3.19,1.63-6.34-.39-9.39.17-.18.34-.36.52-.55Z"/>
    <path class="cls-7" d="m44.35,192.36c.79-.64.47-2.32,1.89-2.26.6.03,1.44.58,1.71,1.13.61,1.23-.88,1.97-1.03,3.07-.13,0-.26,0-.39.02h-.01c-.03-.71-.06-1.41-.09-2.1-.15,0-.3.02-.45.03v2.07h-.01c-.76,0-1.29-.38-1.65-1.03.01-.31.02-.62.03-.92Z"/>
    <path class="cls-12" d="m201.28,85.13c.45,1.29-1.32.64-1.34,1.53-.21.05-.42.09-.64.14,0,0,.04.06.04.06-1.59-1.59-3.94-.15-6.31-1.6,2.79-.07,4.93-.06,6.95-.77,0,0-.08.01-.08.01.22.73.76.76,1.38.63Z"/>
    <path class="cls-1" d="m71.64,188.88c-.18-.19-.36-.38-.55-.56.52-2.7,1.38-5.45-.94-7.81.14-.15.29-.29.43-.44,2.74,2.65,2.77,5.63,1.05,8.81Z"/>
    <path class="cls-4" d="m212.68,133.15c.62-.38.27-1.68,1.45-1.53-.72,2.65-1.71,5.26-1.64,8.16-.07-1.21-.13-2.42-.21-3.63-.04-.58.15-1.37-.92-1.09,0,0-.02.06-.02.06,1.82.28.64-1.49,1.34-1.97Z"/>
    <path class="cls-12" d="m29.11,152.1c.61.86,1.36,1.79.55,2.81-1.08,1.36-2.58,1.41-4.25.91.43-1.14,1.35-.7,2.05-.81,1.95-.29.31-1,.18-1.54.74-.19,1.26-.61,1.47-1.37Z"/>
    <path class="cls-2" d="m192.24,116.23c-1.08-2.1-3.04-3.99-1.66-6.68-.08,2.31,1,4.17,2.26,5.97-.16.27.3,1.07-.6.71Z"/>
    <path class="cls-2" d="m205.92,170.36c.38.17.77.35,1.15.52-3,1.42-5.23-.1-7.86-2.06,2.79-.43,4.33,2.42,6.71,1.54Z"/>
    <path class="cls-9" d="m46.99,120.63c2.43,1.89.21,3.51-.29,5.23-.85-.67-.75-1.48-.51-2.42.2-.76,1.31-2-.7-2.13-.03,0-.02-.68.49-.69.34,0,.67,0,1.01,0Z"/>
    <path class="cls-4" d="m27.55,177.52c-1.88,2.66-1.04,5.01.86,7.22-.19.13-.38.27-.58.4-3.01-3.76-3.06-4.38-.74-8.16.15.18.31.36.46.54Z"/>
    <path class="cls-2" d="m185.91,84.92c-.55-4.04.18-4.76,4.31-3.71-1.26.08-2.14.03-2.97.2-1.41.28,1.47,1.24-.17,1.45-1.47.19-.3,1.66-1.17,2.06Z"/>
    <path class="cls-8" d="m35.3,188.85c-1.25-.52-2.85,2.34-3.93-.56.58-.86,2.98.57,2.49-1.74,0,0,.11-.04.11-.04.17-.1.33-.2.5-.3.95.48,1.11,1.34,1.07,2.29.03.19-.06.31-.25.35Z"/>
    <path class="cls-4" d="m67.9,172.92c1.4.62,1.69,1.71,1.41,3.11-.19.96-.26,1.95-.38,2.93-.07.15-.09.3-.05.46-.71-.14-.78,1.22-1.65.7.46-2.21,2.36-4.39.19-6.67.16-.18.33-.35.49-.53Z"/>
    <path class="cls-11" d="m211.52,187.37c-.77,1.34-1.89,2.51-1.94,4.19-.79.77-.08,1.47.1,2.2-.8.13-1.14-.18-1.17-1.01-.08-2.3.67-4.25,2.33-5.84.22.16.45.31.67.47Z"/>
    <path class="cls-2" d="m196.13,124.95c-.37.16-.74.31-1.11.47-2.56-.62-4.47-2.29-6.4-3.92.15-.15.3-.3.46-.44,2.18,1.61,4.37,3.2,7.06,3.9Z"/>
    <path class="cls-8" d="m21.44,196.52c-.23.78-1.32,1.29-.7,2.32-1.34,1.05-2.03.7-2.08-.99.37-.27,1.18.07,1.1-.67-.02-.14-1.04-.61-1.66-.12,0,0,.02.01.02.01,0-.57.01-1.14.02-1.71,0,0-.04.03-.04.03.2.1.4.2.59.3.87.42,2.1-.34,2.75.82Z"/>
    <path class="cls-10" d="m29.11,152.1c-.21.76-.73,1.18-1.47,1.37-.77-.37-1.54-.75-2.33-1.14,1.93-1.79,3.2-1.85,3.8-.23Z"/>
    <path class="cls-11" d="m183.25,92.94c.98.75.98,1.41-.14,2.04-1.61.9-3.28.88-5,.42.31-.46,1.14-.48,1.06-1.27,1.35.33,2.64.41,3.7-.72.12-.16.25-.31.37-.47Z"/>
    <path class="cls-1" d="m179.18,94.13c.08.78-.76.81-1.06,1.27-1.25-.29-2.29-.95-3.46-1.78,1.84-1.67,3.09.23,4.52.51Z"/>
    <path class="cls-1" d="m184.33,117.94c-.61-.45-1.22-.91-1.83-1.36,2.07.29,4-.09,5.94-.28.01.23.02.47.03.7-.99.71-2.41-.17-3.31.88l-.84.06Z"/>
    <path class="cls-1" d="m209.77,175.69c.94,2.27.16,4.79.98,7.08-2.09-1.82-1.41-4.25-1.44-6.52.15-.18.3-.37.45-.55Z"/>
    <path class="cls-1" d="m72.69,190.4c-.2-.16-.39-.33-.59-.49,2.03-1.32,4.86-.23,6.7,2.59.02.14-.04.21-.18.22-1.86-1.07-3.34-3.13-5.93-2.32Z"/>
    <path class="cls-11" d="m188.48,117.01c-.01-.23-.02-.47-.03-.7,1.27-.03,2.53-.05,3.8-.08.9.36.44-.44.6-.71.83.68,1.67,1.35,2.5,2.03-.15.14-.3.29-.45.43-2.14-.33-4.28-.65-6.42-.98Z"/>
    <path class="cls-1" d="m178.62,91.09c-1.64.06-3.28.13-4.92.19-.59-.1-.93.13-.96.75-.61-.32-1.35-.47-1.76-1.64,2.7.83,5.08-1.05,7.66-.11,0,.27-.02.54-.02.81Z"/>
    <path class="cls-11" d="m31.86,194.19c-.35-.26-.7-.52-1.04-.79.31-.1.62-.2.94-.3.35.05.49-.13.53-.45,1.03.2,1.14-.68,1.37-1.46.61,1.98-.86,3.78.09,5.59-.13.11-.26.21-.39.32-.75-.34-.43-1.11-.66-1.66.33-.82-.34-.97-.82-1.25Z"/>
    <path class="cls-2" d="m37.95,165.55c-.16.71-.14,1.8-1.23.6,1.03-1.24-.29-2.04-.61-3-.29-.88-.78-1.7-1.29-2.75,1.68.42,1.37,2.37,2.79,2.6-.26.57.14.92.42,1.31-.03.42-.06.83-.09,1.25Z"/>
    <path class="cls-12" d="m209.86,158.24c-.02.17-.06.34-.09.52-2.18.06-4.36.09-6.5.62,2.08-1.19,4.16-2.23,6.6-1.14Z"/>
    <path class="cls-4" d="m78.81,192.5c.84,1.03,1.91.74,2.93.44,1.18-.34,2.29-.51,3.11.7-.17.18-.34.36-.52.55-1.9-1.18-3.74.27-5.62.14-.03-.54-.06-1.07-.08-1.61.14-.01.2-.09.18-.22Z"/>
    <path class="cls-1" d="m208.32,124.7c1.08-.44,2.31-.38,2.83.57.48.89-.53,1.5-1.36,1.89-.27-.95-1.7-1.21-1.47-2.46Z"/>
    <path class="cls-4" d="m196.03,100.73c2.36-1.58,6.05-1.19,7.69.82-2.52-.63-5-1.71-7.69-.82Z"/>
    <path class="cls-1" d="m20.91,166.78c-.09-.46-.17-.91-.26-1.37.73-.35,1.45-.7,2.18-1.05.1.19.2.37.31.56-.63,1.42-1.26,2.83-1.94,4.36-.92-1.03.62-1.62.15-2.43-.03-.06-.12-.12-.18-.13-.08,0-.17.04-.26.06Z"/>
    <path class="cls-1" d="m199.37,122.61v.67c-2.05-.33-3.99-.98-5.8-2.27,1.93.53,3.87,1.07,5.8,1.6Z"/>
    <path class="cls-1" d="m212.96,116.14l.07-2.13c1.16-.89-.14-2.43.82-3.31,1.11,1.5-1.01,3.83,1.34,5.04-.15.7-.7.51-1.16.54-.36-.04-.71-.09-1.07-.13Z"/>
    <path class="cls-12" d="m212.98,87.03c.78-1.61,2.07-1.11,3.31-.81-.92,1-2.09,1.62-3.31,2.18,0-.46,0-.92,0-1.37Z"/>
    <path class="cls-1" d="m36.11,197.47c0-.19.02-.38.03-.57,2.18-.51,4.11-.17,5.62,1.63-.13.13-.27.27-.4.4-1.55-1.21-3.37-1.44-5.26-1.46Z"/>
    <path class="cls-9" d="m26.78,192.73c1.43.3,2.26.48,3.06.65.37,1.13-1.18,1.14-1.11,2.12-.54-.76-1.07-1.52-1.95-2.77Z"/>
    <path class="cls-4" d="m52.54,166.4c0,.2-.01.41-.02.61-1.25-.49-2.5-1.22-3.68.14-.2-.14-.4-.28-.6-.42.85-2.31,3.08-.43,4.36-1.44,0,0-.05.07-.05.07-.65.33-.09.69-.02,1.04Z"/>
    <path class="cls-4" d="m203.68,101.51c1.2-.05,1.6,1.07,2.39,1.63,0,0,.02.01.02.01.14.18.29.35.43.53,0,.15.01.3.04.45-.18.13-.36.27-.55.4-.62-1.13-2.05-1.64-2.33-3.03Z"/>
    <path class="cls-11" d="m178.62,91.09c0-.27.02-.54.02-.81,1.61.4,3.15.92,4.26,2.27-.2.12-.41.24-.61.36-1.22-.61-2.45-1.21-3.67-1.82Z"/>
    <path class="cls-4" d="m39.46,190.84c-1.16-.42-2.58-.13-3.47-1.27.15-.17.29-.33.44-.5,1.58,1.12,3.64.34,5.26,1.32-.13.14-.26.28-.39.42-.44-.04-.89-.09-1.33-.13-.17.05-.34.1-.5.15Z"/>
    <path class="cls-6" d="m216.28,153.65c-.39.41-.18,1.37-1.15,1.27-.15-1.1-2.05-2.89,1.06-2.72l.1.09c-.04.16-.05.31-.01.47,0,.29,0,.58,0,.87Z"/>
    <path class="cls-9" d="m31.86,194.19c.48.28,1.15.44.82,1.25-1.11.12-1.84,1.35-3.1,1.04l.02.02c.42-1.1,1.57-1.48,2.26-2.31Z"/>
    <path class="cls-6" d="m38.04,164.3c-.28-.39-.69-.74-.42-1.31.1-.65.21-1.3.39-2.41.87,1.57,1.57,2.66.04,3.72Z"/>
    <path class="cls-7" d="m209.69,193.76c-.19-.73-.89-1.43-.1-2.2.47.01,1.21-.74,1.32-.12.16.87-.09,1.93-1.22,2.31Z"/>
    <path class="cls-12" d="m214.7,182.42l.49.45c-.09.21-.18.41-.27.62,0,0,.05.08.05.08-.69-.54-1.49-.77-2.36-.79-.05-1.23.99-1.38,1.77-1.78.1.09.2.19.3.28.04.38-.96.78.01,1.15Z"/>
    <path class="cls-1" d="m31.98,169.01c-.07-.05-.16-.1-.21-.16-.53-.66-1.56-.94-1.49-2.02,0-.12.26-.32.38-.31,1.2.14,1.41,1.17,1.77,2.05-.15.15-.3.3-.44.44Z"/>
    <path class="cls-2" d="m186.35,118.87c.91.73,1.82,1.46,2.73,2.19-.15.15-.3.3-.46.44-.93-.73-1.85-1.46-2.78-2.19.17-.15.34-.29.51-.44Z"/>
    <path class="cls-2" d="m30.32,172.82c-.46-1.02-.42-1.04,2.01-1.42,0,0-.06-.05-.06-.05-.06.23-.13.45-.19.68-.59.26-1.18.53-1.76.79Z"/>
    <path class="cls-1" d="m22.5,157.76c.05-.43.1-.86.16-1.29,1.1.25,1.93.9,2.66,1.71-.15.16-.29.31-.44.47-.79-.3-1.59-.59-2.38-.89Z"/>
    <path class="cls-12" d="m16.52,153.34c-.26.02-.56.15-.77.05-.63-.28-1.38-.54-1.27-1.45.02-.19.36-.49.56-.49.74,0,1,.62,1.28,1.16.12.23.11.52.16.78,0,0,.04-.05.04-.05Z"/>
    <path class="cls-1" d="m210.19,116.88c-1.28-.51-2.83-.44-3.77-1.69.07-.06.13-.12.2-.18,1.36.37,2.74.66,3.9,1.54-.11.11-.22.22-.33.33Z"/>
    <path class="cls-8" d="m40.02,193.7c1.58.48,1.05,1.53.76,2.7-1.37-.62-.72-1.72-.88-2.56l.12-.14Z"/>
    <path class="cls-2" d="m205.27,150.18c-1.15-.75-1.7-1.89-1.89-3.3.8.97,1.61,1.93,2.41,2.9-.18.14-.35.27-.53.41Z"/>
    <path class="cls-6" d="m216.03,138.02c-.31-.75-.83-1.51-.42-2.5,1.06.73.62,1.63.42,2.5Z"/>
    <path class="cls-4" d="m46.91,169.07c.44-.78.89-1.56,1.33-2.34.2.14.4.28.6.42-.47.81-.93,1.62-1.4,2.43-.18-.17-.35-.34-.53-.51Z"/>
    <path class="cls-1" d="m198.35,141.85c-.21.18-.42.37-.63.55-.68-.33-1.54-.42-1.87-1.47,1.07-.22,1.73.52,2.5.92Z"/>
    <path class="cls-4" d="m34.77,169c-.49-.62-.98-1.24-1.47-1.86.14-.16.28-.32.42-.48l1.44,1.89c-.13.15-.26.3-.39.45Z"/>
    <path class="cls-7" d="m215.13,185.44c.46-.35.93-.69,1.45-1.09.36,1.15-.94,1.47-.9,2.34,0,0,.07-.03.07-.03-.19,0-.39,0-.58,0-.01-.41-.03-.82-.04-1.23Z"/>
    <path class="cls-4" d="m31.3,174.67c-.84.49-1.68.99-2.52,1.48-.12-.16-.24-.33-.36-.49.74-.9,1.7-1.43,2.84-1.64.01.22.03.43.04.65Z"/>
    <path class="cls-2" d="m211.11,149.72c.82.58,1.65,1.16,2.47,1.74-1.26.12-2.15-.41-2.84-1.3.12-.15.24-.29.36-.44Z"/>
    <path class="cls-1" d="m209.06,129.09c-.42.51-.83,1.02-1.43,1.75-.33-1.25.37-1.65.9-2.14.18.13.36.26.53.38Z"/>
    <path class="cls-6" d="m31.3,174.67c-.01-.22-.03-.43-.04-.65-.07-.59-.42-.96-.93-1.21.59-.26,1.17-.53,1.76-.79.33,1.06-.06,1.9-.78,2.65Z"/>
    <path class="cls-1" d="m18.14,195.37c0,.57-.01,1.14-.02,1.71-.94-.58-1.27-1.15.02-1.71Z"/>
    <path class="cls-4" d="m41.58,191.11c-.11-.08-.21-.18-.28-.3.13-.14.26-.28.38-.42.83.17,1.63.41,2.1,1.2,0,0,.04-.04.04-.04-.37.04-.75.09-1.12.13-.37-.19-.75-.39-1.12-.58Z"/>
    <path class="cls-7" d="m42.7,191.69c.37-.04.75-.09,1.12-.13-.02.22-.05.44-.07.66-.19.34-.37.67-.56,1.01-.19-.14-.38-.28-.57-.42.02-.37.05-.75.07-1.12Z"/>
    <path class="cls-11" d="m195.35,117.55c.53.35,1.06.7,1.59,1.05-.14.16-.28.33-.42.49-.73-.09-1.26-.48-1.62-1.11.15-.14.3-.29.45-.43Z"/>
    <path class="cls-8" d="m42.7,191.69c-.02.37-.05.75-.07,1.12-.96-.19-1.09-.89-1.05-1.7.37.19.75.39,1.12.58Z"/>
    <path class="cls-1" d="m68.87,179.43c-.03-.16-.01-.31.05-.46.77.04,1.28.46,1.66,1.1-.14.15-.29.29-.43.44-.43-.36-.85-.72-1.28-1.08Z"/>
    <path class="cls-7" d="m172.74,92.04c.03-.62.37-.85.96-.75-.08.56-.17,1.11-.96.75Z"/>
    <path class="cls-6" d="m34.99,171.93c-.05.37-.11.73-.16,1.1-.35-.07-.75-.21-.62-.61.07-.22.51-.33.78-.49Z"/>
    <path class="cls-1" d="m18.11,197.06c.61-.49,1.64-.02,1.66.12.08.73-.73.39-1.1.67-.38-.13-.69-.3-.56-.79Z"/>
    <path class="cls-6" d="m202.93,145.58c-.06.15-.09.37-.2.41-.1.04-.36-.07-.4-.17-.04-.1.07-.36.17-.4.1-.04.28.1.43.16Z"/>
    <path class="cls-4" d="m28.72,186.48l-.89-1.33c.19-.13.38-.27.58-.4.25.42.5.84.76,1.27l-.45.47Z"/>
    <path class="cls-6" d="m216.85,131.43c-.05-.5.13-.91.5-1.24-.23.39.66,1.23-.5,1.24Z"/>
    <path class="cls-2" d="m184.33,117.94l.84-.06c.39.33.79.66,1.18.99-.17.15-.34.29-.51.44-.5-.46-1-.91-1.51-1.37Z"/>
    <path class="cls-7" d="m214.04,188.51c-.01.36-.1.68-.55.65-.1,0-.28-.22-.27-.33.03-.43.38-.48.73-.49l.14.03-.05.13Z"/>
    <path class="cls-9" d="m28.53,191.54c.63-.18.9-.13.81.19-.04.16-.35.3-.57.35-.12.03-.29-.12-.44-.18.12-.22.24-.44.19-.36Z"/>
    <path class="cls-1" d="m19.75,165.84s.07.02.07.02c-.77-.31-.78-.65-.04-1.02.15.11.31.12.47.03.83.85.07.86-.51.96Z"/>
    <path class="cls-8" d="m43.19,193.23c.19-.34.37-.67.56-1.01.2.05.4.1.6.14-.01.31-.02.62-.03.92-.37-.02-.75-.04-1.12-.06Z"/>
    <path class="cls-6" d="m33.26,179c-.01.19-.02.39-.03.58-.34-.05-.81-.15-.74-.53.12-.6.5-.1.77-.05Z"/>
    <path class="cls-6" d="m32.44,183.28c-.26.4-.58.68-1.09.55-.06-.02-.1-.14-.15-.21.41-.11.82-.23,1.23-.34,0,0,.01,0,.01,0Z"/>
    <path class="cls-4" d="m29.17,186.01c.43.28,1.16.81.93,1.05-.65.67-.97-.21-1.38-.58.15-.16.3-.31.45-.47Z"/>
    <path class="cls-7" d="m216.79,186.6c.18-.1.35-.2.53-.29.1.6.12,1.17-.46,1.57-.02-.43-.05-.85-.07-1.28Z"/>
    <path class="cls-7" d="m214.02,191.92c-.11.07-.22.14-.32.21-.02-.17-.06-.34-.05-.5,0-.06.12-.12.19-.17.06.16.12.31.18.47Z"/>
    <path class="cls-1" d="m195.72,139.39c-.16.36.07.9-.48,1.06-.12.03-.39-.09-.43-.2-.26-.63.12-.93.65-1.13.08.09.17.18.25.27Z"/>
    <path class="cls-6" d="m213.5,141.96c-.13-.21-.26-.41-.37-.63,0-.02.12-.1.19-.16.09.23.19.46.28.69l-.09.09Z"/>
    <path class="cls-6" d="m207.68,145.4c-.02.06-.04.13-.07.19-.07-.03-.16-.04-.21-.08-.02-.02.04-.12.06-.18l.21.08Z"/>
    <path class="cls-2" d="m209.16,148.48c-.34-.23-.84-.59-.42-.92.45-.37.55.39.85.6-.16.08-.3.19-.43.32Z"/>
    <path class="cls-4" d="m46.19,196.24c-.39-.36-.27-.79-.15-1.22,0,0,.21.04.21.04l.21-.04.15.82c-.14.14-.28.27-.42.41Z"/>
    <path class="cls-1" d="m18.69,195.7c-.2-.1-.4-.2-.59-.3-.01-.52.35-.61.68-.45.54.26.15.52-.09.75Z"/>
    <path class="cls-8" d="m39.9,193.84l-.72-.31c.06-.07.15-.21.17-.2.23.11.45.24.67.37,0,0-.12.14-.12.14Z"/>
    <path class="cls-4" d="m211.36,114.61c.03.12.04.25.01.38-.62.4-.62-.3-.89-.51.16-.18.32-.36.47-.54.13.22.27.45.4.67Z"/>
    <path class="cls-2" d="m205.8,149.78c.25.25.5.51.75.76-.12.19-.24.37-.36.56-.31-.3-.61-.61-.92-.91.18-.14.35-.27.53-.41Z"/>
    <path class="cls-9" d="m31.62,192.83c-.23-.17-.47-.33-.7-.5.4-.41.71-.2.99.15-.09.13-.18.24-.29.35Z"/>
    <path class="cls-2" d="m208.15,151.7c-.31.04-.63.07-.94.11-.19-.11-.37-.23-.56-.34.17-.15.35-.3.52-.45.33.23.66.45.98.68Z"/>
    <path class="cls-7" d="m185.35,103.55c.06,0,.14,0,.16.02.04.05.03.13.05.19-.09,0-.19-.02-.28-.03.02-.06.05-.12.07-.19Z"/>
    <path class="cls-6" d="m216.19,152.21c.1-.21.2-.43.3-.64.11.19.22.39.33.58-.17.07-.34.12-.52.16l-.1-.09Z"/>
    <path class="cls-2" d="m216.29,152.31c.18-.04.35-.09.52-.16.22.21.43.41.65.62-.24.03-.48.05-.73.08-.15,0-.31-.02-.45-.07-.03-.16-.03-.32.01-.47Z"/>
    <path class="cls-6" d="m37.25,155.18c.35,0,.71,0,1.06,0-.35.43-.7.43-1.06,0Z"/>
    <path class="cls-7" d="m183.67,103.34c0,.06,0,.15-.02.17-.05.04-.13.04-.2.05,0-.1.02-.2.03-.29.06.02.13.05.19.07Z"/>
    <path class="cls-1" d="m33,169.71c-.19.03-.39.05-.58.08-.15-.26-.3-.51-.45-.77.15-.15.3-.29.44-.44.5.22.55.67.58,1.14Z"/>
    <polygon class="cls-1" points="211.08 183.03 211.22 183.17 211.41 183.11 211.25 183.02 211.08 183.03"/>
    <path class="cls-4" d="m28.35,176.58c-.27.32-.53.63-.8.95-.15-.18-.31-.36-.46-.54.25-.27.5-.53.76-.8.17.13.34.26.51.39Z"/>
    <path class="cls-4" d="m28.77,176.15c-.14.14-.28.28-.42.42-.17-.13-.34-.26-.51-.39.19-.18.38-.35.56-.53.12.16.24.33.36.49Z"/>
    <path class="cls-4" d="m58.42,169.51c.12.13.25.26.37.39-.15.19-.3.39-.46.58-.17-.2-.33-.4-.5-.6.19-.13.39-.25.58-.38Z"/>
    <path class="cls-4" d="m35.21,169.49c-.14-.16-.29-.32-.43-.49.13-.15.26-.3.39-.45.17.18.35.36.52.53-.16.13-.32.27-.48.4Z"/>
    <path class="cls-4" d="m33.3,167.14c-.18-.19-.35-.38-.53-.57.17-.15.33-.3.5-.45.15.18.31.36.46.55-.14.16-.28.32-.42.48Z"/>
    <path class="cls-6" d="m33.98,186.51s-.11.04-.11.04c-.16-.09-.31-.19-.47-.28.19.08.39.16.58.24Z"/>
    <path class="cls-11" d="m215.17,186.66c.19,0,.39,0,.58,0,.49.49-.06.64-.3.89-.12-.14-.24-.28-.36-.42,0-.16.04-.32.08-.47Z"/>
    <path class="cls-1" d="m22.83,164.36c.21-.05.56-.21.61-.14.26.35,0,.55-.3.7-.1-.19-.2-.37-.31-.56Z"/>
    <path class="cls-11" d="m214.56,187.7c.18-.19.35-.37.53-.56.12.14.24.28.36.42-.2.14-.4.28-.6.43-.1-.09-.19-.19-.29-.28Z"/>
    <path class="cls-11" d="m213.95,188.34c.2-.21.41-.43.61-.64.1.09.19.19.29.28-.27.18-.54.35-.81.53,0,0,.05-.13.05-.13l-.14-.03Z"/>
    <path class="cls-4" d="m35.99,189.57c-.23-.24-.46-.48-.69-.72.19-.04.27-.16.25-.35.29.19.59.38.88.57-.15.17-.29.33-.44.5Z"/>
    <path class="cls-1" d="m22.69,156.5c-.16-.02-.32-.04-.47-.05.1-.12.2-.23.3-.35.17.09.22.22.18.4Z"/>
    <path class="cls-11" d="m216.49,190.17c-.17.22-.33.44-.5.66-.12-.14-.24-.28-.36-.42.17-.19.34-.39.52-.58.11.11.23.23.34.34Z"/>
    <path class="cls-8" d="m39.46,190.84c.17-.05.34-.1.5-.15-.17.05-.34.1-.5.15Z"/>
    <path class="cls-11" d="m215.99,190.83c-.27.18-.54.49-.81.04-.03-.05.29-.3.45-.46.12.14.24.28.36.42Z"/>
    <path class="cls-2" d="m206.55,150.54c.2.16.41.32.61.48-.17.15-.35.3-.52.45-.15-.12-.3-.25-.45-.37.12-.19.24-.37.36-.56Z"/>
    <path class="cls-9" d="m32.28,192.65c-.03.32-.17.51-.53.45-.02-.1-.06-.2-.13-.28.11-.11.21-.22.29-.35.14,0,.26.07.36.17Z"/>
    <path class="cls-2" d="m210.56,149.17c.18.18.37.37.55.55-.12.15-.24.29-.36.44-.19-.18-.37-.36-.56-.54.12-.15.25-.3.37-.45Z"/>
    <path class="cls-2" d="m210.19,149.62c-.18-.19-.36-.37-.54-.56.12-.15.24-.3.36-.45.18.18.37.37.55.55-.12.15-.24.3-.37.45Z"/>
    <path class="cls-7" d="m46.46,195.01l-.21.04s-.21-.04-.21-.04c-.03-.23-.05-.46-.08-.69,0,0,.01-.01.01-.01.18,0,.36,0,.54,0,0,0,.01.01.01.01-.02.23-.04.46-.06.69Z"/>
    <path class="cls-2" d="m209.58,148.15c.14.16.28.31.42.47-.12.15-.24.3-.36.45-.17-.2-.33-.39-.5-.59.13-.13.27-.24.43-.32Z"/>
    <path class="cls-7" d="m42.68,195.42c-.07-.05-.14-.09-.21-.14.08.04.16.07.24.11,0,0-.03.03-.03.03Z"/>
    <path class="cls-7" d="m42.71,195.39c.07.05.14.09.21.14-.08-.03-.16-.07-.24-.1,0,0,.03-.03.03-.03Z"/>
    <path class="cls-9" d="m29.59,196.49c-.04.07-.07.14-.11.21.04-.07.08-.13.12-.2,0,0-.02-.02-.02-.02Z"/>
    <path class="cls-6" d="m213.59,141.87c.06.06.13.11.19.17-.1-.02-.19-.05-.28-.07,0,0,.09-.09.09-.09Z"/>
    <path class="cls-1" d="m195.47,139.12c.16-.13.44-.4.47-.37.45.37-.04.45-.22.64-.08-.09-.17-.18-.25-.27Z"/>
    <path class="cls-1" d="m197.05,138.33s-.06.1-.09.15c-.09-.06-.18-.12-.27-.18.06-.05.13-.16.19-.15.06,0,.11.11.17.17Z"/>
    <path class="cls-1" d="m208.53,128.71c.18-.18.36-.37.54-.55.19.11.37.22.56.32-.19.2-.38.41-.57.61-.18-.13-.36-.26-.53-.38Z"/>
    <path class="cls-1" d="m209.67,128.35s-.04.13-.04.13c-.19-.11-.37-.22-.56-.32l.57-.48c0,.22.02.45.03.67Z"/>
    <path class="cls-1" d="m203.17,124.63c.22-.04.44-.08.65-.11-.22.04-.44.08-.65.11Z"/>
    <path class="cls-1" d="m41.76,198.52c.17.19.35.39.52.58-.12.12-.25.24-.37.37-.18-.18-.36-.36-.55-.54.13-.13.26-.27.4-.4Z"/>
    <path class="cls-1" d="m210.52,116.55c.22.21.66.37.2.73-.05.04-.35-.26-.53-.39.11-.11.22-.22.33-.33Z"/>
    <path class="cls-1" d="m206.42,115.19c-.15-.13-.29-.26-.44-.39.05-.06.14-.17.15-.16.17.12.33.25.49.37-.07.06-.14.12-.2.18Z"/>
    <path class="cls-7" d="m187.81,98.76c.2-.09.4-.19.6-.28-.2.09-.4.19-.6.28Z"/>
    <path class="cls-11" d="m182.9,92.55c.17.09.29.22.35.39-.12.16-.25.31-.37.47-.2-.17-.39-.33-.59-.5.2-.12.41-.24.61-.36Z"/>
    <path class="cls-4" d="m217.4,92.8c-.68.28-.88.08-.6-.6.37.03.57.23.6.6Z"/>
    <path class="cls-6" d="m47.45,169.58c.47-.81.93-1.62,1.4-2.43,1.18-1.36,2.43-.63,3.68-.14.53.42,1.06.84,1.59,1.26,1.86,2.12,1.8,4.71,1.61,7.64,3.56-3.49,7.34-4.48,11.68-2.46,2.18,2.29.28,4.46-.19,6.67,0,0,.05-.03.05-.03-.43-.04-.58.21-.6.59l.04-.05c-1.34,1.17-1.74,2.82-2.21,4.43,0,0,.06-.05.06-.05-1.11,0-2.21,0-3.32,0,0,0,.04.03.04.03-1.28-1-2.57-.99-3.86-.03-.68.27-1.35.53-2.07.81-.05-1.07-.1-2.02-.14-2.97.77-1.19,3.23-1.37,2.02-4.1-1.57,2.14-3.5,2.64-5.71,1.34-.42-.79-.8-.32-1.19.03-.39-.21-.89-.68-1.17-.58-3.72,1.4-3.29-1.23-3.12-3.3.18-2.26-.7-4.78,1.4-6.65Z"/>
    <path class="cls-13" d="m46.67,147.42c4.7,3.26,4.13,8.36,5.17,12.81-2.89-3.66-6.11-7.18-5.17-12.81Z"/>
    <path class="cls-8" d="m48.59,123.56c1.86,3.07-.45,5.25-.1,7.57-1.82-2.28-.49-4.51.1-7.57Z"/>
    <path class="cls-13" d="m40.34,134.8c-.17,1.15-.34,2.3-.5,3.41-1.33-1.29-1.33-1.35-.2-4.21.23.27.46.53.7.8Z"/>
    <path class="cls-13" d="m51.14,150.43c-.34-.4-.66-1.09-.23-1.27.63-.27.43.47.46.82.01.14-.15.3-.23.45Z"/>
    <path class="cls-13" d="m44.79,125.01c-.1.08-.28.24-.3.23-.25-.22-.48-.47-.71-.72.13-.07.28-.24.39-.21.34.09.64.27.62.7Z"/>
    <path class="cls-13" d="m36.06,135.59c.2.31.85.53.36.97-.14.13-.72-.22-1.09-.35.24-.21.48-.42.73-.63Z"/>
    <path class="cls-13" d="m66.43,144.96c-.39.19-.78.35-1.2.11.18-.25.37-.5.55-.76.22.22.44.43.66.65Z"/>
    <path class="cls-13" d="m54.47,116.16c-.26.14-.51.29-.77.43-.19-.42-.07-.79.18-1.13.19.23.39.47.58.7Z"/>
    <path class="cls-13" d="m33.7,150.25c.46-.06.96-.54,1.34.1.02.03-.51.39-.79.6-.18-.23-.36-.46-.55-.7Z"/>
    <path class="cls-13" d="m45.2,150.92l.13,1.2c-.26-.15-.52-.3-.78-.46.22-.25.43-.49.65-.74Z"/>
    <path class="cls-13" d="m52.54,166.4c-.07-.35-.64-.7.02-1.04.31-.14.44.03.46.3.02.35-.04.67-.48.74Z"/>
    <path class="cls-13" d="m59.89,127.17c.06.12.14.24.17.37,0,.05-.11.12-.17.18-.06-.12-.14-.24-.17-.37-.01-.04.11-.12.17-.18Z"/>
    <path class="cls-13" d="m52.8,120.43c-.2.05-.41.09-.61.14.07-.21.13-.42.2-.62.14.16.27.32.41.49Z"/>
    <path class="cls-13" d="m78.71,194.33c1.88.13,3.71-1.32,5.62-.14,2.02,3.05,1.61,6.2.39,9.39-.19.37-.38.73-.57,1.1,0,0,.03-.03.03-.03-1.22.86-2.43,1.72-3.65,2.59,2.65-1.39,5.34-1.03,8.04-.34l-.03-.06c.14.95,1.06,1.17,1.63,1.71.25.33.51.66.76.99,1.32,1.96,1.09,3.46-1.18,4.55-.66.32-1.56.57-1.77,1.51,0,0,.02-.02.02-.02-3.27.64-6.54,1.51-9.81,0-.03-1.21.21-2.36.09-3.62-.48-5.03-.32-5.2.94-7.14-1.18-.46-2.14-.34-2.69.85-.39.85-.87,1.34-1.84,1.11-.02-.16-.05-.32-.07-.49-.02.16-.05.32-.07.48-.62-.3-1.8,1.05-1.93-.67,1.4-1.45,1.57-3.15.98-4.99-.55-1.14-.22-2.36-.31-3.55l-.06.07c.62.27.92-.12,1.17-.58l-.07.04c.87.18,1.49-.54,2.27-.65.71-.1,1.06.08.5.8-.03.29-.05.58-.08.88-.07.06-.13.11-.2.17.04.04.08.08.12.12.06-.07.11-.13.17-.2.29-.32.29-.65.04-.99,0-.13.04-.23.16-.28.09.11.17.22.26.33-.08-.15-.16-.29-.24-.44-.46-.98.85-1.17.86-1.94l-.04.03c.39,0,.69-.1.59-.59l-.04.03Zm.05,6.05c.18-.18.36-.36.55-.55.06-.1.12-.19.18-.29-.09.06-.19.12-.28.19-.18.18-.36.36-.55.55-.06.09-.12.19-.18.28.09-.06.19-.12.28-.18Zm-3.36,4.25c-.06.09-.13.19-.19.28.09-.06.19-.13.28-.19.17-.18.35-.36.52-.54.13-.21.25-.41.37-.62,0-.01-.12-.1-.19-.15-.09.23-.18.45-.27.68-.18.18-.35.35-.53.53Zm.08-3.7c.19-.37.38-.74.56-1.11.07-.06.13-.12.2-.17-.04-.04-.08-.08-.13-.13-.06.07-.12.13-.17.2-.19.37-.38.74-.56,1.11-.06.09-.12.19-.18.28.09-.06.18-.12.28-.18Zm5.38-2.84c-.22.09-.44.18-.67.27.05.06.14.19.15.18.2-.11.4-.24.6-.37.03-.09.05-.18.08-.27-.05.06-.11.13-.16.19Zm.66,13.24c2.38.14,4.63-.59,6.94-.98-2.45-.41-4.8.09-7.14.74l-.65.4c.37.43.6.08.85-.16Z"/>
    <path class="cls-8" d="m211.36,114.61c-.13-.22-.27-.45-.4-.67-1.67-4.09-2.96-8.25-2.33-12.76.07-.48-.27-1.12.55-1.28,0,0-.03-.05-.03-.05.11.48.47.58.9.59.56.17,1.13.34,1.69.51-1.46,3.79-.96,7.6-.18,11.42.15.74,1.05,1.59-.18,2.24Z"/>
    <path class="cls-7" d="m207.53,93.87c-.45-.18-.53-.57-.58-.99.01-.35.02-.7.03-1.05.36-1,1.56-.55,2.11-1.21.26-.2.53-.39.79-.59,0,0,.03.01.03.01,1.02,2.41.36,3.77-2.39,3.81Z"/>
    <path class="cls-1" d="m212.48,101.01l-.48-.54c.18-1.24,1.94-2.39,0-3.67.93-.34,1.34.75,2.09.36l-.03-.07c.22,1.61-1.05,2.62-1.58,3.93Z"/>
    <path class="cls-1" d="m214.09,97.15c.22-.52.51-.87,1.13-.52l-.06-.04c-.22.5-.41,1.06-1.11.5,0,0,.03.07.03.07Z"/>
    <path class="cls-11" d="m215.78,113.96l.03.06s-.09,0-.08,0,.05-.06.05-.06Z"/>
    <path class="cls-4" d="m210.03,100.44c-.42,0-.78-.11-.9-.59.66-.35.67.29.9.59Z"/>
    <path class="cls-1" d="m215.22,96.63l-.05-.4c.12.03.23.05.35.08-.12.09-.24.19-.36.28,0,0,.06.04.06.04Z"/>
    <path class="cls-7" d="m218.8,155.76c-.76.43-1.51.86-2.35,1.34.46-3.06.83-3.27,2.98-1.86-.21.17-.42.35-.63.52Z"/>
    <path class="cls-13" d="m216.67,161.44c.48-.56.64-.75.79-.94.12.19.36.39.34.57-.01.2-.23.49-.41.54-.2.06-.47-.1-.73-.18Z"/>
    <path class="cls-13" d="m208.91,170.42c.93-.41.82.1.61.7-.2-.23-.41-.46-.61-.7Z"/>
    <path class="cls-13" d="m216.28,152.78c.15.05.3.07.45.07.07.4-.02.7-.46.8,0-.29,0-.58,0-.87Z"/>
    <path class="cls-8" d="m206.07,103.14c.12-.69.24-1.38.36-2.06,1.13-2.18-.46-3.81-1.15-5.61v-2.9c2.41,3.25,2.47,6.56,2.6,9.83,0,.08-.42.18-.64.27-.38.16-.76.33-1.14.49h-.02Z"/>
    <path class="cls-9" d="m208.09,87.51l-.03.15c-.67.55.04,1.65-1.08,2.13.15-2.67-2.02-2.5-3.74-2.95,0,0-.02,0-.02,0,.62.22.9-.1,1.03-.65,1.57-.42,2.67.55,3.84,1.3Z"/>
    <path class="cls-12" d="m205.28,95.47c.7,1.81,2.28,3.43,1.15,5.61-1.02-1.36-1.82-2.82-2.1-4.52.15.01.31.02.46.04.51-.22.52-.68.55-1.14h-.06Z"/>
    <path class="cls-9" d="m205.55,88.69c.74,1.17.78,2.26-.17,3.2-.4.4-.84.22-1.08-.24-.76-1.43,1.11-1.83,1.25-2.96Z"/>
    <path class="cls-6" d="m209.89,90.05c-.26.2-.53.39-.79.59-.44-.12-.94-.38-.54-.84.41-.48.95-.17,1.33.26Z"/>
    <path class="cls-13" d="m199.31,86.81c.21-.05.42-.09.64-.14.42.19,1.01.08,1.2.68-.66,0-1.42.31-1.84-.53Z"/>
    <path class="cls-8" d="m206.56,104.14c-.03-.15-.04-.3-.04-.45l.74-.07c.09.31.34.79.23.9-.49.48-.54-.41-.93-.38Z"/>
    <path class="cls-7" d="m207.26,103.62l-.74.07c-.14-.18-.29-.36-.43-.53.38-.16.76-.33,1.14-.49,0,.32.02.64.03.95Z"/>
    <path class="cls-8" d="m205.34,95.46c-.03.45-.04.91-.55,1.14.19-.38-.17-1.01.55-1.14Z"/>
    <path class="cls-6" d="m206.98,91.84c-.01.35-.02.7-.03,1.05-.18-.27-.37-.55-.55-.82.19-.08.39-.15.58-.23Z"/>
    <path class="cls-8" d="m213.52,127.75l1.61-3.45c1.05-1.14.22-2.89,1.29-4.04,1.57,1.31,1.33,3.01.81,4.59-.55,1.7-2.04,2.49-3.72,2.88,0,0,.01.01.01.01Z"/>
    <path class="cls-13" d="m211.57,118.77c.19.23.63.41.33.78-.31.38-.55-.05-.81-.18.16-.2.33-.4.49-.6Z"/>
    <path class="cls-12" d="m216.59,178.77c.2-.08.4-.17.6-.25.13.33-.06.47-.33.57-.09-.1-.18-.21-.28-.32Z"/>
    <path class="cls-12" d="m216.87,179.09c-.18.18-.36.36-.55.55-.09-.1-.18-.21-.27-.32.18-.18.36-.36.55-.54.09.1.18.21.27.31Z"/>
    <path class="cls-12" d="m215.5,179.86c.18-.18.37-.36.55-.55.09.1.18.21.27.31-.18.18-.36.36-.55.55-.09-.1-.18-.21-.28-.31Z"/>
    <path class="cls-12" d="m215.78,180.18c-.18.18-.36.36-.55.55-.09-.1-.19-.21-.28-.31.18-.18.37-.37.55-.55.09.1.18.21.27.31Z"/>
    <path class="cls-12" d="m215.23,180.72c-.18.18-.36.36-.54.54-.1-.09-.2-.19-.3-.28.19-.19.38-.38.57-.57.09.1.19.2.28.31Z"/>
    <path class="cls-4" d="m204.26,86.21c-.13.55-.41.87-1.03.65,0-.52-.27-1.2.3-1.45.63-.28.63.39.73.8Z"/>
    <path class="cls-13" d="m201.28,85.13c-.62.13-1.16.1-1.38-.63.9-.76.89.49,1.38.63Z"/>
    <path class="cls-6" d="m36.43,189.07c-.29-.19-.59-.38-.88-.57.04-.95-.12-1.8-1.07-2.29-1.26-2.05-.79-4.23-.3-6.33.45-1.91,2.22.04,3.09-.87,0,0-.06,0-.06,0,.83,1.12,2.11,1.43,3.34,1.82.07.95.76.93,1.45.91,1.41.82.99,3.5,3.38,3.33.01.2.02.39.03.59.15.15.3.31.45.46.1.32.2.63.3.95-.1.12-.55-.03-.27.36.11-.09.23-.19.34-.28l.08-.17h.19c.78.34,1.56.66,2.34.98.75,1.42,1.85-.18,2.71.32.28,1.28-1.15,1.51-1.46,1.38-2.17-.9-5.21.41-6.59-2.54-.29-.63-.76-.72-1.05.08-.31.08-.62.17-.93.25.21.56.69.25,1.05.33.15.9.59,1.59,1.35,2.14.77.56.53,1.17-.13,1.68-.47-.8-1.27-1.03-2.1-1.2-1.62-.98-3.67-.21-5.26-1.32Zm5.65-3.58c-.34.09-.68.18-1.02.27.08.1.2.31.25.29.32-.1.63-.25.95-.39.06-.11.11-.22.17-.33-.11.05-.23.11-.34.16Z"/>
    <path class="cls-10" d="m45.37,185.08c-2.39.17-1.97-2.51-3.38-3.33,1.44-.42.88-1.91,1.49-2.78.63,1.13.77,2.55,1.96,3.35-.02.92-.05,1.84-.07,2.76Zm-1.83-3.27c-.06.05-.15.09-.16.15,0,.06.08.12.12.18.06-.05.15-.09.16-.15,0-.06-.08-.12-.12-.18Z"/>
    <path class="cls-4" d="m40.54,180.83c-1.23-.39-2.51-.7-3.34-1.82,1.46-.04,2.59.55,3.34,1.82Z"/>
    <path class="cls-8" d="m203.84,98.72c-.23.13-.44.32-.65.33-.47.03-.54-.36-.44-.69.05-.17.37-.41.5-.37.17.05.28.33.59.73Z"/>
    <path class="cls-7" d="m62.35,207.91c-1.33.23-2.63.59-3.78,1.31-.67.43-1.24.57-1.76-.18,1.51-.85-.42-1.84.11-2.72,0,0-.03.03-.03.03.28-.38.56-.76.85-1.14.11-1.57,1.09-2.71,1.92-3.93.45-.66.52-1.34-.02-1.95-.55-.62-.82.45-1.32.28-.43-1.37,1.06-2.35.75-3.7l-.03.05c.68.28.63-.17.6-.6l-.05.05c1.64-.6,3.02-1.97,4.96-1.66l-.03-.05c-.54.81-.04,1.28.56,1.71l-.04-.07c-.31.86.04,1.86-.6,2.65-.7.08-1.39.17-1.72,1.39.74-.34,1.27-.58,1.8-.82.72,0,1.43,0,2.15,0,.76.61.54,1.5.65,2.3-.22.9-.44,1.8-.67,2.7l.03-.05c-.63.39-.86,1.05-1.13,1.68l.04-.04c-1.1.92-2.21,1.85-3.31,2.77l.04-.06Zm-.22-7.7c.12-.26.27-.47.32-.71.02-.09-.24-.34-.27-.32-.2.12-.38.28-.57.42.1.12.2.23.51.61Z"/>
    <path class="cls-7" d="m50.44,200.91c-1.44-1.44-2.02-3.35-2.58-5.19-.58-1.91.55-3.27,2.02-4.34.56-.41,1.14-.36,1.76.03,1.23.77.76,1.78-.19,3.12.81-.38,1-.4,1.06-.51.79-1.37,1.86-3.07,3.4-2.58,1.63.53,1.51,2.63,1.52,4.24.01,2.02-.59,3.91-1.38,5.74-.89,0-.52-1.6-1.71-1.31-.12.52-.15,1.08-.37,1.55-.41.85-.56,2.21-1.62,2.26-1.33.07-.58-1.42-1.03-2.08-.23-.35-.59-.62-.89-.93Z"/>
    <path class="cls-6" d="m68.87,179.43c.43.36.85.72,1.28,1.08,2.32,2.36,1.46,5.11.94,7.81-1.89,1.32-3.63,2.9-6.01,3.34-1.1.2-2.22.88-3.29-.11l.02.07c.56-.92-1.39-1.22-.54-2.21l-.02.02c.41.02.63-.14.58-.58l-.03.03c1.11-.09,2.3-.72,1.68-1.75-1.03-1.7.78-1.42,1.09-2.12,0,0-.06.05-.06.05,1.68-1,1.88-2.75,2.21-4.43,0,0-.04.05-.04.05.2.03.41.43.6.05.08-.17,0-.42,0-.64,0,0-.05.03-.05.03.87.52.94-.84,1.65-.7Z"/>
    <path class="cls-7" d="m61.27,189.41c-2.55.76-5,.35-7.43-.56-.56-.21-1-.35-.72-1.06,1.99-.63,4.06-.6,6.77-.6q-2.44-.75-2.47-1.73c1.23-.71,2.61.02,3.87-.42,0,0-.04-.03-.04-.03.73,1.21,1.99,2.35.56,3.88,0,0,.03-.03.03-.03-.21-.03-.34-.38-.65-.07-.31.31.04.44.07.65l.02-.02Z"/>
    <path class="cls-11" d="m57.42,185.45q.02.99,2.47,1.73c-2.71,0-4.78-.03-6.77.6l-1.58.49c-.86-.5-1.96,1.1-2.71-.32,1.48-.32-.04-1.95,1.07-2.43,2.61.46,2.38-1.8,3.06-3.19.83-.19,1.56.12,2.26.5.05.95.09,1.9.14,2.97.71-.28,1.39-.54,2.07-.81-.02.15-.02.3,0,.45Z"/>
    <path class="cls-8" d="m59.08,195.93c-1.96-.63-1.28-2.4-.79-3.21.63-1.04,1.87-2.31,3.53-1.1,0,0-.02-.07-.02-.07.72,2.11-1.74,2.43-2.2,3.89,0,0,.05-.05.05-.05-.41-.01-.69.11-.6.6l.03-.05Z"/>
    <path class="cls-8" d="m42.56,187.78c-.36-.08-.84.22-1.05-.33.31-.08.62-.17.93-.25.04.19.08.39.12.58Z"/>
    <path class="cls-8" d="m46.46,195.01c.02-.23.04-.46.06-.69.13-.01.26-.02.39-.02-.04.52.24,1.11-.3,1.53-.05-.27-.1-.55-.15-.82Z"/>
    <path class="cls-8" d="m52.95,182.34c-.68,1.39-.44,3.65-3.06,3.19-.13-.23-.21-.57-.41-.67-.85-.43-1.87-.65-1.4-2.03.52-1.53,1.66-.99,2.68-.88.21.47-.22,1.08.33,1.47.5-.39.41-.95.44-1.48.57-.21,1.07-.18,1.42.4Z"/>
    <path class="cls-11" d="m51.53,181.94c-.02.53.06,1.08-.44,1.48-.54-.4-.12-1-.33-1.47.25-.44.51-.44.77,0Z"/>
    <path class="cls-11" d="m50.33,180.11c.39-.35.78-.82,1.19-.03-.4.06-.78.57-1.19.03Z"/>
    <path class="cls-11" d="m46.5,186.99s-.19-.01-.19-.01l-.08.17-.07-.08c-.1-.32-.2-.63-.3-.95.06-.19.12-.37.18-.56.16.03.32.03.49.02h0c0,.47-.01.94-.02,1.41Z"/>
    <path class="cls-11" d="m46.52,185.58c.04-.07.09-.14.13-.21-.04.07-.09.14-.13.2h0Z"/>
    <path class="cls-8" d="m46.03,185.57c-.06.19-.12.37-.18.56-.15-.15-.3-.31-.45-.46.21-.03.42-.07.63-.1Z"/>
    <path class="cls-13" d="m212.68,133.15c-.71.48.48,2.25-1.34,1.97.15-.86.11-1.85,1.34-1.97Z"/>
    <path class="cls-13" d="m22.5,157.76c.79.3,1.59.59,2.38.89.71.77,1.73,1.28,2.13,2.75-2.38-.9-4.55-1.72-6.72-2.55.64-.57,2.19.7,2.21-1.1Z"/>
    <path class="cls-13" d="m13.62,167.34c-.06.04-.12.12-.17.11-.05,0-.1-.09-.15-.14.06-.04.12-.12.17-.11.05,0,.1.09.15.14Z"/>
    <path class="cls-13" d="m214.92,183.49c.09-.21.18-.41.27-.62.28.15.98-.28.79.45-.11.42-.58.88-1.06.17Z"/>
    <path class="cls-7" d="m57.84,169.88c.17.2.33.4.5.6.53.45,1.06.91,1.69,1.44-1.22.72-2.34,1.39-3.64,2.16-.1-1.84.2-3.6-.98-5.06,1.29-.93,1.71.37,2.43.86Z"/>
    <path class="cls-13" d="m20.42,154.37c.11.12.34.3.31.35-.16.33-.42.18-.66.07.12-.14.23-.28.35-.42Z"/>
    <path class="cls-7" d="m33.72,166.67c-.15-.18-.31-.36-.46-.55-.27-.34-.53-.68-.99-1.26,1.61-.14,2.44.96,3.51,1.46,1.39.97.31,1.86-.09,2.76-.17-.18-.35-.36-.52-.53l-1.44-1.89Z"/>
    <path class="cls-6" d="m78.63,192.72c.03.54.06,1.07.08,1.61,0,0,.04-.03.04-.03-.51-.12-1.02-.23-.59.59,0,0,.04-.03.04-.03-1.57.25-2.88.96-3.88,2.22,0,0,.07-.04.07-.04-.69-.41-1.06-.18-1.17.58,0,0,.06-.07.06-.07-.97.16-.09,1.54-1.1,1.67-2.47-2.22-2.47,1.31-3.84,1.65.51-1.51.24-2.61-1.54-2.91-.47-1.76,1.09-3.09,1.01-4.76l-.05.03c1.63-.97,2.73-2.85,4.92-2.84,2.6-.81,4.07,1.26,5.93,2.32Z"/>
    <path class="cls-7" d="m67.97,192.29c-.06.32-.13.63-.19.95,0,0,.05-.03.05-.03-1.25.22-1.28,1.39-1.52,2.23-.61,2.17-.81-.86-1.25-.06,0,0,.04.07.04.07.15-.68-.02-1.26-.56-1.71,0,0,.03.05.03.05-.28-.67.06-1.11.56-1.49.81-.17,1.62-.33,2.43-.5.14.17.28.34.43.51Z"/>
    <path class="cls-2" d="m65.11,192.28c-.49.38-.84.82-.56,1.49-1.94-.31-3.32,1.06-4.96,1.66.45-1.45,2.91-1.77,2.2-3.89,1.06.99,2.19.31,3.29.11.01.21.02.42.03.63Z"/>
    <path class="cls-7" d="m67.54,191.78c.21-.02.43-.04.64-.05-.07.19-.14.37-.22.56-.14-.17-.28-.34-.43-.51Z"/>
    <path class="cls-8" d="m46.51,194.31c-.18,0-.36,0-.54,0v-2.07c.15,0,.3-.02.45-.03.03.7.06,1.39.09,2.09Z"/>
    <path class="cls-4" d="m61.8,188.88c1.44-1.53.17-2.66-.56-3.88,1.11,0,2.21,0,3.32,0-.31.7-2.12.42-1.09,2.12.62,1.03-.57,1.66-1.68,1.75Z"/>
    <path class="cls-4" d="m66.72,180.63c-.33,1.68-.53,3.42-2.21,4.43.48-1.61.87-3.25,2.21-4.43Z"/>
    <path class="cls-4" d="m57.42,185.45c-.02-.15-.01-.3,0-.45,1.29-.97,2.58-.97,3.86.03-1.26.45-2.64-.28-3.87.42Z"/>
    <path class="cls-4" d="m67.28,180.09c0,.22.09.47,0,.64-.19.39-.39-.02-.6-.05.01-.38.16-.63.6-.59Z"/>
    <path class="cls-4" d="m74.33,197.08c.99-1.26,2.31-1.96,3.88-2.22,0,.77-1.32.97-.86,1.95,0,.01-.02.1-.02.1-.12.06-.17.15-.16.28,0,0-.05.02-.05.02.55-.72.2-.9-.5-.8-.78.11-1.4.83-2.27.65Z"/>
    <path class="cls-11" d="m72.18,199.22c1.02-.13.14-1.51,1.1-1.67.09,1.18-.23,2.4.31,3.55-.16.15-.32.3-.48.45-.6-.72-1.2-1.45-1.8-2.17.29-.05.57-.1.86-.15Z"/>
    <path class="cls-6" d="m80.95,198.17c-.2.13-.39.26-.6.37-.01,0-.1-.12-.15-.18.22-.09.44-.18.67-.27l.08.08Z"/>
    <path class="cls-11" d="m73.22,197.62c.11-.76.48-1,1.17-.58-.26.46-.55.85-1.17.58Z"/>
    <path class="cls-6" d="m77.33,196.92s.02-.09.02-.1c.08.14.16.28.24.43-.09-.11-.17-.22-.26-.33Z"/>
    <path class="cls-6" d="m77.11,197.22s.05-.02.05-.02c.25.34.25.67-.04.99,0,0-.09-.09-.09-.09.03-.29.05-.58.08-.88Z"/>
    <path class="cls-6" d="m80.87,198.09c.05-.06.11-.13.16-.19-.03.09-.05.18-.08.27,0,0-.08-.08-.08-.08Z"/>
    <path class="cls-6" d="m77.12,198.19c-.06.07-.11.13-.17.2-.04-.04-.08-.08-.12-.12.07-.06.13-.11.2-.17,0,0,.09.09.09.09Z"/>
    <path class="cls-4" d="m78.16,194.89c-.43-.82.07-.71.59-.59.11.5-.19.59-.59.59Z"/>
    <path class="cls-8" d="m42.24,185.66c-.31.14-.62.29-.95.39-.05.01-.16-.19-.25-.29.34-.09.68-.18,1.02-.27,0,0,.17.17.17.17Z"/>
    <path class="cls-8" d="m42.08,185.49c.11-.05.23-.11.34-.16-.06.11-.11.22-.17.33,0,0-.17-.17-.17-.17Z"/>
    <path class="cls-8" d="m46.23,187.15c-.11.09-.23.19-.34.28-.28-.39.17-.25.27-.36,0,0,.08.08.08.08Z"/>
    <path class="cls-7" d="m43.54,181.81c.04.06.13.13.12.18,0,.06-.1.1-.16.15-.04-.06-.13-.13-.12-.18,0-.06.1-.1.16-.15Z"/>
    <path class="cls-4" d="m65.06,195.37c.44-.79.64,2.23,1.25.06.24-.84.27-2.01,1.52-2.23.07,1.67-1.48,3-1.01,4.76-.04.21-.08.42-.12.63-.72,0-1.43,0-2.15,0-.03-.19-.06-.38-.08-.57.63-.79.28-1.79.6-2.65Z"/>
    <path class="cls-1" d="m66.7,198.6c.04-.21.08-.42.12-.63,1.77.3,2.05,1.4,1.54,2.91.24.22.47.43.71.65,0,0-.11.19-.11.19-.01.25-.03.5-.04.75-.36.04-.71.07-1.07.11.1-.63.02-1.21-.49-1.67-.11-.8.11-1.69-.65-2.3Z"/>
    <path class="cls-1" d="m64.46,198.02c.03.19.06.38.08.57-.53.24-1.05.48-1.8.82.32-1.22,1.02-1.31,1.72-1.39Z"/>
    <path class="cls-2" d="m64.53,193.73c.55.45.71,1.03.56,1.71-.61-.43-1.11-.9-.56-1.71Z"/>
    <path class="cls-4" d="m59.05,195.98c-.09-.49.18-.61.6-.6.03.43.09.88-.6.6Z"/>
    <path class="cls-4" d="m61.25,189.43c-.03-.21-.38-.34-.07-.65.31-.31.44.04.65.07.05.44-.17.6-.58.58Z"/>
  </g>
</svg>