<?xml version="1.0" encoding="UTF-8"?>
<!-- Generator: visioncortex VTracer 0.6.2 -->
<svg version="1.1" xmlns="http://www.w3.org/2000/svg" width="1280" height="957">
<path d="M0 0 C422.4 0 844.8 0 1280 0 C1280 315.81 1280 631.62 1280 957 C857.6 957 435.2 957 0 957 C0 641.19 0 325.38 0 0 Z " fill="#FAFCFC" transform="translate(0,0)"/>
<path d="M0 0 C1.33942154 -0.00503792 1.33942154 -0.00503792 2.7059021 -0.01017761 C5.66202174 -0.01968843 8.61808476 -0.02163065 11.57421875 -0.02270508 C13.62540714 -0.02591707 15.6765953 -0.0292811 17.7277832 -0.03279114 C22.02848848 -0.03878238 26.32917366 -0.04063099 30.62988281 -0.04003906 C36.14825138 -0.03993733 41.6664916 -0.0536014 47.18482971 -0.07081127 C51.42094519 -0.08191276 55.65702942 -0.08395886 59.89315796 -0.08342934 C61.9281763 -0.0846118 63.96319539 -0.08904838 65.99819946 -0.0967617 C68.84003787 -0.10652621 71.68159485 -0.10369781 74.5234375 -0.09765625 C75.79059097 -0.10608551 75.79059097 -0.10608551 77.08334351 -0.11468506 C80.99414527 -0.09348851 82.9329232 -0.07393336 86.26171875 2.14526367 C87.45796875 2.26901367 88.65421875 2.39276367 89.88671875 2.52026367 C94.86561257 3.04722689 98.80488862 4.96521154 103.26171875 7.14526367 C104.04417969 7.47139648 104.82664062 7.7975293 105.6328125 8.13354492 C114.63954057 12.09650527 121.0377222 18.91500935 127.8984375 25.78588867 C129.27804289 27.16321373 130.67347528 28.52561505 132.10546875 29.84838867 C136.59245335 34.03906296 139.7728676 38.51380784 142.26171875 44.14526367 C142.26171875 44.80526367 142.26171875 45.46526367 142.26171875 46.14526367 C146.11285813 47.0820273 149.41604661 47.10869231 153.31239408 46.68002015 C158.93888133 46.1311518 164.48865085 46.00828425 170.13841343 46.02665997 C171.18068605 46.02599611 172.22295867 46.02533225 173.29681531 46.02464828 C176.7763108 46.02366925 180.2557552 46.02985927 183.73524475 46.03605652 C186.26041241 46.0368872 188.78558024 46.03728551 191.31074804 46.03728944 C197.51452387 46.03848065 203.71828034 46.04440184 209.92205068 46.05237793 C217.35694362 46.0616893 224.79183653 46.06516383 232.2267341 46.0685971 C250.19204283 46.07721045 268.15733589 46.09628813 286.12263405 46.11702229 C294.6260809 46.12679637 303.12952875 46.13551699 311.63297677 46.14419443 C340.75811367 46.17401207 369.88324605 46.20669237 399.0083704 46.24703503 C400.83537166 46.24955778 402.66237292 46.25207948 404.48937419 46.25460013 C405.84836627 46.25647545 405.84836627 46.25647545 407.23481274 46.25838867 C411.8247547 46.26471926 416.41469668 46.27103637 421.00463867 46.27734375 C421.91551183 46.27859844 422.82638499 46.27985314 423.76486036 46.28114585 C453.29713722 46.32171914 482.82939951 46.34680095 512.36169919 46.36282306 C543.60725828 46.37983694 574.85277042 46.41137278 606.09829801 46.4592064 C609.5304259 46.46440518 612.96255388 46.46954264 616.39468193 46.47463417 C617.23972806 46.47589413 618.08477418 46.47715409 618.95542777 46.47845223 C632.53334466 46.49835115 646.1112371 46.50504861 659.68916708 46.50693167 C673.34462367 46.5091514 687.00000088 46.52612486 700.65542115 46.55791476 C708.75903558 46.57635348 716.86248368 46.58386603 724.9661156 46.57537221 C731.03004817 46.57025301 737.09374132 46.5860877 743.15763729 46.60981301 C745.60107677 46.61617331 748.04454506 46.61589694 750.48798037 46.60809734 C766.88194026 46.56070877 782.12855032 47.30085923 797.26171875 54.14526367 C798.09316406 54.4984668 798.92460938 54.85166992 799.78125 55.21557617 C811.99009815 60.83123034 818.8843829 69.55952359 825.26171875 81.14526367 C825.89400391 82.21067383 825.89400391 82.21067383 826.5390625 83.29760742 C833.56236937 95.83354761 833.87888449 112.29863098 831.26171875 126.14526367 C830.58028921 128.35656677 829.83109574 130.53672449 829.06884766 132.72143555 C827.62791251 137.04859953 826.56704719 141.47582746 825.44921875 145.89526367 C823.48857278 153.53084953 821.45067534 161.13441927 819.26171875 168.70776367 C814.49905741 185.21894009 810.07481058 201.80702833 805.81317139 218.45404053 C802.71505953 230.54189517 799.3873262 242.55801305 795.98730469 254.56420898 C794.34487554 260.40665885 792.80213517 266.27519946 791.26171875 272.14526367 C790.89345864 273.53855351 790.52495631 274.93177934 790.15625 276.32495117 C788.0029768 284.47244742 785.87693817 292.62664306 783.77050781 300.78637695 C780.03028456 315.26579369 776.20650486 329.72019643 772.26171875 344.14526367 C771.99472168 345.12881836 771.72772461 346.11237305 771.45263672 347.12573242 C765.83408224 367.7491324 758.73070519 386.05718994 744.26171875 402.14526367 C743.64941406 402.8284668 743.03710938 403.51166992 742.40625 404.21557617 C721.93464806 425.77841489 696.67708901 436.7853335 667.23242188 437.75073242 C666.22501953 437.78811523 665.21761719 437.82549805 664.1796875 437.86401367 C663.25953857 437.89430664 662.33938965 437.92459961 661.39135742 437.95581055 C659.27891514 437.91417783 659.27891514 437.91417783 658.26171875 439.14526367 C655.96833056 439.2434622 653.67183892 439.26897436 651.37634945 439.2683115 C650.6441298 439.26946534 649.91191015 439.27061919 649.15750203 439.271808 C646.67268248 439.27448163 644.18792609 439.26994642 641.70310974 439.26551819 C639.91620797 439.26595374 638.12930627 439.26682834 636.3424049 439.26810735 C631.40777472 439.27035551 626.47316602 439.26632668 621.53853858 439.26132929 C616.22630475 439.25702954 610.91407223 439.25847088 605.60183716 439.25923157 C596.38993986 439.25975711 587.17804962 439.2566072 577.9661541 439.25099373 C564.64713378 439.24288276 551.32811689 439.24026392 538.00909436 439.23900574 C516.40230121 439.23681458 494.79551182 439.23015278 473.1887207 439.22070312 C452.19392923 439.21153065 431.19913878 439.20444901 410.2043457 439.20019531 C408.26468616 439.19980123 408.26468616 439.19980123 406.28584158 439.19939918 C399.79900936 439.19809419 393.31217714 439.19683047 386.82534492 439.19558728 C332.97080026 439.18521269 279.11625969 439.16759265 225.26171875 439.14526367 C224.06174166 443.18224732 224.69880573 445.85384715 225.69921875 449.95776367 C227.18959835 456.08636497 228.22739377 462.00252924 226.26171875 468.14526367 C226.92171875 468.14526367 227.58171875 468.14526367 228.26171875 468.14526367 C228.20951172 469.07145508 228.20951172 469.07145508 228.15625 470.01635742 C227.81651462 480.64522148 231.22564067 490.16558359 238.1171875 498.34838867 C244.87757866 505.40953224 251.97507269 509.71771764 261.97459722 510.39777136 C263.3326138 510.40906153 264.69074783 510.40966151 266.04878616 510.40139008 C267.18401022 510.40648538 267.18401022 510.40648538 268.34216809 510.41168362 C270.87460987 510.42063742 273.40682058 510.41542408 275.93927002 510.41027832 C277.77458655 510.41384974 279.60990155 510.41830063 281.44521403 510.4235549 C286.48592357 510.43547674 291.52656813 510.43503687 296.5672884 510.43261981 C302.00423066 510.43220046 307.44115051 510.44329702 312.87808228 510.45307922 C322.29776369 510.46853574 331.71743012 510.47694406 341.13712311 510.48078918 C354.75970104 510.48653429 368.38223863 510.50511649 382.00479874 510.52722973 C404.1106144 510.56294997 426.21643245 510.59128939 448.32226562 510.61352539 C448.9836033 510.61419294 449.64494097 510.61486049 450.32631918 510.61554828 C461.06046147 510.6263747 471.79460413 510.63682222 482.52874684 510.64721692 C492.59338349 510.65696658 502.65801999 510.66685208 512.72265625 510.67700195 C513.3842472 510.67766683 514.04583815 510.67833171 514.72747732 510.67901673 C537.42283478 510.70187569 560.11817452 510.73253411 582.81351352 510.7693944 C596.40828571 510.79109414 610.00303098 510.80568966 623.59781954 510.81123316 C632.90429108 510.8154696 642.21073696 510.82667883 651.5171943 510.8434571 C656.892685 510.85289239 662.26812768 510.85896509 667.64362717 510.85639381 C672.5582686 510.85409326 677.47280892 510.86084151 682.3874298 510.87497264 C684.17124261 510.87845257 685.95506584 510.87850502 687.7388784 510.87490004 C690.15204749 510.87049699 692.56487483 510.87822235 694.9780159 510.88913727 C695.6804633 510.88491589 696.3829107 510.88069451 697.10664439 510.87634522 C700.72650099 510.90690956 702.15608344 511.07484013 705.26171875 513.14526367 C707.50992472 513.27448486 707.50992472 513.27448486 709.94921875 513.08276367 C715.06209222 513.00125409 718.72193667 513.83103882 723.26171875 516.14526367 C724.00421875 516.51264648 724.74671875 516.8800293 725.51171875 517.25854492 C731.7079326 520.80671467 734.56124757 525.28195675 737.8515625 531.53588867 C739.1362898 534.21043148 739.1362898 534.21043148 741.26171875 536.14526367 C742.87971753 546.0873759 742.71175682 557.44993885 736.96484375 565.92260742 C736.4028125 566.65608398 735.84078125 567.38956055 735.26171875 568.14526367 C734.7821875 568.88905273 734.30265625 569.6328418 733.80859375 570.39916992 C728.77811625 577.90342619 722.30124664 581.28571278 713.69761658 583.5293411 C706.42888377 584.8323416 699.04713372 584.55185749 691.68554688 584.51948547 C689.8014049 584.52222879 687.91726446 584.5262832 686.03312778 584.53152913 C680.87599584 584.54208415 675.71903802 584.53400772 670.56191373 584.52277863 C664.9928013 584.51391883 659.42371122 584.52238509 653.854599 584.52864075 C642.95499377 584.5381189 632.05545483 584.53153832 621.15585452 584.51937781 C608.46761138 584.50574918 595.77938398 584.5073963 583.09113538 584.50951114 C559.7771585 584.51279561 536.46321906 584.49989604 513.14925431 584.4796661 C491.85974794 584.46127976 470.57027517 584.45548859 449.28076172 584.4609375 C447.91258311 584.46128393 446.54440451 584.46163003 445.1762259 584.46197579 C444.49982605 584.46214679 443.8234262 584.46231778 443.12652939 584.46249396 C439.72171255 584.46334748 436.31689571 584.46417127 432.91207886 584.46496296 C432.24037543 584.46512004 431.56867201 584.46527712 430.87661393 584.46543896 C413.08660942 584.46942595 395.29660785 584.46391252 377.50660515 584.45545167 C374.95801671 584.45424435 372.40942828 584.45303837 369.86083984 584.45183372 C368.60683667 584.45123019 367.3528335 584.45062665 366.06083024 584.45000482 C357.20949694 584.44612004 348.35816967 584.44652138 339.50683594 584.44841957 C328.73131769 584.45053727 317.95583182 584.44534929 307.18032271 584.43080602 C301.67923635 584.4235425 296.17819723 584.4195017 290.67710686 584.42404938 C285.64790179 584.42810601 280.61879455 584.42301713 275.58960438 584.4104233 C273.76418756 584.40747949 271.93876161 584.40795126 270.11334705 584.41206638 C267.64412572 584.41713023 265.17523724 584.41004337 262.70603943 584.39973927 C261.62761171 584.40633399 261.62761171 584.40633399 260.52739757 584.41306195 C256.87474081 584.38376144 255.39140106 584.23171855 252.26171875 582.14526367 C250.45003463 581.94005002 248.63638549 581.74365561 246.81762695 581.61547852 C227.86005108 580.24453997 210.03377328 570.53185168 195.79296875 558.30151367 C193.41454743 556.27545106 190.96755028 554.42954013 188.44921875 552.58276367 C182.58490658 548.06126359 179.02873756 542.42362836 175.26171875 536.14526367 C174.813125 535.74952148 174.36453125 535.3537793 173.90234375 534.94604492 C171.53569077 532.34836153 170.19701157 529.28901806 168.69921875 526.14526367 C167.03058218 522.68753693 165.39778176 519.34935819 163.26171875 516.14526367 C162.69921875 514.09448242 162.69921875 514.09448242 162.26171875 511.83276367 C161.74890339 509.20916366 161.14456208 506.81111644 160.2578125 504.28198242 C159.19051201 500.92103224 158.73339491 497.7696941 158.32421875 494.27026367 C157.80213038 490.30487822 157.31002007 486.75007348 155.69921875 483.08276367 C153.76748377 478.60113851 153.78090073 474.0247007 153.5078125 469.20385742 C153.21510197 465.56588369 152.41181076 462.5955397 151.26171875 459.14526367 C150.4375135 455.41731993 149.9072618 451.67605005 149.38671875 447.89526367 C148.79378077 443.92748317 148.09122038 440.2820632 146.69921875 436.52026367 C145.21836902 432.43871766 144.86721717 428.65811107 144.56640625 424.34448242 C143.98960628 418.28808271 142.78223074 412.3185532 141.66894531 406.34155273 C141.2722427 404.20202234 140.88673663 402.06075211 140.50390625 399.91870117 C139.42331558 393.93820295 138.27686021 388.01979796 136.69921875 382.14526367 C135.25397807 376.66539275 134.54876956 371.20371607 133.99584961 365.57495117 C133.60952769 361.76999884 133.60952769 361.76999884 132.27758789 358.22241211 C131.14307409 355.90267084 130.80475252 353.99867767 130.48046875 351.44213867 C130.36058594 350.54366211 130.24070312 349.64518555 130.1171875 348.71948242 C129.94123047 347.32149414 129.94123047 347.32149414 129.76171875 345.89526367 C129.0339562 340.2091189 128.22218462 334.69664058 126.74365234 329.15600586 C125.81605722 325.28585719 125.36211766 321.33481564 124.82421875 317.39526367 C123.87275996 310.73200063 122.70844361 304.26126473 120.953125 297.75463867 C118.92168195 290.08794966 117.63696245 282.21487031 116.6484375 274.35229492 C115.01496136 261.58511178 115.01496136 261.58511178 111.109375 249.36010742 C109.80668937 245.95631593 109.56402118 242.77289286 109.26171875 239.14526367 C108.83587979 235.17076672 108.18983628 231.77081737 106.69921875 228.08276367 C105.30769414 224.61064217 105.18006256 221.90144847 105.26171875 218.14526367 C104.60905406 216.14065068 103.93967403 214.14146534 103.26171875 212.14526367 C102.69577898 209.3481369 102.2033755 206.54479193 101.7265625 203.73120117 C101.32463084 201.49524522 100.83778536 199.34099583 100.26171875 197.14526367 C97.04617691 184.54966972 97.04617691 184.54966972 97.26171875 179.77026367 C97.26171875 176.1383691 96.45446684 174.34115127 94.99658203 171.11206055 C93.72074529 167.69739583 93.50410536 164.19326304 93.19921875 160.58276367 C92.74044403 155.44539532 91.99497052 151.03991475 90.26171875 146.14526367 C89.68214141 143.63287565 89.14188849 141.11116376 88.63671875 138.58276367 C88.37632812 137.30272461 88.1159375 136.02268555 87.84765625 134.70385742 C87.26171875 131.14526367 87.26171875 131.14526367 87.30078125 128.55541992 C87.25082818 125.47331529 86.25639143 123.05641191 85.26171875 120.14526367 C84.85696538 117.84107944 84.50421344 115.52726114 84.19921875 113.20776367 C83.96525391 111.46172852 83.96525391 111.46172852 83.7265625 109.68041992 C83.40742338 107.25335351 83.08842021 104.82626922 82.76953125 102.39916992 C82.35358 99.12139516 82.35358 99.12139516 81.19921875 96.02026367 C80.26171875 93.14526367 80.26171875 93.14526367 80.32421875 90.77026367 C80.24631624 87.49835816 79.19476131 85.09520114 77.91796875 82.11010742 C77.26171875 80.14526367 77.26171875 80.14526367 77.26171875 76.14526367 C75.77671875 75.65026367 75.77671875 75.65026367 74.26171875 75.14526367 C74.26171875 74.48526367 74.26171875 73.82526367 74.26171875 73.14526367 C70.71316095 72.05524484 67.3891665 71.99525163 63.68896484 71.95581055 C62.71267372 71.94337059 62.71267372 71.94337059 61.71665955 71.93067932 C60.30839798 71.91332923 58.90010836 71.89814882 57.49180222 71.88490295 C55.26452991 71.86381841 53.03739918 71.83680303 50.81021118 71.80822754 C45.2817289 71.73851174 39.75314592 71.67893474 34.22454834 71.61920166 C29.54694105 71.56830007 24.86941185 71.51349925 20.1919136 71.4533844 C17.99493976 71.42678348 15.79795865 71.4059895 13.60092163 71.38537598 C12.25917203 71.36877736 10.91742576 71.35190591 9.57568359 71.3347168 C7.81507095 71.31592468 7.81507095 71.31592468 6.01889038 71.29675293 C3.26171875 71.14526367 3.26171875 71.14526367 1.26171875 70.14526367 C-0.59290699 70.15105034 -2.44750626 70.19925697 -4.30078125 70.27026367 C-13.64470848 70.33740566 -20.98035962 67.75734863 -27.77734375 61.16870117 C-35.51081571 52.98528175 -37.73828125 45.27120719 -37.73828125 34.14526367 C-37.80015625 33.44401367 -37.86203125 32.74276367 -37.92578125 32.02026367 C-37.41492917 24.18719837 -33.84078109 17.02423088 -28.73828125 11.14526367 C-20.25417208 4.0751727 -11.00631289 -0.00590446 0 0 Z " fill="#A0ABB8" transform="translate(241.73828125,67.854736328125)"/>
<path d="M0 0 C1.33942154 -0.00503792 1.33942154 -0.00503792 2.7059021 -0.01017761 C5.66202174 -0.01968843 8.61808476 -0.02163065 11.57421875 -0.02270508 C13.62540714 -0.02591707 15.6765953 -0.0292811 17.7277832 -0.03279114 C22.02848848 -0.03878238 26.32917366 -0.04063099 30.62988281 -0.04003906 C36.14825138 -0.03993733 41.6664916 -0.0536014 47.18482971 -0.07081127 C51.42094519 -0.08191276 55.65702942 -0.08395886 59.89315796 -0.08342934 C61.9281763 -0.0846118 63.96319539 -0.08904838 65.99819946 -0.0967617 C68.84003787 -0.10652621 71.68159485 -0.10369781 74.5234375 -0.09765625 C75.79059097 -0.10608551 75.79059097 -0.10608551 77.08334351 -0.11468506 C80.99414527 -0.09348851 82.9329232 -0.07393336 86.26171875 2.14526367 C87.45796875 2.26901367 88.65421875 2.39276367 89.88671875 2.52026367 C94.86561257 3.04722689 98.80488862 4.96521154 103.26171875 7.14526367 C104.04417969 7.47139648 104.82664062 7.7975293 105.6328125 8.13354492 C115.60170821 12.51985903 122.67304298 20.5565879 130.26171875 28.14526367 C130.89335937 28.74209961 131.525 29.33893555 132.17578125 29.95385742 C137.9326671 35.4347282 140.08577777 40.52947025 142.26171875 48.14526367 C143.22796885 50.16178562 144.22880199 52.16206349 145.26171875 54.14526367 C148.39187432 60.37227529 149.32237521 66.53490296 150.32421875 73.39526367 C150.64167171 75.54731424 150.96559928 77.69842252 151.296875 79.84838867 C151.43488525 80.79359375 151.57289551 81.73879883 151.71508789 82.71264648 C152.16296317 85.38581334 152.16296317 85.38581334 154.26171875 88.14526367 C154.640625 90.19604492 154.640625 90.19604492 154.82421875 92.45776367 C155.31411934 97.76072264 156.19182866 102.92954948 157.26171875 108.14526367 C157.40609375 108.88776367 157.55046875 109.63026367 157.69921875 110.39526367 C158.355289 113.60271823 159.07042492 116.79506885 159.7890625 119.98901367 C160.16442257 121.70140011 160.50115288 123.4222457 160.82421875 125.14526367 C161.07081186 127.13424549 161.07081186 127.13424549 162.26171875 128.14526367 C162.64033368 130.87543227 162.97021691 133.59310182 163.26171875 136.33276367 C163.85919147 145.69455676 163.85919147 145.69455676 167.26171875 154.14526367 C167.60546875 156.49291992 167.60546875 156.49291992 167.76171875 159.20776367 C168.31468372 168.40397652 168.31468372 168.40397652 171.26953125 177.00073242 C172.64189417 179.9669814 172.8392425 182.77704904 173.19921875 186.02026367 C173.95362603 192.35079198 175.13344424 198.48880717 176.5390625 204.71166992 C177.48716215 209.21642448 178.13030676 213.74326646 178.734375 218.30541992 C179.15016395 221.11857253 179.15016395 221.11857253 180.2578125 223.48120117 C181.89971437 227.83831041 182.04739233 232.38390966 182.47265625 236.99487305 C182.86873075 240.87025721 183.52279887 243.70850077 185.26171875 247.14526367 C185.62092353 249.75947627 185.9062196 252.33289583 186.13671875 254.95776367 C186.71713084 260.71269712 187.64772252 266.06801005 189.26171875 271.64526367 C191.07110288 277.90439249 192.00354319 283.95758364 192.578125 290.42456055 C192.94954607 294.38512196 193.7847155 297.48436457 195.26171875 301.14526367 C195.63459659 303.71673976 195.94564962 306.25074726 196.19921875 308.83276367 C196.70497225 313.43014589 197.26977121 317.74439329 198.76171875 322.14526367 C200.45212194 327.14002284 201.00823898 332.21723639 201.52734375 337.43823242 C201.83725345 340.3911456 202.23677103 343.07229158 203.19921875 345.88745117 C204.81008321 350.82664588 205.42779382 355.89210639 206.19921875 361.02026367 C206.54927693 363.27180015 206.90083925 365.5231033 207.25390625 367.77416992 C207.4250293 368.86616699 207.59615234 369.95816406 207.77246094 371.08325195 C209.11632247 379.49378657 210.60610205 387.85355072 212.82421875 396.08276367 C214.3220965 401.76221682 214.98548867 407.43643394 215.52758789 413.27197266 C215.81637072 416.18809966 216.1168468 418.79141165 217.23217773 421.515625 C218.35080683 424.37281115 218.82608737 426.96980486 219.26171875 430.00463867 C219.42671875 431.1209668 219.59171875 432.23729492 219.76171875 433.38745117 C219.92671875 434.5450293 220.09171875 435.70260742 220.26171875 436.89526367 C222.01209534 449.68162378 222.01209534 449.68162378 225.26171875 462.14526367 C225.07793985 463.61000897 224.84417714 465.06892776 224.57421875 466.52026367 C224.02672786 470.29598487 224.02672786 470.29598487 226.01171875 473.52026367 C226.75421875 474.38651367 227.49671875 475.25276367 228.26171875 476.14526367 C228.80449796 477.87659017 229.27643048 479.63079469 229.69921875 481.39526367 C232.39502023 492.07809402 238.29391442 500.71641542 247.82421875 506.52026367 C253.87181956 509.37912951 259.40148296 510.44187698 266.04878616 510.40139008 C267.18401022 510.40648538 267.18401022 510.40648538 268.34216809 510.41168362 C270.87460987 510.42063742 273.40682058 510.41542408 275.93927002 510.41027832 C277.77458655 510.41384974 279.60990155 510.41830063 281.44521403 510.4235549 C286.48592357 510.43547674 291.52656813 510.43503687 296.5672884 510.43261981 C302.00423066 510.43220046 307.44115051 510.44329702 312.87808228 510.45307922 C322.29776369 510.46853574 331.71743012 510.47694406 341.13712311 510.48078918 C354.75970104 510.48653429 368.38223863 510.50511649 382.00479874 510.52722973 C404.1106144 510.56294997 426.21643245 510.59128939 448.32226562 510.61352539 C448.9836033 510.61419294 449.64494097 510.61486049 450.32631918 510.61554828 C461.06046147 510.6263747 471.79460413 510.63682222 482.52874684 510.64721692 C492.59338349 510.65696658 502.65801999 510.66685208 512.72265625 510.67700195 C513.3842472 510.67766683 514.04583815 510.67833171 514.72747732 510.67901673 C537.42283478 510.70187569 560.11817452 510.73253411 582.81351352 510.7693944 C596.40828571 510.79109414 610.00303098 510.80568966 623.59781954 510.81123316 C632.90429108 510.8154696 642.21073696 510.82667883 651.5171943 510.8434571 C656.892685 510.85289239 662.26812768 510.85896509 667.64362717 510.85639381 C672.5582686 510.85409326 677.47280892 510.86084151 682.3874298 510.87497264 C684.17124261 510.87845257 685.95506584 510.87850502 687.7388784 510.87490004 C690.15204749 510.87049699 692.56487483 510.87822235 694.9780159 510.88913727 C695.6804633 510.88491589 696.3829107 510.88069451 697.10664439 510.87634522 C700.72650099 510.90690956 702.15608344 511.07484013 705.26171875 513.14526367 C707.50992472 513.27448486 707.50992472 513.27448486 709.94921875 513.08276367 C715.06209222 513.00125409 718.72193667 513.83103882 723.26171875 516.14526367 C724.00421875 516.51264648 724.74671875 516.8800293 725.51171875 517.25854492 C731.7079326 520.80671467 734.56124757 525.28195675 737.8515625 531.53588867 C739.1362898 534.21043148 739.1362898 534.21043148 741.26171875 536.14526367 C742.87971753 546.0873759 742.71175682 557.44993885 736.96484375 565.92260742 C736.4028125 566.65608398 735.84078125 567.38956055 735.26171875 568.14526367 C734.7821875 568.88905273 734.30265625 569.6328418 733.80859375 570.39916992 C728.77811625 577.90342619 722.30124664 581.28571278 713.69761658 583.5293411 C706.42888377 584.8323416 699.04713372 584.55185749 691.68554688 584.51948547 C689.8014049 584.52222879 687.91726446 584.5262832 686.03312778 584.53152913 C680.87599584 584.54208415 675.71903802 584.53400772 670.56191373 584.52277863 C664.9928013 584.51391883 659.42371122 584.52238509 653.854599 584.52864075 C642.95499377 584.5381189 632.05545483 584.53153832 621.15585452 584.51937781 C608.46761138 584.50574918 595.77938398 584.5073963 583.09113538 584.50951114 C559.7771585 584.51279561 536.46321906 584.49989604 513.14925431 584.4796661 C491.85974794 584.46127976 470.57027517 584.45548859 449.28076172 584.4609375 C447.91258311 584.46128393 446.54440451 584.46163003 445.1762259 584.46197579 C444.49982605 584.46214679 443.8234262 584.46231778 443.12652939 584.46249396 C439.72171255 584.46334748 436.31689571 584.46417127 432.91207886 584.46496296 C432.24037543 584.46512004 431.56867201 584.46527712 430.87661393 584.46543896 C413.08660942 584.46942595 395.29660785 584.46391252 377.50660515 584.45545167 C374.95801671 584.45424435 372.40942828 584.45303837 369.86083984 584.45183372 C368.60683667 584.45123019 367.3528335 584.45062665 366.06083024 584.45000482 C357.20949694 584.44612004 348.35816967 584.44652138 339.50683594 584.44841957 C328.73131769 584.45053727 317.95583182 584.44534929 307.18032271 584.43080602 C301.67923635 584.4235425 296.17819723 584.4195017 290.67710686 584.42404938 C285.64790179 584.42810601 280.61879455 584.42301713 275.58960438 584.4104233 C273.76418756 584.40747949 271.93876161 584.40795126 270.11334705 584.41206638 C267.64412572 584.41713023 265.17523724 584.41004337 262.70603943 584.39973927 C261.62761171 584.40633399 261.62761171 584.40633399 260.52739757 584.41306195 C256.87474081 584.38376144 255.39140106 584.23171855 252.26171875 582.14526367 C250.45003463 581.94005002 248.63638549 581.74365561 246.81762695 581.61547852 C227.86005108 580.24453997 210.03377328 570.53185168 195.79296875 558.30151367 C193.41454743 556.27545106 190.96755028 554.42954013 188.44921875 552.58276367 C182.58490658 548.06126359 179.02873756 542.42362836 175.26171875 536.14526367 C174.813125 535.74952148 174.36453125 535.3537793 173.90234375 534.94604492 C171.53569077 532.34836153 170.19701157 529.28901806 168.69921875 526.14526367 C167.03058218 522.68753693 165.39778176 519.34935819 163.26171875 516.14526367 C162.69921875 514.09448242 162.69921875 514.09448242 162.26171875 511.83276367 C161.74890339 509.20916366 161.14456208 506.81111644 160.2578125 504.28198242 C159.19051201 500.92103224 158.73339491 497.7696941 158.32421875 494.27026367 C157.80213038 490.30487822 157.31002007 486.75007348 155.69921875 483.08276367 C153.76748377 478.60113851 153.78090073 474.0247007 153.5078125 469.20385742 C153.21510197 465.56588369 152.41181076 462.5955397 151.26171875 459.14526367 C150.4375135 455.41731993 149.9072618 451.67605005 149.38671875 447.89526367 C148.79378077 443.92748317 148.09122038 440.2820632 146.69921875 436.52026367 C145.21836902 432.43871766 144.86721717 428.65811107 144.56640625 424.34448242 C143.98960628 418.28808271 142.78223074 412.3185532 141.66894531 406.34155273 C141.2722427 404.20202234 140.88673663 402.06075211 140.50390625 399.91870117 C139.42331558 393.93820295 138.27686021 388.01979796 136.69921875 382.14526367 C135.25397807 376.66539275 134.54876956 371.20371607 133.99584961 365.57495117 C133.60952769 361.76999884 133.60952769 361.76999884 132.27758789 358.22241211 C131.14307409 355.90267084 130.80475252 353.99867767 130.48046875 351.44213867 C130.36058594 350.54366211 130.24070312 349.64518555 130.1171875 348.71948242 C129.94123047 347.32149414 129.94123047 347.32149414 129.76171875 345.89526367 C129.0339562 340.2091189 128.22218462 334.69664058 126.74365234 329.15600586 C125.81605722 325.28585719 125.36211766 321.33481564 124.82421875 317.39526367 C123.87275996 310.73200063 122.70844361 304.26126473 120.953125 297.75463867 C118.92168195 290.08794966 117.63696245 282.21487031 116.6484375 274.35229492 C115.01496136 261.58511178 115.01496136 261.58511178 111.109375 249.36010742 C109.80668937 245.95631593 109.56402118 242.77289286 109.26171875 239.14526367 C108.83587979 235.17076672 108.18983628 231.77081737 106.69921875 228.08276367 C105.30769414 224.61064217 105.18006256 221.90144847 105.26171875 218.14526367 C104.60905406 216.14065068 103.93967403 214.14146534 103.26171875 212.14526367 C102.69577898 209.3481369 102.2033755 206.54479193 101.7265625 203.73120117 C101.32463084 201.49524522 100.83778536 199.34099583 100.26171875 197.14526367 C97.04617691 184.54966972 97.04617691 184.54966972 97.26171875 179.77026367 C97.26171875 176.1383691 96.45446684 174.34115127 94.99658203 171.11206055 C93.72074529 167.69739583 93.50410536 164.19326304 93.19921875 160.58276367 C92.74044403 155.44539532 91.99497052 151.03991475 90.26171875 146.14526367 C89.68214141 143.63287565 89.14188849 141.11116376 88.63671875 138.58276367 C88.37632812 137.30272461 88.1159375 136.02268555 87.84765625 134.70385742 C87.26171875 131.14526367 87.26171875 131.14526367 87.30078125 128.55541992 C87.25082818 125.47331529 86.25639143 123.05641191 85.26171875 120.14526367 C84.85696538 117.84107944 84.50421344 115.52726114 84.19921875 113.20776367 C83.96525391 111.46172852 83.96525391 111.46172852 83.7265625 109.68041992 C83.40742338 107.25335351 83.08842021 104.82626922 82.76953125 102.39916992 C82.35358 99.12139516 82.35358 99.12139516 81.19921875 96.02026367 C80.26171875 93.14526367 80.26171875 93.14526367 80.32421875 90.77026367 C80.24631624 87.49835816 79.19476131 85.09520114 77.91796875 82.11010742 C77.26171875 80.14526367 77.26171875 80.14526367 77.26171875 76.14526367 C75.77671875 75.65026367 75.77671875 75.65026367 74.26171875 75.14526367 C74.26171875 74.48526367 74.26171875 73.82526367 74.26171875 73.14526367 C70.71316095 72.05524484 67.3891665 71.99525163 63.68896484 71.95581055 C62.71267372 71.94337059 62.71267372 71.94337059 61.71665955 71.93067932 C60.30839798 71.91332923 58.90010836 71.89814882 57.49180222 71.88490295 C55.26452991 71.86381841 53.03739918 71.83680303 50.81021118 71.80822754 C45.2817289 71.73851174 39.75314592 71.67893474 34.22454834 71.61920166 C29.54694105 71.56830007 24.86941185 71.51349925 20.1919136 71.4533844 C17.99493976 71.42678348 15.79795865 71.4059895 13.60092163 71.38537598 C12.25917203 71.36877736 10.91742576 71.35190591 9.57568359 71.3347168 C7.81507095 71.31592468 7.81507095 71.31592468 6.01889038 71.29675293 C3.26171875 71.14526367 3.26171875 71.14526367 1.26171875 70.14526367 C-0.59290699 70.15105034 -2.44750626 70.19925697 -4.30078125 70.27026367 C-13.64470848 70.33740566 -20.98035962 67.75734863 -27.77734375 61.16870117 C-35.51081571 52.98528175 -37.73828125 45.27120719 -37.73828125 34.14526367 C-37.80015625 33.44401367 -37.86203125 32.74276367 -37.92578125 32.02026367 C-37.41492917 24.18719837 -33.84078109 17.02423088 -28.73828125 11.14526367 C-20.25417208 4.0751727 -11.00631289 -0.00590446 0 0 Z " fill="#1D2F4F" transform="translate(241.73828125,67.854736328125)"/>
<path d="M0 0 C1.78479437 -0.00570899 3.5695851 -0.01267529 5.35437012 -0.02079773 C10.18305428 -0.038688 15.0115563 -0.03756827 19.84026361 -0.03185534 C23.88074102 -0.02875682 27.92118379 -0.03486347 31.96165627 -0.04089409 C41.4996949 -0.0549248 51.03764394 -0.05339076 60.57568359 -0.04199219 C70.39312324 -0.03051846 80.21028947 -0.04457746 90.02769309 -0.07138866 C98.47641932 -0.09359232 106.92506002 -0.10017236 115.37381333 -0.09431225 C120.41105745 -0.0909519 125.44812644 -0.093296 130.48534584 -0.11056328 C135.22562236 -0.12610434 139.96549612 -0.1219979 144.70575714 -0.10325813 C146.43744776 -0.09959168 148.16916868 -0.10262348 149.90083122 -0.11314392 C162.2243379 -0.18225007 174.2318915 0.25036375 183.6237793 9.34936523 C186.76813235 13.0494317 189.18722429 17.07738618 191.36987305 21.40405273 C191.90999023 22.47268555 192.45010742 23.54131836 193.0065918 24.64233398 C194.79010251 28.91329688 194.90540882 33.00882265 194.86987305 37.59155273 C194.86560303 38.42509277 194.86133301 39.25863281 194.85693359 40.11743164 C194.62909496 48.44360537 192.68783442 56.30682681 186.74487305 62.46655273 C185.96112305 63.10592773 185.17737305 63.74530273 184.36987305 64.40405273 C183.89549805 64.89776367 183.42112305 65.39147461 182.93237305 65.90014648 C172.89900709 75.55726122 156.1172307 74.85089501 143.17529297 74.82397461 C141.48506618 74.83133131 139.79484438 74.83992213 138.10462952 74.84963989 C133.55070605 74.87169608 128.99696437 74.87479462 124.44299483 74.87289238 C120.62388513 74.87277194 116.80481293 74.8813658 112.98571378 74.8896699 C103.96619864 74.90884674 94.94677602 74.9118087 85.92724609 74.9050293 C76.66187816 74.89839257 67.39690871 74.9212513 58.13162154 74.95834303 C50.1404942 74.98915809 42.14949428 75.00038733 34.1583088 74.99650621 C29.40151547 74.99445091 24.64503249 74.99972767 19.88829613 75.0243988 C15.41052904 75.04685983 10.93340467 75.04462962 6.45563316 75.02447128 C4.82559192 75.02109516 3.19550571 75.02600098 1.56552505 75.04045486 C-11.37759167 75.14718258 -25.80431602 73.86301641 -36.02856445 64.98999023 C-36.55708008 64.46663086 -37.0855957 63.94327148 -37.63012695 63.40405273 C-38.17926758 62.88069336 -38.7284082 62.35733398 -39.29418945 61.81811523 C-46.02746141 54.753155 -49.1152901 44.79852245 -48.9699707 35.12670898 C-47.77531421 25.55572538 -43.68254857 16.0593477 -36.63012695 9.40405273 C-25.10801816 0.72903219 -13.84452881 -0.04001592 0 0 Z " fill="#A1ACB9" transform="translate(153.630126953125,456.595947265625)"/>
<path d="M0 0 C1.26948486 0.00950684 2.53896973 0.01901367 3.84692383 0.02880859 C24.304836 0.48153885 38.38618881 8.38484498 52.6875 22.5625 C54.07775391 23.93341797 54.07775391 23.93341797 55.49609375 25.33203125 C64.71449948 34.90657152 70.7581265 47.04929696 70.6875 60.5625 C71.0175 60.8925 71.3475 61.2225 71.6875 61.5625 C71.78707162 63.28414971 71.8183039 65.0098495 71.8203125 66.734375 C71.82160156 67.79140625 71.82289063 68.8484375 71.82421875 69.9375 C71.82035156 71.05125 71.81648437 72.165 71.8125 73.3125 C71.81636719 74.41078125 71.82023438 75.5090625 71.82421875 76.640625 C71.82228516 78.23390625 71.82228516 78.23390625 71.8203125 79.859375 C71.81918457 80.83229492 71.81805664 81.80521484 71.81689453 82.80761719 C71.69053916 85.49779454 71.27516658 87.938889 70.6875 90.5625 C70.501875 91.8 70.501875 91.8 70.3125 93.0625 C69.57944862 95.99470553 68.2765439 97.99558292 66.6875 100.5625 C66.06875 102.1403125 66.06875 102.1403125 65.4375 103.75 C63.32095073 108.85199771 59.96431515 113.1542285 56.6875 117.5625 C55.57375 119.0784375 55.57375 119.0784375 54.4375 120.625 C43.86404001 132.69438359 26.85714008 142.55433983 10.75341797 143.78710938 C-10.10102352 144.59544674 -30.63317353 142.90725804 -46.875 128.25 C-48.0815625 126.9196875 -48.0815625 126.9196875 -49.3125 125.5625 C-50.7881793 124.10063792 -52.26773319 122.6426822 -53.75 121.1875 C-64.16720932 110.70061035 -64.16720932 110.70061035 -64.6875 106.625 C-64.56375 105.944375 -64.44 105.26375 -64.3125 104.5625 C-65.3025 104.2325 -66.2925 103.9025 -67.3125 103.5625 C-68.6640625 100.61328125 -68.6640625 100.61328125 -69.9375 96.875 C-70.36289062 95.65425781 -70.78828125 94.43351563 -71.2265625 93.17578125 C-73.38323396 85.99980607 -73.63305973 78.94535539 -73.9375 71.5 C-73.9890625 70.42427734 -74.040625 69.34855469 -74.09375 68.24023438 C-74.13757813 67.20060547 -74.18140625 66.16097656 -74.2265625 65.08984375 C-74.2877124 63.67819946 -74.2877124 63.67819946 -74.35009766 62.23803711 C-74.22853261 53.58718395 -70.02682613 46.55270771 -65.3125 39.5625 C-65.1990625 38.95921875 -65.085625 38.3559375 -64.96875 37.734375 C-64.01636598 34.58243742 -62.11845395 32.624845 -60 30.125 C-59.22011719 29.19816406 -58.44023438 28.27132812 -57.63671875 27.31640625 C-56.86972656 26.40761719 -56.10273437 25.49882813 -55.3125 24.5625 C-54.68085937 23.72589844 -54.04921875 22.88929688 -53.3984375 22.02734375 C-40.35941891 6.6198143 -19.60777052 -0.23744855 0 0 Z " fill="#1E2F4F" transform="translate(911.3125,702.4375)"/>
<path d="M0 0 C2.11301039 0.02387721 4.22477689 0.02050425 6.33789062 0.01391602 C17.38931789 0.05936995 17.38931789 0.05936995 21.22070312 2.33618164 C22.58716847 2.64722531 23.96362843 2.91663589 25.34570312 3.14868164 C40.82926989 6.55304893 53.61342139 19.49224178 62.22070312 32.33618164 C66.27252462 39.45635434 69.11520702 46.16340686 70.22070312 54.33618164 C70.88070312 55.32618164 71.54070312 56.31618164 72.22070312 57.33618164 C72.47949219 60.33544922 72.47949219 60.33544922 72.48632812 63.98071289 C72.48890625 65.29749023 72.49148438 66.61426758 72.49414062 67.97094727 C72.48995117 68.65713135 72.48576172 69.34331543 72.48144531 70.05029297 C72.47079407 72.1309157 72.48132027 74.21066477 72.49414062 76.29125977 C72.49281797 77.62524603 72.49025339 78.95923175 72.48632812 80.29321289 C72.48407227 81.49953369 72.48181641 82.70585449 72.47949219 83.94873047 C72.21575968 87.40088943 71.44496814 90.11171308 70.22070312 93.33618164 C69.97449219 94.14442383 69.72828125 94.95266602 69.47460938 95.78540039 C69.24644531 96.5240332 69.01828125 97.26266602 68.78320312 98.02368164 C68.44482422 99.14323242 68.44482422 99.14323242 68.09960938 100.28540039 C67.22070312 102.33618164 67.22070312 102.33618164 65.68554688 103.79321289 C64.01006344 105.27693967 64.01006344 105.27693967 63.78710938 107.69165039 C61.29682998 119.31867902 45.37741891 130.58865731 35.85351562 136.90649414 C32.996622 138.45786368 30.44914535 139.18563159 27.28320312 139.89868164 C24.24653268 140.59221799 21.35662189 141.28596347 18.43286133 142.36621094 C15.04834899 143.38822717 12.31783634 143.59451229 8.79101562 143.60180664 C7.58316406 143.60438477 6.3753125 143.60696289 5.13085938 143.60961914 C3.25720703 143.59801758 3.25720703 143.59801758 1.34570312 143.58618164 C0.10433594 143.59391602 -1.13703125 143.60165039 -2.41601562 143.60961914 C-19.1259649 143.57402819 -36.05934229 137.48041475 -48.77929688 126.33618164 C-49.27429688 125.34618164 -49.27429688 125.34618164 -49.77929688 124.33618164 C-51.26429688 123.84118164 -51.26429688 123.84118164 -52.77929688 123.33618164 C-57.86631696 117.50046707 -61.30980188 111.6146932 -63.77929688 104.33618164 C-64.76547105 103.32254438 -65.76444454 102.32110536 -66.77929688 101.33618164 C-67.16858889 99.6816906 -67.48807288 98.01071963 -67.77929688 96.33618164 C-68.2867049 94.85235602 -68.80886728 93.37353331 -69.34179688 91.89868164 C-70.60684906 88.23797509 -70.97422392 85.23472248 -70.77929688 81.33618164 C-71.10929687 81.00618164 -71.43929688 80.67618164 -71.77929688 80.33618164 C-71.87916662 77.49283116 -71.91807569 74.67921001 -71.90429688 71.83618164 C-71.90816406 71.03825195 -71.91203125 70.24032227 -71.91601562 69.41821289 C-71.90590455 63.46278931 -71.90590455 63.46278931 -70.77929688 62.33618164 C-70.24279588 59.86106361 -69.81537574 57.3733698 -69.37695312 54.87915039 C-68.79724205 52.41253659 -67.93248672 50.57472664 -66.77929688 48.33618164 C-66.22113041 46.28181896 -65.78185145 44.22327024 -65.34179688 42.14086914 C-64.77929688 40.33618164 -64.77929688 40.33618164 -62.77929688 38.33618164 C-62.34617187 37.28430664 -61.91304688 36.23243164 -61.46679688 35.14868164 C-58.65508705 28.4256329 -54.50267215 23.77809683 -48.92773438 19.15649414 C-46.74996039 17.35963289 -46.74996039 17.35963289 -44.75585938 15.32836914 C-38.5940014 9.30395038 -31.84915965 6.20678341 -23.77929688 3.33618164 C-23.08288086 3.06475342 -22.38646484 2.7933252 -21.66894531 2.51367188 C-14.52766322 -0.00813995 -7.49308081 -0.0907558 0 0 Z " fill="#1D2F4F" transform="translate(470.779296875,702.663818359375)"/>
<path d="M0 0 C1.58937559 -0.00571053 3.17874708 -0.01267742 4.76811218 -0.02079773 C9.06369502 -0.03866998 13.3590729 -0.03757186 17.65468168 -0.03185534 C21.25038121 -0.02875454 24.84604188 -0.03486592 28.44173586 -0.04089409 C36.92977767 -0.05491855 45.41771878 -0.05339568 53.90576172 -0.04199219 C62.64055505 -0.03051596 71.37504116 -0.04458302 80.10979402 -0.07138866 C87.62942766 -0.09359489 95.14896521 -0.10017189 102.66862929 -0.09431225 C107.15084864 -0.09095287 111.63287117 -0.0932895 116.11506271 -0.11056328 C120.33251914 -0.12610884 124.54952301 -0.12199325 128.76696205 -0.10325813 C130.3071783 -0.09959304 131.84742865 -0.10261947 133.3876133 -0.11314392 C144.31384798 -0.18205616 154.22283546 0.38991966 162.56494141 8.15405273 C171.09039538 17.60353342 174.88429002 27.34932141 174.53759766 40.16186523 C173.29581074 51.74257467 167.09893284 60.61743558 158.31884766 67.93139648 C148.37163987 74.81230902 134.60062561 73.55157554 123.10229492 73.53344727 C121.70981806 73.53480518 120.31734156 73.53658729 118.92486572 73.53875732 C115.17069773 73.54328573 111.41655747 73.54156101 107.66238904 73.53837824 C103.71575682 73.53583027 99.76912683 73.53819898 95.82249451 73.5397644 C89.19619322 73.54157923 82.5699031 73.53919807 75.94360352 73.53442383 C68.30691206 73.52898479 60.67024733 73.53074404 53.03355652 73.53625023 C46.4523434 73.54080365 39.87113827 73.54142096 33.28992409 73.53881156 C29.37005707 73.53726074 25.45020257 73.53702199 21.53033638 73.54034805 C17.84241118 73.5432592 14.15452007 73.54119211 10.46659851 73.5354538 C8.4852147 73.53352348 6.50382796 73.53645252 4.52244568 73.5395813 C-15.94715652 73.4916363 -15.94715652 73.4916363 -24.12255859 69.15405273 C-25.25306641 68.57139648 -26.38357422 67.98874023 -27.54833984 67.38842773 C-36.3732239 62.01951624 -41.6892244 54.85807616 -44.18505859 44.71655273 C-46.03968439 33.60832034 -43.53541169 22.22900597 -37.06005859 12.84155273 C-27.17431776 1.2112694 -14.30867783 -0.04656149 0 0 Z " fill="#A1ACB9" transform="translate(149.81005859375,335.595947265625)"/>
<path d="M0 0 C1.10212326 -0.00525696 2.20424652 -0.01051392 3.33976746 -0.01593018 C6.95297763 -0.02904613 10.56574107 -0.02042351 14.17895508 -0.01025391 C16.70380233 -0.01227661 19.22864901 -0.01518969 21.75349426 -0.01895142 C27.03134663 -0.02336301 32.30908435 -0.01726891 37.58691406 -0.00292969 C43.67417321 0.01341846 49.76113118 0.00808461 55.84838313 -0.0084089 C61.72811759 -0.02369728 67.60773823 -0.02203691 73.48748207 -0.0132637 C75.97971959 -0.01126552 78.47196484 -0.01370753 80.96419334 -0.02070236 C84.44638744 -0.02833401 87.92800502 -0.01668893 91.41015625 0 C92.43526306 -0.00607269 93.46036987 -0.01214539 94.51654053 -0.0184021 C100.33803283 0.03319843 104.31930388 0.74662916 109.51098633 3.38818359 C111.47930734 3.89105787 113.45900286 4.35193466 115.44848633 4.76318359 C125.03583415 7.0852129 131.49425546 11.85248591 136.66333008 20.26318359 C141.20227404 28.75871644 143.98396641 37.58681532 141.55786133 47.14208984 C141.13651289 48.41529492 140.70408148 49.68488252 140.26098633 50.95068359 C139.95354492 51.90104492 139.95354492 51.90104492 139.63989258 52.87060547 C136.69643748 61.53149911 131.74300323 67.80687022 123.56567383 71.84130859 C116.93873416 74.67444742 111.2118372 76.50294331 103.97250366 76.53535461 C102.32003632 76.54608757 102.32003632 76.54608757 100.63418579 76.55703735 C99.43514618 76.55972626 98.23610657 76.56241516 97.00073242 76.56518555 C95.7302002 76.57175674 94.45966797 76.57832794 93.15063477 76.58509827 C88.94524381 76.60607095 84.73985279 76.61649588 80.53442383 76.62646484 C79.08191535 76.63051526 77.62940706 76.63463227 76.17689896 76.63881493 C69.34945762 76.65785353 62.52202698 76.67208603 55.69456422 76.6804269 C47.83644662 76.69018759 39.97861156 76.71648192 32.12059343 76.75692779 C26.03204604 76.78718095 19.94357922 76.80190454 13.85495818 76.80520791 C10.22552843 76.80754835 6.59640098 76.81637607 2.96705246 76.84166908 C-1.08960724 76.86948435 -5.1456433 76.86509074 -9.20239258 76.8581543 C-10.3892868 76.87096436 -11.57618103 76.88377441 -12.79904175 76.89697266 C-26.20789563 76.81373321 -36.46212088 72.03734026 -46.14916992 62.80615234 C-51.2037878 56.70042127 -53.50854183 47.11264102 -53.98901367 39.32568359 C-52.67590321 28.98493871 -49.47061398 18.78857577 -41.55932617 11.64599609 C-35.47368322 7.16535788 -28.69197307 5.35554709 -21.48901367 3.38818359 C-20.78751033 3.1452828 -20.08600698 2.90238201 -19.36324596 2.65212059 C-12.79821968 0.44230487 -6.89400873 -0.04108321 0 0 Z " fill="#A1ACB9" transform="translate(158.489013671875,210.61181640625)"/>
<path d="M0 0 C2.44516851 2.44516851 2.72581522 4.17078307 3.5625 7.5 C4.50680331 11.3524172 4.50680331 11.3524172 6 15 C6.27531559 16.52000153 6.50868561 18.04774064 6.71875 19.578125 C6.84636719 20.49207031 6.97398437 21.40601563 7.10546875 22.34765625 C7.23566406 23.30542969 7.36585938 24.26320313 7.5 25.25 C8.69069245 33.867784 10.04599373 42.3689982 11.875 50.875 C14.42413008 62.87377154 16.79527707 74.87815094 18.47265625 87.03515625 C18.95958862 90.09377731 18.95958862 90.09377731 19.99609375 93.359375 C21.27195312 97.98622687 21.73600748 102.54024172 22.2109375 107.30273438 C22.62044679 111.01302976 23.33662253 113.7059887 25 117 C25.35611469 119.40801361 25.63852232 121.82731027 25.875 124.25 C26.50498826 130.05603586 27.50690571 135.6043438 29 141.25 C30.4486754 146.73412986 31.6432671 152.16675164 32.4921875 157.77734375 C32.89347002 160.32394439 33.33923056 162.84698179 33.8203125 165.37890625 C33.96331787 166.14275635 34.10632324 166.90660645 34.25366211 167.69360352 C34.53735297 169.20177885 34.82698842 170.70885125 35.12329102 172.21459961 C36.30998384 178.62393427 36.30998384 178.62393427 35 182 C32.06332741 179.06332741 32.13301882 175.58370202 31.5625 171.625 C30.57042245 165.15364144 29.34855994 158.88417946 27.55078125 152.578125 C26.92734431 149.65990952 26.97180011 146.97710262 27 144 C26.40138258 141.64828869 25.73075648 139.3140622 25 137 C23.31760431 131.57444281 22.2949181 126.22316895 21.4375 120.625 C21.07217344 115.39389355 21.07217344 115.39389355 19 111 C18.66755699 109.47495988 18.3884361 107.93821745 18.1328125 106.3984375 C17.88724609 104.94824219 17.88724609 104.94824219 17.63671875 103.46875 C17.46785156 102.4478125 17.29898437 101.426875 17.125 100.375 C15.82207949 92.55747693 14.3762182 84.78493237 12.80322266 77.01708984 C11.95214886 72.79113556 11.1478419 68.55689006 10.3515625 64.3203125 C10.21200134 63.57787292 10.07244019 62.83543335 9.9286499 62.07049561 C9.64125091 60.54009086 9.35402173 59.00965422 9.06695557 57.47918701 C6.8056969 45.43402639 4.52023008 33.39434012 2.125 21.375 C1.92213379 20.35164551 1.71926758 19.32829102 1.51025391 18.27392578 C1.32382324 17.34563965 1.13739258 16.41735352 0.9453125 15.4609375 C0.78562988 14.66478027 0.62594727 13.86862305 0.46142578 13.04833984 C-0.00516205 10.81782487 -0.00516205 10.81782487 -1 8 C-1.125 4.375 -1.125 4.375 -1 1 C-0.67 0.67 -0.34 0.34 0 0 Z " fill="#F1B977" transform="translate(351,311)"/>
<path d="M0 0 C3.36827601 3.36827601 3.31151026 7.12641922 3.8515625 11.69140625 C4.79425583 19.18153015 6.27209604 26.4933641 7.9133606 33.86016846 C10.22035748 44.24142567 12.39467159 54.61922276 14.0625 65.125 C15.51374931 74.26464917 17.16684008 83.35489632 18.9375 92.4375 C19.06483521 93.0911554 19.19217041 93.74481079 19.32336426 94.41827393 C21.31916457 104.64461283 23.35651662 114.86301564 25.43920898 125.07202148 C26.25217334 129.08622538 27.03608278 133.05578469 27.51171875 137.125 C27.67285156 138.07375 27.83398438 139.0225 28 140 C28.66 140.33 29.32 140.66 30 141 C29.80535156 141.68320312 29.61070312 142.36640625 29.41015625 143.0703125 C28.90321584 146.69131542 29.56521671 149.33159145 30.4375 152.875 C31.93460995 158.98428275 32.96020236 164.87436764 31 171 C31.66 171 32.32 171 33 171 C32.67 173.31 32.34 175.62 32 178 C29.9375 176.6875 29.9375 176.6875 28 174 C28.03050189 171.24611483 28.37898702 168.6638144 28.8359375 165.94921875 C29.04117262 162.25987305 28.10971831 159.51346801 27 156 C26.49352083 153.71421443 26.01525546 151.42203054 25.5625 149.125 C25.43689697 148.48933105 25.31129395 147.85366211 25.18188477 147.19873047 C24.06004345 141.45495871 23.05426645 135.69179442 22.05712891 129.92529297 C21.43293141 126.34419688 20.76720276 122.78920085 19.9375 119.25 C19.12726738 115.78990823 18.57748538 112.32875262 18.0625 108.8125 C17.20700695 103.03960599 16.06173897 97.37229605 14.78125 91.6796875 C12.6468724 81.62676899 11.10276749 71.47792593 9.58789062 61.31640625 C8.64303925 55.22569103 7.35403455 49.40223436 5.65795898 43.47851562 C4.77287591 40.14442902 4.36435834 36.93104108 4 33.5 C3.45539164 28.96922457 2.75551357 24.7429097 1.4375 20.375 C-0.27097471 14.60781378 -2.79886968 5.59773935 0 0 Z " fill="#BEC9D1" transform="translate(437,365)"/>
<path d="M0 0 C51.84060982 -0.04576413 103.6812176 -0.08101245 155.52184364 -0.10213066 C161.6402135 -0.10463211 167.75858332 -0.10722075 173.87695312 -0.10986328 C175.70406164 -0.11065021 175.70406164 -0.11065021 177.56808144 -0.11145304 C197.29852184 -0.12015888 217.0289506 -0.13592984 236.7593841 -0.15430559 C257.00020412 -0.17299965 277.24101803 -0.18411568 297.48184633 -0.18817699 C309.97444794 -0.19092307 322.46701665 -0.19960066 334.95960814 -0.21583293 C343.52283036 -0.22639371 352.08603554 -0.22960268 360.6492638 -0.22700275 C365.59192781 -0.22572006 370.53453429 -0.22770529 375.47718811 -0.23841095 C380.00253816 -0.24814124 384.52779195 -0.2486363 389.05314642 -0.24179779 C390.68988821 -0.24095254 392.326636 -0.24349146 393.96336597 -0.24976636 C409.04779149 -0.30423236 409.04779149 -0.30423236 416 2 C416 2.66 416 3.32 416 4 C414.1128125 4.061875 414.1128125 4.061875 412.1875 4.125 C411.12595703 4.15980469 411.12595703 4.15980469 410.04296875 4.1953125 C408 4 408 4 405 2 C401.90874848 1.69303728 401.90874848 1.69303728 398.30582142 1.73828697 C397.61856854 1.73429091 396.93131567 1.73029485 396.22323695 1.72617769 C393.90337635 1.7151446 391.58375193 1.71841291 389.26387024 1.7215271 C387.59073416 1.71652757 385.91760051 1.71065279 384.2444703 1.70397437 C379.63359868 1.68811886 375.02278789 1.68474065 370.41189229 1.68332577 C365.44460068 1.67964137 360.47734281 1.66449076 355.5100708 1.65071106 C346.8995378 1.62840412 338.28901675 1.61341152 329.67846107 1.60334396 C317.22894567 1.58877735 304.7794719 1.56324625 292.32998087 1.53501268 C272.13300281 1.48950793 251.93601877 1.45290837 231.73901367 1.421875 C212.11595611 1.39170452 192.49291319 1.35736118 172.86987305 1.31738281 C171.66092801 1.31492126 170.45198297 1.31245972 169.20640323 1.30992357 C163.14166614 1.29754927 157.07692921 1.28509268 151.01219237 1.27259517 C100.67481535 1.16897224 50.33742006 1.07978721 0 1 C0 0.67 0 0.34 0 0 Z " fill="#C6D1D8" transform="translate(539,578)"/>
<path d="M0 0 C0.9618219 -0.00426498 1.9236438 -0.00852997 2.91461182 -0.01292419 C4.48730331 -0.01224442 4.48730331 -0.01224442 6.09176636 -0.0115509 C7.20104492 -0.01490952 8.31032349 -0.01826813 9.45321655 -0.02172852 C13.12294633 -0.03123452 16.7926305 -0.03318118 20.46237183 -0.03425598 C23.007772 -0.03746782 25.55317199 -0.04083183 28.09857178 -0.04434204 C33.43322248 -0.05033173 38.76785612 -0.05222479 44.10250854 -0.05158997 C50.2737451 -0.05098817 56.44489453 -0.06156233 62.61610901 -0.07733363 C68.55134524 -0.09196259 74.48655471 -0.09557872 80.42181015 -0.09498024 C82.94888542 -0.09616408 85.47596126 -0.10060831 88.00302505 -0.10831261 C91.52747199 -0.11805486 95.05169115 -0.11525778 98.57614136 -0.10920715 C100.15490555 -0.11763641 100.15490555 -0.11763641 101.76556396 -0.12623596 C102.72174622 -0.12204147 103.67792847 -0.11784698 104.66308594 -0.11352539 C105.49672228 -0.11407016 106.33035862 -0.11461493 107.18925667 -0.1151762 C109.20455933 0.13371277 109.20455933 0.13371277 111.20455933 2.13371277 C109.57974892 3.75852317 107.7740339 3.27554142 105.52864075 3.29193115 C104.5175676 3.30171997 103.50649445 3.31150879 102.46478271 3.32159424 C101.34628937 3.3273497 100.22779602 3.33310516 99.07540894 3.33903503 C97.90483444 3.34893463 96.73425995 3.35883423 95.5282135 3.36903381 C92.30938004 3.39528331 89.09055208 3.41711979 85.8716743 3.4370358 C82.51105589 3.45885848 79.15048325 3.4862653 75.78990173 3.51309204 C69.42216913 3.56306937 63.05441118 3.60798942 56.68662888 3.6511144 C49.43882952 3.70044381 42.19107608 3.75537782 34.94332111 3.810794 C20.03044329 3.92469137 5.11752224 4.03151344 -9.79544067 4.13371277 C-9.46544067 3.14371277 -9.13544067 2.15371277 -8.79544067 1.13371277 C-5.90070139 0.01846512 -3.07603515 0.00617811 0 0 Z " fill="#C8D3DA" transform="translate(151.79544067382813,210.8662872314453)"/>
<path d="M0 0 C1.84150981 0.1146476 3.68704569 0.16684986 5.53198242 0.18945312 C6.69046188 0.20617065 7.84894135 0.22288818 9.04252625 0.2401123 C10.92993279 0.26047546 10.92993279 0.26047546 12.85546875 0.28125 C14.82687935 0.3093808 16.79828989 0.33751662 18.76969624 0.36594391 C22.2422463 0.41467915 25.71487418 0.45706725 29.1875 0.5 C33.31053901 0.55121117 37.43354112 0.60367193 41.55647278 0.66296387 C44.12517248 0.69948221 46.69393376 0.73194819 49.26274109 0.7598877 C54.9324119 0.84060617 60.41556184 0.98530117 66 2 C66 2.33 66 2.66 66 3 C62.61464033 3.76083506 59.48778763 4.12612468 56.02050781 4.12939453 C55.05469788 4.13254669 54.08888794 4.13569885 53.09381104 4.13894653 C52.05738464 4.1369223 51.02095825 4.13489807 49.953125 4.1328125 C48.8685199 4.13376923 47.78391479 4.13472595 46.66644287 4.13571167 C44.36665794 4.13639192 42.06687108 4.13454842 39.76708984 4.13037109 C36.30431604 4.12508295 32.84167569 4.13028881 29.37890625 4.13671875 C17.21047857 4.1400055 5.13666558 3.86973493 -7 3 C-7.66 3 -8.32 3 -9 3 C-9.33 2.01 -9.66 1.02 -10 0 C-2.25 -1.125 -2.25 -1.125 0 0 Z " fill="#A0ABB9" transform="translate(245,138)"/>
<path d="M0 0 C2 3 2 3 2 5 C2.66 5 3.32 5 4 5 C4.19335938 6.07121094 4.38671875 7.14242188 4.5859375 8.24609375 C4.84850255 9.64331489 5.11154825 11.04044578 5.375 12.4375 C5.50132812 13.14455078 5.62765625 13.85160156 5.7578125 14.58007812 C6.10622243 16.40052 6.547043 18.20271648 7 20 C7.66 20.33 8.32 20.66 9 21 C8.80535156 21.68320312 8.61070312 22.36640625 8.41015625 23.0703125 C7.90321584 26.69131542 8.56521671 29.33159145 9.4375 32.875 C10.93460995 38.98428275 11.96020236 44.87436764 10 51 C10.66 51 11.32 51 12 51 C11.67 53.31 11.34 55.62 11 58 C8.9375 56.6875 8.9375 56.6875 7 54 C7.03050189 51.24611483 7.37898702 48.6638144 7.8359375 45.94921875 C8.04117262 42.25987305 7.10971831 39.51346801 6 36 C4.22372265 27.98350224 2.76902914 19.89270652 1.3125 11.8125 C1.18109619 11.09400879 1.04969238 10.37551758 0.91430664 9.63525391 C0.33139157 6.34289946 0 3.35868196 0 0 Z " fill="#C2CDD5" transform="translate(458,485)"/>
<path d="M0 0 C0.66 0 1.32 0 2 0 C2 1.98 2 3.96 2 6 C1.34 6 0.68 6 0 6 C0.24943359 7.90072266 0.24943359 7.90072266 0.50390625 9.83984375 C1.18878469 15.99171317 1.02004622 22.09305727 0.87304688 28.27148438 C0.80282009 33.91854404 1.38417504 38.58324873 3 44 C3.28101563 44.94488281 3.56203125 45.88976562 3.8515625 46.86328125 C4.37139887 48.50942975 4.89224841 50.1552586 5.4140625 51.80078125 C6 54 6 54 6 57 C5.01 56.67 4.02 56.34 3 56 C1.6484375 53.05078125 1.6484375 53.05078125 0.375 49.3125 C-0.05039062 48.09175781 -0.47578125 46.87101563 -0.9140625 45.61328125 C-3.07073396 38.43730607 -3.32055973 31.38285539 -3.625 23.9375 C-3.6765625 22.86177734 -3.728125 21.78605469 -3.78125 20.67773438 C-3.82507813 19.63810547 -3.86890625 18.59847656 -3.9140625 17.52734375 C-3.9548291 16.58624756 -3.9955957 15.64515137 -4.03759766 14.67553711 C-3.96030145 9.17495866 -2.22459686 4.93280172 0 0 Z " fill="#AF644A" transform="translate(841,750)"/>
<path d="M0 0 C3.21583871 3.21583871 3.21153532 6.52478519 3.6875 10.875 C4.81388912 20.39788271 6.97701866 29.74366129 9.05541992 39.09521484 C9.31943604 40.31547363 9.58345215 41.53573242 9.85546875 42.79296875 C10.09934326 43.8914917 10.34321777 44.99001465 10.59448242 46.12182617 C10.9785668 48.8478772 10.90859359 50.43723046 10 53 C8 52 8 52 7.21875 50.0234375 C5.38297568 43.2590082 4.37109772 36.58728351 3.53515625 29.6328125 C3.0606732 26.41186915 2.37590584 23.48488603 1.4375 20.375 C-0.27097471 14.60781378 -2.79886968 5.59773935 0 0 Z " fill="#B8C4CE" transform="translate(437,365)"/>
<path d="M0 0 C0.66 0.33 1.32 0.66 2 1 C2.57836914 3.17382812 2.57836914 3.17382812 3.03515625 6.03125 C3.20466797 7.07023437 3.37417969 8.10921875 3.54882812 9.1796875 C3.71833984 10.27539062 3.88785156 11.37109375 4.0625 12.5 C4.23587891 13.56476563 4.40925781 14.62953125 4.58789062 15.7265625 C5.56250573 21.80577088 6.37592695 27.87507692 7 34 C5.515 34.495 5.515 34.495 4 35 C-1.43350787 11.16501214 -1.43350787 11.16501214 -1 1 C-0.67 0.67 -0.34 0.34 0 0 Z " fill="#C4CFD7" transform="translate(447,417)"/>
<path d="M0 0 C0.99 0 1.98 0 3 0 C4.06888524 3.47665095 4.11475767 6.67137478 4.09765625 10.296875 C4.09443359 11.50214844 4.09121094 12.70742188 4.08789062 13.94921875 C4.07951172 15.20347656 4.07113281 16.45773437 4.0625 17.75 C4.05798828 19.01972656 4.05347656 20.28945313 4.04882812 21.59765625 C4.03704556 24.73181836 4.02059416 27.86588541 4 31 C3.67 31 3.34 31 3 31 C3 28.69 3 26.38 3 24 C2.34 24 1.68 24 1 24 C1.01740234 22.06833984 1.01740234 22.06833984 1.03515625 20.09765625 C1.0445327 18.41927228 1.05363305 16.74088674 1.0625 15.0625 C1.07087891 14.21236328 1.07925781 13.36222656 1.08789062 12.48632812 C1.09111328 11.67744141 1.09433594 10.86855469 1.09765625 10.03515625 C1.10289307 9.2862915 1.10812988 8.53742676 1.11352539 7.76586914 C1.19341752 5.97332261 1.19341752 5.97332261 0 5 C-0.04063832 3.33382885 -0.042721 1.66611905 0 0 Z " fill="#C1CBD4" transform="translate(981,758)"/>
<path d="M0 0 C0.99 0 1.98 0 3 0 C5.09757561 3.53415051 5.58103729 6.89231699 6.125 10.9375 C6.29257812 12.14277344 6.46015625 13.34804687 6.6328125 14.58984375 C6.93922155 17.43553627 7.07588456 20.14348827 7 23 C6.01 23 5.02 23 4 23 C3.32861379 19.73011701 2.66370737 16.45894951 2 13.1875 C1.80921875 12.25873047 1.6184375 11.32996094 1.421875 10.37304688 C1.24140625 9.48037109 1.0609375 8.58769531 0.875 7.66796875 C0.62363281 6.43469849 0.62363281 6.43469849 0.3671875 5.17651367 C0 3 0 3 0 0 Z " fill="#A25542" transform="translate(329,196)"/>
<path d="M0 0 C0.99 0 1.98 0 3 0 C5.22914492 5.71218387 5.89505784 11.07794424 4 17 C4.66 17 5.32 17 6 17 C5.67 19.31 5.34 21.62 5 24 C2.9375 22.6875 2.9375 22.6875 1 20 C1.03095291 17.20539407 1.39569434 14.53423896 1.76953125 11.765625 C2.08246258 8.01044902 1.27058479 5.51279324 0 2 C0 1.34 0 0.68 0 0 Z " fill="#C2CCD4" transform="translate(464,519)"/>
<path d="M0 0 C2.56959053 2.56494389 5.13306457 5.13480777 7.68359375 7.71875 C12.28839844 12.36927615 16.84086772 16.95635578 22 21 C15.78042759 21 9.30814101 14.19143725 4.9140625 10.01953125 C2.07146283 6.87880528 0.26011476 4.29189346 0 0 Z " fill="#A25542" transform="translate(420,606)"/>
<path d="M0 0 C0.66 0.33 1.32 0.66 2 1 C2.45696047 2.65095395 2.84035407 4.32251632 3.1875 6 C4.77714848 12.26892144 7.81674812 16.19876773 12 21 C13.01062556 22.32529761 14.01400297 23.65627844 15 25 C14.34 25.33 13.68 25.66 13 26 C6.06646778 19.88217746 0.75532138 11.15133845 -1 2 C-0.67 1.34 -0.34 0.68 0 0 Z " fill="#526A97" transform="translate(469,546)"/>
<path d="M0 0 C0.66 0.33 1.32 0.66 2 1 C2.67122529 3.45130294 3.21469716 5.82271559 3.6875 8.3125 C3.82994141 8.98990234 3.97238281 9.66730469 4.11914062 10.36523438 C4.80203071 13.84083912 5.28784016 16.63778643 4 20 C3.34 20 2.68 20 2 20 C1.49161436 17.96040523 0.99366114 15.91820862 0.5 13.875 C0.2215625 12.73804688 -0.056875 11.60109375 -0.34375 10.4296875 C-0.96723691 7.17122613 -1.19621693 4.30625533 -1 1 C-0.67 0.67 -0.34 0.34 0 0 Z " fill="#A45642" transform="translate(340,245)"/>
<path d="M0 0 C2.59184839 2.22637035 3.39896254 3.6201552 3.73046875 7.01171875 C3.81103516 7.76904297 3.89160156 8.52636719 3.97460938 9.30664062 C4.04486328 10.09232422 4.11511719 10.87800781 4.1875 11.6875 C4.26935547 12.48478516 4.35121094 13.28207031 4.43554688 14.10351562 C4.63550845 16.067844 4.81932254 18.03380412 5 20 C4.01 20 3.02 20 2 20 C1.46867611 17.41842632 0.94965621 14.83538244 0.4375 12.25 C0.21030273 11.15558594 0.21030273 11.15558594 -0.02148438 10.0390625 C-0.74557178 6.33442927 -1.09817231 3.60677678 0 0 Z " fill="#A45642" transform="translate(335,220)"/>
<path d="M0 0 C0.99 0 1.98 0 3 0 C4.15745152 4.74348435 5.13631029 9.09282949 5 14 C5.29749946 15.67343448 5.62127066 17.34305915 6 19 C5.01 19 4.02 19 3 19 C2.49666458 16.39643759 1.99720622 13.79223349 1.5 11.1875 C1.35691406 10.44951172 1.21382813 9.71152344 1.06640625 8.95117188 C0.49073719 5.92205609 0 3.090804 0 0 Z " fill="#A15542" transform="translate(325,174)"/>
<path d="M0 0 C0.66 0 1.32 0 2 0 C2.50505263 2.89503383 3.0042022 5.79087953 3.5 8.6875 C3.64308594 9.50412109 3.78617187 10.32074219 3.93359375 11.16210938 C4.61165962 15.14978248 5.19858392 18.93730404 5 23 C3.0625 21.9375 3.0625 21.9375 1 20 C-0.68595223 13.53718312 -0.08977187 6.63314409 0 0 Z " fill="#C6D1D8" transform="translate(456,467)"/>
<path d="M0 0 C2 3 2 3 2 5 C2.66 5 3.32 5 4 5 C5.79074734 10.89893243 6.08360869 14.93179132 5 21 C4.34 21 3.68 21 3 21 C2.49576443 18.25071558 1.99646574 15.50068857 1.5 12.75 C1.35691406 11.97269531 1.21382813 11.19539063 1.06640625 10.39453125 C0.93105469 9.64042969 0.79570312 8.88632812 0.65625 8.109375 C0.46772461 7.07248535 0.46772461 7.07248535 0.27539062 6.01464844 C0 4 0 4 0 0 Z " fill="#B6C1CB" transform="translate(458,485)"/>
<path d="M0 0 C2.6059614 1.3029807 2.724025 2.29287025 3.6875 5 C5.30006048 10.02312589 4.90005771 13.84512402 4 19 C3.34 18.67 2.68 18.34 2 18 C1.40234375 15.19921875 1.40234375 15.19921875 0.9375 11.6875 C0.34481352 7.12930883 0.34481352 7.12930883 -0.62109375 2.64453125 C-0.74613281 2.10183594 -0.87117188 1.55914062 -1 1 C-0.67 0.67 -0.34 0.34 0 0 Z " fill="#F1B977" transform="translate(347,292)"/>
<path d="M0 0 C0.66 0 1.32 0 2 0 C2.87890625 6.15234375 2.87890625 6.15234375 3 8 C2.67 8.33 2.34 8.66 2 9 C1.95919217 10.99958364 1.95745644 13.00045254 2 15 C-1 13 -1 13 -1.58203125 10.9765625 C-1.65808594 10.20054688 -1.73414063 9.42453125 -1.8125 8.625 C-1.90144531 7.85414062 -1.99039063 7.08328125 -2.08203125 6.2890625 C-1.9893116 3.70174274 -1.3060765 2.20873169 0 0 Z " fill="#DB9D68" transform="translate(203,98)"/>
<path d="M0 0 C0.66 0 1.32 0 2 0 C2.50744423 1.89385437 3.00564574 3.79018666 3.5 5.6875 C3.7784375 6.74324219 4.056875 7.79898437 4.34375 8.88671875 C4.9391715 11.71142672 5.12786492 14.12836708 5 17 C4.01 17 3.02 17 2 17 C1.86722656 16.09636719 1.73445313 15.19273437 1.59765625 14.26171875 C1.42105469 13.08222656 1.24445313 11.90273438 1.0625 10.6875 C0.88847656 9.51574219 0.71445312 8.34398437 0.53515625 7.13671875 C0.07906969 3.98358597 0.07906969 3.98358597 -1 1 C-0.67 0.67 -0.34 0.34 0 0 Z " fill="#A45642" transform="translate(344,268)"/>
<path d="M0 0 C0.66 0.33 1.32 0.66 2 1 C2.88671875 3.94921875 2.88671875 3.94921875 3.6875 7.6875 C3.95949219 8.90824219 4.23148437 10.12898437 4.51171875 11.38671875 C4.99044928 14.92932465 4.7924872 17.53752238 4 21 C3.34 20.67 2.68 20.34 2 20 C1.38325571 16.79292967 0.98078043 13.76878294 1.0625 10.5 C0.97830168 7.13206703 0.00378474 4.19956385 -1 1 C-0.67 0.67 -0.34 0.34 0 0 Z " fill="#F1B977" transform="translate(388,504)"/>
<path d="M0 0 C3.91377145 3.91377145 4.125 9.69490014 4.125 15 C4.09346189 16.33361135 4.05553449 17.66717225 4 19 C3.34 19 2.68 19 2 19 C1.47234717 16.02189167 0.95258304 13.04278398 0.4375 10.0625 C0.21030273 8.78729492 0.21030273 8.78729492 -0.02148438 7.48632812 C-0.16005859 6.67744141 -0.29863281 5.86855469 -0.44140625 5.03515625 C-0.57232666 4.2862915 -0.70324707 3.53742676 -0.83813477 2.76586914 C-0.89155029 2.18313232 -0.94496582 1.60039551 -1 1 C-0.67 0.67 -0.34 0.34 0 0 Z " fill="#546D9A" transform="translate(391,134)"/>
<path d="M0 0 C0.99 0.33 1.98 0.66 3 1 C3 6.61 3 12.22 3 18 C2.67 17.01 2.34 16.02 2 15 C1.34 15 0.68 15 0 15 C0 10.05 0 5.1 0 0 Z " fill="#C8D2D9" transform="translate(982,606)"/>
<path d="M0 0 C2.42581871 2.42581871 2.96355664 4.07433869 3.09765625 7.48046875 C3.08605469 8.37378906 3.07445312 9.26710938 3.0625 10.1875 C3.05347656 11.08855469 3.04445313 11.98960937 3.03515625 12.91796875 C3.02355469 13.60503906 3.01195312 14.29210937 3 15 C2.01 15 1.02 15 0 15 C-0.19448477 12.87562788 -0.38038289 10.75046809 -0.5625 8.625 C-0.66691406 7.44164062 -0.77132813 6.25828125 -0.87890625 5.0390625 C-1 2 -1 2 0 0 Z " fill="#B8C3CD" transform="translate(437,365)"/>
<path d="M0 0 C4.65656501 3.57364291 7.82292208 7.04749618 11 12 C11 12.66 11 13.32 11 14 C10.01 14 9.02 14 8 14 C5.95703125 11.69921875 5.95703125 11.69921875 3.8125 8.6875 C3.09707031 7.70136719 2.38164062 6.71523438 1.64453125 5.69921875 C0 3 0 3 0 0 Z " fill="#A45642" transform="translate(410,812)"/>
<path d="M0 0 C3.78218127 1.53705084 5.9369256 3.84529742 8.625 6.875 C9.40101563 7.73867188 10.17703125 8.60234375 10.9765625 9.4921875 C12.70271221 11.63154679 13.91574957 13.49339953 15 16 C11.46600105 14.52157091 9.44254483 12.55937221 6.9375 9.6875 C6.26589844 8.92824219 5.59429688 8.16898438 4.90234375 7.38671875 C3.02076312 5.02604983 1.48963418 2.62194178 0 0 Z " fill="#F1B977" transform="translate(848,814)"/>
<path d="M0 0 C0.66 0.33 1.32 0.66 2 1 C2.47618812 3.87182587 2.84167597 6.67120147 3.125 9.5625 C3.21136719 10.36880859 3.29773438 11.17511719 3.38671875 12.00585938 C3.59943628 14.00304064 3.80077855 16.00142737 4 18 C3.01 17.67 2.02 17.34 1 17 C1.04125 16.113125 1.0825 15.22625 1.125 14.3125 C1.19902371 11.0560473 1.19902371 11.0560473 -0.0625 8.5 C-1.25228091 5.3272509 -0.7562216 3.25175288 0 0 Z " fill="#F1B977" transform="translate(393,527)"/>
<path d="M0 0 C0.66 0.33 1.32 0.66 2 1 C2.4140625 3.72265625 2.4140625 3.72265625 2.625 7.0625 C2.69976562 8.16722656 2.77453125 9.27195312 2.8515625 10.41015625 C2.90054687 11.26480469 2.94953125 12.11945313 3 13 C2.01 13.495 2.01 13.495 1 14 C-0.44209192 9.49346274 -1.34223148 5.79124078 -1 1 C-0.67 0.67 -0.34 0.34 0 0 Z " fill="#C1CCD4" transform="translate(447,417)"/>
<path d="M0 0 C3.65783717 1.68062789 4.91275636 2.84005332 6.875 6.4375 C8.31754875 11.00557103 8.31754875 11.00557103 7 14 C6.34 14 5.68 14 5 14 C3.80712589 10.12315913 3 7.08378077 3 3 C2.01 2.67 1.02 2.34 0 2 C0 1.34 0 0.68 0 0 Z " fill="#A45642" transform="translate(316,141)"/>
<path d="M0 0 C5.66218825 4.69841153 10.84661406 9.75215281 16 15 C16.66 15.66 17.32 16.32 18 17 C14.54898828 16.61655425 12.89071443 15.15619849 10.5703125 12.66796875 C7.74978504 9.67203535 4.74521825 6.85384153 1.79296875 3.98828125 C0 2 0 2 0 0 Z " fill="#A45642" transform="translate(853,817)"/>
<path d="M0 0 C0.66 0.33 1.32 0.66 2 1 C2 1.99 2 2.98 2 4 C2.66 4 3.32 4 4 4 C3.67 6.31 3.34 8.62 3 11 C0.9375 9.4375 0.9375 9.4375 -1 7 C-0.75 3.25 -0.75 3.25 0 0 Z " fill="#7286A7" transform="translate(466,532)"/>
<path d="M0 0 C0.66 0.66 1.32 1.32 2 2 C1.9765625 4.8203125 1.9765625 4.8203125 1.625 8.125 C1.51414062 9.22070312 1.40328125 10.31640625 1.2890625 11.4453125 C1.19367188 12.28835938 1.09828125 13.13140625 1 14 C0.34 13.67 -0.32 13.34 -1 13 C-1.02686553 11.02090602 -1.04633375 9.04171029 -1.0625 7.0625 C-1.07410156 5.96035156 -1.08570313 4.85820313 -1.09765625 3.72265625 C-1 1 -1 1 0 0 Z " fill="#F1B977" transform="translate(398,768)"/>
<path d="M0 0 C3.99717123 5.99575684 3.1114696 13.03934302 3 20 C2.67 20 2.34 20 2 20 C-0.07965362 13.24112575 -0.21133202 7.04440079 0 0 Z " fill="#C8D3DA" transform="translate(433,341)"/>
<path d="M0 0 C4 3 4 3 4.390625 5.48046875 C4.34421875 6.37378906 4.2978125 7.26710938 4.25 8.1875 C4.21390625 9.08855469 4.1778125 9.98960937 4.140625 10.91796875 C4.09421875 11.60503906 4.0478125 12.29210937 4 13 C3.01 12.67 2.02 12.34 1 12 C0.67 8.04 0.34 4.08 0 0 Z " fill="#657BA1" transform="translate(979,601)"/>
<path d="M0 0 C1.670625 0.061875 1.670625 0.061875 3.375 0.125 C4.035 1.445 4.695 2.765 5.375 4.125 C1.745 3.465 -1.885 2.805 -5.625 2.125 C-3.625 0.125 -3.625 0.125 0 0 Z " fill="#B8C3CC" transform="translate(490.625,648.875)"/>
<path d="M0 0 C0.66 0.33 1.32 0.66 2 1 C3.33350067 5.44500224 4.29175731 9.3318831 4 14 C2.5393715 11.35261084 2 10.10551666 2 7 C1.34 7 0.68 7 0 7 C-0.38133299 5.0085944 -0.71325582 3.00720923 -1 1 C-0.67 0.67 -0.34 0.34 0 0 Z " fill="#C5D0D7" transform="translate(439,380)"/>
<path d="M0 0 C0.66 0 1.32 0 2 0 C2.33 2.64 2.66 5.28 3 8 C2.01 8 1.02 8 0 8 C-1 7 -1 7 -1.125 4 C-1 1 -1 1 0 0 Z " fill="#C3CED6" transform="translate(464,511)"/>
</svg>
