<?xml version="1.0" encoding="UTF-8"?>
<!-- Generator: visioncortex VTracer 0.6.2 -->
<svg version="1.1" xmlns="http://www.w3.org/2000/svg" width="1280" height="1280">
<path d="M0 0 C0.90105469 0.30679687 1.80210938 0.61359375 2.73046875 0.9296875 C10.28155608 3.71361203 17.10277986 7.90539669 24 12 C24 12.66 24 13.32 24 14 C24.56203125 14.09410156 25.1240625 14.18820312 25.703125 14.28515625 C28.56531831 15.1759409 30.39770461 16.58871882 32.75 18.4375 C33.54921875 19.05496094 34.3484375 19.67242187 35.171875 20.30859375 C36.07679688 21.14583984 36.07679688 21.14583984 37 22 C37 22.66 37 23.32 37 24 C37.53625 24.20625 38.0725 24.4125 38.625 24.625 C41.91978009 26.53250426 44.59363628 29.04819384 47 32 C47 32.66 47 33.32 47 34 C47.66 34 48.32 34 49 34 C52 37.46153846 52 37.46153846 52 40 C52.66 40 53.32 40 54 40 C57 44.38461538 57 44.38461538 57 47 C57.66 47 58.32 47 59 47 C59.38671875 47.78503906 59.7734375 48.57007813 60.171875 49.37890625 C63.42603854 55.98094185 63.42603854 55.98094185 67.0625 62.375 C76.74328929 78.99368828 77.96648982 99.35404115 80 118 C80.74741455 118.20463867 81.4948291 118.40927734 82.26489258 118.62011719 C89.17860965 120.57290911 95.07326343 123.50077858 101.25 127.125 C102.01304443 127.5689209 102.77608887 128.0128418 103.56225586 128.47021484 C105.4141045 129.58398492 107.21310854 130.78474443 109 132 C109 132.66 109 133.32 109 134 C109.58265625 134.268125 110.1653125 134.53625 110.765625 134.8125 C120.96854898 140.23503303 128.45778755 151.14507615 134 161 C134.61294922 162.08474609 134.61294922 162.08474609 135.23828125 163.19140625 C146.34032325 184.05499601 148.96021241 207.97293523 143 230.8359375 C138.99525755 243.61422755 132.85058913 255.84725523 124 266 C123.34 266 122.68 266 122 266 C121.731875 266.639375 121.46375 267.27875 121.1875 267.9375 C120 270 120 270 117 271 C117 271.66 117 272.32 117 273 C115.03511786 274.69231465 113.07291828 276.26249024 111 277.8125 C110.40203613 278.26318848 109.80407227 278.71387695 109.18798828 279.17822266 C102.33285825 284.30149133 96.06382938 288.23128699 87.90625 291.0078125 C86.31815254 291.54998556 84.73354915 292.10576104 83.17382812 292.72485352 C78.3323603 294.64275553 73.63699212 295.85710108 68.5 296.6875 C67.73187988 296.81487549 66.96375977 296.94225098 66.17236328 297.07348633 C58.43341802 298.25549487 50.8064838 298.28715949 43 298 C42.75765625 299.19496094 42.5153125 300.38992188 42.265625 301.62109375 C39.09351111 316.82933334 39.09351111 316.82933334 36 322.9921875 C34.47644823 326.05119378 33.32994836 329.25004764 32.125 332.4453125 C30.65424339 335.78515564 28.8257618 338.83956567 27 342 C27.55823739 341.99723462 28.11647478 341.99446924 28.69162846 341.99162006 C42.3412612 341.92506119 55.9908651 341.87576728 69.64062595 341.84456348 C76.24184312 341.82896214 82.84294243 341.80782552 89.4440918 341.77368164 C95.82428572 341.74089023 102.20436685 341.72310547 108.5846386 341.71536827 C111.00887767 341.70986011 113.43311115 341.69910483 115.85730171 341.68280983 C135.45760166 341.5563974 156.14682158 341.59755448 172 355 C172 355.66 172 356.32 172 357 C172.57878906 357.2371875 173.15757813 357.474375 173.75390625 357.71875 C182.79128137 362.87398311 188.20186815 375.40415882 191 385 C191.35501085 389.27590841 191.32960484 393.54084549 191.31567383 397.83056641 C191.31251886 399.86285326 191.33599443 401.89367433 191.36132812 403.92578125 C191.36484597 411.0247956 191.08959723 416.57729048 188 423 C187.56457886 424.00015137 187.56457886 424.00015137 187.12036133 425.02050781 C183.98132702 432.22634178 179.09941654 439.48089266 172 443 C171.67 443.99 171.34 444.98 171 446 C156.3300591 456.47852922 140.46003355 458.16752663 123 459 C122.75765625 459.83402344 122.5153125 460.66804688 122.265625 461.52734375 C119.19429131 471.83993726 119.19429131 471.83993726 117 476.4375 C114.6739169 481.37244494 113.3717407 486.54010594 111.93359375 491.7890625 C110.90039932 495.34255967 109.45689794 498.60057148 108 502 C107.33526175 504.28625455 106.69165709 506.57869903 106.0625 508.875 C104.71643047 513.73211022 103.14271113 518.14863346 100.9921875 522.69140625 C99.36878134 526.46870168 98.30110964 530.40649666 97.1328125 534.34375 C95.86396393 538.43906813 94.44854805 542.46562901 93 546.5 C90.77942199 552.69446285 88.75673394 558.91893928 86.86328125 565.22265625 C85.94900755 568.16405265 84.88951543 571.01075445 83.76171875 573.875 C82.80373644 576.547525 82.07958947 579.2666157 81.3125 582 C78.02366646 592.86580003 72.56597966 603.73038165 66 613 C65.34 613 64.68 613 64 613 C63.731875 613.763125 63.46375 614.52625 63.1875 615.3125 C62.04865495 617.88988618 61.18583329 619.26954864 59 621 C58.34 621 57.68 621 57 621 C57 621.66 57 622.32 57 623 C51.52380952 628 51.52380952 628 49 628 C49 628.66 49 629.32 49 630 C47.13671875 631.5078125 47.13671875 631.5078125 44.6875 633.125 C43.88699219 633.66382813 43.08648438 634.20265625 42.26171875 634.7578125 C40 636 40 636 37 636 C37 636.66 37 637.32 37 638 C35.31551982 638.79807198 33.62723873 639.58812301 31.9375 640.375 C30.99777344 640.81585937 30.05804687 641.25671875 29.08984375 641.7109375 C15.95100303 647.19237548 2.10711906 648.4501184 -11.95315552 648.37752342 C-13.51121947 648.38066077 -15.06928122 648.38511037 -16.62733817 648.39073652 C-20.88359339 648.40234371 -25.13964254 648.39546869 -29.39589414 648.38540266 C-34.03598042 648.3777585 -38.67603632 648.38758574 -43.31611824 648.39513266 C-51.4402084 648.40594694 -59.56423871 648.40565183 -67.6883316 648.39799118 C-79.76926389 648.38663044 -91.85014581 648.39245186 -103.93107778 648.4016161 C-125.50924778 648.41740563 -147.08739111 648.41604721 -168.66556364 648.40737936 C-187.54903829 648.39983125 -206.43250316 648.39786327 -225.315979 648.4014473 C-226.56880122 648.40167645 -227.82162344 648.40190561 -229.11240996 648.40214171 C-234.1980859 648.40307573 -239.28376183 648.40403093 -244.36943776 648.405021 C-279.85895383 648.41184768 -315.34846717 648.41305552 -350.83798218 648.40183067 C-351.8408768 648.40151455 -351.8408768 648.40151455 -352.86403191 648.40119205 C-363.72098558 648.39775737 -374.57793916 648.3940989 -385.43489275 648.39042152 C-428.49241182 648.37585299 -471.54990292 648.37652918 -514.60742188 648.39111328 C-525.45895383 648.39477698 -536.31048579 648.39841018 -547.16201782 648.40183067 C-548.16432737 648.40214769 -548.16432737 648.40214769 -549.1868856 648.40247111 C-585.27621392 648.41380738 -621.36554107 648.41130227 -657.45487022 648.40427649 C-662.53125381 648.40331434 -667.6076374 648.40237582 -672.684021 648.4014473 C-673.93394648 648.40121006 -675.18387197 648.40097283 -676.47167398 648.40072841 C-695.34279409 648.39731669 -714.21390336 648.40130552 -733.08502197 648.40888596 C-754.54336225 648.41746271 -776.00167171 648.41532139 -797.46000814 648.39904372 C-809.46792327 648.39023523 -821.47577166 648.38965933 -833.48368505 648.40098225 C-841.50644316 648.40771273 -849.52914778 648.40351664 -857.55189797 648.39046794 C-862.12159842 648.38333783 -866.69116634 648.38087856 -871.26086259 648.39168589 C-875.42473881 648.40143286 -879.58836589 648.39717962 -883.75222424 648.38214391 C-885.24264492 648.37914277 -886.73308661 648.38106658 -888.22349045 648.38876172 C-900.92457595 648.44964273 -913.23734315 647.07878463 -925 642 C-926.83226558 641.26815441 -928.66564017 640.53908046 -930.5 639.8125 C-932.00034778 639.2091975 -933.50047375 638.60534154 -935 638 C-935 637.34 -935 636.68 -935 636 C-935.85851562 635.82791016 -935.85851562 635.82791016 -936.734375 635.65234375 C-939.21471656 634.93817644 -941.06368697 633.92692128 -943.25 632.5625 C-943.95640625 632.13066406 -944.6628125 631.69882812 -945.390625 631.25390625 C-945.92171875 630.84011719 -946.4528125 630.42632813 -947 630 C-947 629.34 -947 628.68 -947 628 C-947.763125 627.731875 -948.52625 627.46375 -949.3125 627.1875 C-951.88988618 626.04865495 -953.26954864 625.18583329 -955 623 C-955 622.34 -955 621.68 -955 621 C-955.66 621 -956.32 621 -957 621 C-962 615.52380952 -962 615.52380952 -962 613 C-962.66 613 -963.32 613 -964 613 C-971.65968606 602.36436528 -976.62412749 590.96341113 -980.03125 578.3515625 C-981.12247414 574.57627898 -982.54296112 571.04564676 -984.06640625 567.4296875 C-985.07835607 564.79607751 -985.79988709 562.16983254 -986.5 559.4375 C-987.38825598 555.99970929 -988.41224416 552.89231771 -989.9375 549.6875 C-992.2555858 544.76927995 -993.56450901 539.65417687 -994.99609375 534.421875 C-996.10929025 530.6274776 -997.5333782 527.06839221 -999.06640625 523.4296875 C-1000.07835607 520.79607751 -1000.79988709 518.16983254 -1001.5 515.4375 C-1002.39271527 511.98727614 -1003.42238909 508.84976914 -1004.9375 505.625 C-1007.07614799 501.0560702 -1008.49176148 496.37190929 -1009.9296875 491.54296875 C-1011.0798164 487.73579022 -1012.30393714 483.95989515 -1013.5625 480.1875 C-1013.88093872 479.23012939 -1013.88093872 479.23012939 -1014.20581055 478.25341797 C-1015.30815886 474.96743152 -1016.47256757 471.72162228 -1017.75 468.5 C-1019.01376256 464.96146484 -1019.52241361 461.7145608 -1020 458 C-1021.14855469 458.03480469 -1022.29710937 458.06960938 -1023.48046875 458.10546875 C-1040.02700998 458.45584927 -1056.88642974 456.08635167 -1070 445 C-1070 444.34 -1070 443.68 -1070 443 C-1070.66 443 -1071.32 443 -1072 443 C-1072 442.34 -1072 441.68 -1072 441 C-1072.99 440.67 -1073.98 440.34 -1075 440 C-1075 439.34 -1075 438.68 -1075 438 C-1075.66 438 -1076.32 438 -1077 438 C-1085.84757656 427.00031022 -1089.38778408 415.92725088 -1089.42553711 401.96191406 C-1089.43735409 399.90045384 -1089.48652644 397.84207296 -1089.53710938 395.78125 C-1089.67603315 384.50440766 -1086.98592674 375.42783632 -1080.3125 366.25 C-1079.73113281 365.43015625 -1079.14976563 364.6103125 -1078.55078125 363.765625 C-1077.78314453 362.89164063 -1077.78314453 362.89164063 -1077 362 C-1076.34 362 -1075.68 362 -1075 362 C-1074.67 361.01 -1074.34 360.02 -1074 359 C-1073.34 359 -1072.68 359 -1072 359 C-1072 358.34 -1072 357.68 -1072 357 C-1067.68378833 352.99208917 -1063.15406221 349 -1057 349 C-1057 348.34 -1057 347.68 -1057 347 C-1056.071875 346.835 -1055.14375 346.67 -1054.1875 346.5 C-1050.7297694 344.87283266 -1050.49656897 344.6517547 -1049.25 341.3125 C-1048.80679148 339.88296037 -1048.38909417 338.44520693 -1048 337 C-1044.77325091 325.59881988 -1040.93083519 316.70041346 -1034 307 C-1033.48566406 306.236875 -1032.97132812 305.47375 -1032.44140625 304.6875 C-1031.35205346 303.08417957 -1030.18521901 301.53381284 -1029 300 C-1028.34 300 -1027.68 300 -1027 300 C-1026.7834375 299.43796875 -1026.566875 298.8759375 -1026.34375 298.296875 C-1024.54930872 295.22963235 -1022.26107786 293.47339428 -1019.5 291.25 C-1018.5203125 290.45078125 -1017.540625 289.6515625 -1016.53125 288.828125 C-1014 287 -1014 287 -1012 287 C-1012 286.34 -1012 285.68 -1012 285 C-1003.99337716 280.0543799 -996.58788473 276.14969638 -987.44921875 273.69140625 C-985.07308693 273.23588862 -985.07308693 273.23588862 -984 272 C-978.17346341 270.50541747 -972.57896352 269.92045968 -966.58984375 270.140625 C-957.02248577 270.85860772 -957.02248577 270.85860772 -948.35449219 267.76464844 C-945.70364672 264.51792393 -944.26978168 260.76743679 -942.80078125 256.87890625 C-941.48461526 253.79073142 -939.62090461 251.32368792 -937.625 248.625 C-936.97789062 247.73039063 -936.33078125 246.83578125 -935.6640625 245.9140625 C-935.11492187 245.28242187 -934.56578125 244.65078125 -934 244 C-933.34 244 -932.68 244 -932 244 C-931.6596875 243.195625 -931.6596875 243.195625 -931.3125 242.375 C-928.25639115 236.84489828 -923.98830084 232.76893841 -919 229 C-918.34 229 -917.68 229 -917 229 C-917 228.34 -917 227.68 -917 227 C-915.41171252 226.10605745 -913.8218831 225.21474325 -912.22436523 224.33740234 C-906.87432021 221.22144933 -903.00893269 218.40894851 -901.35546875 212.23046875 C-900.47012629 207.72129194 -899.93064452 203.16562865 -899.38183594 198.60498047 C-898.44155349 192.19013795 -896.16880921 186.0860123 -894 180 C-893.63261719 178.96875 -893.26523437 177.9375 -892.88671875 176.875 C-888.13633906 164.59910471 -880.63853601 151.96435448 -872 142 C-871.34 142 -870.68 142 -870 142 C-869.67 141.01 -869.34 140.02 -869 139 C-868.34 139 -867.68 139 -867 139 C-867 138.34 -867 137.68 -867 137 C-866.34 137 -865.68 137 -865 137 C-864.731875 136.360625 -864.46375 135.72125 -864.1875 135.0625 C-863 133 -863 133 -860 132 C-859.67 131.01 -859.34 130.02 -859 129 C-858.34 129 -857.68 129 -857 129 C-857 128.34 -857 127.68 -857 127 C-854.76360773 125.19788734 -852.53217136 123.52435503 -850.1875 121.875 C-849.54490234 121.40707031 -848.90230469 120.93914062 -848.24023438 120.45703125 C-843.37720937 117 -843.37720937 117 -840 117 C-840 116.34 -840 115.68 -840 115 C-830.83123031 110.20617625 -821.93566635 105.99833718 -812 103 C-810.6037685 102.48023499 -809.2079163 101.95944961 -807.8125 101.4375 C-795.00930368 97.26551357 -781.84484056 96.55394716 -768.49975586 96.59594727 C-766.82551626 96.59022584 -765.15128054 96.58325484 -763.47705078 96.57514954 C-758.9879364 96.55741364 -754.49901948 96.55834717 -750.00988078 96.56409192 C-746.24698086 96.56720765 -742.4841176 96.56106617 -738.72122294 96.55505317 C-729.84675027 96.54107855 -720.97237405 96.54251437 -712.09790039 96.55395508 C-702.9618518 96.56547303 -693.82609552 96.55128305 -684.69008535 96.5245586 C-676.81535185 96.50239173 -668.94071007 96.49576517 -661.06594759 96.50163502 C-656.37547149 96.50499814 -651.68518344 96.50263037 -646.99473381 96.48538399 C-642.5925122 96.46989743 -638.19072536 96.47388913 -633.78852081 96.49268913 C-632.17769769 96.49636801 -630.56684217 96.49328703 -628.95604897 96.48280334 C-619.6739301 96.42701643 -612.37469648 96.45537247 -604.9765625 102.7109375 C-600.83590013 107.80897845 -598.66068603 111.83542541 -599.25 118.5625 C-599.93898728 123.38541096 -601.28912002 126.93368003 -604 131 C-604.66 131 -605.32 131 -606 131 C-606 131.66 -606 132.32 -606 133 C-611.01245221 136.58032301 -615.71126164 137.09079589 -621.73828125 137.31640625 C-623.33833008 137.37924805 -623.33833008 137.37924805 -624.97070312 137.44335938 C-626.07349609 137.48267578 -627.17628906 137.52199219 -628.3125 137.5625 C-629.43462891 137.60568359 -630.55675781 137.64886719 -631.71289062 137.69335938 C-634.47514569 137.79914787 -637.2374863 137.90123672 -640 138 C-640.04639333 145.8670353 -640.08190472 153.7340384 -640.10362434 161.60117626 C-640.11405004 165.25443043 -640.12818695 168.90759081 -640.15087891 172.56079102 C-640.17265076 176.08804048 -640.18457776 179.61519988 -640.18975449 183.14251137 C-640.19523412 185.13940529 -640.21084016 187.13626311 -640.22659302 189.13310242 C-640.22674408 190.35399063 -640.22689514 191.57487885 -640.22705078 192.83276367 C-640.231492 193.90531906 -640.23593323 194.97787445 -640.24050903 196.08293152 C-639.9924104 199.09205221 -639.26950019 201.27693918 -638 204 C-637.34 204 -636.68 204 -636 204 C-635.67 204.66 -635.34 205.32 -635 206 C-629.80399958 209.27155582 -623.76570964 209.12528526 -617.80843735 209.12863445 C-617.10383517 209.13038749 -616.39923299 209.13214053 -615.67327923 209.13394669 C-613.31241949 209.13859834 -610.95162156 209.13614333 -608.59075928 209.13371277 C-606.88091521 209.13558116 -605.17107157 209.13788198 -603.46122861 209.14057809 C-598.76243284 209.14669902 -594.06365485 209.14656215 -589.364856 209.14538372 C-584.2972354 209.14517978 -579.22962051 209.15069778 -574.16200256 209.15544128 C-564.23328782 209.1637501 -554.30457901 209.16649623 -544.37586108 209.16705366 C-536.30543617 209.16752873 -528.23501322 209.16958302 -520.16458893 209.17275429 C-497.28561917 209.18156164 -474.4066541 209.18617356 -451.52768263 209.18542381 C-450.29409912 209.18538386 -449.06051561 209.1853439 -447.78955078 209.18530273 C-445.93691726 209.18524141 -445.93691726 209.18524141 -444.04685679 209.18517885 C-424.03038664 209.1847724 -404.0139353 209.19434151 -383.99747059 209.2084411 C-363.44682549 209.22280278 -342.89618957 209.22971139 -322.34553933 209.22884732 C-310.80709047 209.22851527 -299.26866132 209.23126588 -287.73021698 209.24202538 C-277.90595964 209.25112765 -268.08173096 209.25330787 -258.25747123 209.24651595 C-253.24566116 209.24324933 -248.23390607 209.24319923 -243.22210121 209.2518692 C-238.63150121 209.25972879 -234.04099987 209.25830825 -229.45040229 209.24958507 C-227.79227158 209.24804889 -226.13413353 209.24987068 -224.47601148 209.25544515 C-216.1346536 209.28162423 -208.12240491 209.1867464 -200 207 C-199.67 206.01 -199.34 205.02 -199 204 C-198.34 204 -197.68 204 -197 204 C-196.855625 203.4225 -196.71125 202.845 -196.5625 202.25 C-196.22501573 200.90006291 -195.86779977 199.55450656 -195.47193909 198.22052002 C-194.89508812 195.50637922 -194.8804404 192.99741579 -194.88647461 190.22167969 C-194.88655014 189.0607782 -194.88662567 187.89987671 -194.88670349 186.70379639 C-194.89186478 185.45576233 -194.89702606 184.20772827 -194.90234375 182.921875 C-194.9037587 181.64016418 -194.90517365 180.35845337 -194.90663147 179.03790283 C-194.91044099 175.6381636 -194.92025786 172.2384674 -194.93133545 168.83874512 C-194.94158326 165.366461 -194.9461363 161.8941699 -194.95117188 158.421875 C-194.96188159 151.61456571 -194.97893916 144.80728492 -195 138 C-195.71465567 137.99864347 -196.42931134 137.99728694 -197.16562325 137.99588931 C-239.51122115 137.91525916 -281.85678594 137.82431275 -324.20233232 137.71994839 C-329.2855228 137.70742935 -334.36871348 137.6949966 -339.4519043 137.68261719 C-340.46388653 137.68015119 -341.47586877 137.6776852 -342.51851713 137.67514448 C-358.909657 137.63540846 -375.30080378 137.60266485 -391.69196374 137.57250018 C-408.50773283 137.54139866 -425.3234726 137.50279482 -442.13920873 137.45720994 C-452.51745023 137.42931309 -462.89567025 137.40728522 -473.27393918 137.39273749 C-480.38833361 137.38220462 -487.50268646 137.36439196 -494.61704958 137.34083296 C-498.72314384 137.32745142 -502.82917978 137.31730046 -506.93529701 137.31578636 C-510.69516705 137.31432911 -514.45489663 137.30372188 -518.21472352 137.28586559 C-520.21771799 137.27872511 -522.22073995 137.28135163 -524.22374493 137.28433573 C-533.63590376 137.22552597 -539.96493922 136.87517303 -547 130 C-550.81526463 124.60600518 -551.67685192 119.57161681 -551 113 C-549.3094877 107.75051445 -547.08379914 104.66494794 -543 101 C-542.34 100.34 -541.68 99.68 -541 99 C-537.57273392 97.35808397 -534.8431206 96.75048112 -531.0587492 96.75390434 C-530.08389338 96.74992225 -529.10903756 96.74594015 -528.10464066 96.74183738 C-527.04141219 96.74766307 -525.97818372 96.75348875 -524.88273621 96.75949097 C-523.17961201 96.75692769 -523.17961201 96.75692769 -521.44208127 96.75431263 C-517.62953663 96.7510129 -513.81716716 96.7620296 -510.00463867 96.77294922 C-507.27487069 96.77462641 -504.54510616 96.77328508 -501.81533813 96.77206421 C-495.93423327 96.77101567 -490.05317279 96.77728902 -484.17207909 96.78853989 C-475.66901865 96.80479614 -467.16597967 96.81000302 -458.66290537 96.81251587 C-444.86713634 96.81689277 -431.07139096 96.83020176 -417.27563477 96.84912109 C-403.8745943 96.86748001 -390.47356027 96.88163646 -377.07250977 96.89013672 C-376.24642561 96.89066217 -375.42034145 96.89118761 -374.56922444 96.89172898 C-370.42498991 96.89433906 -366.28075534 96.89686648 -362.13652074 96.89935279 C-327.75766347 96.92008515 -293.37883429 96.95531057 -259 97 C-259.00870117 95.77603516 -259.01740234 94.55207031 -259.02636719 93.29101562 C-259.03340575 91.66276128 -259.04023035 90.034506 -259.046875 88.40625 C-259.05315918 87.60219727 -259.05944336 86.79814453 -259.06591797 85.96972656 C-259.09808913 75.43903194 -257.20175058 66.62836573 -253 57 C-252.39559985 55.3542524 -251.79143535 53.70841823 -251.1875 52.0625 C-247.17262188 42.05667094 -240.16198009 31.17536711 -232 24 C-231.34 24 -230.68 24 -230 24 C-230 23.34 -230 22.68 -230 22 C-227.91796875 20.0546875 -227.91796875 20.0546875 -225.1875 17.875 C-223.84751953 16.78832031 -223.84751953 16.78832031 -222.48046875 15.6796875 C-220 14 -220 14 -217 14 C-217 13.34 -217 12.68 -217 12 C-201.53390699 2.60844481 -185.62493247 -1.53455846 -167.625 -1.4375 C-166.31789063 -1.45748047 -165.01078125 -1.47746094 -163.6640625 -1.49804688 C-147.34600609 -1.4899526 -131.69848901 3.72489588 -118.25390625 12.9609375 C-115.33510654 14.30651934 -114.0162261 14.01809524 -111 13 C-108.85312705 11.78794577 -108.85312705 11.78794577 -106.8125 10.25 C-99.29073218 5.06171791 -91.55088093 1.64204406 -82.84765625 -1.09765625 C-81.17544698 -1.62753326 -79.51094726 -2.18575031 -77.87109375 -2.80859375 C-52.51385326 -12.38579026 -24.90770112 -8.65644695 0 0 Z M-78.25 39.9375 C-78.90484375 40.27201172 -79.5596875 40.60652344 -80.234375 40.95117188 C-86.88610951 44.37602327 -92.72427606 47.58900108 -98 53 C-104.23964487 57.64654405 -110.13527279 60.00150084 -118 59 C-120.11604802 58.36903295 -122.11118 57.62187136 -124.140625 56.75390625 C-126.07059241 55.97137745 -127.97182566 55.46217247 -130 55 C-130 54.34 -130 53.68 -130 53 C-135.72334818 48.13936239 -142.02722917 43.83012463 -149 41 C-149.69867187 40.70222656 -150.39734375 40.40445313 -151.1171875 40.09765625 C-163.266628 35.65922428 -176.95135012 37.01036801 -188.578125 42.13671875 C-202.42241592 48.70653944 -211.52128568 58.80321419 -217.25 73.125 C-218.99441226 79.81191365 -221.2262054 90.54758921 -218 97 C-217.25715004 97.00238835 -216.51430008 97.00477671 -215.74893951 97.00723743 C-197.60911233 97.06657291 -179.46941905 97.14224017 -161.3297348 97.23571491 C-152.55723783 97.28053301 -143.78478019 97.31997926 -135.01220703 97.34643555 C-127.35914944 97.36952961 -119.70621779 97.40305306 -112.05326033 97.44870156 C-108.00731559 97.47248125 -103.9614944 97.49130925 -99.91548157 97.49761391 C-96.09375503 97.50373475 -92.27234397 97.52398078 -88.45073509 97.55427551 C-86.40703906 97.56702499 -84.36326889 97.56550513 -82.3195343 97.5632782 C-54.46576244 97.84069622 -26.03070134 107.81421088 -4.63671875 125.78515625 C-3.07205786 127.1986688 -3.07205786 127.1986688 -1 127 C-1 127.66 -1 128.32 -1 129 C0.62092592 130.60059293 0.62092592 130.60059293 2.6875 132.25 C5.35349133 134.50075728 7.71010091 136.70049545 9.875 139.4375 C10.57625 140.283125 11.2775 141.12875 12 142 C12.66 142 13.32 142 14 142 C14.39445312 142.86625 14.39445312 142.86625 14.796875 143.75 C16.0633429 146.11845944 17.5232179 147.9465294 19.25 150 C22.67208319 154.33416735 25.10053572 158.78996708 27.4609375 163.76953125 C28.52286137 165.99849328 29.63581561 168.20360729 30.7890625 170.38671875 C34.62447607 177.67400452 37.63194055 184.81300842 39.49291992 192.85498047 C39.87531944 194.47258384 40.30261779 196.07966789 40.7512207 197.68017578 C43.78787641 209.61034934 43.56206275 221.63629472 43.6875 233.875 C43.72073626 236.12371703 43.75523155 238.37241582 43.79101562 240.62109375 C43.87518947 246.08060381 43.94383449 251.54013366 44 257 C47.35278979 257.05860782 50.70544574 257.09379886 54.05859375 257.125 C55.47223206 257.15013672 55.47223206 257.15013672 56.91442871 257.17578125 C69.72597573 257.26507977 80.12387931 252.06104986 90 244 C90 243.34 90 242.68 90 242 C90.99 241.67 91.98 241.34 93 241 C102.01017569 230.12635615 105.35781772 220.06218716 105.375 206.1875 C105.39949219 205.15818359 105.42398437 204.12886719 105.44921875 203.06835938 C105.48598464 193.38054679 102.46227656 186.22858118 97.75 177.875 C97.22921875 176.94429687 96.7084375 176.01359375 96.171875 175.0546875 C95.59179688 174.03761719 95.59179688 174.03761719 95 173 C94.34 173 93.68 173 93 173 C92.5978125 172.0409375 92.5978125 172.0409375 92.1875 171.0625 C91.11332248 168.66868314 91.11332248 168.66868314 88 168 C88 167.34 88 166.68 88 166 C85.4385343 163.70351351 84.52032428 163 81 163 C81 162.34 81 161.68 81 161 C74.86331126 157.78554399 68.97076652 155.91001759 62.1875 154.5625 C56.60650261 153.40250478 51.35607126 151.93926718 46 150 C46 149.34 46 148.68 46 148 C45.21625 147.21625 44.4325 146.4325 43.625 145.625 C39.4914694 141.4914694 38.77953764 138.93834611 38.74919128 133.03669739 C38.75332535 132.25759506 38.75745941 131.47849274 38.76171875 130.67578125 C38.74626791 128.98892453 38.72996212 127.30207547 38.71289062 125.61523438 C38.69662974 122.98509643 38.68738226 120.35552451 38.69458008 117.7253418 C38.71068566 102.35329163 36.68156126 88.47260238 29 74.875 C28.48735596 73.96028931 28.48735596 73.96028931 27.96435547 73.02709961 C25.56266232 68.80231847 23.10293463 64.74177411 20 61 C19.34 61 18.68 61 18 61 C17.7525 60.4225 17.505 59.845 17.25 59.25 C15.81700012 56.67060021 14.21575324 54.93878408 12 53 C11.34 53 10.68 53 10 53 C10 52.34 10 51.68 10 51 C7.78390538 49.28948981 5.58330574 47.72401234 3.25 46.1875 C2.5691333 45.73753662 1.8882666 45.28757324 1.18676758 44.82397461 C-4.59530809 41.09471487 -10.46798448 38.19947155 -17 36 C-17.66636475 35.74250977 -18.33272949 35.48501953 -19.01928711 35.21972656 C-26.21038353 32.68389913 -33.27494184 32.54061904 -40.82202148 32.60888672 C-42.93083632 32.62494924 -45.03772801 32.60897635 -47.14648438 32.58984375 C-58.5578338 32.5694816 -68.13119771 34.5822871 -78.25 39.9375 Z M-784.52734375 137.43017578 C-785.21020447 137.46680265 -785.89306519 137.50342953 -786.59661865 137.54116631 C-792.08800953 137.89014564 -796.9010789 138.98375996 -802 141 C-802.97453125 141.37382812 -803.9490625 141.74765625 -804.953125 142.1328125 C-811.24416577 144.64606748 -817.17539018 147.54347649 -823 151 C-823 151.66 -823 152.32 -823 153 C-823.99 153 -824.98 153 -826 153 C-826 153.66 -826 154.32 -826 155 C-826.556875 155.24105469 -827.11375 155.48210937 -827.6875 155.73046875 C-830.49657342 157.2726121 -832.62698949 159.16015053 -835 161.3125 C-835.845625 162.07175781 -836.69125 162.83101562 -837.5625 163.61328125 C-839.95065211 165.95168019 -842.0408803 168.29260541 -844 171 C-844 171.66 -844 172.32 -844 173 C-844.66 173 -845.32 173 -846 173 C-846 173.99 -846 174.98 -846 176 C-846.66 176 -847.32 176 -848 176 C-849.10675619 178.1862225 -850.21044378 180.37390948 -851.3125 182.5625 C-851.62123047 183.17158203 -851.92996094 183.78066406 -852.24804688 184.40820312 C-856.82129708 192.78492789 -856.82129708 192.78492789 -858 202 C-856.88625 201.835 -855.7725 201.67 -854.625 201.5 C-833.11150351 199.16598859 -810.19637153 201.52925189 -791 212 C-789.6737156 212.49834543 -788.33994165 212.97713617 -787 213.4375 C-783.18855246 214.7933509 -780.0077277 216.75374564 -776.6640625 219.01171875 C-775.0359682 220.17021067 -775.0359682 220.17021067 -773 220 C-773 220.66 -773 221.32 -773 222 C-769.77885843 224.31592022 -769.77885843 224.31592022 -766 225 C-766 225.66 -766 226.32 -766 227 C-762.52001493 230.63633539 -762.52001493 230.63633539 -758 232 C-758 232.66 -758 233.32 -758 234 C-756.52295788 235.25227484 -755.04172601 236.50166522 -753.5078125 237.68359375 C-752 239 -752 239 -750 242 C-749.34 242 -748.68 242 -748 242 C-747.34 243.65 -746.68 245.3 -746 247 C-745.34 247 -744.68 247 -744 247 C-742.79371992 249.33214148 -741.8345262 251.49642139 -741 254 C-740.34 254 -739.68 254 -739 254 C-737.92474806 256.65228812 -736.90543849 259.28368454 -736 262 C-735.34 262 -734.68 262 -734 262 C-733.67 262.99 -733.34 263.98 -733 265 C-732.36199463 264.92894043 -731.72398926 264.85788086 -731.06665039 264.78466797 C-699.80690987 261.42207758 -699.80690987 261.42207758 -687 267 C-685.948125 267.28875 -684.89625 267.5775 -683.8125 267.875 C-671.75558098 271.43277938 -660.65108818 276.95306937 -651.5234375 285.71484375 C-650.07740109 287.21493313 -650.07740109 287.21493313 -648 287 C-648 287.66 -648 288.32 -648 289 C-647.34 289 -646.68 289 -646 289 C-645.731875 289.5775 -645.46375 290.155 -645.1875 290.75 C-643.97070811 293.05550043 -642.69666121 295.02056192 -641 297 C-640.34 297 -639.68 297 -639 297 C-638.62294922 297.79083984 -638.62294922 297.79083984 -638.23828125 298.59765625 C-636.99321718 301.0131591 -635.62493318 303.33482266 -634.2331543 305.66796875 C-627.29967744 317.40129592 -623.91178355 328.41167675 -621 342 C-423.66 342 -226.32 342 -23 342 C-22.67 341.01 -22.34 340.02 -22 339 C-21.34 339 -20.68 339 -20 339 C-20 338.34 -20 337.68 -20 337 C-19.01 336.67 -18.02 336.34 -17 336 C-15.55802374 334.44273141 -15.55802374 334.44273141 -14.3125 332.5625 C-13.87550781 331.94503906 -13.43851563 331.32757812 -12.98828125 330.69140625 C-11.8318364 329.03868895 -11.8318364 329.03868895 -12 327 C-11.34 327 -10.68 327 -10 327 C-9.61328125 326.2265625 -9.2265625 325.453125 -8.828125 324.65625 C-8.04695313 323.09390625 -8.04695313 323.09390625 -7.25 321.5 C-6.70214844 320.39914062 -6.15429688 319.29828125 -5.58984375 318.1640625 C-4.68257297 316.35843761 -3.76490834 314.55774837 -2.81640625 312.7734375 C6.45609193 295.23867441 5.32564119 274.62453221 5.26074219 255.35327148 C5.25003044 251.57324141 5.26068623 247.79368749 5.2734375 244.01367188 C5.76771717 218.86193467 5.76771717 218.86193467 -1 195 C-1.33 193.96875 -1.66 192.9375 -2 191.875 C-6.9134459 177.74884304 -17.52074811 163.35497888 -30 155 C-30.66 155 -31.32 155 -32 155 C-32 154.34 -32 153.68 -32 153 C-39.36245599 147.817562 -47.59591145 144.13138642 -56 141 C-57.19496094 140.5359375 -57.19496094 140.5359375 -58.4140625 140.0625 C-71.02568531 135.67584859 -85.83022745 136.84669801 -99.05859375 136.8671875 C-100.625168 136.86651163 -102.19174214 136.86553926 -103.75831604 136.86428833 C-107.00107853 136.8628312 -110.24381307 136.86490536 -113.48657227 136.86962891 C-117.64944072 136.87539722 -121.81224569 136.8719906 -125.97511196 136.86605644 C-129.19115181 136.86245755 -132.40717634 136.86358505 -135.62321663 136.86618423 C-137.16027903 136.86685169 -138.69734282 136.86603139 -140.23440361 136.86370468 C-142.36390824 136.86118157 -144.49330613 136.8650105 -146.62280273 136.87060547 C-147.83363022 136.87140106 -149.0444577 136.87219666 -150.29197693 136.87301636 C-152.9159493 136.69154608 -152.9159493 136.69154608 -154 138 C-154.11305295 139.87957239 -154.15683078 141.76334547 -154.17358398 143.64624023 C-154.19381874 145.45964149 -154.19381874 145.45964149 -154.21446228 147.30967712 C-154.22490067 148.62931961 -154.23533905 149.9489621 -154.24609375 151.30859375 C-154.26159841 152.67327162 -154.27780816 154.03794165 -154.29469299 155.40260315 C-154.36541284 161.20540123 -154.42515224 167.00828112 -154.47680664 172.8112793 C-154.50887088 176.35926879 -154.55022988 179.90705712 -154.59700203 183.45488167 C-154.62054719 185.44978534 -154.63369282 187.44480316 -154.64659119 189.43980408 C-154.78397518 199.65406484 -155.65253652 208.48488328 -160.625 217.5 C-163.05383189 221.53360796 -163.05383189 221.53360796 -164 226 C-164.66 226 -165.32 226 -166 226 C-167.28645202 227.52823976 -167.28645202 227.52823976 -168.5 229.4375 C-170.79154079 232.89577039 -170.79154079 232.89577039 -173 234 C-173 234.66 -173 235.32 -173 236 C-173.721875 236.2475 -174.44375 236.495 -175.1875 236.75 C-178.06259826 237.87771503 -178.06259826 237.87771503 -180.32421875 239.9140625 C-183.03261208 242.02542314 -185.46500715 243.30478735 -188.625 244.625 C-190.03652344 245.23214844 -190.03652344 245.23214844 -191.4765625 245.8515625 C-201.94953942 249.26514921 -212.41084005 249.28541429 -223.30076599 249.25396729 C-225.04649916 249.25627455 -226.79223136 249.25945286 -228.53796154 249.26342177 C-233.31283371 249.27174193 -238.08762554 249.26765715 -242.86249793 249.26144934 C-248.02073362 249.25691443 -253.17895574 249.26391378 -258.33718872 249.26940918 C-268.43367372 249.27829391 -278.53012895 249.2763852 -288.6266151 249.2705839 C-296.83420465 249.26606355 -305.04178586 249.26545612 -313.2493763 249.26763153 C-314.41839904 249.267938 -315.58742178 249.26824446 -316.79186945 249.26856022 C-319.1668748 249.26919968 -321.54188015 249.26984811 -323.9168855 249.2705054 C-346.17819264 249.27620606 -368.4394833 249.26965506 -390.70078773 249.25890467 C-409.79182573 249.24997057 -428.8828394 249.25152055 -447.97387695 249.26074219 C-470.15504595 249.27145149 -492.3362005 249.27565553 -514.51737171 249.26951766 C-516.88385045 249.26888058 -519.25032919 249.26825184 -521.61680794 249.26763153 C-522.78109317 249.26732298 -523.9453784 249.26701443 -525.14494501 249.26669653 C-533.33982748 249.26497148 -541.53470078 249.26788061 -549.72958183 249.27259064 C-559.72054967 249.27820684 -569.71148608 249.27666749 -579.70245033 249.26602915 C-584.7975764 249.26078224 -589.89265014 249.25869897 -594.9877758 249.26532745 C-599.65661839 249.27130937 -604.32536039 249.26797489 -608.99419392 249.25737235 C-610.67845409 249.2551478 -612.36272285 249.25625325 -614.04697745 249.26112393 C-626.12158694 249.29334962 -637.80216746 249.31167789 -648.625 243.375 C-652.59319036 240.9450433 -652.59319036 240.9450433 -657 240 C-657 239.34 -657 238.68 -657 238 C-657.99 238 -658.98 238 -660 238 C-660 237.34 -660 236.68 -660 236 C-661.010625 235.175 -662.02125 234.35 -663.0625 233.5 C-674.34903142 224.03755446 -679.06158521 210.20281697 -681 196 C-681.29421846 191.42417837 -681.34699486 186.8577916 -681.37890625 182.2734375 C-681.39590073 181.00400299 -681.4128952 179.73456848 -681.43040466 178.42666626 C-681.47421502 175.08990835 -681.51067356 171.7532615 -681.54260254 168.41638184 C-681.58874014 163.68289075 -681.6442082 158.94953758 -681.70530701 154.21621704 C-681.73730895 151.70226074 -681.76418491 149.18823312 -681.78553772 146.67416382 C-681.79902756 145.54854034 -681.8125174 144.42291687 -681.82641602 143.26318359 C-681.83592789 142.26821869 -681.84543976 141.27325378 -681.85523987 140.24813843 C-681.74965142 138.03027921 -681.74965142 138.03027921 -683 137 C-685.77115251 136.89941761 -688.51741077 136.86384559 -691.2890625 136.87060547 C-692.15923004 136.86885315 -693.02939758 136.86710083 -693.92593384 136.86529541 C-696.82564243 136.86086789 -699.72529069 136.86382207 -702.625 136.8671875 C-704.64550793 136.86651374 -706.66601578 136.86554312 -708.68652344 136.86428833 C-712.94043747 136.86280936 -717.19433058 136.86496868 -721.44824219 136.86962891 C-726.8553946 136.87526828 -732.26249674 136.87208575 -737.66964722 136.86605644 C-741.8548621 136.8624062 -746.0400655 136.86361068 -750.22528076 136.86618423 C-752.21523037 136.86684428 -754.20518107 136.86605793 -756.19512939 136.86370468 C-765.6497426 136.85499395 -775.08515124 136.90495076 -784.52734375 137.43017578 Z M-878 249 C-878.86109375 249.4228125 -879.7221875 249.845625 -880.609375 250.28125 C-882.41193541 251.17613815 -884.20707516 252.08595988 -886 253 C-886 253.66 -886 254.32 -886 255 C-886.53625 255.2475 -887.0725 255.495 -887.625 255.75 C-890.5823982 257.30652537 -893.29724051 259.03435673 -896 261 C-896 261.66 -896 262.32 -896 263 C-896.66 263 -897.32 263 -898 263 C-900.04456059 265.17264655 -900.04456059 265.17264655 -902.125 267.875 C-902.84945312 268.77992188 -903.57390625 269.68484375 -904.3203125 270.6171875 C-906.19205234 272.78655811 -906.19205234 272.78655811 -906 275 C-906.66 275 -907.32 275 -908 275 C-913.59806247 284.99751226 -913.59806247 284.99751226 -918.125 295.5 C-920.38405643 301.45479347 -923.62366644 305.5451019 -929.0625 308.875 C-935.43196848 311.31437091 -941.57792039 311.51331194 -948.28125 310.5078125 C-963.6215048 308.41302981 -977.47041419 309.84877917 -990.34375 318.8671875 C-994.80778315 322.45154353 -998.57215161 326.51097092 -1002.1875 330.9375 C-1003.19876953 332.15759766 -1003.19876953 332.15759766 -1004.23046875 333.40234375 C-1006.42778749 336.37420218 -1006.42778749 336.37420218 -1008 342 C-893.82 342 -779.64 342 -662 342 C-662 332.05331749 -668.0766738 323.03957608 -675 316 C-686.05035285 307.01346305 -697.01875712 302.59864309 -711.1875 302.4375 C-712.10192871 302.42267578 -713.01635742 302.40785156 -713.95849609 302.39257812 C-719.8679764 302.48203503 -724.20292483 303.71830975 -729.58666992 306.08520508 C-733.40586881 307.53290748 -737.0119852 307.68550818 -741.0625 307.625 C-741.84326904 307.615896 -742.62403809 307.60679199 -743.4284668 307.59741211 C-748.92520143 307.37749679 -752.99092696 306.50015532 -757.3203125 302.88671875 C-760.28076713 299.56137087 -762.15205006 296.02853086 -764 292 C-768.47362676 282.78236244 -773.07558848 273.66631276 -780 266 C-780.66 266 -781.32 266 -782 266 C-782.33 265.01 -782.66 264.02 -783 263 C-783.66 263 -784.32 263 -785 263 C-785 262.34 -785 261.68 -785 261 C-791.41235027 254.70114266 -798.89691614 250.68920891 -807 247 C-807.80695313 246.608125 -808.61390625 246.21625 -809.4453125 245.8125 C-831.03075596 235.5838578 -857.26296493 238.78779178 -878 249 Z M-1046.73777865 388.21246067 C-1049.85178997 392.62247773 -1051.6989539 396.20902135 -1051.484375 401.77734375 C-1050.31765346 407.13109016 -1047.2254431 412.35611007 -1042.81514673 415.61390704 C-1039.37230721 417.30905691 -1036.98911664 417.37565345 -1033.15687108 417.37670618 C-1032.13648751 417.38312652 -1032.13648751 417.38312652 -1031.09549014 417.38967656 C-1028.80672992 417.40040022 -1026.51857047 417.38969841 -1024.22981644 417.37917423 C-1022.56903352 417.3824936 -1020.9082528 417.387129 -1019.24747682 417.39296427 C-1014.65944671 417.40524361 -1010.07160185 417.39874297 -1005.48357195 417.38933506 C-1000.50129828 417.38240983 -995.51905703 417.39284509 -990.53678966 417.40113491 C-981.79657599 417.41327532 -973.05641553 417.41427383 -964.31619644 417.40807533 C-951.31925399 417.39892122 -938.32236219 417.40691543 -925.32542375 417.41857243 C-903.46227983 417.43773319 -881.59915122 417.44322132 -859.73600006 417.44125557 C-838.07570895 417.43937633 -816.41543648 417.44456934 -794.75514984 417.45893669 C-793.74627752 417.45960282 -793.74627752 417.45960282 -792.71702395 417.4602824 C-785.88829246 417.46480375 -779.05956109 417.46948209 -772.23082979 417.47426576 C-757.64406417 417.48448375 -743.05729798 417.49373246 -728.47053146 417.50257015 C-727.77500656 417.50299273 -727.07948166 417.5034153 -726.36288025 417.50385069 C-693.25216688 417.5239073 -660.1414519 417.53440334 -627.03073387 417.54312245 C-624.83343774 417.54370132 -622.63614161 417.54428359 -620.43884548 417.54486683 C-613.1000212 417.54681371 -605.76119691 417.54874582 -598.42237262 417.55066922 C-597.69470445 417.55085998 -596.96703627 417.55105073 -596.21731754 417.55124727 C-592.53961617 417.55221067 -588.8619148 417.55317047 -585.18421342 417.55412453 C-552.08408517 417.56272116 -518.98395788 417.57359608 -485.88383079 417.58585708 C-483.68806685 417.58666971 -481.4923029 417.5874782 -479.29653895 417.58828614 C-446.22323783 417.60048066 -413.1499388 417.61477924 -380.07664108 417.63422298 C-379.03403594 417.63483424 -379.03403594 417.63483424 -377.97036806 417.63545785 C-364.08347593 417.64360344 -350.19658394 417.65196318 -336.30969227 417.66086475 C-328.79983267 417.66567345 -321.289973 417.67034959 -313.78011322 417.67487907 C-313.10824087 417.67528501 -312.43636852 417.67569095 -311.74413641 417.67610919 C-289.42447144 417.68950562 -267.10481289 417.69442471 -244.78514421 417.69517689 C-223.04572732 417.69593288 -201.3063216 417.70334347 -179.56690934 417.71770663 C-166.64242278 417.72599413 -153.71796321 417.72856633 -140.79347498 417.72315645 C-132.16706144 417.72007894 -123.54067078 417.72416519 -114.91426249 417.73412842 C-109.99470487 417.7395943 -105.07520213 417.74184798 -100.15564457 417.73531515 C-95.68124161 417.72942788 -91.20694295 417.73269797 -86.73254955 417.74330463 C-85.12294836 417.74550549 -83.51333823 417.74435091 -81.903743 417.73944724 C-74.0280488 417.71720425 -66.63057213 417.84382329 -59 420 C-59 420.66 -59 421.32 -59 422 C-58.21625 422.61875 -57.4325 423.2375 -56.625 423.875 C-53.95093241 426.03972138 -53.15839452 426.86180392 -52 430 C-51.6640625 433.4609375 -51.6640625 433.4609375 -51.625 437.375 C-51.59664062 438.66148437 -51.56828125 439.94796875 -51.5390625 441.2734375 C-52.19988869 446.61604927 -54.5347026 449.61182352 -58.375 453.25 C-63.25429807 456.50286538 -67.79512717 457.25003718 -73.58654964 457.25480902 C-74.90587647 457.26073703 -76.2252033 457.26666503 -77.58450973 457.27277267 C-79.04491078 457.26926154 -80.50531141 457.26556828 -81.96571159 457.26171303 C-83.52635143 457.26490074 -85.08698968 457.26896347 -86.64762521 457.27382231 C-90.95284543 457.2846754 -95.25798575 457.28305457 -99.56321486 457.27947159 C-104.24056192 457.27776887 -108.91788667 457.2876187 -113.5952245 457.29602563 C-121.7982309 457.30916789 -130.00121667 457.31488461 -138.20423317 457.31578636 C-150.40187413 457.31716064 -162.59948436 457.3299336 -174.79711505 457.3450741 C-195.31402883 457.37021661 -215.83094002 457.38606728 -236.34786606 457.39665604 C-256.66760693 457.40717327 -276.98733798 457.42179971 -297.30707169 457.44193649 C-298.56962116 457.44318536 -299.83217064 457.44443423 -301.1329792 457.44572094 C-307.54460642 457.45208453 -313.95623357 457.45852175 -320.36786069 457.46498732 C-365.80317859 457.5106724 -411.23849845 457.54711199 -456.67382812 457.578125 C-467.68821212 457.58564722 -478.7025961 457.59320193 -489.71697998 457.60089111 C-490.74164305 457.60160639 -490.74164305 457.60160639 -491.78700638 457.60233611 C-523.54019019 457.62454615 -555.29336887 457.65197405 -587.04654733 457.68074883 C-589.10786717 457.68261671 -591.16918701 457.68448233 -593.23050686 457.6863475 C-606.89092654 457.69871161 -620.55134614 457.71116568 -634.21176569 457.72367998 C-662.04060092 457.74917315 -689.86943665 457.77409522 -717.69827271 457.79867554 C-718.97784937 457.79980645 -720.25742604 457.80093736 -721.57577776 457.80210253 C-807.05051096 457.87758127 -892.52525483 457.93981975 -978 458 C-976.52398902 467.25020506 -973.52203463 475.91004903 -969.93359375 484.5390625 C-968.60051067 488.05304719 -967.7190921 491.65442292 -966.77734375 495.2890625 C-965.78272122 498.75774611 -964.42369599 502.00977767 -963.03515625 505.3359375 C-961.44524659 509.427705 -960.25921996 513.63186728 -959.00390625 517.8359375 C-958.10381109 520.67281329 -957.08327274 523.38037328 -955.9375 526.125 C-954.50428043 529.56584232 -953.42643505 532.95190718 -952.5 536.5625 C-951.38801202 540.87069387 -949.92156684 544.74234556 -947.96484375 548.734375 C-946.68046053 551.75033559 -945.87863156 554.84293985 -945 558 C-943.40295393 563.02471978 -941.71428292 568.01442491 -940 573 C-939.53787109 574.39025391 -939.53787109 574.39025391 -939.06640625 575.80859375 C-934.14444936 589.48069623 -925.15517655 597.73739424 -912.39453125 603.921875 C-911.20923828 604.45554687 -911.20923828 604.45554687 -910 605 C-909.23198563 605.34755341 -908.46397125 605.69510681 -907.67268372 606.05319214 C-904.86329114 607.04842961 -902.80999073 607.2420759 -899.8425293 607.22705078 C-898.84186935 607.22689972 -897.84120941 607.22674866 -896.81022644 607.22659302 C-895.7423439 607.21627045 -894.67446136 607.20594788 -893.57421875 607.1953125 C-892.47149124 607.1924826 -891.36876373 607.18965271 -890.23262024 607.18673706 C-886.71746886 607.17555981 -883.20257411 607.15045937 -879.6875 607.125 C-877.30143598 607.11496704 -874.91536795 607.10584174 -872.52929688 607.09765625 C-866.68611065 607.07562849 -860.84307366 607.04217514 -855 607 C-854.99413376 606.08704163 -854.98826752 605.17408325 -854.98222351 604.23345947 C-854.92405869 595.58393682 -854.85184777 586.93466588 -854.76428509 578.28538895 C-854.71976381 573.83985495 -854.68046875 569.39440876 -854.65356445 564.94873047 C-854.62734785 560.64969461 -854.58681935 556.35100003 -854.53681374 552.05217743 C-854.52026806 550.42098013 -854.50867789 548.78972397 -854.50238609 547.1584549 C-854.44984465 534.77593861 -853.33172952 523.60101111 -847.4375 512.5 C-846.83808594 511.3553125 -846.23867188 510.210625 -845.62109375 509.03125 C-845.08613281 508.0309375 -844.55117188 507.030625 -844 506 C-843.32815371 504.66926908 -842.65878893 503.3372432 -842 502 C-841.34 502 -840.68 502 -840 502 C-838.49153848 500.47379124 -838.49153848 500.47379124 -837 498.5625 C-834.20338983 495.10169492 -834.20338983 495.10169492 -832 494 C-832 493.34 -832 492.68 -832 492 C-831.42121094 491.71898437 -830.84242188 491.43796875 -830.24609375 491.1484375 C-828.83876723 490.42886533 -827.45081319 489.66845806 -826.09765625 488.8515625 C-819.74182997 485.02098774 -813.13205755 482.9477105 -806 481 C-805.37391846 480.82275391 -804.74783691 480.64550781 -804.1027832 480.46289062 C-788.12244951 476.94510209 -770.5814485 480.71755828 -756.72265625 488.87548828 C-742.4088097 498.21924922 -733.69275027 511.94446778 -729.65992737 528.35748291 C-728.38784815 535.37881666 -728.51571521 542.46534548 -728.48828125 549.578125 C-728.47139898 551.24250583 -728.45324409 552.90687418 -728.43388367 554.57122803 C-728.38676208 558.91115416 -728.35670967 563.25102972 -728.33044434 567.59112549 C-728.3004458 572.03611233 -728.25398276 576.48092543 -728.20898438 580.92578125 C-728.12338289 589.61710135 -728.05584789 598.30843797 -728 607 C-721.8944529 607.02464513 -715.78893449 607.04283371 -709.68334961 607.05493164 C-707.60456844 607.05997288 -705.52579084 607.06680574 -703.44702148 607.07543945 C-700.46597414 607.08751422 -697.48497351 607.09323024 -694.50390625 607.09765625 C-693.56849503 607.10281754 -692.6330838 607.10797882 -691.66932678 607.11329651 C-690.80850998 607.11337204 -689.94769318 607.11344757 -689.06079102 607.11352539 C-688.29912125 607.115746 -687.53745148 607.11796661 -686.75270081 607.12025452 C-684.97189395 607.19090955 -684.97189395 607.19090955 -684 606 C-683.89698595 603.84561176 -683.86426263 601.6878469 -683.8581543 599.53100586 C-683.85467987 598.85430344 -683.85120544 598.17760101 -683.84762573 597.48039246 C-683.84025152 596.00333929 -683.83491506 594.52627492 -683.83133507 593.04920769 C-683.82416282 590.69649755 -683.80848234 588.3439952 -683.78999329 585.99134827 C-683.73761978 579.29887068 -683.68973949 572.60649556 -683.67407227 565.91381836 C-683.66386351 561.82104307 -683.63420166 557.7287748 -683.59275246 553.63620186 C-683.58059794 552.08924805 -683.57529211 550.542222 -683.57755089 548.99522209 C-683.59852841 529.9037015 -679.42482363 512.36691651 -666 498 C-658.22222222 491.11111111 -658.22222222 491.11111111 -654 489 C-654 488.34 -654 487.68 -654 487 C-653.29875 486.896875 -652.5975 486.79375 -651.875 486.6875 C-648.96920077 486.12683453 -648.96920077 486.12683453 -646.5 484.625 C-632.19948301 477.98547425 -614.05324994 477.76937531 -599.1875 482.73046875 C-591.27971327 485.88001616 -584.35309322 489.31565344 -578 495 C-577.34 495 -576.68 495 -576 495 C-576 495.66 -576 496.32 -576 497 C-575.34 497 -574.68 497 -574 497 C-573.67 497.99 -573.34 498.98 -573 500 C-572.34 500 -571.68 500 -571 500 C-570.74089844 500.53238281 -570.48179687 501.06476563 -570.21484375 501.61328125 C-569.30531047 503.40017781 -568.35264759 505.16523434 -567.37890625 506.91796875 C-558.99518739 522.00866269 -556.71513529 535.424399 -556.5859375 552.5078125 C-556.56719284 554.08536759 -556.54761707 555.662913 -556.5272522 557.240448 C-556.47627282 561.36008964 -556.43646587 565.47976366 -556.39910889 569.59954834 C-556.35885285 573.81644475 -556.3078599 578.03321044 -556.2578125 582.25 C-556.161459 590.49991017 -556.0769266 598.7498859 -556 607 C-549.8944529 607.02464513 -543.78893449 607.04283371 -537.68334961 607.05493164 C-535.60456844 607.05997288 -533.52579084 607.06680574 -531.44702148 607.07543945 C-528.46597414 607.08751422 -525.48497351 607.09323024 -522.50390625 607.09765625 C-521.56849503 607.10281754 -520.6330838 607.10797882 -519.66932678 607.11329651 C-518.80850998 607.11337204 -517.94769318 607.11344757 -517.06079102 607.11352539 C-516.29912125 607.115746 -515.53745148 607.11796661 -514.75270081 607.12025452 C-512.97189395 607.19090955 -512.97189395 607.19090955 -512 606 C-511.89100229 603.64982565 -511.84578261 601.32795624 -511.84228516 598.97680664 C-511.83720444 598.24169861 -511.83212372 597.50659058 -511.82688904 596.74920654 C-511.81615916 595.14609546 -511.80754932 593.54296916 -511.80076981 591.9398365 C-511.78899493 589.39555659 -511.76954082 586.85144753 -511.74765015 584.30723572 C-511.6860225 577.07068659 -511.63218275 569.83414996 -511.59863281 562.59741211 C-511.57757218 558.17406503 -511.54216641 553.75102116 -511.49787521 549.32784843 C-511.48379098 547.64754266 -511.47501004 545.96718314 -511.47182083 544.28682137 C-511.44729402 532.58973586 -510.40161935 522.98822397 -504.8125 512.5 C-502.71610678 508.9278702 -502.71610678 508.9278702 -502 505 C-501.34 505 -500.68 505 -500 505 C-497.60179695 502.36315253 -497.60179695 502.36315253 -497 499 C-496.34 499 -495.68 499 -495 499 C-493.31183067 497.35511706 -491.64646685 495.68662458 -490 494 C-488.515 493.01 -488.515 493.01 -487 492 C-487 491.34 -487 490.68 -487 490 C-486.27941406 489.72027344 -485.55882812 489.44054687 -484.81640625 489.15234375 C-482.13023389 488.05328571 -479.5489913 486.82688719 -476.9375 485.5625 C-461.42139687 478.60700549 -442.18868118 476.98113136 -426 483 C-422.41709637 484.67689371 -418.99742925 486.57949416 -415.58203125 488.57421875 C-413.19978736 490.1611308 -413.19978736 490.1611308 -411 490 C-411 490.66 -411 491.32 -411 492 C-409.47176024 493.28645202 -409.47176024 493.28645202 -407.5625 494.5 C-404.10422961 496.79154079 -404.10422961 496.79154079 -403 499 C-402.34 499 -401.68 499 -401 499 C-400.773125 499.515625 -400.54625 500.03125 -400.3125 500.5625 C-398.98238718 503.19041173 -398.98238718 503.19041173 -396.6875 506 C-385.55571713 521.24856648 -385.90539608 539.58443413 -385.68359375 557.5859375 C-385.66294974 559.02324925 -385.64195179 560.46055595 -385.62062073 561.89785767 C-385.56616684 565.62947426 -385.51642894 569.36113837 -385.46777344 573.09283447 C-385.40801461 577.59775838 -385.34222095 582.10259795 -385.27747345 586.60745239 C-385.18043307 593.40491554 -385.09091785 600.20243982 -385 607 C-370.81 607 -356.62 607 -342 607 C-341.94392578 599.53826172 -341.94392578 599.53826172 -341.88671875 591.92578125 C-341.85639541 588.7493162 -341.82521921 585.57290425 -341.79101562 582.39648438 C-341.73696411 577.36941413 -341.68584579 572.34244889 -341.65356445 567.31518555 C-341.62730026 563.25603821 -341.58674054 559.19724941 -341.53681374 555.13832664 C-341.52029954 553.60006402 -341.50869017 552.06173961 -341.50238609 550.52340126 C-341.44890828 538.65853602 -340.34260846 527.39366712 -335.375 516.4375 C-333.96957012 513.29870661 -332.71364079 510.36997039 -332 507 C-331.34 507 -330.68 507 -330 507 C-327.68407978 503.77885843 -327.68407978 503.77885843 -327 500 C-325.515 499.505 -325.515 499.505 -324 499 C-324 498.34 -324 497.68 -324 497 C-323.34 497 -322.68 497 -322 497 C-322 496.34 -322 495.68 -322 495 C-321.484375 494.773125 -320.96875 494.54625 -320.4375 494.3125 C-317.80507923 492.97481335 -317.80507923 492.97481335 -314.9375 490.6875 C-300.00979943 479.92049895 -281.85749982 478.0990706 -264.0703125 480.5390625 C-257.97280085 481.82052569 -253.2702476 483.7481451 -248 487 C-246.68 487 -245.36 487 -244 487 C-244 487.66 -244 488.32 -244 489 C-242.24260891 490.27424831 -242.24260891 490.27424831 -240 491.5625 C-234.69817828 494.98034104 -230.93488312 499.11382645 -227 504 C-226.52691406 504.55300781 -226.05382812 505.10601563 -225.56640625 505.67578125 C-215.37588205 518.46949232 -214.70670063 535.12332505 -214.62109375 550.69140625 C-214.60489172 552.2889861 -214.58770895 553.88655628 -214.56959534 555.4841156 C-214.5242327 559.657639 -214.48924436 563.83117571 -214.45739746 568.00482178 C-214.40518949 574.71578864 -214.34051111 581.42661518 -214.26918221 588.13740349 C-214.24632558 590.48014399 -214.2300818 592.82286617 -214.21446228 595.16566467 C-214.20106581 596.5890423 -214.18745191 598.0124179 -214.17358398 599.43579102 C-214.16407211 600.68248062 -214.15456024 601.92917023 -214.14476013 603.21363831 C-214.31658977 605.90656607 -214.31658977 605.90656607 -213 607 C-211.64905018 607.09268999 -210.29332909 607.11747326 -208.93920898 607.11352539 C-208.07839218 607.11344986 -207.21757538 607.11337433 -206.33067322 607.11329651 C-204.92755638 607.10555458 -204.92755638 607.10555458 -203.49609375 607.09765625 C-202.06657127 607.09553383 -202.06657127 607.09553383 -200.60816956 607.09336853 C-197.55124835 607.08775152 -194.49439923 607.07519616 -191.4375 607.0625 C-189.37044376 607.05748719 -187.30338638 607.05292391 -185.23632812 607.04882812 C-180.15752412 607.03777656 -175.0787743 607.02050055 -170 607 C-169.99413376 606.08704163 -169.98826752 605.17408325 -169.98222351 604.23345947 C-169.92405869 595.58393682 -169.85184777 586.93466588 -169.76428509 578.28538895 C-169.71976381 573.83985495 -169.68046875 569.39440876 -169.65356445 564.94873047 C-169.62734785 560.64969461 -169.58681935 556.35100003 -169.53681374 552.05217743 C-169.52026806 550.42098013 -169.50867789 548.78972397 -169.50238609 547.1584549 C-169.44984465 534.77593861 -168.33172952 523.60101111 -162.4375 512.5 C-161.83808594 511.3553125 -161.23867188 510.210625 -160.62109375 509.03125 C-160.08613281 508.0309375 -159.55117188 507.030625 -159 506 C-158.32815371 504.66926908 -157.65878893 503.3372432 -157 502 C-156.34 502 -155.68 502 -155 502 C-153.49153848 500.47379124 -153.49153848 500.47379124 -152 498.5625 C-149.20338983 495.10169492 -149.20338983 495.10169492 -147 494 C-147 493.34 -147 492.68 -147 492 C-146.42121094 491.71898437 -145.84242188 491.43796875 -145.24609375 491.1484375 C-143.83876723 490.42886533 -142.45081319 489.66845806 -141.09765625 488.8515625 C-134.74182997 485.02098774 -128.13205755 482.9477105 -121 481 C-120.37391846 480.82275391 -119.74783691 480.64550781 -119.1027832 480.46289062 C-103.12244951 476.94510209 -85.5814485 480.71755828 -71.72265625 488.87548828 C-57.4088097 498.21924922 -48.69275027 511.94446778 -44.65992737 528.35748291 C-43.38784815 535.37881666 -43.51571521 542.46534548 -43.48828125 549.578125 C-43.47139898 551.24250583 -43.45324409 552.90687418 -43.43388367 554.57122803 C-43.38676208 558.91115416 -43.35670967 563.25102972 -43.33044434 567.59112549 C-43.3004458 572.03611233 -43.25398276 576.48092543 -43.20898438 580.92578125 C-43.12338289 589.61710135 -43.05584789 598.30843797 -43 607 C-35.95674199 607.12772117 -28.91378714 607.21473444 -21.86962891 607.2746582 C-19.47791382 607.29966264 -17.08627405 607.33367754 -14.69482422 607.37719727 C-11.23906775 607.43846954 -7.78432926 607.46635181 -4.328125 607.48828125 C-2.74768402 607.52699089 -2.74768402 607.52699089 -1.13531494 607.56648254 C6.82383812 607.56942898 12.88446783 605.49539346 20 602 C20 601.34 20 600.68 20 600 C20.721875 599.7525 21.44375 599.505 22.1875 599.25 C30.39743171 595.60114146 36.43027049 587.08438741 40 579 C41.0706735 575.75004226 42.04221142 572.48022803 43 569.1953125 C43.84491538 566.49554383 44.79508517 564.05103062 46 561.5 C48.09800783 557.01123906 49.45952072 552.4001979 50.8671875 547.65625 C52.13603322 543.56094105 53.5513103 539.53431433 55 535.5 C57.23054798 529.28399272 59.24078616 523.03460875 61.13671875 516.70703125 C62 514 62 514 63.5 510.5625 C64.95722616 507.10158787 65.94508273 503.74326843 66.9375 500.125 C68.29126788 495.23380034 69.81264714 490.70347456 72.0703125 486.16015625 C73.35020618 483.18628565 74.12467525 480.11589483 75 477 C75.42052263 475.72220774 75.85035695 474.44744543 76.2890625 473.17578125 C76.50820312 472.53962891 76.72734375 471.90347656 76.953125 471.24804688 C77.4055137 469.94479919 77.8613112 468.64273034 78.3203125 467.34179688 C79.46774967 463.99169015 80 461.59280778 80 458 C79.20566055 457.99635437 78.41132111 457.99270874 77.59291077 457.98895264 C70.07549455 457.95095079 62.55856727 457.89396133 55.04146671 457.81609726 C51.17761193 457.77673195 47.3139813 457.74449038 43.44995117 457.72900391 C39.71491178 457.71376436 35.98048908 457.67919205 32.24572563 457.63169098 C30.82697372 457.61695177 29.40813372 457.6089633 27.9893055 457.60811615 C11.11501428 457.58792383 11.11501428 457.58792383 4.42640686 451.58856201 C-0.04311842 446.58765401 -1.48727372 441.90478168 -1.3125 435.33984375 C-0.60211363 430.02082578 1.8783333 425.73219842 5.8125 422.125 C12.91516788 417.38988808 19.99852113 417.71029386 28.28173828 417.72875977 C29.50367889 417.72353302 30.72561951 417.71830627 31.98458862 417.71292114 C34.6304711 417.70270061 37.27609444 417.69596543 39.92197037 417.69503975 C44.10779279 417.69309083 48.29345153 417.67499475 52.47921753 417.65428162 C62.87139387 417.6052142 73.26361423 417.57419252 83.65588379 417.55297852 C91.74270053 417.5364498 99.82937566 417.51363852 107.91609752 417.46995777 C112.0753208 417.44820371 116.23427487 417.44012128 120.39355111 417.44235051 C123.58810938 417.44029078 126.78255051 417.41893251 129.97705078 417.40063477 C131.70087982 417.40750053 131.70087982 417.40750053 133.45953369 417.414505 C134.5164743 417.40485718 135.57341492 417.39520935 136.66238403 417.38526917 C137.57785067 417.38325784 138.4933173 417.38124651 139.43652534 417.37917423 C143.54828568 416.7709866 146.19433545 414.98392439 148.80078125 411.80078125 C152.7622807 405.38741988 152.7622807 405.38741988 153.58984375 398.08203125 C152.09925708 392.82055645 149.25937612 387.73561142 144.89937653 384.38633946 C141.16892232 382.60261947 137.85650875 382.58393905 133.80919427 382.61934984 C132.98298459 382.61464596 132.15677491 382.60994209 131.30552857 382.60509567 C128.51931945 382.59292666 125.73359043 382.60222029 122.9473753 382.61130333 C120.92814979 382.60696248 118.90892674 382.60130957 116.88970819 382.59445876 C111.30647363 382.57937802 105.72338228 382.5831229 100.14013709 382.58979189 C94.07903785 382.59377605 88.01797308 382.58049845 81.95688611 382.56939852 C71.32254593 382.55236177 60.688251 382.54651223 50.05390167 382.54817581 C38.64068968 382.54992078 27.22750793 382.54521684 15.81430244 382.53262329 C15.09401275 382.53183385 14.37372306 382.53104441 13.63160641 382.53023105 C10.69807746 382.52699785 7.76454855 382.52372382 4.8310197 382.52039656 C-25.78999816 382.48572101 -56.4110022 382.47252244 -87.03203753 382.4670773 C-90.32925982 382.46648886 -93.6264821 382.46589508 -96.92370439 382.46529722 C-98.15098284 382.46507812 -98.15098284 382.46507812 -99.40305479 382.4648546 C-117.52403322 382.46154225 -135.64500824 382.45319539 -153.76598453 382.44404407 C-161.22466725 382.44029232 -168.68335003 382.43667125 -176.1420328 382.43304217 C-177.37816673 382.43243992 -177.37816673 382.43243992 -178.63927307 382.4318255 C-225.87189665 382.4088747 -273.1045184 382.39289582 -320.33714771 382.39092064 C-322.10523761 382.39084179 -323.87332751 382.39076252 -325.64141741 382.39068281 C-333.62442881 382.39032845 -341.60744022 382.39001124 -349.59045163 382.38969834 C-353.1503748 382.38955786 -356.71029798 382.38941312 -360.27022115 382.38926759 C-362.052028 382.38919596 -363.83383486 382.38912658 -365.61564171 382.38905945 C-421.96587954 382.38692497 -478.31604536 382.35787504 -534.66625977 382.30712891 C-576.68364919 382.26930116 -618.7010251 382.23361959 -660.71843243 382.22506142 C-661.56390213 382.22488803 -662.40937182 382.22471464 -663.28046182 382.224536 C-681.83900087 382.22081072 -700.39753962 382.21913195 -718.95607903 382.21934817 C-725.59637625 382.21940497 -732.23667346 382.21930005 -738.87697067 382.21911237 C-740.52895654 382.21906664 -742.18094242 382.21902873 -743.83292829 382.21899867 C-770.17406989 382.21843114 -796.5151434 382.19704961 -822.85626421 382.16523355 C-849.38109866 382.13334253 -875.90584351 382.12387472 -902.43069139 382.14517574 C-906.0938272 382.14811582 -909.75696316 382.15081301 -913.42009926 382.15336609 C-914.13819153 382.15387623 -914.8562838 382.15438637 -915.59613645 382.15491198 C-926.97871411 382.1623594 -938.36113262 382.14627422 -949.74367831 382.12045035 C-960.92908085 382.09556282 -972.11425431 382.09613428 -983.29967491 382.12220481 C-989.28622603 382.13543444 -995.27221556 382.1374005 -1001.25872538 382.10878138 C-1006.70027902 382.08298938 -1012.14080521 382.08915901 -1017.58231651 382.12129619 C-1019.54303179 382.12719571 -1021.50382578 382.12125466 -1023.46445828 382.1022973 C-1036.31582431 381.60082349 -1036.31582431 381.60082349 -1046.73777865 388.21246067 Z M-808 524 C-808 524.66 -808 525.32 -808 526 C-808.66 526 -809.32 526 -810 526 C-810.928125 527.546875 -810.928125 527.546875 -811.875 529.125 C-812.39707031 529.99511719 -812.39707031 529.99511719 -812.9296875 530.8828125 C-815.46934091 535.90650646 -816.2478877 540.31820924 -816.22705078 545.92333984 C-816.22734283 546.5874588 -816.22763489 547.25157776 -816.22793579 547.93582153 C-816.22655261 550.11099737 -816.21103988 552.28582218 -816.1953125 554.4609375 C-816.19157876 555.97693698 -816.18873349 557.49293889 -816.18673706 559.00894165 C-816.17912902 562.98409782 -816.1595051 566.95910606 -816.1373291 570.9342041 C-816.11319684 575.71167443 -816.1040762 580.48919444 -816.09242249 585.26670837 C-816.07307883 592.51124156 -816.03473678 599.75545064 -816 607 C-799.83 607 -783.66 607 -767 607 C-766.88350845 594.95609183 -766.88350845 594.95609183 -766.8046875 582.91210938 C-766.78084675 577.99420747 -766.75275201 573.07660563 -766.69824219 568.15893555 C-766.65453592 564.19074163 -766.6308111 560.22286984 -766.62049103 556.25445366 C-766.6131438 554.74628064 -766.59879699 553.23812373 -766.57707977 551.73008919 C-766.43537231 541.47498929 -767.49743891 534.30387822 -773.1875 525.6875 C-776.7671861 522.26691106 -780.43121635 520.75031987 -785 519 C-785.66 518.67 -786.32 518.34 -787 518 C-795.14155094 516.95003254 -801.31097829 519.5406522 -808 524 Z M-633 521 C-633 521.66 -633 522.32 -633 523 C-633.99 523 -634.98 523 -636 523 C-636 523.66 -636 524.32 -636 525 C-636.66 525 -637.32 525 -638 525 C-639.33542241 526.61307864 -639.33542241 526.61307864 -640.5625 528.6875 C-641.21412109 529.71423828 -641.21412109 529.71423828 -641.87890625 530.76171875 C-644.1603873 535.31673144 -644.1227036 539.88113064 -644.11352539 544.90161133 C-644.11367142 545.57533783 -644.11381744 546.24906433 -644.1139679 546.94320679 C-644.11327472 549.15618174 -644.10551036 551.36907111 -644.09765625 553.58203125 C-644.09578995 555.12188165 -644.09436705 556.66173265 -644.09336853 558.20158386 C-644.08956002 562.24410659 -644.07974402 566.28659309 -644.06866455 570.32910156 C-644.05841455 574.45832835 -644.05386323 578.58756102 -644.04882812 582.71679688 C-644.0381202 590.8112145 -644.02106386 598.90560273 -644 607 C-637.3247966 607.02526945 -630.64960543 607.04283268 -623.97436523 607.05493164 C-621.70157409 607.05997325 -619.4287862 607.06680637 -617.15600586 607.07543945 C-613.89696449 607.08751261 -610.63796583 607.09322987 -607.37890625 607.09765625 C-606.35599991 607.10281754 -605.33309357 607.10797882 -604.27919006 607.11329651 C-603.33829025 607.11337204 -602.39739044 607.11344757 -601.42797852 607.11352539 C-600.59524918 607.115746 -599.76251984 607.11796661 -598.90455627 607.12025452 C-596.98966726 607.21004832 -596.98966726 607.21004832 -596 606 C-595.90075693 604.08411502 -595.87200598 602.1645469 -595.87060547 600.24609375 C-595.86587723 598.39781982 -595.86587723 598.39781982 -595.86105347 596.51220703 C-595.86284482 595.153971 -595.86489617 593.79573528 -595.8671875 592.4375 C-595.86651386 591.04801415 -595.86554334 589.65852842 -595.86428833 588.26904297 C-595.86281027 585.34683111 -595.86496675 582.42464973 -595.86962891 579.50244141 C-595.87528403 575.7782392 -595.87207493 572.05410973 -595.86605644 568.32991028 C-595.86241746 565.4540758 -595.86360537 562.57825812 -595.86618423 559.7024231 C-595.86684651 558.33106477 -595.8660498 556.95970487 -595.86370468 555.58834839 C-595.44215867 541.26161615 -595.44215867 541.26161615 -600 528 C-600.66 528 -601.32 528 -602 528 C-602.185625 527.4225 -602.37125 526.845 -602.5625 526.25 C-604.64100075 522.99669447 -607.63470778 521.66060271 -611 520 C-611.804375 519.5875 -612.60875 519.175 -613.4375 518.75 C-620.52621251 516.67525488 -626.34761465 518.41296125 -633 521 Z M-469 528 C-474.19780863 535.63795941 -473.51601159 544.35433943 -473.390625 553.19140625 C-473.38315161 554.74795297 -473.37746387 556.30450918 -473.37347412 557.86106873 C-473.35830394 561.93009053 -473.31909854 565.99852844 -473.2746582 570.06732178 C-473.22626674 574.96408271 -473.20813032 579.86104041 -473.18484497 584.75797272 C-473.14624037 592.17238616 -473.06952884 599.585522 -473 607 C-457.16 607 -441.32 607 -425 607 C-424.88351224 594.77835692 -424.88351224 594.77835692 -424.8046875 582.55664062 C-424.78084496 577.56631295 -424.75274525 572.57628093 -424.69824219 567.58618164 C-424.65454222 563.55963352 -424.63081238 559.53340277 -424.62049103 555.50663567 C-424.61314269 553.97613471 -424.59879367 552.44564966 -424.57707977 550.91528511 C-424.4474385 541.39319547 -424.66926336 533.36792987 -430.859375 525.6953125 C-436.94798668 520.63824247 -442.74327824 517.28315274 -450.9296875 517.65234375 C-458.0131706 518.84183431 -464.2479047 522.70625345 -469 528 Z M-296 526 C-296 526.66 -296 527.32 -296 528 C-296.66 528 -297.32 528 -298 528 C-300.71455781 532.66025841 -301.36844291 536.01333186 -301.34057617 541.38232422 C-301.34101425 542.09521103 -301.34145233 542.80809784 -301.34190369 543.54258728 C-301.33982693 545.88024042 -301.3165498 548.2171609 -301.29296875 550.5546875 C-301.28736881 552.18278614 -301.28310059 553.81088985 -301.28010559 555.43899536 C-301.26868812 559.71014528 -301.23924794 563.98098588 -301.20599365 568.25201416 C-301.16980974 573.3840394 -301.15611684 578.51616844 -301.13863373 583.64828491 C-301.10960842 591.43240463 -301.05210018 599.21584654 -301 607 C-285.49 607 -269.98 607 -254 607 C-253.91263152 594.95607558 -253.91263152 594.95607558 -253.85351562 582.91210938 C-253.83563534 577.99428503 -253.81456421 573.07662948 -253.77368164 568.15893555 C-253.74090206 564.19075619 -253.72310811 560.22275804 -253.71536827 556.25445366 C-253.70985793 554.74630319 -253.69909815 553.23816177 -253.68280983 551.73008919 C-253.58781173 542.56364704 -253.64342354 534.50478539 -258.5625 526.4375 C-259.036875 525.963125 -259.51125 525.48875 -260 525 C-260.66 525 -261.32 525 -262 525 C-262 524.34 -262 523.68 -262 523 C-262.99 523 -263.98 523 -265 523 C-265 522.34 -265 521.68 -265 521 C-276.39447814 516.02786408 -286.73758184 517.03636952 -296 526 Z M-123 524 C-123 524.66 -123 525.32 -123 526 C-123.66 526 -124.32 526 -125 526 C-125.928125 527.546875 -125.928125 527.546875 -126.875 529.125 C-127.39707031 529.99511719 -127.39707031 529.99511719 -127.9296875 530.8828125 C-130.46934091 535.90650646 -131.2478877 540.31820924 -131.22705078 545.92333984 C-131.22734283 546.5874588 -131.22763489 547.25157776 -131.22793579 547.93582153 C-131.22655261 550.11099737 -131.21103988 552.28582218 -131.1953125 554.4609375 C-131.19157876 555.97693698 -131.18873349 557.49293889 -131.18673706 559.00894165 C-131.17912902 562.98409782 -131.1595051 566.95910606 -131.1373291 570.9342041 C-131.11319684 575.71167443 -131.1040762 580.48919444 -131.09242249 585.26670837 C-131.07307883 592.51124156 -131.03473678 599.75545064 -131 607 C-114.83 607 -98.66 607 -82 607 C-81.88350845 594.95609183 -81.88350845 594.95609183 -81.8046875 582.91210938 C-81.78084675 577.99420747 -81.75275201 573.07660563 -81.69824219 568.15893555 C-81.65453592 564.19074163 -81.6308111 560.22286984 -81.62049103 556.25445366 C-81.6131438 554.74628064 -81.59879699 553.23812373 -81.57707977 551.73008919 C-81.43537231 541.47498929 -82.49743891 534.30387822 -88.1875 525.6875 C-91.7671861 522.26691106 -95.43121635 520.75031987 -100 519 C-100.66 518.67 -101.32 518.34 -102 518 C-110.14155094 516.95003254 -116.31097829 519.5406522 -123 524 Z " fill="#000000" transform="translate(1089,320)"/>
</svg>
