<?xml version="1.0" encoding="UTF-8"?>
<!-- Generator: visioncortex VTracer 0.6.2 -->
<svg version="1.1" xmlns="http://www.w3.org/2000/svg" width="592" height="1280">
<path d="M0 0 C1.05947391 -0.00322445 2.11894782 -0.00644889 3.210527 -0.00977105 C4.94718755 -0.00744815 4.94718755 -0.00744815 6.71893215 -0.00507832 C7.95361483 -0.00734387 9.1882975 -0.00960943 10.4603948 -0.01194364 C13.88466827 -0.0171801 17.30888925 -0.01792832 20.733163 -0.01674926 C24.42712316 -0.01654521 28.12107549 -0.02206437 31.81503201 -0.02680683 C39.05010447 -0.035112 46.28516879 -0.03786158 53.52024562 -0.03841921 C59.39919372 -0.0388943 65.27813913 -0.04094867 71.15708637 -0.04411983 C87.81921792 -0.05292492 104.48134302 -0.05753927 121.14347691 -0.05678936 C122.49076904 -0.05672943 122.49076904 -0.05672943 123.8652792 -0.05666828 C124.76456811 -0.0566274 125.66385702 -0.05658652 126.59039711 -0.0565444 C141.17587174 -0.05613765 155.76132059 -0.06571491 170.34678776 -0.07980665 C185.31737149 -0.0941566 200.28794263 -0.10107764 215.25853342 -0.10021287 C223.66577521 -0.09988049 232.07298996 -0.10264559 240.48022556 -0.11339092 C247.63560426 -0.12247763 254.79094365 -0.12468618 261.94632561 -0.1178815 C265.59843898 -0.11460741 269.25047684 -0.11459154 272.90258312 -0.12323475 C276.85743339 -0.13249846 280.81217228 -0.12634719 284.76702785 -0.11860371 C286.50703449 -0.12631905 286.50703449 -0.12631905 288.28219277 -0.13419026 C289.86749201 -0.12729207 289.86749201 -0.12729207 291.4848175 -0.12025452 C292.39799258 -0.12047188 293.31116765 -0.12068925 294.2520147 -0.12091321 C296.84927348 0.14608862 298.43581644 0.8319211 300.67948818 2.12863445 C301.92501314 2.6805134 303.17484047 3.22282196 304.42948818 3.75363445 C305.50198818 4.20738445 306.57448818 4.66113445 307.67948818 5.12863445 C307.67948818 5.78863445 307.67948818 6.44863445 307.67948818 7.12863445 C308.51480068 7.19050945 308.51480068 7.19050945 309.36698818 7.25363445 C314.72381336 9.28054128 317.53601995 15.19404511 319.83183193 20.1481657 C323.47595778 28.6623215 324.19629339 39.11943366 321.67948818 48.12863445 C321.01948818 48.78863445 320.35948818 49.44863445 319.67948818 50.12863445 C319.34948818 49.79863445 319.01948818 49.46863445 318.67948818 49.12863445 C318.25989834 49.99875164 318.25989834 49.99875164 317.83183193 50.88644695 C314.99550731 56.41317596 311.97500379 60.72723274 306.67948818 64.12863445 C306.01948818 64.12863445 305.35948818 64.12863445 304.67948818 64.12863445 C305.00948818 65.44863445 305.33948818 66.76863445 305.67948818 68.12863445 C305.11745693 67.94429852 304.55542568 67.75996258 303.97636318 67.5700407 C301.29688444 67.05510686 299.56402507 67.40750023 296.92948818 68.06613445 C296.13026943 68.26078289 295.33105068 68.45543133 294.50761318 68.6559782 C293.60269131 68.88994305 293.60269131 68.88994305 292.67948818 69.12863445 C292.67948818 69.78863445 292.67948818 70.44863445 292.67948818 71.12863445 C293.66948818 71.45863445 294.65948818 71.78863445 295.67948818 72.12863445 C293.03948818 72.45863445 290.39948818 72.78863445 287.67948818 73.12863445 C287.01948818 74.77863445 286.35948818 76.42863445 285.67948818 78.12863445 C286.33948818 78.12863445 286.99948818 78.12863445 287.67948818 78.12863445 C287.67948818 260.61863445 287.67948818 443.10863445 287.67948818 631.12863445 C289.98948818 631.12863445 292.29948818 631.12863445 294.67948818 631.12863445 C298.20683193 632.22238445 298.20683193 632.22238445 301.61698818 633.62863445 C302.76038662 634.09269695 303.90378506 634.55675945 305.08183193 635.03488445 C305.93905849 635.39582195 306.79628506 635.75675945 307.67948818 636.12863445 C307.67948818 636.78863445 307.67948818 637.44863445 307.67948818 638.12863445 C308.27632412 638.21757977 308.87316006 638.30652508 309.48808193 638.3981657 C314.32122546 640.00921355 316.93814354 645.88423452 319.42948818 650.06613445 C322.68325536 658.03786405 322.93976239 665.58296459 322.67948818 674.12863445 C321.68948818 674.45863445 320.69948818 674.78863445 319.67948818 675.12863445 C318.76062394 677.02463805 318.76062394 677.02463805 318.17948818 679.31613445 C317.00457648 683.15295548 315.75775362 686.66485873 313.67948818 690.12863445 C312.68948818 690.45863445 311.69948818 690.78863445 310.67948818 691.12863445 C310.34948818 692.11863445 310.01948818 693.10863445 309.67948818 694.12863445 C308.02948818 694.45863445 306.37948818 694.78863445 304.67948818 695.12863445 C305.00948818 696.44863445 305.33948818 697.76863445 305.67948818 699.12863445 C304.68948818 698.79863445 303.69948818 698.46863445 302.67948818 698.12863445 C300.34132668 698.42621864 298.00766782 698.76102714 295.67948818 699.12863445 C294.35948818 699.12863445 293.03948818 699.12863445 291.67948818 699.12863445 C291.67948818 699.78863445 291.67948818 700.44863445 291.67948818 701.12863445 C253.7330726 701.15149942 215.78665804 701.16913196 177.84023697 701.17969978 C173.36518593 701.18095056 168.8901349 701.18224488 164.41508389 701.18356609 C163.52414299 701.1838284 162.6332021 701.18409071 161.715263 701.18436097 C147.26971636 701.18871797 132.82417368 701.19660567 118.37862939 701.20578725 C103.56755228 701.21512298 88.75647725 701.22068989 73.94539732 701.22272295 C64.79858109 701.22409834 55.65177606 701.22844983 46.50496327 701.23655092 C40.24143818 701.24181738 33.97791892 701.24343898 27.71439178 701.24213583 C24.09510897 701.24149229 20.47584579 701.24251171 16.85656643 701.24783993 C12.94202858 701.25356107 9.02751672 701.25163557 5.11297512 701.24888897 C3.95638537 701.25180181 2.79979562 701.25471465 1.60815769 701.25771576 C0.56811476 701.25572471 -0.47192817 701.25373366 -1.54348755 701.25168228 C-2.90079787 701.25225186 -2.90079787 701.25225186 -4.2855286 701.25283295 C-6.32051182 701.12863445 -6.32051182 701.12863445 -7.32051182 700.12863445 C-8.04238682 700.02550945 -8.76426182 699.92238445 -9.50801182 699.81613445 C-14.92036021 698.49311596 -18.48873367 694.9604126 -22.32051182 691.12863445 C-22.32051182 690.13863445 -22.32051182 689.14863445 -22.32051182 688.12863445 C-22.98051182 688.12863445 -23.64051182 688.12863445 -24.32051182 688.12863445 C-24.98051182 685.81863445 -25.64051182 683.50863445 -26.32051182 681.12863445 C-26.98051182 681.12863445 -27.64051182 681.12863445 -28.32051182 681.12863445 C-29.5589078 674.47225602 -29.41190318 667.88144085 -29.32051182 661.12863445 C-29.98051182 660.79863445 -30.64051182 660.46863445 -31.32051182 660.12863445 C-30.33051182 660.12863445 -29.34051182 660.12863445 -28.32051182 660.12863445 C-28.32051182 658.14863445 -28.32051182 656.16863445 -28.32051182 654.12863445 C-27.66051182 654.12863445 -27.00051182 654.12863445 -26.32051182 654.12863445 C-26.40301182 653.40675945 -26.48551182 652.68488445 -26.57051182 651.94113445 C-26.24624622 648.29314651 -24.74731595 646.78295147 -22.32051182 644.12863445 C-22.98051182 643.79863445 -23.64051182 643.46863445 -24.32051182 643.12863445 C-20.92945568 639.23519963 -20.92945568 639.23519963 -17.82051182 638.69113445 C-14.32944583 637.90564461 -13.30195154 635.99071404 -11.32051182 633.12863445 C-9.67051182 633.45863445 -8.02051182 633.78863445 -6.32051182 634.12863445 C-6.32051182 633.46863445 -6.32051182 632.80863445 -6.32051182 632.12863445 C-5.68242588 632.07965008 -5.04433994 632.0306657 -4.38691807 631.98019695 C-3.56062901 631.90543133 -2.73433994 631.8306657 -1.88301182 631.75363445 C-1.05930088 631.68402508 -0.23558994 631.6144157 0.61308193 631.54269695 C1.29499599 631.40605633 1.97691006 631.2694157 2.67948818 631.12863445 C3.00948818 630.46863445 3.33948818 629.80863445 3.67948818 629.12863445 C3.67948818 629.78863445 3.67948818 630.44863445 3.67948818 631.12863445 C4.66948818 631.12863445 5.65948818 631.12863445 6.67948818 631.12863445 C6.51734815 630.49187277 6.35520812 629.85511108 6.18815476 629.19905359 C5.51144003 625.11426026 5.5359145 621.13557022 5.54082298 617.00192833 C5.53655966 615.61302901 5.53655966 615.61302901 5.5322102 614.19607112 C5.523852 611.07638992 5.5225941 607.9567458 5.5212698 604.83705425 C5.51670522 602.58472188 5.51170535 600.33239035 5.50630623 598.08005983 C5.49270391 591.87750071 5.4853007 585.67494709 5.47887957 579.47237694 C5.47170536 573.47466076 5.45988183 567.47695428 5.44816154 561.47924566 C5.42434488 549.20890415 5.40514327 536.93855946 5.3885622 524.66820621 C5.37212729 512.51715121 5.35364711 500.36610215 5.33242893 488.21505451 C5.33111133 487.45983922 5.32979372 486.70462392 5.32843618 485.92652331 C5.3217342 482.09124357 5.31499561 478.2559639 5.30824292 474.42068426 C5.26046634 447.24790064 5.2172852 420.07511147 5.17680264 392.90231609 C5.13746128 366.5025724 5.09604082 340.10283331 5.05180264 313.70309734 C5.04975884 312.48269308 5.04975884 312.48269308 5.04767376 311.23763419 C5.03398851 303.06717926 5.02026096 294.89672441 5.00650242 286.72626961 C4.97847507 270.08177123 4.95073007 253.43727238 4.92315578 236.79277325 C4.92188759 236.02746823 4.92061939 235.26216322 4.91931276 234.47366715 C4.83464165 183.35866371 4.75657325 132.24364983 4.67948818 81.12863445 C5.33948818 81.12863445 5.99948818 81.12863445 6.67948818 81.12863445 C6.44944084 75.73783475 6.44944084 75.73783475 4.11698818 71.12863445 C3.64261318 70.79863445 3.16823818 70.46863445 2.67948818 70.12863445 C2.67948818 70.78863445 2.67948818 71.44863445 2.67948818 72.12863445 C-2.94551182 72.37863445 -2.94551182 72.37863445 -6.32051182 70.12863445 C-7.26926182 69.83988445 -8.21801182 69.55113445 -9.19551182 69.25363445 C-16.71683694 66.54595741 -22.7938923 59.18187349 -26.32051182 52.12863445 C-26.32051182 51.13863445 -26.32051182 50.14863445 -26.32051182 49.12863445 C-26.98051182 49.12863445 -27.64051182 49.12863445 -28.32051182 49.12863445 C-29.16074369 44.7753071 -29.42822176 40.68420926 -29.38301182 36.25363445 C-29.37398838 35.10121258 -29.36496494 33.9487907 -29.35566807 32.76144695 C-29.34406651 31.89261883 -29.33246494 31.0237907 -29.32051182 30.12863445 C-29.98051182 29.79863445 -30.64051182 29.46863445 -31.32051182 29.12863445 C-30.66051182 28.79863445 -30.00051182 28.46863445 -29.32051182 28.12863445 C-28.93056079 26.26371043 -28.93056079 26.26371043 -28.82051182 24.12863445 C-28.66426182 21.94113445 -28.66426182 21.94113445 -28.32051182 20.12863445 C-27.66051182 19.79863445 -27.00051182 19.46863445 -26.32051182 19.12863445 C-25.99051182 18.13863445 -25.66051182 17.14863445 -25.32051182 16.12863445 C-25.98051182 15.79863445 -26.64051182 15.46863445 -27.32051182 15.12863445 C-26.33051182 14.50988445 -26.33051182 14.50988445 -25.32051182 13.87863445 C-24.66051182 13.30113445 -24.00051182 12.72363445 -23.32051182 12.12863445 C-23.32051182 10.80863445 -23.32051182 9.48863445 -23.32051182 8.12863445 C-22.59863682 7.88113445 -21.87676182 7.63363445 -21.13301182 7.37863445 C-18.06993374 6.01726642 -15.90716843 4.23880169 -13.32051182 2.12863445 C-8.81823134 0.62787429 -4.74108736 0.00365663 0 0 Z M317.67948818 21.12863445 C318.00948818 23.10863445 318.33948818 25.08863445 318.67948818 27.12863445 C319.00948818 27.12863445 319.33948818 27.12863445 319.67948818 27.12863445 C319.67948818 25.47863445 319.67948818 23.82863445 319.67948818 22.12863445 C319.01948818 21.79863445 318.35948818 21.46863445 317.67948818 21.12863445 Z M320.67948818 31.12863445 C320.67948818 33.10863445 320.67948818 35.08863445 320.67948818 37.12863445 C321.00948818 37.12863445 321.33948818 37.12863445 321.67948818 37.12863445 C321.67948818 35.14863445 321.67948818 33.16863445 321.67948818 31.12863445 C321.34948818 31.12863445 321.01948818 31.12863445 320.67948818 31.12863445 Z M320.67948818 39.12863445 C321.67948818 42.12863445 321.67948818 42.12863445 321.67948818 42.12863445 Z M-5.32051182 68.12863445 C-5.32051182 68.45863445 -5.32051182 68.78863445 -5.32051182 69.12863445 C-3.34051182 69.12863445 -1.36051182 69.12863445 0.67948818 69.12863445 C0.67948818 68.79863445 0.67948818 68.46863445 0.67948818 68.12863445 C-1.30051182 68.12863445 -3.28051182 68.12863445 -5.32051182 68.12863445 Z M286.67948818 70.12863445 C290.67948818 71.12863445 290.67948818 71.12863445 290.67948818 71.12863445 Z M284.67948818 82.12863445 C285.67948818 86.12863445 285.67948818 86.12863445 285.67948818 86.12863445 Z M284.67948818 97.12863445 C285.67948818 99.12863445 285.67948818 99.12863445 285.67948818 99.12863445 Z M284.67948818 110.12863445 C285.67948818 112.12863445 285.67948818 112.12863445 285.67948818 112.12863445 Z M284.67948818 133.12863445 C285.67948818 135.12863445 285.67948818 135.12863445 285.67948818 135.12863445 Z M284.67948818 149.12863445 C285.67948818 151.12863445 285.67948818 151.12863445 285.67948818 151.12863445 Z M284.67948818 174.12863445 C285.67948818 176.12863445 285.67948818 176.12863445 285.67948818 176.12863445 Z M284.67948818 189.12863445 C284.67948818 191.10863445 284.67948818 193.08863445 284.67948818 195.12863445 C285.00948818 195.12863445 285.33948818 195.12863445 285.67948818 195.12863445 C285.67948818 193.14863445 285.67948818 191.16863445 285.67948818 189.12863445 C285.34948818 189.12863445 285.01948818 189.12863445 284.67948818 189.12863445 Z M284.67948818 207.12863445 C284.67948818 209.10863445 284.67948818 211.08863445 284.67948818 213.12863445 C285.00948818 213.12863445 285.33948818 213.12863445 285.67948818 213.12863445 C285.67948818 211.14863445 285.67948818 209.16863445 285.67948818 207.12863445 C285.34948818 207.12863445 285.01948818 207.12863445 284.67948818 207.12863445 Z M284.67948818 238.12863445 C285.67948818 240.12863445 285.67948818 240.12863445 285.67948818 240.12863445 Z M284.67948818 250.12863445 C285.67948818 254.12863445 285.67948818 254.12863445 285.67948818 254.12863445 Z M284.67948818 256.12863445 C285.67948818 259.12863445 285.67948818 259.12863445 285.67948818 259.12863445 Z M284.67948818 318.12863445 C284.67948818 320.43863445 284.67948818 322.74863445 284.67948818 325.12863445 C285.00948818 325.12863445 285.33948818 325.12863445 285.67948818 325.12863445 C285.67948818 322.81863445 285.67948818 320.50863445 285.67948818 318.12863445 C285.34948818 318.12863445 285.01948818 318.12863445 284.67948818 318.12863445 Z M284.67948818 328.12863445 C285.67948818 331.12863445 285.67948818 331.12863445 285.67948818 331.12863445 Z M284.67948818 335.12863445 C285.67948818 338.12863445 285.67948818 338.12863445 285.67948818 338.12863445 Z M284.67948818 340.12863445 C285.67948818 342.12863445 285.67948818 342.12863445 285.67948818 342.12863445 Z M284.67948818 347.12863445 C285.67948818 350.12863445 285.67948818 350.12863445 285.67948818 350.12863445 Z M284.67948818 410.12863445 C285.67948818 413.12863445 285.67948818 413.12863445 285.67948818 413.12863445 Z M284.67948818 430.12863445 C284.67948818 431.77863445 284.67948818 433.42863445 284.67948818 435.12863445 C285.00948818 435.12863445 285.33948818 435.12863445 285.67948818 435.12863445 C285.67948818 433.47863445 285.67948818 431.82863445 285.67948818 430.12863445 C285.34948818 430.12863445 285.01948818 430.12863445 284.67948818 430.12863445 Z M284.67948818 449.12863445 C284.67948818 450.77863445 284.67948818 452.42863445 284.67948818 454.12863445 C285.00948818 454.12863445 285.33948818 454.12863445 285.67948818 454.12863445 C285.67948818 452.47863445 285.67948818 450.82863445 285.67948818 449.12863445 C285.34948818 449.12863445 285.01948818 449.12863445 284.67948818 449.12863445 Z M284.67948818 469.12863445 C284.67948818 470.77863445 284.67948818 472.42863445 284.67948818 474.12863445 C285.00948818 474.12863445 285.33948818 474.12863445 285.67948818 474.12863445 C285.67948818 472.47863445 285.67948818 470.82863445 285.67948818 469.12863445 C285.34948818 469.12863445 285.01948818 469.12863445 284.67948818 469.12863445 Z M284.67948818 490.12863445 C285.67948818 493.12863445 285.67948818 493.12863445 285.67948818 493.12863445 Z M284.67948818 502.12863445 C285.67948818 504.12863445 285.67948818 504.12863445 285.67948818 504.12863445 Z M284.67948818 553.12863445 C285.67948818 555.12863445 285.67948818 555.12863445 285.67948818 555.12863445 Z M284.67948818 567.12863445 C285.67948818 569.12863445 285.67948818 569.12863445 285.67948818 569.12863445 Z M284.67948818 586.12863445 C285.67948818 588.12863445 285.67948818 588.12863445 285.67948818 588.12863445 Z M284.67948818 601.12863445 C285.67948818 603.12863445 285.67948818 603.12863445 285.67948818 603.12863445 Z M284.67948818 608.12863445 C284.67948818 610.76863445 284.67948818 613.40863445 284.67948818 616.12863445 C285.00948818 616.12863445 285.33948818 616.12863445 285.67948818 616.12863445 C285.67948818 613.48863445 285.67948818 610.84863445 285.67948818 608.12863445 C285.34948818 608.12863445 285.01948818 608.12863445 284.67948818 608.12863445 Z M284.67948818 625.12863445 C285.67948818 627.12863445 285.67948818 627.12863445 285.67948818 627.12863445 Z M-19.32051182 640.12863445 C-19.65051182 640.78863445 -19.98051182 641.44863445 -20.32051182 642.12863445 C-19.66051182 642.12863445 -19.00051182 642.12863445 -18.32051182 642.12863445 C-18.65051182 641.46863445 -18.98051182 640.80863445 -19.32051182 640.12863445 Z M317.67948818 652.12863445 C318.00948818 654.10863445 318.33948818 656.08863445 318.67948818 658.12863445 C319.36097048 656.23684242 319.36097048 656.23684242 319.67948818 654.12863445 C319.01948818 653.46863445 318.35948818 652.80863445 317.67948818 652.12863445 Z M320.67948818 663.12863445 C320.67948818 664.77863445 320.67948818 666.42863445 320.67948818 668.12863445 C321.00948818 668.12863445 321.33948818 668.12863445 321.67948818 668.12863445 C321.67948818 666.47863445 321.67948818 664.82863445 321.67948818 663.12863445 C321.34948818 663.12863445 321.01948818 663.12863445 320.67948818 663.12863445 Z M320.67948818 669.12863445 C321.67948818 673.12863445 321.67948818 673.12863445 321.67948818 673.12863445 Z " fill="#A3AAB6" transform="translate(154.32051181793213,254.87136554718018)"/>
<path d="M0 0 C1.05947391 -0.00322445 2.11894782 -0.00644889 3.210527 -0.00977105 C4.94718755 -0.00744815 4.94718755 -0.00744815 6.71893215 -0.00507832 C7.95361483 -0.00734387 9.1882975 -0.00960943 10.4603948 -0.01194364 C13.88466827 -0.0171801 17.30888925 -0.01792832 20.733163 -0.01674926 C24.42712316 -0.01654521 28.12107549 -0.02206437 31.81503201 -0.02680683 C39.05010447 -0.035112 46.28516879 -0.03786158 53.52024562 -0.03841921 C59.39919372 -0.0388943 65.27813913 -0.04094867 71.15708637 -0.04411983 C87.81921792 -0.05292492 104.48134302 -0.05753927 121.14347691 -0.05678936 C122.49076904 -0.05672943 122.49076904 -0.05672943 123.8652792 -0.05666828 C124.76456811 -0.0566274 125.66385702 -0.05658652 126.59039711 -0.0565444 C141.17587174 -0.05613765 155.76132059 -0.06571491 170.34678776 -0.07980665 C185.31737149 -0.0941566 200.28794263 -0.10107764 215.25853342 -0.10021287 C223.66577521 -0.09988049 232.07298996 -0.10264559 240.48022556 -0.11339092 C247.63560426 -0.12247763 254.79094365 -0.12468618 261.94632561 -0.1178815 C265.59843898 -0.11460741 269.25047684 -0.11459154 272.90258312 -0.12323475 C276.85743339 -0.13249846 280.81217228 -0.12634719 284.76702785 -0.11860371 C286.50703449 -0.12631905 286.50703449 -0.12631905 288.28219277 -0.13419026 C289.86749201 -0.12729207 289.86749201 -0.12729207 291.4848175 -0.12025452 C292.39799258 -0.12047188 293.31116765 -0.12068925 294.2520147 -0.12091321 C296.84927348 0.14608862 298.43581644 0.8319211 300.67948818 2.12863445 C301.92501314 2.6805134 303.17484047 3.22282196 304.42948818 3.75363445 C305.50198818 4.20738445 306.57448818 4.66113445 307.67948818 5.12863445 C307.67948818 5.78863445 307.67948818 6.44863445 307.67948818 7.12863445 C308.51480068 7.19050945 308.51480068 7.19050945 309.36698818 7.25363445 C314.72381336 9.28054128 317.53601995 15.19404511 319.83183193 20.1481657 C323.47595778 28.6623215 324.19629339 39.11943366 321.67948818 48.12863445 C321.01948818 48.78863445 320.35948818 49.44863445 319.67948818 50.12863445 C319.34948818 49.79863445 319.01948818 49.46863445 318.67948818 49.12863445 C318.25989834 49.99875164 318.25989834 49.99875164 317.83183193 50.88644695 C314.99550731 56.41317596 311.97500379 60.72723274 306.67948818 64.12863445 C306.01948818 64.12863445 305.35948818 64.12863445 304.67948818 64.12863445 C305.00948818 65.44863445 305.33948818 66.76863445 305.67948818 68.12863445 C305.11745693 67.94429852 304.55542568 67.75996258 303.97636318 67.5700407 C301.29688444 67.05510686 299.56402507 67.40750023 296.92948818 68.06613445 C296.13026943 68.26078289 295.33105068 68.45543133 294.50761318 68.6559782 C293.60269131 68.88994305 293.60269131 68.88994305 292.67948818 69.12863445 C292.67948818 69.78863445 292.67948818 70.44863445 292.67948818 71.12863445 C293.66948818 71.45863445 294.65948818 71.78863445 295.67948818 72.12863445 C295.06460537 72.03324383 294.44972256 71.9378532 293.81620693 71.83957195 C293.00796474 71.72871258 292.19972256 71.6178532 291.36698818 71.50363445 C290.56648037 71.38761883 289.76597256 71.2716032 288.94120693 71.15207195 C286.39225603 70.91330038 286.39225603 70.91330038 283.67948818 73.12863445 C282.68948818 72.79863445 281.69948818 72.46863445 280.67948818 72.12863445 C279.14790569 72.03383986 277.6125425 71.9949307 276.07803726 71.98996925 C275.12806392 71.98449481 274.17809057 71.97902037 273.19933015 71.97338003 C272.15362169 71.97240192 271.10791322 71.97142382 270.03051662 71.97041607 C268.92131066 71.96547809 267.8121047 71.96054011 266.66928643 71.9554525 C262.93351214 71.94003184 259.1977551 71.93170451 255.46195889 71.92331219 C252.79159701 71.91373725 250.12123929 71.90377101 247.450881 71.89331341 C241.69199563 71.87154389 235.93310794 71.85340114 230.17420292 71.83770847 C221.84775187 71.81501418 213.52132629 71.78687074 205.19489684 71.7573892 C191.68643527 71.70970788 178.1779633 71.66644516 164.66947842 71.62594891 C151.54577226 71.58659673 138.42207536 71.54517117 125.29838467 71.50094891 C124.48969704 71.49822463 123.6810094 71.49550036 122.84781609 71.49269354 C118.79094457 71.4790141 114.73407318 71.46529382 110.67720187 71.45155323 C77.0113164 71.33757997 43.34541163 71.23077249 9.67948818 71.12863445 C9.34948818 71.78863445 9.01948818 72.44863445 8.67948818 73.12863445 C6.69948818 72.13863445 4.71948818 71.14863445 2.67948818 70.12863445 C2.67948818 70.78863445 2.67948818 71.44863445 2.67948818 72.12863445 C-2.94551182 72.37863445 -2.94551182 72.37863445 -6.32051182 70.12863445 C-7.26926182 69.83988445 -8.21801182 69.55113445 -9.19551182 69.25363445 C-16.71683694 66.54595741 -22.7938923 59.18187349 -26.32051182 52.12863445 C-26.32051182 51.13863445 -26.32051182 50.14863445 -26.32051182 49.12863445 C-26.98051182 49.12863445 -27.64051182 49.12863445 -28.32051182 49.12863445 C-29.16074369 44.7753071 -29.42822176 40.68420926 -29.38301182 36.25363445 C-29.37398838 35.10121258 -29.36496494 33.9487907 -29.35566807 32.76144695 C-29.34406651 31.89261883 -29.33246494 31.0237907 -29.32051182 30.12863445 C-29.98051182 29.79863445 -30.64051182 29.46863445 -31.32051182 29.12863445 C-30.66051182 28.79863445 -30.00051182 28.46863445 -29.32051182 28.12863445 C-28.93056079 26.26371043 -28.93056079 26.26371043 -28.82051182 24.12863445 C-28.66426182 21.94113445 -28.66426182 21.94113445 -28.32051182 20.12863445 C-27.66051182 19.79863445 -27.00051182 19.46863445 -26.32051182 19.12863445 C-25.99051182 18.13863445 -25.66051182 17.14863445 -25.32051182 16.12863445 C-25.98051182 15.79863445 -26.64051182 15.46863445 -27.32051182 15.12863445 C-26.33051182 14.50988445 -26.33051182 14.50988445 -25.32051182 13.87863445 C-24.66051182 13.30113445 -24.00051182 12.72363445 -23.32051182 12.12863445 C-23.32051182 10.80863445 -23.32051182 9.48863445 -23.32051182 8.12863445 C-22.59863682 7.88113445 -21.87676182 7.63363445 -21.13301182 7.37863445 C-18.06993374 6.01726642 -15.90716843 4.23880169 -13.32051182 2.12863445 C-8.81823134 0.62787429 -4.74108736 0.00365663 0 0 Z M317.67948818 21.12863445 C318.00948818 23.10863445 318.33948818 25.08863445 318.67948818 27.12863445 C319.00948818 27.12863445 319.33948818 27.12863445 319.67948818 27.12863445 C319.67948818 25.47863445 319.67948818 23.82863445 319.67948818 22.12863445 C319.01948818 21.79863445 318.35948818 21.46863445 317.67948818 21.12863445 Z M320.67948818 31.12863445 C320.67948818 33.10863445 320.67948818 35.08863445 320.67948818 37.12863445 C321.00948818 37.12863445 321.33948818 37.12863445 321.67948818 37.12863445 C321.67948818 35.14863445 321.67948818 33.16863445 321.67948818 31.12863445 C321.34948818 31.12863445 321.01948818 31.12863445 320.67948818 31.12863445 Z M320.67948818 39.12863445 C321.67948818 42.12863445 321.67948818 42.12863445 321.67948818 42.12863445 Z M-5.32051182 68.12863445 C-5.32051182 68.45863445 -5.32051182 68.78863445 -5.32051182 69.12863445 C-3.34051182 69.12863445 -1.36051182 69.12863445 0.67948818 69.12863445 C0.67948818 68.79863445 0.67948818 68.46863445 0.67948818 68.12863445 C-1.30051182 68.12863445 -3.28051182 68.12863445 -5.32051182 68.12863445 Z " fill="#1A304E" transform="translate(154.32051181793213,254.87136554718018)"/>
<path d="M0 0 C0.495 1.485 0.495 1.485 1 3 C1.87918531 2.85862736 2.75837063 2.71725471 3.66419792 2.57159805 C16.05001612 0.78471508 28.27783934 0.71689776 40.77392578 0.74121094 C43.13464973 0.73849554 45.49537284 0.73493155 47.85609436 0.73059082 C54.22627699 0.72152684 60.59639433 0.72498704 66.96657801 0.73134899 C70.95826044 0.73438485 74.94993364 0.73422632 78.94161606 0.73236847 C79.6075091 0.732062 80.27340214 0.73175554 80.95947375 0.73143978 C82.31295412 0.73080022 83.66643449 0.73015179 85.01991485 0.7294946 C97.67215796 0.72380994 110.32437196 0.73031842 122.97661029 0.74109533 C133.78390063 0.75001673 144.59114795 0.74848682 155.3984375 0.73925781 C168.00088897 0.72850057 180.60331495 0.72437203 193.20577037 0.73048234 C194.55567669 0.73111931 195.90558302 0.73174805 197.25548935 0.73236847 C197.91935267 0.73267702 198.583216 0.73298557 199.26719639 0.73330347 C203.89826199 0.73501508 208.52931052 0.73204834 213.16037369 0.72740936 C219.42320344 0.72157343 225.68595311 0.72574542 231.94877434 0.73719788 C234.22937704 0.73981209 236.50998664 0.73913588 238.79058647 0.73467255 C253.30939145 0.70890822 267.56359259 1.43404589 282 3 C282.33 2.01 282.66 1.02 283 0 C283 0.99 283 1.98 283 3 C284.216875 2.731875 285.43375 2.46375 286.6875 2.1875 C293.36590113 1.3767037 299.01937774 4.32859377 305 7 C305 7.66 305 8.32 305 9 C305.59683594 9.08894531 306.19367188 9.17789063 306.80859375 9.26953125 C311.64173728 10.88057909 314.25865536 16.75560006 316.75 20.9375 C320.00376718 28.90922959 320.26027421 36.45433013 320 45 C318.515 45.495 318.515 45.495 317 46 C316.08113575 47.8960036 316.08113575 47.8960036 315.5 50.1875 C314.3250883 54.02432103 313.07826544 57.53622427 311 61 C309.515 61.495 309.515 61.495 308 62 C307.67 62.99 307.34 63.98 307 65 C305.35 65.33 303.7 65.66 302 66 C302.33 67.32 302.66 68.64 303 70 C302.01 69.67 301.02 69.34 300 69 C297.6618385 69.29758419 295.32817964 69.63239269 293 70 C291.68 70 290.36 70 289 70 C289 70.66 289 71.32 289 72 C251.05358441 72.02286496 213.10716986 72.04049751 175.16074878 72.05106533 C170.68569775 72.05231611 166.21064672 72.05361042 161.7355957 72.05493164 C160.84465481 72.05519395 159.95371392 72.05545626 159.03577482 72.05572652 C144.59022818 72.06008351 130.1446855 72.06797122 115.69914121 72.0771528 C100.8880641 72.08648853 86.07698907 72.09205544 71.26590914 72.09408849 C62.11909291 72.09546389 52.97228787 72.09981537 43.82547509 72.10791647 C37.56195 72.11318293 31.29843074 72.11480452 25.03490359 72.11350138 C21.41562079 72.11285784 17.79635761 72.11387726 14.17707825 72.11920547 C10.26254039 72.12492662 6.34802854 72.12300112 2.43348694 72.12025452 C1.27689719 72.12316736 0.12030744 72.1260802 -1.07133049 72.12908131 C-2.11137342 72.12709026 -3.15141635 72.12509921 -4.22297573 72.12304783 C-5.58028605 72.12361741 -5.58028605 72.12361741 -6.96501678 72.1241985 C-9 72 -9 72 -10 71 C-10.721875 70.896875 -11.44375 70.79375 -12.1875 70.6875 C-17.59984839 69.3644815 -21.16822186 65.83177814 -25 62 C-25 61.01 -25 60.02 -25 59 C-25.66 59 -26.32 59 -27 59 C-27.99 55.535 -27.99 55.535 -29 52 C-29.66 52 -30.32 52 -31 52 C-32.23839599 45.34362157 -32.09139136 38.7528064 -32 32 C-32.66 31.67 -33.32 31.34 -34 31 C-33.01 31 -32.02 31 -31 31 C-31 29.02 -31 27.04 -31 25 C-30.34 25 -29.68 25 -29 25 C-29.12375 23.9171875 -29.12375 23.9171875 -29.25 22.8125 C-28.92573441 19.16451206 -27.42680413 17.65431702 -25 15 C-25.66 14.67 -26.32 14.34 -27 14 C-23.60894386 10.10656518 -23.60894386 10.10656518 -20.5 9.5625 C-17.00893401 8.77701015 -15.98143972 6.86207959 -14 4 C-11.525 4.495 -11.525 4.495 -9 5 C-9 4.34 -9 3.68 -9 3 C-4.545 2.505 -4.545 2.505 0 2 C0 1.34 0 0.68 0 0 Z M-22 11 C-22.33 11.66 -22.66 12.32 -23 13 C-22.34 13 -21.68 13 -21 13 C-21.33 12.34 -21.66 11.68 -22 11 Z M315 23 C315.33 24.98 315.66 26.96 316 29 C316.6814823 27.10820797 316.6814823 27.10820797 317 25 C316.34 24.34 315.68 23.68 315 23 Z M318 34 C318 35.65 318 37.3 318 39 C318.33 39 318.66 39 319 39 C319 37.35 319 35.7 319 34 C318.67 34 318.34 34 318 34 Z M318 40 C319 44 319 44 319 44 Z " fill="#1A304F" transform="translate(157,884)"/>
<path d="M0 0 C1.32 0.33 2.64 0.66 4 1 C3.01 1.33 2.02 1.66 1 2 C-0.21869929 4.50447516 -0.21869929 4.50447516 -1 7 C-0.34 7 0.32 7 1 7 C1 189.49 1 371.98 1 560 C1.66 560.33 2.32 560.66 3 561 C1.68 561 0.36 561 -1 561 C-2.06071275 533.84749363 -2.13433006 506.71687801 -2.10140657 479.54685855 C-2.09493689 473.25549366 -2.09445613 466.96412771 -2.0932312 460.67276001 C-2.09036647 449.81137092 -2.08398525 438.94998966 -2.07516479 428.08860397 C-2.06246707 412.37680584 -2.05649831 396.66501 -2.05223143 380.95320757 C-2.05022712 373.60561336 -2.04789946 366.25801926 -2.04548645 358.91042519 C-2.04524544 358.17543714 -2.04500442 357.44044909 -2.04475611 356.68318868 C-2.03896774 339.26063372 -2.03000883 321.83808062 -2.02050781 304.41552734 C-2.02009417 303.65485272 -2.01968052 302.8941781 -2.01925434 302.11045273 C-2.01337558 291.30644551 -2.00735714 280.50243837 -2.001302 269.69843125 C-1.993923 256.5305623 -1.98661567 243.36269331 -1.97949219 230.19482422 C-1.9790776 229.43062776 -1.97866301 228.66643131 -1.97823586 227.87907739 C-1.96878675 210.43036984 -1.9602406 192.98166247 -1.95451355 175.53295326 C-1.95427256 174.79985322 -1.95403156 174.06675319 -1.95378327 173.311438 C-1.95139819 165.99374665 -1.94917014 158.67605527 -1.94717702 151.35836381 C-1.94286541 135.65690036 -1.93580212 119.95544502 -1.92312917 104.25398595 C-1.9139495 92.82964068 -1.90826157 81.40529922 -1.90601182 69.98095004 C-1.9046651 63.79455323 -1.90164515 57.60816861 -1.89425278 51.42177582 C-1.8875144 45.76164869 -1.88536548 40.10153923 -1.88688838 34.44140847 C-1.88661655 32.39249685 -1.88463842 30.34358462 -1.8807956 28.29467659 C-1.87581862 25.51242006 -1.87701437 22.73023136 -1.87974548 19.94797325 C-1.87683262 19.15086593 -1.87391976 18.3537586 -1.87091863 17.53249651 C-1.88401864 12.60512906 -2.30165433 7.87900844 -3 3 C-2.34 3 -1.68 3 -1 3 C-0.67 2.01 -0.34 1.02 0 0 Z " fill="#EBF0F3" transform="translate(441,326)"/>
<path d="M0 0 C3.91321656 -0.0007179 7.82642977 -0.0028655 11.73964548 -0.00549722 C24.71078698 -0.01421087 37.68192003 -0.01892403 50.65306447 -0.01816674 C51.34535107 -0.01812679 52.03763767 -0.01808683 52.75090265 -0.01804566 C53.4440483 -0.01800478 54.13719394 -0.0179639 54.851344 -0.01792178 C66.1708604 -0.01751228 77.49034404 -0.02717386 88.80985092 -0.04118403 C100.48842466 -0.05552345 112.16698081 -0.0622726 123.84556353 -0.06159025 C130.38110139 -0.06133516 136.91660166 -0.06419582 143.45213175 -0.0747683 C149.56736583 -0.084398 155.68252581 -0.08456413 161.79776239 -0.07725167 C164.04485542 -0.07620083 166.29195296 -0.07859808 168.53903818 -0.08461213 C171.59329968 -0.0922617 174.64730037 -0.08773515 177.70155573 -0.07998109 C178.59994791 -0.08512465 179.49834009 -0.09026821 180.42395627 -0.09556764 C186.53385695 -0.0610191 186.53385695 -0.0610191 188.76213312 2.16725707 C163.82002464 3.23350091 138.90046279 3.31671663 113.93927217 3.30158257 C108.3272316 3.29900204 102.71519245 3.3014121 97.1031518 3.30296874 C87.68584631 3.30477461 78.26854873 3.30242659 68.85124445 3.29762816 C58.06253651 3.29219341 47.2738475 3.29394896 36.48514003 3.29945457 C27.12015283 3.304037 17.75517123 3.30461135 8.39018327 3.3020159 C2.8417817 3.30048038 -2.70661108 3.30018224 -8.25501204 3.30355239 C-33.26835537 3.31673881 -58.24057248 3.11439338 -83.23786688 2.16725707 C-83.23786688 1.83725707 -83.23786688 1.50725707 -83.23786688 1.16725707 C-55.49830897 -0.03131735 -27.76043324 0.00286708 0 0 Z " fill="#E8EDF1" transform="translate(248.23786687850952,325.8327429294586)"/>
<path d="M0 0 C99.33 0 198.66 0 301 0 C301 0.33 301 0.66 301 1 C201.67 1 102.34 1 0 1 C0 0.67 0 0.34 0 0 Z " fill="#000002" transform="translate(151,957)"/>
<path d="M0 0 C1.18916016 0.02707031 1.18916016 0.02707031 2.40234375 0.0546875 C4.35208348 0.10166918 6.30119878 0.17340956 8.25 0.25 C8.25 0.58 8.25 0.91 8.25 1.25 C7.45335937 1.35957031 6.65671875 1.46914063 5.8359375 1.58203125 C-3.49903346 2.97886997 -9.0575618 4.76733047 -15.203125 12.109375 C-17.31750963 15.03534161 -18.54744762 17.85455799 -19.75 21.25 C-20.68423645 18.23968256 -20.79449911 17.38349732 -19.75 14.25 C-20.41 13.92 -21.07 13.59 -21.75 13.25 C-20.76 12.63125 -20.76 12.63125 -19.75 12 C-19.09 11.4225 -18.43 10.845 -17.75 10.25 C-17.75 8.93 -17.75 7.61 -17.75 6.25 C-17.0075 6.0025 -16.265 5.755 -15.5 5.5 C-12.66317935 4.46437374 -12.66317935 4.46437374 -11.125 2.1875 C-7.58539174 -0.70007516 -4.4193477 -0.19055231 0 0 Z " fill="#CFD5DC" transform="translate(148.75,256.75)"/>
<path d="M0 0 C1.14606879 3.43820638 0.84528008 3.96629668 -0.4375 7.1875 C-4.08255632 17.7176627 -0.42527714 26.65401594 2.9453125 36.86328125 C3.46738281 37.92095703 3.46738281 37.92095703 4 39 C4.99 39.33 5.98 39.66 7 40 C8.1875 42.5625 8.1875 42.5625 9 45 C8.34 45 7.68 45 7 45 C5.66666667 43.66666667 4.33333333 42.33333333 3 41 C3 40.01 3 39.02 3 38 C2.34 38 1.68 38 1 38 C0.01 34.535 0.01 34.535 -1 31 C-1.66 31 -2.32 31 -3 31 C-4.23839599 24.34362157 -4.09139136 17.7528064 -4 11 C-4.66 10.67 -5.32 10.34 -6 10 C-5.01 10 -4.02 10 -3 10 C-3 8.02 -3 6.04 -3 4 C-2.34 4 -1.68 4 -1 4 C-0.67 2.68 -0.34 1.36 0 0 Z " fill="#BFC6CD" transform="translate(129,905)"/>
<path d="M0 0 C1.65 0 3.3 0 5 0 C6.04005702 3.38018531 6.08004482 6.4780279 6 10 C5.34 10 4.68 10 4 10 C3.54427083 7.98177083 3.08854167 5.96354167 2.6328125 3.9453125 C2.09525572 1.79280036 2.09525572 1.79280036 0 0 Z M6 0 C16.89 0 27.78 0 39 0 C39 0.33 39 0.66 39 1 C22.665 1.495 22.665 1.495 6 2 C6 1.34 6 0.68 6 0 Z " fill="#BDC3CC" transform="translate(158,326)"/>
<path d="M0 0 C0.33 1.32 0.66 2.64 1 4 C1.66 4 2.32 4 3 4 C3.67154933 5.28913487 4.33708859 6.58140204 5 7.875 C5.37125 8.59429688 5.7425 9.31359375 6.125 10.0546875 C7 12 7 12 7 14 C7.99 14.33 8.98 14.66 10 15 C11.1875 17.5625 11.1875 17.5625 12 20 C11.34 20 10.68 20 10 20 C8.66666667 18.66666667 7.33333333 17.33333333 6 16 C6 15.01 6 14.02 6 13 C5.34 13 4.68 13 4 13 C3.34 10.69 2.68 8.38 2 6 C1.34 6 0.68 6 0 6 C0 4.02 0 2.04 0 0 Z " fill="#C2C7CD" transform="translate(126,930)"/>
<path d="M0 0 C0 0.33 0 0.66 0 1 C-2.64 1 -5.28 1 -8 1 C-8 1.66 -8 2.32 -8 3 C-11.96 2.67 -15.92 2.34 -20 2 C-20 1.67 -20 1.34 -20 1 C-12.95678017 -0.59295252 -7.14349955 -1.1710655 0 0 Z " fill="#03060D" transform="translate(453,887)"/>
<path d="M0 0 C1 3 1 3 0.21484375 4.8671875 C-2.70624329 9.45874328 -5.4591702 12.93987557 -10 16 C-10.99 15.67 -11.98 15.34 -13 15 C-12.195625 14.731875 -11.39125 14.46375 -10.5625 14.1875 C-9.716875 13.795625 -8.87125 13.40375 -8 13 C-7.67 12.01 -7.34 11.02 -7 10 C-6.566875 9.5875 -6.13375 9.175 -5.6875 8.75 C-3.18495031 6.15476329 -1.7285115 3.15900377 0 0 Z " fill="#E4E9ED" transform="translate(473,305)"/>
<path d="M0 0 C0.99 0.66 1.98 1.32 3 2 C2.67 2.33 2.34 2.66 2 3 C2.639375 3.268125 3.27875 3.53625 3.9375 3.8125 C6 5 6 5 7 8 C4.5625 7.625 4.5625 7.625 2 7 C1.67 6.34 1.34 5.68 1 5 C-0.64363134 4.27840576 -2.31050386 3.60648579 -4 3 C-3 1 -3 1 0 0 Z " fill="#010307" transform="translate(459,259)"/>
<path d="M0 0 C1.32 0.66 2.64 1.32 4 2 C3.67 2.66 3.34 3.32 3 4 C3.66 4 4.32 4 5 4 C5 4.66 5 5.32 5 6 C5.66 6 6.32 6 7 6 C7 6.66 7 7.32 7 8 C5.0625 7.625 5.0625 7.625 3 7 C2.67 6.34 2.34 5.68 2 5 C0.35636866 4.27840576 -1.31050386 3.60648579 -3 3 C-2.01 2.67 -1.02 2.34 0 2 C0 1.34 0 0.68 0 0 Z " fill="#07090D" transform="translate(458,890)"/>
<path d="M0 0 C0 0.66 0 1.32 0 2 C-3.78187881 3.83691257 -5.94568308 4.15837626 -10 3 C-10 2.67 -10 2.34 -10 2 C-8.7090864 1.66376204 -7.41723903 1.33110751 -6.125 1 C-5.40570313 0.814375 -4.68640625 0.62875 -3.9453125 0.4375 C-2 0 -2 0 0 0 Z " fill="#D0D6DC" transform="translate(458,322)"/>
<path d="M0 0 C0.66 0.66 1.32 1.32 2 2 C-1.9813783 3.3271261 -5.85045227 3.06915913 -10 3 C-10 2.67 -10 2.34 -10 2 C-8.37828761 1.61102839 -6.75245075 1.23921702 -5.125 0.875 C-4.22007812 0.66617188 -3.31515625 0.45734375 -2.3828125 0.2421875 C-1.20332031 0.12230469 -1.20332031 0.12230469 0 0 Z " fill="#E1E6EB" transform="translate(457,953)"/>
<path d="M0 0 C0.33 0.99 0.66 1.98 1 3 C-0.4375 5.6875 -0.4375 5.6875 -2 8 C-2.33 7.34 -2.66 6.68 -3 6 C-2.06553465 3.96855359 -1.06775224 1.96466413 0 0 Z " fill="#DEE4E8" transform="translate(473,936)"/>
<path d="M0 0 C0.99 0.33 1.98 0.66 3 1 C1.02 1.99 1.02 1.99 -1 3 C-1.33 2.34 -1.66 1.68 -2 1 C-1.34 0.67 -0.68 0.34 0 0 Z " fill="#ECF1F4" transform="translate(462,950)"/>
<path d="M0 0 C0.33 0 0.66 0 1 0 C1 1.98 1 3.96 1 6 C0.67 6 0.34 6 0 6 C0 4.02 0 2.04 0 0 Z " fill="#ECF1F4" transform="translate(474,930)"/>
<path d="M0 0 C0 0.99 0 1.98 0 3 C-0.66 2.67 -1.32 2.34 -2 2 C-1.34 1.34 -0.68 0.68 0 0 Z " fill="#C0C6CE" transform="translate(130,260)"/>
<path d="M0 0 C1 4 1 4 1 4 Z " fill="#B7C0CA" transform="translate(123,920)"/>
<path d="M0 0 C0.99 0.495 0.99 0.495 2 1 C1.01 1.495 1.01 1.495 0 2 C0 1.34 0 0.68 0 0 Z " fill="#ECF1F4" transform="translate(466,947)"/>
<path d="M0 0 C0.99 0.495 0.99 0.495 2 1 C1.01 1.495 1.01 1.495 0 2 C0 1.34 0 0.68 0 0 Z " fill="#607086" transform="translate(126,905)"/>
<path d="" fill="#ECF1F4" transform="translate(0,0)"/>
<path d="" fill="#000002" transform="translate(0,0)"/>
<path d="" fill="#000002" transform="translate(0,0)"/>
<path d="" fill="#000002" transform="translate(0,0)"/>
<path d="" fill="#ECF1F4" transform="translate(0,0)"/>
<path d="" fill="#000002" transform="translate(0,0)"/>
<path d="" fill="#ECF1F4" transform="translate(0,0)"/>
<path d="" fill="#ECF1F4" transform="translate(0,0)"/>
<path d="" fill="#1A304F" transform="translate(0,0)"/>
<path d="" fill="#000002" transform="translate(0,0)"/>
<path d="" fill="#ECF1F4" transform="translate(0,0)"/>
<path d="" fill="#ECF1F4" transform="translate(0,0)"/>
<path d="" fill="#ECF1F4" transform="translate(0,0)"/>
<path d="" fill="#A3AAB6" transform="translate(0,0)"/>
<path d="" fill="#ECF1F4" transform="translate(0,0)"/>
</svg>
