<?xml version="1.0" encoding="UTF-8"?>
<!-- Generator: visioncortex VTracer 0.6.2 -->
<svg version="1.1" xmlns="http://www.w3.org/2000/svg" width="592" height="1280">
<path d="M0 0 C195.36 0 390.72 0 592 0 C592 422.4 592 844.8 592 1280 C396.64 1280 201.28 1280 0 1280 C0 857.6 0 435.2 0 0 Z " fill="#F9FCFE" transform="translate(0,0)"/>
<path d="M0 0 C1.53887326 -0.00576172 1.53887326 -0.00576172 3.10883486 -0.01163983 C4.79703422 -0.01034011 4.79703422 -0.01034011 6.51933861 -0.00901413 C7.71626504 -0.01198525 8.91319148 -0.01495637 10.14638841 -0.01801753 C13.47012344 -0.02519784 16.79380677 -0.02787685 20.11754584 -0.028615 C23.70189159 -0.03046638 27.28622614 -0.03801422 30.87056541 -0.04475021 C38.70959141 -0.05833165 46.5486123 -0.06435818 54.38764811 -0.06876087 C59.28372271 -0.07152405 64.17979534 -0.07576159 69.07586861 -0.08026505 C82.634964 -0.09245829 96.19405781 -0.10275696 109.75315857 -0.10614014 C110.62098017 -0.1063597 111.48880178 -0.10657927 112.382921 -0.10680549 C113.25280872 -0.10702377 114.12269643 -0.10724204 115.01894438 -0.10746694 C116.78163886 -0.1079104 118.54433334 -0.10835696 120.30702782 -0.10880661 C121.18138345 -0.10902804 122.05573908 -0.10924947 122.95659034 -0.10947761 C137.11776365 -0.11342388 151.27888545 -0.13087242 165.44003887 -0.15416613 C179.98347544 -0.17789526 194.52688618 -0.19034273 209.07034242 -0.19150805 C217.23412148 -0.19242403 225.39783345 -0.19815656 233.56159401 -0.21632767 C240.51481815 -0.23174984 247.46795448 -0.23683671 254.42119248 -0.22858956 C257.96674186 -0.22469031 261.5121145 -0.22557693 265.05764198 -0.23964691 C268.90758005 -0.25478466 272.75727119 -0.24649767 276.60722923 -0.23606491 C277.71931114 -0.24412132 278.83139304 -0.25217772 279.9771744 -0.26047826 C289.67240393 -0.19913764 297.86991324 1.15624054 305.0575161 8.03767776 C312.62665099 16.43738026 316.30361772 23.77015662 316.25673485 35.06892776 C316.27284813 35.84172073 316.28896141 36.6145137 316.30556297 37.41072464 C316.31353114 46.837068 312.08838351 53.88373753 305.75673485 60.75642776 C298.30167737 67.89692585 288.80051081 69.28074721 278.94423485 71.13142776 C279.60423485 71.79142776 280.26423485 72.45142776 280.94423485 73.13142776 C281.14513007 76.14309166 281.21832689 79.06323144 281.20594788 82.07639885 C281.20994394 83.01913068 281.21394 83.96186251 281.21805716 84.93316197 C281.22912514 88.1280966 281.22581704 91.32286072 281.22270775 94.51781082 C281.2277053 96.81705275 281.23357949 99.11629291 281.24026048 101.41553056 C281.25613992 107.76169737 281.25949551 114.10782001 281.26090908 120.45400429 C281.26323881 126.58618889 281.27685728 132.71835359 281.28930895 138.85052429 C281.31446479 151.39934988 281.33030678 163.94817125 281.34089088 176.49701691 C281.35140488 188.9268739 281.36602772 201.35671479 281.38617134 213.78656006 C281.38742021 214.55861774 281.38866908 215.33067541 281.38995579 216.12612878 C281.3963193 220.04681597 281.40275654 223.96750305 281.40922217 227.88819008 C281.45491821 255.67824529 281.49135154 283.46830573 281.52235985 311.25838089 C281.55251028 338.26066732 281.5868425 365.26294313 281.62685204 392.26521683 C281.62808304 393.09714292 281.62931404 393.92906901 281.63058235 394.78620498 C281.64294891 403.14053961 281.65540066 411.49487412 281.66791483 419.84920853 C281.69340704 436.86884852 281.71833058 453.88848932 281.74291039 470.90813065 C281.74460675 472.08200477 281.74460675 472.08200477 281.74633738 473.27959353 C281.8218276 525.56352598 281.88401872 577.84747576 281.94423485 630.13142776 C282.90990379 630.32913773 283.87557274 630.52684769 284.87050438 630.73054886 C286.13491356 630.99432327 287.39932274 631.25809769 288.70204735 631.52986526 C289.95646629 631.78945023 291.21088524 632.04903519 292.50331688 632.31648636 C301.56743884 634.46321824 307.2978129 640.54653438 312.30360985 648.21345901 C314.75035631 652.70802588 315.73920845 657.02285325 315.94423485 662.13142776 C315.99579735 663.17041214 316.04735985 664.20939651 316.10048485 665.27986526 C316.40667455 676.43027341 313.45265677 683.39750911 305.81923485 691.69392776 C297.92866405 699.14533046 290.05792216 700.87089874 279.45105553 700.75961685 C277.61629106 700.77025843 277.61629106 700.77025843 275.74446064 700.781115 C272.37485022 700.79559903 269.00666059 700.78786762 265.63715613 700.77039206 C261.99359782 700.75696199 258.35014274 700.77247517 254.70659447 700.78421402 C247.57939026 700.80255262 240.45246098 700.79410397 233.32526546 700.7761258 C227.53132032 700.76207719 221.73744961 700.75821184 215.94348907 700.76156807 C214.70466967 700.76228423 214.70466967 700.76228423 213.4408236 700.76301486 C211.76286751 700.76404123 210.08491143 700.76509659 208.40695537 700.76618063 C193.58379639 700.7747399 178.76076981 700.75809725 163.93764305 700.72835159 C149.56519066 700.69951084 135.19292895 700.69243412 120.82045555 700.70784378 C105.15533486 700.72461646 89.49030461 700.72862968 73.82518154 700.71113342 C72.15384266 700.7092891 70.48250376 700.70745437 68.81116486 700.70562935 C67.98891217 700.70471726 67.16665949 700.70380517 66.31949006 700.70286544 C60.53422237 700.69726708 54.74899895 700.70056064 48.96373367 700.7071743 C41.91102995 700.71491711 34.85851371 700.70812075 27.8058477 700.68299926 C24.20972151 700.67052666 20.61388688 700.66433025 17.01774979 700.67554092 C13.11513097 700.68747708 9.21301231 700.66827968 5.31043053 700.64609146 C4.18007376 700.65433223 3.04971699 700.662573 1.88510698 700.67106348 C-9.19731459 700.55482256 -17.74026344 696.46333338 -25.5596714 688.62361526 C-32.45365513 680.76241591 -33.68307869 672.23447738 -33.05576515 662.13142776 C-31.84764363 651.01670981 -26.69371076 643.16049743 -18.05576515 636.13142776 C-11.89269459 632.30919318 -5.14934203 631.13911345 1.94423485 630.13142776 C1.78184391 629.55431567 1.61945297 628.97720357 1.45214109 628.38260323 C0.96017277 626.20206889 0.81868388 624.34171915 0.81773502 622.11262035 C0.81497527 621.31627662 0.81221553 620.51993289 0.80937216 619.69945753 C0.81142748 618.82871898 0.81348279 617.95798043 0.8156004 617.06085587 C0.81384736 616.12883335 0.81209432 615.19681083 0.81028816 614.23654521 C0.80560855 611.09008194 0.80809869 607.94366449 0.81052208 604.79719925 C0.8086551 602.52795721 0.80635485 600.2587155 0.80365676 597.9894743 C0.79751849 591.7353649 0.79767472 585.48126884 0.79885113 579.22715712 C0.79903374 573.18089883 0.79454839 567.13464514 0.79023824 561.08838883 C0.78055814 547.19072543 0.77775377 533.29306571 0.77718119 519.39539933 C0.77672202 508.66612196 0.77466566 497.93684603 0.77148056 487.20756912 C0.77058305 484.12158934 0.76969324 481.03560956 0.76880568 477.94962978 C0.76858463 477.182499 0.76836359 476.41536822 0.76813584 475.62499106 C0.76198022 454.04228264 0.75803543 432.45957472 0.75847912 410.87686539 C0.7584947 410.06285718 0.75851028 409.24884898 0.75852633 408.41017386 C0.75860944 404.28422691 0.75870848 400.15827996 0.75881103 396.03233302 C0.75883098 395.21287035 0.75885092 394.39340768 0.75887147 393.54911281 C0.75891191 391.89195999 0.75895371 390.23480717 0.75899687 388.57765435 C0.75960987 362.78470079 0.75209909 336.99176037 0.7384243 311.19881058 C0.72307585 282.23694753 0.71445731 253.27509312 0.71538752 224.31322575 C0.71546216 221.22724597 0.71551086 218.14126619 0.71554184 215.05528641 C0.71555349 214.29540934 0.71556515 213.53553227 0.71557716 212.75262862 C0.71560797 200.50587151 0.70921278 188.25912577 0.70060958 176.01237205 C0.6921478 163.712908 0.69113156 151.41346066 0.6977189 139.11399531 C0.70109713 132.44628332 0.70099403 125.77860383 0.69236565 119.11089325 C0.68455713 113.01429141 0.68587366 106.91776415 0.69464978 100.82116425 C0.69619731 98.60857554 0.69432206 96.39598142 0.6887897 94.18339908 C0.68179601 91.18950728 0.68697065 88.19588198 0.69534588 85.20199966 C0.6903777 84.33126112 0.68540952 83.46052257 0.68029079 82.563398 C0.6850416 81.76705427 0.68979241 80.97071054 0.69468719 80.15023518 C0.69459897 79.46543931 0.69451074 78.78064345 0.69441985 78.07509619 C0.99032327 75.77283997 1.81235534 74.14224865 2.94423485 72.13142776 C1.95423485 71.63642776 1.95423485 71.63642776 0.94423485 71.13142776 C0.94423485 70.47142776 0.94423485 69.81142776 0.94423485 69.13142776 C-0.00451515 69.21392776 -0.95326515 69.29642776 -1.93076515 69.38142776 C-11.11501479 69.34431969 -19.15361478 63.82932187 -25.55576515 57.69392776 C-31.89593006 50.74993763 -33.3566997 41.59097053 -33.20420265 32.48689651 C-32.6070171 23.0105048 -29.31123251 14.86387635 -22.30576515 8.31892776 C-15.81088814 3.01723838 -8.38260446 0.01179117 0 0 Z " fill="#A3ABB9" transform="translate(159.05576515197754,255.86857223510742)"/>
<path d="M0 0 C1.53887326 -0.00576172 1.53887326 -0.00576172 3.10883486 -0.01163983 C4.79703422 -0.01034011 4.79703422 -0.01034011 6.51933861 -0.00901413 C7.71626504 -0.01198525 8.91319148 -0.01495637 10.14638841 -0.01801753 C13.47012344 -0.02519784 16.79380677 -0.02787685 20.11754584 -0.028615 C23.70189159 -0.03046638 27.28622614 -0.03801422 30.87056541 -0.04475021 C38.70959141 -0.05833165 46.5486123 -0.06435818 54.38764811 -0.06876087 C59.28372271 -0.07152405 64.17979534 -0.07576159 69.07586861 -0.08026505 C82.634964 -0.09245829 96.19405781 -0.10275696 109.75315857 -0.10614014 C110.62098017 -0.1063597 111.48880178 -0.10657927 112.382921 -0.10680549 C113.25280872 -0.10702377 114.12269643 -0.10724204 115.01894438 -0.10746694 C116.78163886 -0.1079104 118.54433334 -0.10835696 120.30702782 -0.10880661 C121.18138345 -0.10902804 122.05573908 -0.10924947 122.95659034 -0.10947761 C137.11776365 -0.11342388 151.27888545 -0.13087242 165.44003887 -0.15416613 C179.98347544 -0.17789526 194.52688618 -0.19034273 209.07034242 -0.19150805 C217.23412148 -0.19242403 225.39783345 -0.19815656 233.56159401 -0.21632767 C240.51481815 -0.23174984 247.46795448 -0.23683671 254.42119248 -0.22858956 C257.96674186 -0.22469031 261.5121145 -0.22557693 265.05764198 -0.23964691 C268.90758005 -0.25478466 272.75727119 -0.24649767 276.60722923 -0.23606491 C277.71931114 -0.24412132 278.83139304 -0.25217772 279.9771744 -0.26047826 C289.67240393 -0.19913764 297.86991324 1.15624054 305.0575161 8.03767776 C312.62665099 16.43738026 316.30361772 23.77015662 316.25673485 35.06892776 C316.27284813 35.84172073 316.28896141 36.6145137 316.30556297 37.41072464 C316.31353114 46.837068 312.08838351 53.88373753 305.75673485 60.75642776 C296.42508735 69.75054759 283.40741735 70.43711918 271.10317039 70.38539505 C269.37359486 70.39007502 269.37359486 70.39007502 267.60907841 70.39484954 C263.7663173 70.40279227 259.92371573 70.39652035 256.0809536 70.39021683 C253.31741066 70.39182866 250.55387438 70.39641817 247.7903347 70.40083694 C241.07596462 70.40970781 234.36163938 70.40781925 227.64726758 70.40201166 C222.18801523 70.39748608 216.7287754 70.39688614 211.26952171 70.3990593 C210.1019071 70.39951899 210.1019071 70.39951899 208.91070431 70.39998798 C207.32914296 70.40062746 205.74758162 70.40127589 204.16602027 70.40193316 C189.35241297 70.4076297 174.53883047 70.40108919 159.72522724 70.39033243 C147.02770955 70.38139754 134.33022844 70.38294977 121.63271141 70.39216995 C106.87037142 70.40288454 92.10805314 70.40708044 77.3457098 70.40094543 C75.77012253 70.40030836 74.19453526 70.39967962 72.61894798 70.3990593 C71.45626484 70.39859647 71.45626484 70.39859647 70.27009314 70.39812429 C64.82043445 70.39640092 59.37078959 70.39930473 53.92113304 70.4040184 C47.275483 70.40964045 40.62988019 70.408083 33.98423553 70.39745691 C30.59663675 70.39221796 27.20918136 70.39119831 23.82157326 70.39675522 C20.14273727 70.40223282 16.46412133 70.39534939 12.7852993 70.38539505 C11.72400149 70.38985649 10.66270369 70.39431794 9.56924534 70.39891458 C-3.20024523 70.332052 -15.30395882 67.71443436 -25.05576515 58.88142776 C-31.6093715 51.67246078 -33.36247307 41.93564053 -33.20420265 32.48689651 C-32.6070171 23.0105048 -29.31123251 14.86387635 -22.30576515 8.31892776 C-15.81088814 3.01723838 -8.38260446 0.01179117 0 0 Z " fill="#192F4E" transform="translate(159.05576515197754,255.86857223510742)"/>
<path d="M0 0 C1.25935056 0.0026869 1.25935056 0.0026869 2.54414254 0.00542808 C3.50936717 0.00507033 4.4745918 0.00471258 5.46906567 0.00434399 C6.54217772 0.00910142 7.61528978 0.01385885 8.72092038 0.01876044 C9.851208 0.01987287 10.98149561 0.0209853 12.14603436 0.02213144 C15.96592792 0.02720458 19.78576371 0.03956428 23.60564023 0.05190253 C26.33180454 0.05767408 29.05797078 0.06198062 31.78413755 0.06641364 C39.21661813 0.07965919 46.64906578 0.10052425 54.08152348 0.12297893 C58.72483707 0.13698911 63.36815394 0.14949836 68.01147252 0.16172767 C80.87131455 0.19586953 93.73114814 0.23188635 106.59096414 0.274822 C107.41487069 0.27757004 108.23877723 0.28031809 109.08765065 0.28314941 C110.32647958 0.28728441 110.32647958 0.28728441 111.59033537 0.29150295 C113.26389401 0.29708831 114.93745266 0.30267072 116.61101133 0.30825019 C117.441155 0.31101937 118.27129867 0.31378856 119.12659822 0.31664166 C132.55127108 0.36106901 145.97593861 0.39217659 159.40065988 0.41744998 C173.18921251 0.44359825 186.97769868 0.48089313 200.7661916 0.5292697 C208.50534309 0.55616649 216.2444431 0.5783659 223.98363668 0.58828712 C230.58076328 0.59679975 237.1777633 0.61558149 243.77482035 0.64739093 C247.13656033 0.66330143 250.49799718 0.6729657 253.85979635 0.67278838 C290.38099022 0.67873557 290.38099022 0.67873557 300.15373594 10.09780097 C306.66365584 17.02426054 310.71499159 23.45449123 311.10295469 33.12123847 C311.18029844 34.67971503 311.18029844 34.67971503 311.25920469 36.26967597 C311.56539438 47.42008412 308.6113766 54.38731981 300.97795469 62.68373847 C293.08738389 70.13514117 285.216642 71.86070944 274.60977536 71.74942756 C273.38659905 71.75652194 272.16342274 71.76361633 270.90318048 71.7709257 C267.53357006 71.78540974 264.16538042 71.77767833 260.79587597 71.76020277 C257.15231766 71.7467727 253.50886258 71.76228588 249.8653143 71.77402472 C242.7381101 71.79236332 235.61118082 71.78391468 228.4839853 71.7659365 C222.69004016 71.7518879 216.89616945 71.74802255 211.10220891 71.75137877 C209.8633895 71.75209494 209.8633895 71.75209494 208.59954344 71.75282557 C206.92158734 71.75385194 205.24363127 71.7549073 203.56567521 71.75599133 C188.74251623 71.76455061 173.91948965 71.74790796 159.09636289 71.7181623 C144.7239105 71.68932154 130.35164879 71.68224483 115.97917539 71.69765449 C100.3140547 71.71442717 84.64902445 71.71844038 68.98390138 71.70094413 C67.3125625 71.69909981 65.6412236 71.69726508 63.96988469 71.69544005 C63.14763201 71.69452796 62.32537933 71.69361587 61.47820989 71.69267615 C55.69294221 71.68707778 49.90771879 71.69037134 44.12245351 71.69698501 C37.06974979 71.70472781 30.01723355 71.69793145 22.96456753 71.67280997 C19.36844135 71.66033737 15.77260671 71.65414095 12.17646962 71.66535163 C8.27385081 71.67728778 4.37173215 71.65809039 0.46915036 71.63590217 C-0.66120641 71.64414293 -1.79156318 71.6523837 -2.95617318 71.66087419 C-14.03859475 71.54463327 -22.5815436 67.45314408 -30.40095156 59.61342597 C-37.29493529 51.75222662 -38.52435885 43.22428809 -37.89704531 33.12123847 C-36.6889238 22.00652051 -31.53499092 14.15030813 -22.89704531 7.12123847 C-17.33790671 3.67355251 -11.49487208 2.4684155 -5.08454531 1.51576972 C-2.74580202 1.09396066 -2.29839988 0.14688868 0 0 Z " fill="#192F4E" transform="translate(163.89704531431198,884.8787615299225)"/>
</svg>
