<?xml version="1.0" encoding="UTF-8"?>
<!-- Generator: visioncortex VTracer 0.6.2 -->
<svg version="1.1" xmlns="http://www.w3.org/2000/svg" width="1280" height="1165">
<path d="M0 0 C422.4 0 844.8 0 1280 0 C1280 384.45 1280 768.9 1280 1165 C857.6 1165 435.2 1165 0 1165 C0 780.55 0 396.1 0 0 Z " fill="#F9FCFE" transform="translate(0,0)"/>
<path d="M0 0 C0.95867372 0.95505747 1.91844132 1.90901794 2.87919998 2.86197799 C5.50620238 5.47396523 8.1174284 8.10123764 10.72626615 10.73135078 C13.54602625 13.56862397 16.3802221 16.39141354 19.21263123 19.21604919 C24.7538496 24.74660475 30.28168014 30.29035769 35.80511326 35.83866949 C42.23484527 42.29633707 48.6778571 48.74068633 55.12148452 55.18448376 C66.61308643 66.67727253 78.09275686 78.18190526 89.56567383 89.69334412 C100.70665551 100.87170905 111.85568945 112.04195808 123.01391602 123.20310974 C123.70181021 123.89118674 124.3897044 124.57926374 125.09844387 125.28819156 C125.78513562 125.97506229 126.47182737 126.66193301 127.17932796 127.369618 C128.56183147 128.75248691 129.94433149 130.1353593 131.326828 131.51823521 C132.34944887 132.54113435 132.34944887 132.54113435 133.39272875 133.58469811 C144.01819502 144.2137304 154.63621666 154.85019745 165.25350112 165.48740156 C169.10592654 169.34685807 172.95947745 173.20518676 176.81384343 177.06270523 C182.92348315 183.17738432 189.02993374 189.29520821 195.1296379 195.41979999 C197.91803348 198.21944938 200.70799368 201.01749036 203.50225639 203.81128502 C206.05615643 206.36487837 208.60542514 208.92299921 211.15094697 211.48494362 C212.51717016 212.85758052 213.8883317 214.22529656 215.25961781 215.59287554 C216.05934859 216.39967192 216.85907938 217.2064683 217.68304443 218.03771305 C218.38043102 218.73705056 219.07781761 219.43638807 219.79633713 220.15691763 C221.26831055 221.88304138 221.26831055 221.88304138 221.26831055 223.88304138 C221.92831055 223.88304138 222.58831055 223.88304138 223.26831055 223.88304138 C228.79678933 235.26084817 228.33071115 246.01143048 224.24487305 257.84788513 C223.53972163 259.75079374 222.81730682 261.64744865 222.07299805 263.53538513 C221.10618863 265.94240554 221.10618863 265.94240554 221.26831055 268.88304138 C221.26831055 269.87304138 221.26831055 270.86304138 221.26831055 271.88304138 C220.60831055 271.88304138 219.94831055 271.88304138 219.26831055 271.88304138 C219.14713867 272.80987732 219.0259668 273.73671326 218.90112305 274.69163513 C218.73354492 275.88917419 218.5659668 277.08671326 218.39331055 278.32054138 C218.23088867 279.51550232 218.0684668 280.71046326 217.90112305 281.94163513 C217.69229492 282.91229919 217.4834668 283.88296326 217.26831055 284.88304138 C216.27831055 285.37804138 216.27831055 285.37804138 215.26831055 285.88304138 C215.59831055 287.53304138 215.92831055 289.18304138 216.26831055 290.88304138 C215.60831055 290.88304138 214.94831055 290.88304138 214.26831055 290.88304138 C214.16518555 292.05866638 214.06206055 293.23429138 213.95581055 294.44554138 C213.445475 298.64656441 211.96121244 302.00347454 210.26831055 305.88304138 C210.12393555 306.95554138 209.97956055 308.02804138 209.83081055 309.13304138 C209.16830873 313.54972018 207.68136725 317.30459793 206.01049805 321.42991638 C204.98060736 323.98226855 204.98060736 323.98226855 206.26831055 326.88304138 C205.5612793 329.73069763 205.5612793 329.73069763 204.45581055 332.94554138 C203.92020508 334.54075623 203.92020508 334.54075623 203.3737793 336.16819763 C202.26831055 338.88304138 202.26831055 338.88304138 200.26831055 340.88304138 C200.52354492 341.99872498 200.52354492 341.99872498 200.78393555 343.13694763 C201.41726113 346.72749508 200.47421902 348.50291086 199.01831055 351.82054138 C196.5545537 357.80590081 195.10823797 363.62822294 193.9440918 369.98460388 C193.26831055 372.88304138 193.26831055 372.88304138 191.26831055 375.88304138 C190.72673611 378.32437955 190.24950573 380.7336137 189.83081055 383.19554138 C188.93665032 388.33057581 187.63631055 392.26075889 185.26831055 396.88304138 C185.47266862 399.66951695 185.47266862 399.66951695 186.26831055 401.88304138 C185.60831055 401.88304138 184.94831055 401.88304138 184.26831055 401.88304138 C184.20772461 402.49792419 184.14713867 403.11280701 184.0847168 403.74632263 C184.00092773 404.55456482 183.91713867 405.36280701 183.83081055 406.19554138 C183.74959961 406.99604919 183.66838867 407.79655701 183.5847168 408.62132263 C183.13368221 411.84538465 182.5945038 413.55684813 180.26831055 415.88304138 C180.58872452 418.48584706 180.58872452 418.48584706 181.26831055 420.88304138 C180.60831055 420.88304138 179.94831055 420.88304138 179.26831055 420.88304138 C179.14327148 421.71964294 179.01823242 422.55624451 178.8894043 423.41819763 C178.22552766 427.1217107 177.31568357 430.68951897 176.33081055 434.32054138 C175.99178711 435.57737732 175.65276367 436.83421326 175.3034668 438.12913513 C174.62936489 440.57370845 173.94000635 443.01414225 173.2331543 445.44944763 C172.30698373 448.74541494 171.51432428 452.04219729 170.76831055 455.38304138 C169.73429279 459.93376926 168.61859151 464.41672742 167.26831055 468.88304138 C166.60831055 468.88304138 165.94831055 468.88304138 165.26831055 468.88304138 C165.59831055 470.86304138 165.92831055 472.84304138 166.26831055 474.88304138 C165.60831055 474.88304138 164.94831055 474.88304138 164.26831055 474.88304138 C164.0828064 475.7602887 164.0828064 475.7602887 163.89355469 476.65525818 C161.23349423 486.13321666 153.29739579 496.43264045 145.26831055 501.88304138 C144.3556543 502.50694763 143.44299805 503.13085388 142.50268555 503.77366638 C136.63945457 507.63023007 131.10318597 510.39827907 124.39331055 512.44554138 C123.59151367 512.69433044 122.7897168 512.94311951 121.96362305 513.19944763 C116.6057304 514.55833345 111.32370067 515.00809952 105.80986214 515.01167583 C104.54745268 515.01490028 103.28504322 515.01812473 101.98437893 515.02144688 C100.59628548 515.01997598 99.20819213 515.01840828 97.82009888 515.01675415 C96.33554301 515.01862351 94.85098763 515.02092471 93.36643302 515.02361947 C89.29505178 515.0297283 85.2236911 515.02960496 81.15230632 515.0284251 C76.75821158 515.02822086 72.36412341 515.033742 67.97003174 515.03848267 C59.3646118 515.04678449 50.75919872 515.04953729 42.15377511 515.05009504 C35.15888044 515.05057038 28.16398804 515.05262599 21.16909409 515.05579567 C1.33453072 515.06460056 -18.50002723 515.06921524 -38.33459257 515.0684652 C-39.40358864 515.06842524 -40.47258471 515.06838528 -41.57397461 515.06834412 C-43.17942763 515.0682828 -43.17942763 515.0682828 -44.81731404 515.06822024 C-62.16695526 515.0678137 -79.51657479 515.07738565 -96.86620973 515.09148248 C-114.68338186 515.10584492 -132.50054342 515.11275276 -150.31772149 515.11188871 C-160.3196715 515.11155672 -170.32159875 515.11430477 -180.32354355 515.12506676 C-188.83833723 515.13416995 -197.35309784 515.13634845 -205.86789428 515.12955733 C-210.21125255 515.12629137 -214.55454738 515.12623825 -218.89789963 515.13491058 C-222.87653939 515.14277296 -226.85506536 515.14134684 -230.83370234 515.13262645 C-232.27038717 515.1310909 -233.70708048 515.1329097 -235.1437553 515.13848653 C-249.68150468 515.19116588 -262.76941488 512.84466994 -274.8059082 504.25022888 C-276.79879662 502.77463911 -276.79879662 502.77463911 -279.41918945 501.44554138 C-282.25387281 499.53021479 -284.15646289 497.24602331 -286.30200195 494.60179138 C-287.70639578 492.85032958 -287.70639578 492.85032958 -289.3684082 491.30101013 C-291.0246214 489.57835858 -291.33107943 488.20657949 -291.73168945 485.88304138 C-292.39168945 485.88304138 -293.05168945 485.88304138 -293.73168945 485.88304138 C-295.31626359 482.26115765 -296.86368122 478.63128963 -298.29418945 474.94554138 C-298.52235352 474.35901794 -298.75051758 473.77249451 -298.9855957 473.16819763 C-301.47400784 465.54662119 -302.0160171 458.87190358 -301.97892761 450.88024902 C-301.98134203 449.68580545 -301.98375644 448.49136188 -301.98624402 447.26072305 C-301.99088983 443.96278516 -301.98661292 440.66508172 -301.97847974 437.36716545 C-301.9718796 433.80419593 -301.97685611 430.24123973 -301.98036194 426.67826843 C-301.9853941 419.70729019 -301.97977553 412.73635952 -301.97051164 405.76538718 C-301.96011583 397.65065202 -301.9601981 389.53592707 -301.96068422 381.4211865 C-301.96118441 366.94939567 -301.95203294 352.47762697 -301.9375 338.00584412 C-301.92339514 323.95310564 -301.91633004 309.90038664 -301.91699219 295.84764099 C-301.91703214 294.98109247 -301.9170721 294.11454395 -301.91711327 293.22173638 C-301.91715362 292.35670325 -301.91719398 291.49167012 -301.91723555 290.60042387 C-301.9179245 274.60744871 -301.91204287 258.61448184 -301.90308234 242.62150936 C-301.90006133 236.95976027 -301.89900225 231.2980127 -301.89855003 225.63626289 C-301.89786949 218.7458446 -301.89342669 211.85544029 -301.88421723 204.96502794 C-301.87958619 201.44695564 -301.87655854 197.92890128 -301.87781143 194.41082573 C-301.87910075 190.60618571 -301.87268523 186.80158207 -301.86540222 182.99694824 C-301.86695082 181.87305209 -301.86849943 180.74915593 -301.87009495 179.59120232 C-301.86687051 178.58047675 -301.86364606 177.56975118 -301.86032391 176.52839756 C-301.85961948 175.64912493 -301.85891506 174.76985231 -301.85818928 173.86393505 C-301.73168945 171.88304138 -301.73168945 171.88304138 -300.73168945 170.88304138 C-300.75231445 169.93429138 -300.77293945 168.98554138 -300.79418945 168.00804138 C-300.73168945 164.88304138 -300.73168945 164.88304138 -298.73168945 161.88304138 C-298.34669054 160.22754607 -298.00375811 158.56079808 -297.73168945 156.88304138 C-297.07168945 156.88304138 -296.41168945 156.88304138 -295.73168945 156.88304138 C-295.40168945 155.23304138 -295.07168945 153.58304138 -294.73168945 151.88304138 C-293.74168945 151.55304138 -292.75168945 151.22304138 -291.73168945 150.88304138 C-291.62727539 150.13538513 -291.52286133 149.38772888 -291.4152832 148.61741638 C-289.29673633 140.1432289 -278.37828709 131.89911958 -271.3605957 127.34397888 C-261.52710062 122.08007183 -249.69223898 118.74664022 -238.52763367 118.76951599 C-237.27861267 118.76958649 -236.02959167 118.76965698 -234.74272156 118.76972961 C-233.36624114 118.77486312 -231.98976104 118.78008457 -230.61328125 118.78538513 C-229.15756277 118.78730525 -227.70184364 118.7887686 -226.24612427 118.78981018 C-223.11519328 118.79296772 -219.98428936 118.7992313 -216.85336876 118.80787659 C-211.89824502 118.82141769 -206.94313024 118.82729738 -201.98799133 118.83201599 C-190.57138277 118.84405441 -179.15479757 118.86608734 -167.73820496 118.88824463 C-157.28112447 118.90844389 -146.82405197 118.92651291 -136.36695606 118.93645954 C-131.44592539 118.94142935 -126.52493624 118.9512708 -121.60392225 118.96488953 C-118.53558196 118.97237522 -115.46724728 118.97567005 -112.39889908 118.97785568 C-110.98158872 118.97971993 -109.56427936 118.98330526 -108.14697838 118.9887886 C-95.57535703 119.03587328 -86.9503752 118.89317246 -76.73168945 110.88304138 C-74.18370779 107.98150587 -74.18370779 107.98150587 -72.73168945 104.88304138 C-72.24055664 103.97554138 -71.74942383 103.06804138 -71.2434082 102.13304138 C-69.65993402 98.72877647 -68.81073123 95.61601921 -68.04418945 91.94554138 C-67.79282227 90.78151794 -67.54145508 89.61749451 -67.2824707 88.41819763 C-66.72612105 84.84730095 -66.70975192 81.48957215 -66.73168945 77.88304138 C-65.73168945 75.44554138 -65.73168945 75.44554138 -64.73168945 73.88304138 C-64.07168945 73.88304138 -63.41168945 73.88304138 -62.73168945 73.88304138 C-62.61051758 73.13538513 -62.4893457 72.38772888 -62.36450195 71.61741638 C-62.19692383 70.63257263 -62.0293457 69.64772888 -61.85668945 68.63304138 C-61.61305664 67.17124451 -61.61305664 67.17124451 -61.36450195 65.67991638 C-60.78313098 63.11040021 -60.0232868 61.16233082 -58.73168945 58.88304138 C-59.39168945 58.55304138 -60.05168945 58.22304138 -60.73168945 57.88304138 C-60.11293945 56.58366638 -60.11293945 56.58366638 -59.48168945 55.25804138 C-54.96157323 44.70399642 -51.57475511 32.29720384 -50.16918945 20.88304138 C-49.73168945 17.88304138 -49.73168945 17.88304138 -48.74731445 16.01976013 C-47.56316721 13.52849652 -47.34812472 11.43095881 -47.04418945 8.69554138 C-45.86199587 1.63075255 -42.17314643 -3.31955503 -36.6652832 -7.79664612 C-22.81828134 -17.25177062 -10.17966228 -10.33314057 0 0 Z " fill="#1A304F" transform="translate(789.731689453125,386.11695861816406)"/>
<path d="M0 0 C2.3125 -0.3125 2.3125 -0.3125 5 0 C6.01622166 1.65682567 7.0125566 3.32586341 8 5 C9.78624686 6.96630258 11.58099717 8.84707733 13.46569824 10.7129364 C14.01742439 11.26707696 14.56915053 11.82121752 15.13759565 12.39215022 C16.98219256 14.24236985 18.83383292 16.08537205 20.68554688 17.9284668 C22.01157656 19.2555697 23.33717311 20.58310552 24.66236877 21.91104126 C28.25894793 25.51246482 31.86174142 29.10761199 35.46581459 32.70153403 C39.23533757 36.46227176 42.99958584 40.2282823 46.76452637 43.99360657 C53.08619477 50.31433866 59.41172316 56.63118675 65.73974609 62.94555664 C73.05999383 70.25006906 80.37499197 77.55980479 87.68700933 84.87255543 C94.71810879 91.90426481 101.75205967 98.93311419 108.78761292 105.9603672 C111.78354567 108.95276597 114.77862463 111.9460155 117.77305603 114.93991661 C121.29680353 118.46266101 124.82308538 121.98284892 128.35136223 125.50105667 C129.6474673 126.79423639 130.94272344 128.08826759 132.23707771 129.38319969 C134.00051801 131.14712937 135.76699255 132.90796243 137.53430176 134.66801453 C138.04879489 135.18405626 138.56328803 135.700098 139.09337187 136.23177737 C141.31094654 138.43427884 143.38693626 140.25795751 146 142 C146 142.66 146 143.32 146 144 C146.66 144 147.32 144 148 144 C148.625 146.3125 148.625 146.3125 149 149 C148.34 149.99 147.68 150.98 147 152 C146.36852423 154.17421605 146.36852423 154.17421605 145.9375 156.5 C145.41299975 159.10082768 144.84203525 161.47389425 144 164 C143.34 164 142.68 164 142 164 C142.226875 165.010625 142.45375 166.02125 142.6875 167.0625 C143.05261878 171.6629966 141.97736197 173.89317129 140 178 C139.30859478 180.77888613 139.30859478 180.77888613 139 183 C138.34 183 137.68 183 137 183 C137.19335938 183.57878906 137.38671875 184.15757812 137.5859375 184.75390625 C138.07207106 187.39095152 137.67564427 188.50366808 136.625 190.9375 C135.39164525 193.95048992 134.50528293 196.76618922 134 200 C133.34 200 132.68 200 132 200 C132.309375 201.2684375 132.309375 201.2684375 132.625 202.5625 C133.33992205 209.11595215 130.32434429 214.84351196 127.8046875 220.765625 C126.83058202 223.07461296 126.83058202 223.07461296 127 226 C126.60132075 227.49009904 126.15788249 228.9684593 125.6875 230.4375 C124.17284513 235.32440534 122.91329008 240.2467773 121.6953125 245.21484375 C120.87450016 248.50270441 119.96009057 251.75046267 119 255 C118.34 255 117.68 255 117 255 C117.20625 255.845625 117.4125 256.69125 117.625 257.5625 C118.06628064 261.60757258 117.30113967 264.16506203 116 268 C115.62875 269.134375 115.2575 270.26875 114.875 271.4375 C114.441875 272.7059375 114.441875 272.7059375 114 274 C113.34 274 112.68 274 112 274 C112.2475 274.78375 112.495 275.5675 112.75 276.375 C113.05967967 280.86535519 111.7572293 283.49394573 109.98046875 287.55078125 C108.73636958 290.6585509 108.42904158 293.6902507 108 297 C106.85561236 300.58482874 105.40846215 304.03891258 103.9375 307.5 C102.36480414 311.69385563 100.94980943 315.99237724 101.0625 320.5 C101.00033666 322.98653378 100.60988633 324.82142088 99.875 327.1875 C99.66617187 327.86167969 99.45734375 328.53585937 99.2421875 329.23046875 C97.35522889 331.91849469 95.11148386 332.1408979 92 333 C89.22038639 333.25069833 89.22038639 333.25069833 86.30656242 333.25168228 C85.18936314 333.25689778 84.07216385 333.26211327 82.92111003 333.26748681 C81.703994 333.26302537 80.48687797 333.25856392 79.23287964 333.25396729 C77.28156873 333.25864726 77.28156873 333.25864726 75.29083741 333.26342177 C71.6863803 333.27176551 68.0820292 333.26764645 64.47757173 333.26144934 C60.5879865 333.25692422 56.6984195 333.26390884 52.80883789 333.26940918 C45.1922178 333.27830368 37.57563711 333.27638106 29.95901547 333.2705839 C23.77021118 333.26606831 17.58141793 333.26545406 11.39261246 333.26763153 C10.07171689 333.26809123 10.07171689 333.26809123 8.72413657 333.26856022 C6.93528269 333.26919966 5.14642882 333.26984809 3.35757495 333.2705054 C-13.41681576 333.27620869 -30.19118462 333.26965047 -46.96557175 333.25890467 C-61.36491684 333.24996605 -75.7642297 333.25152376 -90.16357422 333.26074219 C-106.88078431 333.27143948 -123.59797525 333.27566264 -140.31518829 333.26951766 C-142.09687352 333.26888055 -143.87855875 333.26825181 -145.66024399 333.26763153 C-146.97522542 333.2671687 -146.97522542 333.2671687 -148.31677214 333.26669653 C-154.50057539 333.26496819 -160.68436651 333.2678876 -166.86816788 333.27259064 C-174.40048318 333.27819332 -181.93275678 333.27669583 -189.46506728 333.26602915 C-193.30958374 333.26076464 -197.15403062 333.25872895 -200.9985466 333.26532745 C-205.16137425 333.27236439 -209.32402542 333.26397529 -213.48684692 333.25396729 C-214.7084244 333.25842873 -215.93000187 333.26289017 -217.18859684 333.26748681 C-218.30058064 333.26227132 -219.41256443 333.25705582 -220.55824471 333.25168228 C-221.51948191 333.25135758 -222.48071911 333.25103287 -223.47108471 333.25069833 C-226 333 -226 333 -230 331 C-230 249.82 -230 168.64 -230 85 C-226.88901982 83.96300661 -224.7326567 83.87029646 -221.46992493 83.86196899 C-220.31935608 83.85651566 -219.16878723 83.85106232 -217.98335266 83.84544373 C-216.71952255 83.8444014 -215.45569244 83.84335907 -214.15356445 83.84228516 C-212.80963983 83.83761575 -211.46571679 83.83247198 -210.12179565 83.82688904 C-207.22440553 83.81560662 -204.32702569 83.80717259 -201.42962074 83.80076981 C-196.83367239 83.79006672 -192.23779709 83.76981039 -187.64189148 83.74765015 C-174.57110997 83.68582077 -161.50033101 83.63190215 -148.42944336 83.59863281 C-141.21255411 83.58018316 -133.99578581 83.55111053 -126.77898568 83.5106281 C-122.96669954 83.48971248 -119.15456489 83.47412324 -115.3422184 83.47182083 C-93.48285264 83.5998641 -93.48285264 83.5998641 -72 80 C-70.95302444 79.75657867 -69.90604889 79.51315735 -68.8273468 79.26235962 C-62.37493864 77.74053259 -56.77803986 75.21104444 -51 72 C-50.21109375 71.58105469 -49.4221875 71.16210938 -48.609375 70.73046875 C-37.83007776 64.69753949 -25.89792432 55.34688648 -19 45 C-18.34 45 -17.68 45 -17 45 C-17 43.35 -17 41.7 -17 40 C-16.34 40 -15.68 40 -15 40 C-15 39.01 -15 38.02 -15 37 C-14 36 -13 35 -12 34 C-11.28752268 32.3523962 -10.62599617 30.68236471 -10 29 C-9.56042969 28.19949219 -9.12085938 27.39898438 -8.66796875 26.57421875 C-6.3373587 21.58005436 -4.86933378 16.40328406 -3.3125 11.125 C-2.99216797 10.05507813 -2.67183594 8.98515625 -2.34179688 7.8828125 C-1.55628671 5.25662926 -0.77585288 2.62904927 0 0 Z " fill="#F9FCFE" transform="translate(791,495)"/>
<path d="M0 0 C1.37575195 -0.0309375 1.37575195 -0.0309375 2.77929688 -0.0625 C3.68873047 -0.06765625 4.59816406 -0.0728125 5.53515625 -0.078125 C6.35508057 -0.0874707 7.17500488 -0.09681641 8.01977539 -0.10644531 C11.34836359 0.30019336 14.17445955 1.28170787 17.3296051 2.38565063 C22.41118546 4.06986757 27.6207905 5.30220219 32.80859375 6.61328125 C34.66134666 7.08497993 34.66134666 7.08497993 36.55152893 7.56620789 C39.16573094 8.23142347 41.7805135 8.89429113 44.39575195 9.55541992 C47.01886139 10.21866298 49.64126408 10.88457761 52.26293945 11.5534668 C66.78108948 15.25676698 81.30748077 18.88333967 95.92955017 22.15632629 C102.6973558 23.68265546 109.3925028 25.41549088 116.09074402 27.22209167 C122.35787624 28.89675922 128.65148211 30.46448512 134.9453125 32.03515625 C136.32764358 32.38090825 137.70995723 32.72672996 139.09225464 33.07261658 C141.9608901 33.79013989 144.82973152 34.50683193 147.69873047 35.22290039 C151.3373219 36.13112135 154.9753789 37.04146266 158.61328316 37.95243168 C161.45814704 38.66455971 164.30329521 39.37554665 167.14852524 40.08621025 C168.4887538 40.42110316 169.82889842 40.75633225 171.16894913 41.09193611 C178.78403154 42.99833192 186.40803534 44.84479214 194.06347656 46.58253479 C198.67756919 47.65411488 203.24793785 48.86086228 207.8125 50.125 C208.69679688 50.35574219 209.58109375 50.58648437 210.4921875 50.82421875 C216.93729602 52.61772365 222.57351734 54.88587083 226.5625 60.5625 C227.243125 61.8928125 227.243125 61.8928125 227.9375 63.25 C229.30063473 65.2664715 230.66575643 67.28094683 232.046875 69.28515625 C233.1439946 71.70555607 232.83184171 72.80146689 231.9375 75.25 C232.5975 75.25 233.2575 75.25 233.9375 75.25 C236.33652589 82.44707767 235.96411234 91.38942755 232.80078125 98.30078125 C231.38214352 101.50394969 230.54138136 104.88149306 229.5859375 108.24609375 C228.9375 110.25 228.9375 110.25 227.9375 111.25 C227.28000526 114.60885885 226.69155287 117.97162873 226.13085938 121.34765625 C225.50605434 124.90224658 224.96615956 127.20701066 222.9375 130.25 C222.85844936 132.58199388 222.84951231 134.91832622 222.9375 137.25 C222.2775 137.25 221.6175 137.25 220.9375 137.25 C220.81375 138.301875 220.69 139.35375 220.5625 140.4375 C219.9375 144.25 219.9375 144.25 219 146.5 C217.6686195 149.945926 216.99084167 153.44583143 216.3125 157.0625 C216.1784375 157.75537109 216.044375 158.44824219 215.90625 159.16210938 C215.57891712 160.85722609 215.25759406 162.55350146 214.9375 164.25 C214.2775 164.25 213.6175 164.25 212.9375 164.25 C212.77314453 165.39275391 212.77314453 165.39275391 212.60546875 166.55859375 C211.83913233 171.54912606 211.04775056 176.30906481 209.3125 181.0625 C207.88847812 184.98392708 207.67246593 188.09779951 207.9375 192.25 C207.2775 192.25 206.6175 192.25 205.9375 192.25 C205.81375 193.301875 205.69 194.35375 205.5625 195.4375 C204.9375 199.25 204.9375 199.25 203.98828125 201.58203125 C202.39348693 205.63126738 201.68616664 209.83937916 200.81640625 214.09375 C199.93351516 217.26431001 198.63351512 219.45873805 196.9375 222.25 C196.481759 224.37358267 196.481759 224.37358267 196.4375 226.5 C196.17340825 229.882622 195.54369488 232.68962698 194.375 235.875 C192.92586356 239.87771183 192.66719802 243.01526899 192.9375 247.25 C192.2775 247.25 191.6175 247.25 190.9375 247.25 C190.56625 248.9825 190.56625 248.9825 190.1875 250.75 C189.7750071 252.58427692 189.35751276 254.41743036 188.9375 256.25 C188.7926416 256.88760254 188.6477832 257.52520508 188.49853516 258.18212891 C188.00987527 260.31161008 187.5062673 262.43714167 187 264.5625 C186.84241211 265.25601562 186.68482422 265.94953125 186.52246094 266.6640625 C185.58120803 270.54979595 184.4235541 273.1530869 181.9375 276.25 C181.9711441 277.83127252 182.01219522 279.41286767 182.09765625 280.9921875 C181.79953432 285.19497954 180.18144912 289.10691104 178.8125 293.06640625 C177.92813775 296.28406353 177.77782399 298.93173295 177.9375 302.25 C177.2775 302.25 176.6175 302.25 175.9375 302.25 C174.9109128 306.82664041 173.89973165 311.40544691 172.9375 315.99609375 C172.60416667 317.55989583 172.27083333 319.12369792 171.9375 320.6875 C171.7725 321.48865234 171.6075 322.28980469 171.4375 323.11523438 C170.16306391 329.02443609 170.16306391 329.02443609 167.9375 331.25 C162.13099818 327.7863772 157.65297153 323.2562259 152.89515686 318.48854065 C151.99502678 317.59435281 151.0948967 316.70016497 150.16748995 315.77888054 C147.67766157 313.30512391 145.19407627 310.82518215 142.71153247 308.344118 C140.03007464 305.66637282 137.34293813 302.99433599 134.65661621 300.32147217 C128.79010528 294.48207258 122.93110994 288.63517115 117.07373357 282.78661084 C113.41737019 279.13577735 109.7595368 275.48641916 106.10143852 271.83732414 C95.97431303 261.73456855 85.84907109 251.62993362 75.73073673 241.51837254 C74.76031518 240.54860968 74.76031518 240.54860968 73.77028915 239.55925566 C73.12180868 238.91121174 72.47332821 238.26316783 71.80519682 237.59548622 C70.49114668 236.28232301 69.17709343 234.96916289 67.86303711 233.65600586 C67.21122317 233.00463478 66.55940924 232.35326371 65.88784336 231.68215411 C55.3095227 221.11174127 44.71774915 210.55491863 34.1201498 200.00383759 C23.24139563 189.17245212 12.37387031 178.32990686 1.51760668 167.47597831 C-4.57884993 161.38135765 -10.68008245 155.29169225 -16.79371452 149.21429634 C-21.99520479 144.04352832 -27.1864003 138.8627004 -32.36426484 133.66826982 C-35.00773953 131.01695573 -37.65590354 128.37080455 -40.31723976 125.73740959 C-43.19752427 122.88709156 -46.05421609 120.01425861 -48.90904236 117.13844299 C-50.18544906 115.88620551 -50.18544906 115.88620551 -51.48764175 114.60867029 C-52.62340034 113.45314218 -52.62340034 113.45314218 -53.78210354 112.27427006 C-54.44450084 111.61306693 -55.10689814 110.95186381 -55.78936809 110.27062422 C-57.0625 108.25 -57.0625 108.25 -56.83002478 105.67817062 C-56.26843131 103.90149215 -55.67464013 102.13490286 -55.0625 100.375 C-53.95900005 97.27392659 -53.95900005 97.27392659 -53.6875 94 C-52.86707033 89.077422 -50.98203561 84.83260675 -49.0625 80.25 C-47.48589878 76.16258846 -47.48589878 76.16258846 -47.13671875 71.87890625 C-47.05366031 68.93688904 -46.34688222 67.1611812 -45.125 64.5 C-43.38007379 60.38999958 -42.71281045 56.9730124 -42.4140625 52.5546875 C-41.85888575 48.91519546 -40.33598415 45.74067247 -38.8046875 42.4140625 C-37.77094264 40.11319074 -37.77094264 40.11319074 -39.0625 37.25 C-36.41359266 26.07005286 -30.00314344 12.70359597 -21.0625 5.25 C-18.14983138 3.60892476 -15.20223079 2.38183778 -12.0625 1.25 C-8.3877603 -0.58736985 -4.04492439 0.02208832 0 0 Z " fill="#1A304F" transform="translate(847.0625,208.75)"/>
<path d="M0 0 C3.57308683 2.80052751 5.97911049 5.554682 8.1875 9.5625 C8.57164062 10.07554687 8.95578125 10.58859375 9.3515625 11.1171875 C16.95441402 21.6119212 19.44423286 35.92814562 18.1875 48.5625 C17.4375 52.3125 17.4375 52.3125 16.1875 55.5625 C15.919375 56.32820312 15.65125 57.09390625 15.375 57.8828125 C11.92339721 67.28843009 7.17414158 74.4926524 -0.8125 80.5625 C-1.31007813 81.00335937 -1.80765625 81.44421875 -2.3203125 81.8984375 C-11.6026905 89.59488157 -25.09427984 90.78273942 -36.703125 89.83740234 C-50.52330494 88.03630019 -62.74610863 80.98440577 -71.8125 70.5625 C-73.8125 67.5625 -73.8125 67.5625 -73.8125 64.5625 C-74.4725 64.5625 -75.1325 64.5625 -75.8125 64.5625 C-76.8125 61.5625 -76.8125 61.5625 -76.8125 59.5625 C-77.121875 58.386875 -77.43125 57.21125 -77.75 56 C-80.06699787 45.71519649 -80.85735982 34.71203274 -77.8125 24.5625 C-77.71839844 23.80324219 -77.62429688 23.04398438 -77.52734375 22.26171875 C-76.53795365 18.52582499 -74.49133063 15.7083775 -72.25 12.625 C-71.79963379 12.00254395 -71.34926758 11.38008789 -70.88525391 10.73876953 C-65.42651437 3.41992928 -59.0685212 -0.72394829 -50.8125 -4.4375 C-50.19117188 -4.72625 -49.56984375 -5.015 -48.9296875 -5.3125 C-33.67366584 -12.18101192 -13.76568843 -9.09626989 0 0 Z " fill="#1B314F" transform="translate(418.8125,588.4375)"/>
<path d="M0 0 C5.93913801 4.38259812 10.02526807 9.42674561 13 16.1875 C13.32871094 16.91324219 13.65742188 17.63898437 13.99609375 18.38671875 C17.5945277 26.36127018 20.13650406 32.93920625 20.1875 41.8125 C20.20167969 42.93914063 20.21585937 44.06578125 20.23046875 45.2265625 C20 48.1875 20 48.1875 18 51.1875 C18.2784375 52.3321875 18.2784375 52.3321875 18.5625 53.5 C19.16706169 57.21373609 17.81569866 58.95959127 16 62.1875 C15.71125 62.97125 15.4225 63.755 15.125 64.5625 C10.90858427 74.40080336 3.13926554 82.72398275 -6.84741211 86.97363281 C-22.35507945 92.48387366 -35.76803181 92.69353126 -51 86.1875 C-54.53414741 84.42515109 -57.78306825 82.4752266 -61 80.1875 C-61.63292969 79.73761719 -62.26585937 79.28773438 -62.91796875 78.82421875 C-67.89787827 74.92164065 -72.16050756 69.847804 -75 64.1875 C-74.5625 62.0078125 -74.5625 62.0078125 -74 60.1875 C-74.66 59.5275 -75.32 58.8675 -76 58.1875 C-77.21638461 53.1602902 -77.15457272 48.13953459 -77.125 43 C-77.11992432 41.74123047 -77.11992432 41.74123047 -77.11474609 40.45703125 C-76.97534015 23.65051023 -76.97534015 23.65051023 -74 19.1875 C-73.34 19.1875 -72.68 19.1875 -72 19.1875 C-71.90074219 18.61902344 -71.80148437 18.05054688 -71.69921875 17.46484375 C-69.2762215 9.57318232 -61.42825953 2.90612882 -54.375 -0.875 C-52.92582557 -1.54113083 -51.46649849 -2.18542824 -50 -2.8125 C-49.17113281 -3.18761719 -48.34226562 -3.56273437 -47.48828125 -3.94921875 C-32.58186084 -9.87436494 -13.66791634 -8.46865913 0 0 Z " fill="#1B314F" transform="translate(417,735.8125)"/>
<path d="M0 0 C4.21164545 2.97246485 7.31068346 6.50267018 10.47265625 10.54296875 C11.13523437 11.15011719 11.7978125 11.75726562 12.48046875 12.3828125 C14.7461105 14.83947894 15.55519351 16.82241985 16.59765625 19.98046875 C17.96843965 24.06432317 17.96843965 24.06432317 19.52734375 28.078125 C21.42522834 33.02674143 21.63338333 37.63834905 21.66015625 42.91796875 C21.67433594 44.18382812 21.68851562 45.4496875 21.703125 46.75390625 C20.99244458 58.43797415 15.28465013 71.33813556 6.59765625 79.16796875 C-1.95065466 86.29156118 -11.26236796 90.72369778 -22.52734375 91.54296875 C-23.28789062 91.61773438 -24.0484375 91.6925 -24.83203125 91.76953125 C-37.82984103 92.50234545 -51.72164598 87.21631191 -61.546875 78.81640625 C-65.12437019 75.397074 -68.04043803 71.82044658 -70.52734375 67.54296875 C-70.52734375 66.88296875 -70.52734375 66.22296875 -70.52734375 65.54296875 C-71.18734375 65.21296875 -71.84734375 64.88296875 -72.52734375 64.54296875 C-72.52734375 63.55296875 -72.52734375 62.56296875 -72.52734375 61.54296875 C-72.83671875 60.94484375 -73.14609375 60.34671875 -73.46484375 59.73046875 C-76.81816852 52.82656481 -75.69660095 44.14047442 -75.55566406 36.63476562 C-75.53092433 34.807438 -75.55255936 32.97960118 -75.58203125 31.15234375 C-75.42599051 22.63697771 -71.95925261 17.88345229 -66.52734375 11.54296875 C-65.66882813 10.42728516 -65.66882813 10.42728516 -64.79296875 9.2890625 C-49.72839333 -9.61339284 -20.09537206 -11.58512176 0 0 Z " fill="#1B304F" transform="translate(266.52734375,512.45703125)"/>
<path d="M0 0 C1.25683594 -0.00257813 2.51367188 -0.00515625 3.80859375 -0.0078125 C16.24263025 0.43210138 28.3327532 5.575779 37 14.6875 C38.55151375 17.10786145 39.51053302 19.460017 40.5625 22.125 C41.04460937 22.57101562 41.52671875 23.01703125 42.0234375 23.4765625 C43.92995402 25.5185675 44.39548388 27.19038066 45.125 29.875 C45.46724609 31.10476563 45.46724609 31.10476563 45.81640625 32.359375 C46.06261719 33.27203125 46.30882812 34.1846875 46.5625 35.125 C46.91570312 36.22714844 47.26890625 37.32929687 47.6328125 38.46484375 C48.63439257 42.40803922 48.862846 45.87401136 48.875 49.9375 C48.89175781 51.24332031 48.90851563 52.54914062 48.92578125 53.89453125 C48.80589844 54.96058594 48.68601562 56.02664063 48.5625 57.125 C47.5725 57.785 46.5825 58.445 45.5625 59.125 C45.5625 61.05611645 45.56978266 62.98775758 45.62890625 64.91796875 C45.38001783 73.18984857 39.70982985 80.08266584 34.01953125 85.62890625 C32.58454362 86.85614768 31.07306249 87.99207813 29.5625 89.125 C28.5725 89.970625 27.5825 90.81625 26.5625 91.6875 C16.67805333 98.50733657 3.20340109 99.63893562 -8.4375 98.125 C-17.33658122 96.35609515 -25.32925152 92.7680789 -32.4375 87.125 C-33.04851562 86.67511719 -33.65953125 86.22523438 -34.2890625 85.76171875 C-39.32594935 81.82318388 -43.47053711 76.79541263 -46.4375 71.125 C-46.1075 70.135 -45.7775 69.145 -45.4375 68.125 C-46.08558564 66.78253688 -46.75572584 65.45067199 -47.4375 64.125 C-50.03545943 51.75724949 -50.25340484 33.97531643 -43.515625 22.9921875 C-41.29445297 20.181256 -38.9842518 17.64271717 -36.4375 15.125 C-35.74914062 14.43535156 -35.06078125 13.74570312 -34.3515625 13.03515625 C-30.11197851 9.07206687 -25.74285294 6.4200722 -20.4375 4.125 C-19.24125 3.568125 -18.045 3.01125 -16.8125 2.4375 C-11.21604906 0.26110241 -5.97183267 -0.01222484 0 0 Z " fill="#1B304F" transform="translate(239.4375,802.875)"/>
<path d="M0 0 C1.0732251 0.00829834 2.1464502 0.01659668 3.25219727 0.02514648 C15.92375968 0.2947542 24.8206515 2.89352506 34.4375 11.4375 C35.51 12.200625 36.5825 12.96375 37.6875 13.75 C41.47089118 17.44740502 43.36078204 21.62192211 45.4375 26.4375 C45.81390625 27.30375 46.1903125 28.17 46.578125 29.0625 C47.4375 31.4375 47.4375 31.4375 47.4375 34.4375 C48.0975 34.4375 48.7575 34.4375 49.4375 34.4375 C50.24446444 39.41485667 50.59978817 44.19250765 50.625 49.25 C50.63917969 50.55582031 50.65335937 51.86164062 50.66796875 53.20703125 C50.4375 56.4375 50.4375 56.4375 48.4375 58.4375 C48.71207031 59.52998047 48.71207031 59.52998047 48.9921875 60.64453125 C49.92650304 66.50449274 45.50171062 72.54327471 42.4375 77.4375 C34.84653925 87.73755362 25.1528639 95.02526055 12.4375 97.4375 C-5.10537447 99.02896546 -20.07994765 95.92974327 -33.90625 84.5 C-35.5603647 82.87392114 -37.08564739 81.22430933 -38.5625 79.4375 C-39.201875 78.695 -39.84125 77.9525 -40.5 77.1875 C-41.5625 75.4375 -41.5625 75.4375 -41.5625 72.4375 C-42.2225 72.4375 -42.8825 72.4375 -43.5625 72.4375 C-44.5625 69.4375 -44.5625 69.4375 -44.5625 67.4375 C-44.8925 66.2825 -45.2225 65.1275 -45.5625 63.9375 C-48.34431599 51.50938681 -46.84436772 38.58822453 -43.5625 26.4375 C-42.9025 26.4375 -42.2425 26.4375 -41.5625 26.4375 C-41.46324219 25.86902344 -41.36398438 25.30054688 -41.26171875 24.71484375 C-39.0101833 17.38163052 -31.69350406 10.69569207 -25.17578125 7.1328125 C-22.6556423 5.85955844 -20.11523743 4.64382409 -17.5625 3.4375 C-16.70785156 2.90253906 -15.85320312 2.36757813 -14.97265625 1.81640625 C-9.99403876 -0.19671171 -5.32191952 -0.05221196 0 0 Z " fill="#1A304F" transform="translate(237.5625,654.5625)"/>
<path d="M0 0 C0.33 0 0.66 0 1 0 C1 95.7 1 191.4 1 290 C-2 287 -2 287 -2.37489682 284.8098402 C-2.37484181 283.94988099 -2.37478679 283.08992178 -2.37473011 282.2039032 C-2.38193665 281.21049581 -2.3891432 280.21708841 -2.39656812 279.19357777 C-2.38919383 278.09933333 -2.38181955 277.0050889 -2.3742218 275.87768555 C-2.37819621 274.7175101 -2.38217061 273.55733465 -2.38626546 272.36200237 C-2.3942424 269.13640397 -2.38870716 265.9111499 -2.37751496 262.68557119 C-2.36869064 259.20903904 -2.37711132 255.7325437 -2.38337708 252.25601196 C-2.39287749 245.44341188 -2.38625441 238.63091753 -2.37411413 231.81832528 C-2.36051003 223.88967766 -2.36213058 215.96105538 -2.36424746 208.03239906 C-2.36743917 193.8884396 -2.35575927 179.74453047 -2.33618164 165.60058594 C-2.31717671 151.86684639 -2.31009387 138.13316582 -2.31567383 124.39941406 C-2.32172777 109.45480458 -2.32156162 94.51022107 -2.310188 79.56561375 C-2.30898067 77.9729112 -2.30777468 76.38020865 -2.30657005 74.7875061 C-2.30596651 74.00380589 -2.30536298 73.22010567 -2.30474115 72.41265696 C-2.30085718 66.88214715 -2.30125747 61.35164699 -2.3031559 55.82113647 C-2.30527516 49.08398348 -2.30007424 42.34688223 -2.28554235 35.60974383 C-2.27828464 32.17042576 -2.27423299 28.73118315 -2.27878571 25.29185867 C-2.28198862 21.56859269 -2.27297338 17.84555677 -2.26069641 14.12231445 C-2.26447573 13.02807002 -2.26825506 11.93382559 -2.27214891 10.80642223 C-2.26631671 9.81301484 -2.26048452 8.81960745 -2.25447559 7.7960968 C-2.25360882 6.93613759 -2.25274204 6.07617838 -2.251849 5.1901598 C-2 3 -2 3 0 0 Z " fill="#B7BECB" transform="translate(488,559)"/>
<path d="M0 0 C5.66082943 4.71015085 10.8836783 9.74505378 16.0799408 14.95968628 C16.97205263 15.85094369 17.86416447 16.7422011 18.78331 17.66046631 C21.2438817 20.11881431 23.70134516 22.58024856 26.15828812 25.0422225 C28.81417709 27.70244645 31.4729725 30.3597628 34.13140869 33.0174408 C38.73178379 37.61729259 43.33033037 42.21896578 47.92762566 46.8218956 C54.57447378 53.47688491 61.22409493 60.12909777 67.87438721 66.78064515 C78.66504252 77.57348686 89.45346467 88.36855794 100.24047852 99.16503906 C110.71651755 109.65026286 121.19361063 120.13443157 131.67211914 130.6171875 C132.31845812 131.2637892 132.96479709 131.9103909 133.6307221 132.57658659 C136.8733539 135.82052346 140.11600638 139.06443965 143.35866916 142.30834556 C170.24232147 169.20235766 197.122348 196.09999132 224 223 C223.01 223.33 222.02 223.66 221 224 C192.83714058 195.90574627 164.68214055 167.80363857 136.53771827 139.69091425 C133.21807357 136.37502187 129.8983636 133.05919484 126.57861328 129.7434082 C125.58722448 128.7531998 125.58722448 128.7531998 124.57580763 127.74298719 C113.86171257 117.04196054 103.14233289 106.34624257 92.42100483 95.65246322 C81.42722569 84.68669841 70.43911247 73.7152803 59.45628309 62.73854858 C52.67432807 55.96071825 45.88794618 49.18738279 39.09590757 42.41965697 C34.44431497 37.78387257 29.79821717 33.14262873 25.15647614 28.49698027 C22.47476609 25.81334099 19.79063033 23.13224656 17.09996605 20.45758247 C14.18854004 17.56334422 11.28873988 14.65773668 8.39001465 11.7507782 C7.53011508 10.89961715 6.6702155 10.0484561 5.78425837 9.17150229 C5.01442794 8.39569872 4.24459752 7.61989516 3.4514389 6.82058239 C2.78009336 6.15037601 2.10874782 5.48016962 1.41705847 4.78965396 C0 3 0 3 0 0 Z " fill="#66738C" transform="translate(790,314)"/>
<path d="M0 0 C3.2837862 1.43817096 5.46323627 3.21043952 7.99492645 5.73486423 C8.78418786 6.51706005 9.57344926 7.29925586 10.38662767 8.10515457 C11.2477112 8.96865318 12.10879472 9.83215179 12.99597168 10.72181702 C13.9153664 11.63597506 14.83476111 12.55013309 15.78201628 13.49199289 C18.3351457 16.03093227 20.88197612 18.57610963 23.42779899 21.12237251 C26.1741251 23.86705128 28.92614748 26.6060086 31.67738342 29.34576416 C37.69301103 35.33853527 43.70115903 41.33876831 49.70789528 47.34044957 C53.45896171 51.08825945 57.21165843 54.83443391 60.96470642 58.58025932 C71.35655717 68.95254257 81.74682333 79.32640564 92.13034821 89.70702457 C93.12719691 90.70359192 93.12719691 90.70359192 94.14418396 91.72029194 C95.49140803 93.06714976 96.83863082 94.41400885 98.18585235 95.76086921 C99.1889946 96.76373724 99.1889946 96.76373724 100.21240234 97.78686523 C100.88197942 98.45626176 101.5515565 99.12565829 102.24142379 99.81533956 C113.0894661 110.65984081 123.94919701 121.49255416 134.81414765 132.32011265 C145.97015735 143.43803543 157.11677857 154.56529742 168.25391245 165.7021293 C174.50667849 171.95431083 180.76333716 178.20248131 187.03025818 184.44047737 C192.36707984 189.75277998 197.69519823 195.07362423 203.0122503 200.40571702 C205.72442195 203.12505555 208.4404406 205.84022798 211.16754341 208.54459953 C214.12673937 211.47936549 217.06611648 214.43322489 220.00402832 217.38929749 C220.86511184 218.23718104 221.72619536 219.08506459 222.61337233 219.95864159 C228.37364014 225.80056747 233.00006387 231.68695175 233.390625 240.16015625 C233.34421875 241.44792969 233.2978125 242.73570312 233.25 244.0625 C233.21390625 245.37347656 233.1778125 246.68445313 233.140625 248.03515625 C233.09421875 249.01355469 233.0478125 249.99195313 233 251 C232.34 251 231.68 251 231 251 C229.96414788 247.89244364 229.98939393 245.98646491 230.125 242.75 C230.19286223 237.61961559 229.27143798 234.54287597 227 230 C227 229.01 227 228.02 227 227 C226.34 227 225.68 227 225 227 C223.59398884 225.57454246 223.59398884 225.57454246 221.94486904 223.57696438 C217.82007986 218.73122264 213.38974423 214.25664395 208.88209534 209.76856995 C207.53780225 208.42405358 207.53780225 208.42405358 206.16635174 207.05237526 C203.69886076 204.58459093 201.22828502 202.11991585 198.75716889 199.65576231 C196.08535098 196.99035295 193.41646822 194.32200742 190.74723816 191.65400696 C186.12878808 187.0384354 181.50856861 182.42464128 176.88717842 177.81201363 C170.20502268 171.14243526 163.52612788 164.46959893 156.8481096 157.79587816 C146.01125581 146.96608132 135.1725343 136.13815596 124.33227539 125.31176758 C123.68427988 124.66459988 123.03628437 124.01743218 122.36865263 123.35065334 C117.76665002 118.7545539 113.16458108 114.15852087 108.5625 109.5625 C103.29332675 104.30026055 98.02418799 99.03798657 92.75512695 93.77563477 C92.10580098 93.12713692 91.45647501 92.47863908 90.78747249 91.81048978 C79.9780474 81.01472917 69.17056988 70.21702092 58.36449188 59.41791004 C51.69817797 52.7560852 45.03008604 46.09604942 38.35971945 39.43828242 C33.79764971 34.88461004 29.23732366 30.32919652 24.67839313 25.77238131 C22.04475416 23.14009293 19.41027543 20.50865856 16.77363205 17.87937927 C13.92275423 15.03643446 11.07569389 12.18969795 8.22901917 9.34254456 C7.38556727 8.50268763 6.54211538 7.6628307 5.67310435 6.79752356 C4.918041 6.04108586 4.16297766 5.28464817 3.38503361 4.50528812 C2.72659586 3.84777217 2.06815811 3.19025622 1.38976771 2.51281554 C0 1 0 1 0 0 Z " fill="#B8BFCC" transform="translate(786,383)"/>
<path d="M0 0 C4.24394137 2.28601057 7.47839383 5.2003928 10.84028625 8.59977722 C11.4080886 9.16587072 11.97589095 9.73196422 12.56089944 10.31521207 C14.45724701 12.20827236 16.34637002 14.10837911 18.2355957 16.00854492 C19.59549217 17.36900567 20.95582946 18.72902591 22.3165741 20.08863831 C26.00660248 23.77809283 29.69043147 27.47368174 33.37318444 31.17039657 C37.2239873 35.03370105 41.08045382 38.89134336 44.93632507 42.74958801 C52.23586329 50.05534266 59.53028823 57.36618065 66.82289332 64.67885524 C75.12603823 73.00435405 83.43486218 81.32417526 91.74416983 89.64352262 C108.83577654 106.75603502 125.92023322 123.87567088 143 141 C142.34 141.66 141.68 142.32 141 143 C140.29388989 142.29361232 139.58777979 141.58722464 138.86027241 140.85943127 C135.98775612 137.98695383 133.11194807 135.1177811 130.23564148 132.24909973 C129.07280865 131.08919901 127.90998245 129.92929165 126.74716187 128.76937866 C126.13130093 128.15506863 125.51543999 127.54075859 124.8809166 126.9078331 C110.71331049 112.77556891 96.55140078 98.63760799 82.39274883 84.49637318 C74.20813731 76.32210027 66.02164217 68.14973004 57.83081055 59.98168945 C50.67852126 52.8492911 43.52971663 45.71342191 36.38513023 38.57330722 C32.60392536 34.79471498 28.82096511 31.01791781 25.0338192 27.24527931 C21.47795016 23.70292537 17.92673689 20.15597192 14.37912941 16.60534477 C13.07309589 15.29986395 11.76533242 13.99611131 10.45576477 12.69417572 C8.67570174 10.92398468 6.90182532 9.14782283 5.12944031 7.36994934 C4.60368194 6.85001665 4.07792357 6.33008397 3.53623313 5.79439574 C0 2.22824362 0 2.22824362 0 0 Z " fill="#66738C" transform="translate(796,496)"/>
<path d="M0 0 C1.65 0 3.3 0 5 0 C5 0.99 5 1.98 5 3 C4.01 3 3.02 3 2 3 C1.82984375 3.81082031 1.6596875 4.62164062 1.484375 5.45703125 C-0.1427429 12.89157526 -2.20554371 19.92165641 -5 27 C-7.08004696 20.75985913 -4.29806576 14.14451749 -2.4375 8.0625 C-2.20353516 7.28326172 -1.96957031 6.50402344 -1.72851562 5.70117188 C-1.15682579 3.79942813 -0.57904309 1.89951774 0 0 Z " fill="#CAD0DA" transform="translate(791,495)"/>
<path d="M0 0 C3 1 3 1 3.94921875 2.63671875 C5.4880547 6.91126307 6.34619582 10.38405568 6 15 C5.34 15 4.68 15 4 15 C3.3299166 12.87607494 2.66403203 10.75082476 2 8.625 C1.62875 7.44164062 1.2575 6.25828125 0.875 5.0390625 C0 2 0 2 0 0 Z " fill="#B9C0CD" transform="translate(432,608)"/>
<path d="M0 0 C1.60080151 4.00200378 0.29279692 7.04556236 -1 11 C-1.66 11 -2.32 11 -3 11 C-3.33 12.98 -3.66 14.96 -4 17 C-5.34391145 13.27493 -4.65810293 10.58911139 -3.6875 6.8125 C-3.42324219 5.74644531 -3.15898438 4.68039062 -2.88671875 3.58203125 C-2 1 -2 1 0 0 Z " fill="#D9DEE6" transform="translate(1022,519)"/>
<path d="M0 0 C0.66 0 1.32 0 2 0 C1.53199289 4.05606165 1.12046792 7.46588679 -1 11 C-1.66 11 -2.32 11 -3 11 C-2.53199289 6.94393835 -2.12046792 3.53411321 0 0 Z " fill="#CFD5DE" transform="translate(1002,685)"/>
<path d="M0 0 C0.66 0 1.32 0 2 0 C2 4.95 2 9.9 2 15 C1.34 15 0.68 15 0 15 C-1.14229879 11.57310364 -0.90861076 9.38897782 -0.5625 5.8125 C-0.46066406 4.72582031 -0.35882812 3.63914062 -0.25390625 2.51953125 C-0.17011719 1.68808594 -0.08632813 0.85664062 0 0 Z " fill="#D3D9E1" transform="translate(1017,619)"/>
<path d="M0 0 C0.99 0 1.98 0 3 0 C3 2.31 3 4.62 3 7 C1.68 7.33 0.36 7.66 -1 8 C-1.93065133 5.39417629 -2.14917407 4.35801776 -1.0625 1.75 C-0.711875 1.1725 -0.36125 0.595 0 0 Z " fill="#6E7B92" transform="translate(725,460)"/>
<path d="M0 0 C0.66 0 1.32 0 2 0 C2.625 2.3125 2.625 2.3125 3 5 C2.01 6.485 2.01 6.485 1 8 C0.60986284 9.9896995 0.26797351 11.99019869 0 14 C-0.33 14 -0.66 14 -1 14 C-1.02685938 11.85423363 -1.04633088 9.70837355 -1.0625 7.5625 C-1.07410156 6.36753906 -1.08570313 5.17257812 -1.09765625 3.94140625 C-1 1 -1 1 0 0 Z " fill="#B8BFCC" transform="translate(937,639)"/>
<path d="M0 0 C0.66 0 1.32 0 2 0 C1.25 7.625 1.25 7.625 -1 11 C-2.25 3.375 -2.25 3.375 0 0 Z " fill="#BDC3CF" transform="translate(982,759)"/>
<path d="M0 0 C0.99 0 1.98 0 3 0 C3.99 2.97 4.98 5.94 6 9 C5.01 9.495 5.01 9.495 4 10 C2 7 2 7 2 4 C1.34 4 0.68 4 0 4 C-0.33 3.01 -0.66 2.02 -1 1 C-0.67 0.67 -0.34 0.34 0 0 Z " fill="#5D6B84" transform="translate(343,649)"/>
<path d="M0 0 C0.33 0 0.66 0 1 0 C1.25 2.75 1.25 2.75 1 6 C-1 8.375 -1 8.375 -3 10 C-3.66 9.67 -4.32 9.34 -5 9 C-4 7 -3 5 -2 3 C-1.34 3 -0.68 3 0 3 C0 2.01 0 1.02 0 0 Z " fill="#B2B9C7" transform="translate(1033,478)"/>
</svg>
