<?xml version="1.0" encoding="UTF-8"?>
<!-- Generator: visioncortex VTracer 0.6.2 -->
<svg version="1.1" xmlns="http://www.w3.org/2000/svg" width="1280" height="1043">
<path d="M0 0 C422.4 0 844.8 0 1280 0 C1280 344.19 1280 688.38 1280 1043 C857.6 1043 435.2 1043 0 1043 C0 698.81 0 354.62 0 0 Z " fill="#F9FCFE" transform="translate(0,0)"/>
<path d="M0 0 C2.03474997 -0.00299621 4.06949938 -0.0063998 6.10424805 -0.01017761 C11.60656465 -0.01897515 17.10886569 -0.02135394 22.61118865 -0.0219934 C26.05621167 -0.02270635 29.50123078 -0.02484532 32.94625282 -0.02749062 C44.98581822 -0.03673024 57.02537258 -0.04082727 69.06494141 -0.04003906 C80.25350209 -0.03943876 91.44201449 -0.04998488 102.63056296 -0.06578273 C112.26492767 -0.07889702 121.89927667 -0.08422132 131.53365022 -0.08358365 C137.27517384 -0.08332979 143.01665452 -0.08611871 148.75816917 -0.0967617 C154.16320045 -0.10650829 159.5681483 -0.10647729 164.97318268 -0.09924507 C166.94508042 -0.09820731 168.91698354 -0.1005134 170.88887215 -0.10660553 C204.56885935 -0.20383356 240.8633825 5.44360223 267.81958008 27.14526367 C269.02420898 28.0656543 269.02420898 28.0656543 270.25317383 29.00463867 C275.30526942 32.91698149 280.0940268 37.09883185 284.81958008 41.39526367 C285.66625244 42.15661621 285.66625244 42.15661621 286.5300293 42.93334961 C289.29769841 45.48591491 291.33883635 47.6774079 292.81958008 51.14526367 C293.50020508 51.80526367 294.18083008 52.46526367 294.88208008 53.14526367 C296.8956523 55.22378983 297.41782102 56.33295025 297.81958008 59.14526367 C298.80958008 59.14526367 299.79958008 59.14526367 300.81958008 59.14526367 C301.25270508 60.59932617 301.25270508 60.59932617 301.69458008 62.08276367 C302.4617269 65.25190571 302.4617269 65.25190571 304.81958008 66.14526367 C306.03833008 67.56323242 306.03833008 67.56323242 307.31958008 69.33276367 C307.74239258 69.90381836 308.16520508 70.47487305 308.60083008 71.06323242 C310.11508215 73.6500797 310.8841825 76.29994786 311.81958008 79.14526367 C312.76609062 81.0989247 313.74632345 83.03655451 314.75708008 84.95776367 C318.44601954 92.22767363 320.95642913 99.03164478 321.81958008 107.14526367 C322.47958008 107.14526367 323.13958008 107.14526367 323.81958008 107.14526367 C324.18462611 108.72612416 324.53618514 110.31010275 324.88208008 111.89526367 C325.07930664 112.77698242 325.2765332 113.65870117 325.47973633 114.56713867 C325.8178388 117.13205395 325.63116642 118.71618006 324.81958008 121.14526367 C325.47958008 121.14526367 326.13958008 121.14526367 326.81958008 121.14526367 C326.79895508 121.90838867 326.77833008 122.67151367 326.75708008 123.45776367 C326.69015167 126.24712153 326.69015167 126.24712153 327.81958008 129.14526367 C327.63395508 130.09401367 327.44833008 131.04276367 327.25708008 132.02026367 C326.56093409 135.07303161 326.56093409 135.07303161 327.77650619 137.46296966 C328.97917323 140.55566198 329.0702414 142.87412037 329.07126236 146.18696785 C329.07647785 147.40729466 329.08169335 148.62762146 329.08706689 149.88492787 C329.08274296 151.2358774 329.07822966 152.58682633 329.07354736 153.93777466 C329.07585181 155.37538399 329.07902823 156.81299215 329.08300185 158.25059783 C329.09136044 162.20128894 329.08721978 166.15188358 329.08102942 170.10257506 C329.07651037 174.36298642 329.08348591 178.62338102 329.08898926 182.88378906 C329.09789029 191.22946631 329.09595822 199.57510761 329.09016398 207.92078628 C329.08565089 214.70125142 329.08503305 221.48170648 329.08721161 228.2621727 C329.08751807 229.22645479 329.08782454 230.19073689 329.08814029 231.18423965 C329.08877973 233.14301079 329.08942816 235.10178193 329.09008548 237.06055306 C329.09579069 255.43440745 329.08922755 273.80824189 329.07848474 292.18209301 C329.06954622 307.95872629 329.07110339 323.73533014 329.08032227 339.51196289 C329.09101662 357.82227401 329.09524435 376.13256766 329.08909774 394.44288146 C329.08846062 396.39391637 329.08783188 398.34495127 329.08721161 400.29598618 C329.08690306 401.25599947 329.08659451 402.21601277 329.08627661 403.20511738 C329.08454737 409.98098873 329.08746962 416.75684902 329.09217072 423.53271866 C329.09777016 431.78496421 329.09628278 440.0371717 329.08560923 448.28941287 C329.08034029 452.50239495 329.07831651 456.71531348 329.08490753 460.92829514 C329.09084376 464.78087775 329.08763065 468.63333758 329.07695243 472.48590897 C329.0747085 473.88351439 329.07587675 475.28113007 329.080704 476.67872895 C329.08674085 478.57089288 329.07938386 480.46308565 329.07126236 482.35524178 C329.07093765 483.40853365 329.07061295 484.46182553 329.07027841 485.54703534 C328.81958008 488.14526367 328.81958008 488.14526367 326.81958008 491.14526367 C327.11826664 493.15073056 327.45329331 495.15103572 327.81958008 497.14526367 C327.52934505 498.48863723 327.19097196 499.82202637 326.81958008 501.14526367 C326.52291104 502.7068216 326.2315746 504.26939876 325.94458008 505.83276367 C323.82279998 516.4728668 319.87941078 526.3772212 313.87036133 535.41870117 C312.65210171 537.27590925 312.65210171 537.27590925 311.81958008 540.14526367 C310.81958008 541.14526367 309.81958008 542.14526367 308.81958008 543.14526367 C308.81958008 543.80526367 308.81958008 544.46526367 308.81958008 545.14526367 C308.15958008 545.14526367 307.49958008 545.14526367 306.81958008 545.14526367 C306.58754883 545.69053711 306.35551758 546.23581055 306.11645508 546.79760742 C300.25102374 557.41545149 289.31719266 565.01619151 279.81958008 572.14526367 C278.93399414 572.8697168 278.0484082 573.59416992 277.13598633 574.34057617 C271.43205254 578.78445039 264.20137926 580.82629902 257.44458008 583.20776367 C256.78111572 583.45316895 256.11765137 583.69857422 255.43408203 583.95141602 C238.21014005 589.82451077 220.03842871 589.58912908 202.07778203 589.53743768 C198.52833945 589.5305546 194.97893829 589.54117333 191.42950439 589.54937744 C184.503782 589.56261858 177.57815791 589.55988079 170.65243188 589.55113952 C165.01848008 589.54432674 159.38455557 589.54346166 153.75060081 589.54671097 C152.94461385 589.54717067 152.13862688 589.54763037 151.30821606 589.548104 C149.6702159 589.5490633 148.03221575 589.55003594 146.39421561 589.55102177 C131.08679108 589.55954704 115.77942073 589.54978586 100.47200509 589.53362067 C87.36998154 589.52021241 74.26803775 589.52255534 61.16601562 589.53637695 C45.90363559 589.55247033 30.64130282 589.55873137 15.37891549 589.54954016 C13.74831435 589.54858464 12.1177132 589.54764152 10.48711205 589.54671097 C9.6850839 589.54624814 8.88305575 589.54578531 8.05672372 589.54530846 C2.43544629 589.5427304 -3.18580086 589.54706371 -8.80707359 589.55414963 C-15.66571971 589.56260642 -22.52426297 589.56019707 -29.38289746 589.5443074 C-32.87460361 589.53648162 -36.36613893 589.53323444 -39.8578434 589.54325485 C-68.53419252 589.60566933 -96.90648508 585.91486497 -119.51635742 566.45776367 C-121.25913563 564.93057246 -121.25913563 564.93057246 -124.18041992 564.14526367 C-125.61791992 562.71948242 -125.61791992 562.71948242 -127.18041992 560.83276367 C-129.37184669 558.23015235 -131.59210701 555.68659301 -133.94213867 553.22729492 C-142.88659153 543.83756844 -142.88659153 543.83756844 -145.36401367 537.98510742 C-146.25924511 535.96762413 -147.37782276 534.28188213 -148.61791992 532.45776367 C-153.89875831 524.13594714 -156.93587047 514.99393702 -157.18041992 505.14526367 C-157.84041992 505.14526367 -158.50041992 505.14526367 -159.18041992 505.14526367 C-158.68541992 503.16526367 -158.68541992 503.16526367 -158.18041992 501.14526367 C-158.84041992 501.14526367 -159.50041992 501.14526367 -160.18041992 501.14526367 C-161.89689387 491.83162484 -162.46652612 482.86109835 -162.43438721 473.40226746 C-162.43669718 471.9587691 -162.43987727 470.51527192 -162.4438417 469.07177716 C-162.45212505 465.14145508 -162.44809409 461.21123119 -162.44186926 457.28090894 C-162.43731896 453.0278881 -162.44434133 448.77488341 -162.4498291 444.52186584 C-162.45869805 436.20367041 -162.45681205 427.88551117 -162.45100382 419.56731435 C-162.44647657 412.80193105 -162.44587902 406.03655786 -162.44805145 399.27117348 C-162.44835792 398.30617798 -162.44866438 397.34118248 -162.44898014 396.34694469 C-162.44961963 394.38618633 -162.45026806 392.42542798 -162.45092532 390.46466962 C-162.45662154 372.09992381 -162.45008233 353.73519801 -162.43932459 335.37045548 C-162.43039399 319.6383991 -162.43193845 303.90637225 -162.44116211 288.17431641 C-162.45188464 269.87737251 -162.4560678 251.58044614 -162.44993758 233.28349954 C-162.44930053 231.32926675 -162.44867179 229.37503396 -162.44805145 227.42080116 C-162.4477429 226.4594488 -162.44743435 225.49809644 -162.44711645 224.50761219 C-162.44539513 217.75779355 -162.44829252 211.00798609 -162.45301056 204.25816917 C-162.45864165 196.02149439 -162.45705652 187.78485769 -162.44644907 179.54818722 C-162.44122154 175.35176625 -162.43908527 171.15540858 -162.44574738 166.95898819 C-162.4517703 163.10666196 -162.4483289 159.25445684 -162.43779227 155.40214137 C-162.43455068 153.37160988 -162.44097214 151.34106977 -162.44790673 149.31054753 C-162.40933521 140.11765407 -161.49157954 131.22639432 -160.18041992 122.14526367 C-159.52041992 122.14526367 -158.86041992 122.14526367 -158.18041992 122.14526367 C-158.22166992 121.03151367 -158.26291992 119.91776367 -158.30541992 118.77026367 C-158.31972962 110.72821366 -156.26105388 102.53878517 -153.18041992 95.14526367 C-152.52041992 95.14526367 -151.86041992 95.14526367 -151.18041992 95.14526367 C-151.07729492 94.09338867 -150.97416992 93.04151367 -150.86791992 91.95776367 C-150.18826871 88.18878879 -149.24760939 86.28739167 -147.18041992 83.14526367 C-146.85041992 82.29963867 -146.52041992 81.45401367 -146.18041992 80.58276367 C-145.18041992 78.14526367 -145.18041992 78.14526367 -143.61791992 76.08276367 C-142.10679987 74.04603665 -141.6715692 72.60101007 -141.18041992 70.14526367 C-140.85041992 69.48526367 -140.52041992 68.82526367 -140.18041992 68.14526367 C-139.52041992 68.14526367 -138.86041992 68.14526367 -138.18041992 68.14526367 C-138.18041992 67.15526367 -138.18041992 66.16526367 -138.18041992 65.14526367 C-137.52041992 65.14526367 -136.86041992 65.14526367 -136.18041992 65.14526367 C-136.18041992 64.15526367 -136.18041992 63.16526367 -136.18041992 62.14526367 C-135.19041992 61.65026367 -135.19041992 61.65026367 -134.18041992 61.14526367 C-133.04691459 59.1285654 -133.04691459 59.1285654 -132.18041992 57.14526367 C-131.52041992 57.14526367 -130.86041992 57.14526367 -130.18041992 57.14526367 C-129.94838867 56.59870117 -129.71635742 56.05213867 -129.47729492 55.48901367 C-122.18631669 42.31254698 -106.74271081 30.94911104 -94.18041992 23.14526367 C-93.26905273 22.51749023 -92.35768555 21.8897168 -91.41870117 21.24291992 C-87.8374093 18.92307223 -84.18341533 16.98136589 -80.36791992 15.08276367 C-79.70727539 14.74438477 -79.04663086 14.40600586 -78.3659668 14.05737305 C-70.37819153 10.05961911 -62.01271895 7.71736469 -53.36791992 5.58276367 C-52.49208252 5.36587891 -51.61624512 5.14899414 -50.71386719 4.92553711 C-33.77287258 0.80022886 -17.35227396 -0.00511274 0 0 Z " fill="#F9FCFE" transform="translate(454.180419921875,348.854736328125)"/>
<path d="M0 0 C2.03474997 -0.00299621 4.06949938 -0.0063998 6.10424805 -0.01017761 C11.60656465 -0.01897515 17.10886569 -0.02135394 22.61118865 -0.0219934 C26.05621167 -0.02270635 29.50123078 -0.02484532 32.94625282 -0.02749062 C44.98581822 -0.03673024 57.02537258 -0.04082727 69.06494141 -0.04003906 C80.25350209 -0.03943876 91.44201449 -0.04998488 102.63056296 -0.06578273 C112.26492767 -0.07889702 121.89927667 -0.08422132 131.53365022 -0.08358365 C137.27517384 -0.08332979 143.01665452 -0.08611871 148.75816917 -0.0967617 C154.16320045 -0.10650829 159.5681483 -0.10647729 164.97318268 -0.09924507 C166.94508042 -0.09820731 168.91698354 -0.1005134 170.88887215 -0.10660553 C204.56885935 -0.20383356 240.8633825 5.44360223 267.81958008 27.14526367 C269.02420898 28.0656543 269.02420898 28.0656543 270.25317383 29.00463867 C275.30526942 32.91698149 280.0940268 37.09883185 284.81958008 41.39526367 C285.66625244 42.15661621 285.66625244 42.15661621 286.5300293 42.93334961 C289.29769841 45.48591491 291.33883635 47.6774079 292.81958008 51.14526367 C293.50020508 51.80526367 294.18083008 52.46526367 294.88208008 53.14526367 C296.8956523 55.22378983 297.41782102 56.33295025 297.81958008 59.14526367 C298.80958008 59.14526367 299.79958008 59.14526367 300.81958008 59.14526367 C301.25270508 60.59932617 301.25270508 60.59932617 301.69458008 62.08276367 C302.4617269 65.25190571 302.4617269 65.25190571 304.81958008 66.14526367 C306.03833008 67.56323242 306.03833008 67.56323242 307.31958008 69.33276367 C307.74239258 69.90381836 308.16520508 70.47487305 308.60083008 71.06323242 C310.11508215 73.6500797 310.8841825 76.29994786 311.81958008 79.14526367 C312.76609062 81.0989247 313.74632345 83.03655451 314.75708008 84.95776367 C318.44601954 92.22767363 320.95642913 99.03164478 321.81958008 107.14526367 C322.47958008 107.14526367 323.13958008 107.14526367 323.81958008 107.14526367 C324.18462611 108.72612416 324.53618514 110.31010275 324.88208008 111.89526367 C325.07930664 112.77698242 325.2765332 113.65870117 325.47973633 114.56713867 C325.8178388 117.13205395 325.63116642 118.71618006 324.81958008 121.14526367 C325.47958008 121.14526367 326.13958008 121.14526367 326.81958008 121.14526367 C326.79895508 121.90838867 326.77833008 122.67151367 326.75708008 123.45776367 C326.69015167 126.24712153 326.69015167 126.24712153 327.81958008 129.14526367 C327.63395508 130.09401367 327.44833008 131.04276367 327.25708008 132.02026367 C326.56093409 135.07303161 326.56093409 135.07303161 327.77650619 137.46296966 C328.97917323 140.55566198 329.0702414 142.87412037 329.07126236 146.18696785 C329.07647785 147.40729466 329.08169335 148.62762146 329.08706689 149.88492787 C329.08274296 151.2358774 329.07822966 152.58682633 329.07354736 153.93777466 C329.07585181 155.37538399 329.07902823 156.81299215 329.08300185 158.25059783 C329.09136044 162.20128894 329.08721978 166.15188358 329.08102942 170.10257506 C329.07651037 174.36298642 329.08348591 178.62338102 329.08898926 182.88378906 C329.09789029 191.22946631 329.09595822 199.57510761 329.09016398 207.92078628 C329.08565089 214.70125142 329.08503305 221.48170648 329.08721161 228.2621727 C329.08751807 229.22645479 329.08782454 230.19073689 329.08814029 231.18423965 C329.08877973 233.14301079 329.08942816 235.10178193 329.09008548 237.06055306 C329.09579069 255.43440745 329.08922755 273.80824189 329.07848474 292.18209301 C329.06954622 307.95872629 329.07110339 323.73533014 329.08032227 339.51196289 C329.09101662 357.82227401 329.09524435 376.13256766 329.08909774 394.44288146 C329.08846062 396.39391637 329.08783188 398.34495127 329.08721161 400.29598618 C329.08690306 401.25599947 329.08659451 402.21601277 329.08627661 403.20511738 C329.08454737 409.98098873 329.08746962 416.75684902 329.09217072 423.53271866 C329.09777016 431.78496421 329.09628278 440.0371717 329.08560923 448.28941287 C329.08034029 452.50239495 329.07831651 456.71531348 329.08490753 460.92829514 C329.09084376 464.78087775 329.08763065 468.63333758 329.07695243 472.48590897 C329.0747085 473.88351439 329.07587675 475.28113007 329.080704 476.67872895 C329.08674085 478.57089288 329.07938386 480.46308565 329.07126236 482.35524178 C329.07093765 483.40853365 329.07061295 484.46182553 329.07027841 485.54703534 C328.81958008 488.14526367 328.81958008 488.14526367 326.81958008 491.14526367 C327.11826664 493.15073056 327.45329331 495.15103572 327.81958008 497.14526367 C327.52934505 498.48863723 327.19097196 499.82202637 326.81958008 501.14526367 C326.52291104 502.7068216 326.2315746 504.26939876 325.94458008 505.83276367 C323.82279998 516.4728668 319.87941078 526.3772212 313.87036133 535.41870117 C312.65210171 537.27590925 312.65210171 537.27590925 311.81958008 540.14526367 C310.81958008 541.14526367 309.81958008 542.14526367 308.81958008 543.14526367 C308.81958008 543.80526367 308.81958008 544.46526367 308.81958008 545.14526367 C308.15958008 545.14526367 307.49958008 545.14526367 306.81958008 545.14526367 C306.58754883 545.69053711 306.35551758 546.23581055 306.11645508 546.79760742 C300.25102374 557.41545149 289.31719266 565.01619151 279.81958008 572.14526367 C278.93399414 572.8697168 278.0484082 573.59416992 277.13598633 574.34057617 C271.43205254 578.78445039 264.20137926 580.82629902 257.44458008 583.20776367 C256.78111572 583.45316895 256.11765137 583.69857422 255.43408203 583.95141602 C238.21014005 589.82451077 220.03842871 589.58912908 202.07778203 589.53743768 C198.52833945 589.5305546 194.97893829 589.54117333 191.42950439 589.54937744 C184.503782 589.56261858 177.57815791 589.55988079 170.65243188 589.55113952 C165.01848008 589.54432674 159.38455557 589.54346166 153.75060081 589.54671097 C152.94461385 589.54717067 152.13862688 589.54763037 151.30821606 589.548104 C149.6702159 589.5490633 148.03221575 589.55003594 146.39421561 589.55102177 C131.08679108 589.55954704 115.77942073 589.54978586 100.47200509 589.53362067 C87.36998154 589.52021241 74.26803775 589.52255534 61.16601562 589.53637695 C45.90363559 589.55247033 30.64130282 589.55873137 15.37891549 589.54954016 C13.74831435 589.54858464 12.1177132 589.54764152 10.48711205 589.54671097 C9.6850839 589.54624814 8.88305575 589.54578531 8.05672372 589.54530846 C2.43544629 589.5427304 -3.18580086 589.54706371 -8.80707359 589.55414963 C-15.66571971 589.56260642 -22.52426297 589.56019707 -29.38289746 589.5443074 C-32.87460361 589.53648162 -36.36613893 589.53323444 -39.8578434 589.54325485 C-68.53419252 589.60566933 -96.90648508 585.91486497 -119.51635742 566.45776367 C-121.25913563 564.93057246 -121.25913563 564.93057246 -124.18041992 564.14526367 C-125.61791992 562.71948242 -125.61791992 562.71948242 -127.18041992 560.83276367 C-129.37184669 558.23015235 -131.59210701 555.68659301 -133.94213867 553.22729492 C-142.88659153 543.83756844 -142.88659153 543.83756844 -145.36401367 537.98510742 C-146.25924511 535.96762413 -147.37782276 534.28188213 -148.61791992 532.45776367 C-153.89875831 524.13594714 -156.93587047 514.99393702 -157.18041992 505.14526367 C-157.84041992 505.14526367 -158.50041992 505.14526367 -159.18041992 505.14526367 C-158.68541992 503.16526367 -158.68541992 503.16526367 -158.18041992 501.14526367 C-158.84041992 501.14526367 -159.50041992 501.14526367 -160.18041992 501.14526367 C-161.89689387 491.83162484 -162.46652612 482.86109835 -162.43438721 473.40226746 C-162.43669718 471.9587691 -162.43987727 470.51527192 -162.4438417 469.07177716 C-162.45212505 465.14145508 -162.44809409 461.21123119 -162.44186926 457.28090894 C-162.43731896 453.0278881 -162.44434133 448.77488341 -162.4498291 444.52186584 C-162.45869805 436.20367041 -162.45681205 427.88551117 -162.45100382 419.56731435 C-162.44647657 412.80193105 -162.44587902 406.03655786 -162.44805145 399.27117348 C-162.44835792 398.30617798 -162.44866438 397.34118248 -162.44898014 396.34694469 C-162.44961963 394.38618633 -162.45026806 392.42542798 -162.45092532 390.46466962 C-162.45662154 372.09992381 -162.45008233 353.73519801 -162.43932459 335.37045548 C-162.43039399 319.6383991 -162.43193845 303.90637225 -162.44116211 288.17431641 C-162.45188464 269.87737251 -162.4560678 251.58044614 -162.44993758 233.28349954 C-162.44930053 231.32926675 -162.44867179 229.37503396 -162.44805145 227.42080116 C-162.4477429 226.4594488 -162.44743435 225.49809644 -162.44711645 224.50761219 C-162.44539513 217.75779355 -162.44829252 211.00798609 -162.45301056 204.25816917 C-162.45864165 196.02149439 -162.45705652 187.78485769 -162.44644907 179.54818722 C-162.44122154 175.35176625 -162.43908527 171.15540858 -162.44574738 166.95898819 C-162.4517703 163.10666196 -162.4483289 159.25445684 -162.43779227 155.40214137 C-162.43455068 153.37160988 -162.44097214 151.34106977 -162.44790673 149.31054753 C-162.40933521 140.11765407 -161.49157954 131.22639432 -160.18041992 122.14526367 C-159.52041992 122.14526367 -158.86041992 122.14526367 -158.18041992 122.14526367 C-158.22166992 121.03151367 -158.26291992 119.91776367 -158.30541992 118.77026367 C-158.31972962 110.72821366 -156.26105388 102.53878517 -153.18041992 95.14526367 C-152.52041992 95.14526367 -151.86041992 95.14526367 -151.18041992 95.14526367 C-151.07729492 94.09338867 -150.97416992 93.04151367 -150.86791992 91.95776367 C-150.18826871 88.18878879 -149.24760939 86.28739167 -147.18041992 83.14526367 C-146.85041992 82.29963867 -146.52041992 81.45401367 -146.18041992 80.58276367 C-145.18041992 78.14526367 -145.18041992 78.14526367 -143.61791992 76.08276367 C-142.10679987 74.04603665 -141.6715692 72.60101007 -141.18041992 70.14526367 C-140.85041992 69.48526367 -140.52041992 68.82526367 -140.18041992 68.14526367 C-139.52041992 68.14526367 -138.86041992 68.14526367 -138.18041992 68.14526367 C-138.18041992 67.15526367 -138.18041992 66.16526367 -138.18041992 65.14526367 C-137.52041992 65.14526367 -136.86041992 65.14526367 -136.18041992 65.14526367 C-136.18041992 64.15526367 -136.18041992 63.16526367 -136.18041992 62.14526367 C-135.19041992 61.65026367 -135.19041992 61.65026367 -134.18041992 61.14526367 C-133.04691459 59.1285654 -133.04691459 59.1285654 -132.18041992 57.14526367 C-131.52041992 57.14526367 -130.86041992 57.14526367 -130.18041992 57.14526367 C-129.94838867 56.59870117 -129.71635742 56.05213867 -129.47729492 55.48901367 C-122.18631669 42.31254698 -106.74271081 30.94911104 -94.18041992 23.14526367 C-93.26905273 22.51749023 -92.35768555 21.8897168 -91.41870117 21.24291992 C-87.8374093 18.92307223 -84.18341533 16.98136589 -80.36791992 15.08276367 C-79.70727539 14.74438477 -79.04663086 14.40600586 -78.3659668 14.05737305 C-70.37819153 10.05961911 -62.01271895 7.71736469 -53.36791992 5.58276367 C-52.49208252 5.36587891 -51.61624512 5.14899414 -50.71386719 4.92553711 C-33.77287258 0.80022886 -17.35227396 -0.00511274 0 0 Z M-55.36791992 57.20776367 C-56.00391113 57.45300781 -56.63990234 57.69825195 -57.29516602 57.95092773 C-60.5480503 59.2668793 -62.85208956 60.52313768 -65.18041992 63.14526367 C-66.47979492 63.76401367 -66.47979492 63.76401367 -67.80541992 64.39526367 C-80.58389716 71.02114076 -92.23743601 82.32680955 -98.98510742 94.97338867 C-100.18041992 97.14526367 -100.18041992 97.14526367 -102.36791992 100.39526367 C-104.06986535 102.9775257 -105.12298417 105.25493927 -106.18041992 108.14526367 C-107.18041992 110.47859701 -108.18041992 112.81193034 -109.18041992 115.14526367 C-109.55166992 116.09401367 -109.92291992 117.04276367 -110.30541992 118.02026367 C-111.18041992 120.14526367 -111.18041992 120.14526367 -112.18041992 121.14526367 C-112.14821286 123.04548029 -112.11241194 124.94622818 -112.02026367 126.84448242 C-112.18041992 129.14526367 -112.18041992 129.14526367 -113.17452496 131.90063089 C-114.21381982 135.25299898 -114.43204331 137.86225394 -114.43489552 141.36016941 C-114.44072771 142.59373725 -114.4465599 143.8273051 -114.45256883 145.09825379 C-114.44893597 146.45902211 -114.44511161 147.81978994 -114.44111633 149.18055725 C-114.44413781 150.6325271 -114.44802727 152.08449537 -114.4527089 153.53646082 C-114.46299879 157.52258975 -114.46080452 161.50862883 -114.45652831 165.49476516 C-114.45406277 169.79557192 -114.4630733 174.09635695 -114.4705658 178.39715576 C-114.48332131 186.8229175 -114.48510528 195.24864738 -114.48276553 203.67441715 C-114.48098254 210.52580662 -114.48273163 217.37718643 -114.48698997 224.22857475 C-114.48758516 225.20371093 -114.48818035 226.17884711 -114.48879358 227.18353288 C-114.49000534 229.16459017 -114.49121948 231.14564746 -114.49243595 233.12670474 C-114.50331556 251.71117434 -114.50114748 270.2956258 -114.49505111 288.88009643 C-114.48988614 305.86822034 -114.50112554 322.85628684 -114.52014933 339.8443994 C-114.53954129 357.29543906 -114.54778105 374.74645158 -114.54402608 392.19750208 C-114.54211551 401.9916885 -114.54458717 411.78582611 -114.55874062 421.58000374 C-114.57067297 429.92161548 -114.57203882 438.26314839 -114.55995045 446.60476125 C-114.5540737 450.85749928 -114.5529287 455.11009326 -114.56495285 459.36282158 C-114.57585271 463.26342906 -114.57265994 467.16377293 -114.55869117 471.0643683 C-114.55605538 472.46817936 -114.55837526 473.87201135 -114.56642703 475.27580179 C-114.67166602 495.00889175 -110.07964059 509.26428492 -96.43041992 523.27026367 C-91.47224098 528.20857015 -86.49821283 532.04504641 -80.18041992 535.14526367 C-78.90038086 535.83555664 -78.90038086 535.83555664 -77.59448242 536.53979492 C-71.6331996 539.43694498 -65.9517171 540.65288207 -59.42623901 541.27070618 C-58.56104263 541.35385993 -57.69584625 541.43701369 -56.8044318 541.52268726 C-45.09515943 542.53788795 -33.36562101 542.41656305 -21.62231445 542.38818359 C-19.01157077 542.38925901 -16.40082732 542.39120152 -13.79008484 542.39393616 C-7.48615342 542.3989293 -1.18227524 542.39339952 5.12164955 542.38408586 C12.48330962 542.37360739 19.84495875 542.3737745 27.20662488 542.37425844 C40.34910543 542.37475695 53.49156148 542.36565332 66.6340332 542.35107422 C79.35181118 542.33697381 92.06956762 542.32990438 104.78735352 542.33056641 C105.96389007 542.33062634 105.96389007 542.33062634 107.16419505 542.33068749 C108.33881543 542.33074802 108.33881543 542.33074802 109.53716552 542.33080977 C124.07479505 542.33150141 138.61241555 542.32560162 153.15004214 542.31665656 C158.26781276 542.31365481 163.38558171 542.31257876 168.50335312 542.31212425 C175.39983038 542.31136677 182.29628485 542.30497837 189.19275475 542.29495811 C191.71537959 542.29205124 194.23800701 542.29080405 196.76063347 542.29138565 C219.35342613 543.1934968 219.35342613 543.1934968 241.13208008 538.52026367 C241.8044873 538.2544751 242.47689453 537.98868652 243.16967773 537.71484375 C248.82817087 535.3654549 253.31165292 532.29929748 257.81958008 528.14526367 C259.11702148 527.0218457 259.11702148 527.0218457 260.44067383 525.87573242 C267.81564851 519.42129159 272.45562855 513.41316762 276.63208008 504.58276367 C277.05166992 503.73262695 277.47125977 502.88249023 277.90356445 502.0065918 C278.29479492 501.18481445 278.68602539 500.36303711 279.08911133 499.51635742 C279.44593994 498.77313232 279.80276855 498.02990723 280.17041016 497.26416016 C280.93355701 494.77324194 280.44315866 493.61594566 279.81958008 491.14526367 C280.47958008 490.15526367 281.13958008 489.16526367 281.81958008 488.14526367 C282.12249126 485.42311904 282.12249126 485.42311904 282.07405567 482.28832817 C282.07988787 481.05826668 282.08572006 479.82820518 282.09172899 478.5608691 C282.08809543 477.18851795 282.08427104 475.81616729 282.08027649 474.44381714 C282.08329527 472.99158568 282.08718338 471.5393558 282.09186906 470.08712876 C282.10219365 466.08649956 282.09995591 462.08595952 282.09568846 458.08532286 C282.09322919 453.77431478 282.10222561 449.46332863 282.10972595 445.15232849 C282.12249883 436.70142911 282.1242633 428.25056146 282.12192569 419.79965405 C282.12014469 412.93004251 282.12188749 406.06044062 282.12615013 399.19083023 C282.12704291 397.72578392 282.12704291 397.72578392 282.12795373 396.23114071 C282.12916546 394.24709589 282.1303796 392.26305107 282.13159611 390.27900626 C282.14248233 371.65556591 282.14030447 353.03214365 282.13421126 334.40870227 C282.12904526 317.37241976 282.14028725 300.33619448 282.15930948 283.29992329 C282.17868548 265.81283753 282.18694404 248.32577885 282.18318623 230.83868229 C282.1812733 221.01886878 282.18377043 211.19910393 282.19790077 201.37929916 C282.20981275 193.01627366 282.21122177 184.65332676 282.1991106 176.29030018 C282.19321967 172.02390188 282.19212827 167.75764736 282.20411301 163.49125862 C282.21496468 159.58272207 282.21187701 155.67444947 282.19785132 151.7659253 C282.19520233 150.35469339 282.19757731 148.94344084 282.20558719 147.53222917 C282.24668471 139.7489236 281.72368528 133.37014425 278.81958008 126.14526367 C278.30736697 123.96526489 277.82442547 121.77800569 277.38208008 119.58276367 C276.1973085 114.21347971 274.53152033 109.91453792 271.81958008 105.14526367 C271.15958008 105.14526367 270.49958008 105.14526367 269.81958008 105.14526367 C269.61333008 104.01088867 269.40708008 102.87651367 269.19458008 101.70776367 C266.78562662 92.05486505 258.82880387 83.8429664 251.81958008 77.14526367 C250.77157227 76.13979492 250.77157227 76.13979492 249.70239258 75.11401367 C230.67152017 57.35997296 207.02864837 47.96014442 180.97261047 48.0115509 C179.68979692 48.00815257 179.68979692 48.00815257 178.38106793 48.00468558 C175.53414197 47.99838869 172.68726415 47.99917216 169.84033203 48 C167.79130492 47.99700578 165.74227837 47.99360265 163.69325256 47.98982239 C158.13930852 47.98100408 152.5853799 47.97864516 147.03142953 47.9780066 C143.5571319 47.97729477 140.08283815 47.97515791 136.60854149 47.97250938 C124.4751905 47.96326255 112.34185049 47.9591736 100.20849609 47.95996094 C88.91939591 47.96056128 77.63034357 47.95001621 66.34125549 47.93421727 C56.63226419 47.92111652 46.92328848 47.91577812 37.21428841 47.91641635 C31.42307266 47.91667062 25.63189943 47.91385839 19.84069252 47.9032383 C14.38974709 47.89351482 8.93888447 47.89350716 3.48793602 47.90075493 C1.49543003 47.90179556 -0.49708124 47.89946912 -2.48957825 47.89339447 C-21.22743281 47.84000007 -37.77603811 50.33826823 -55.36791992 57.20776367 Z " fill="#1B3150" transform="translate(454.180419921875,348.854736328125)"/>
<path d="M0 0 C4.70148441 0.68901861 4.70148441 0.68901861 9.41796875 1.26171875 C39.56050059 5.21553463 64.5907452 23.51425373 83 47 C84.0268343 48.6502694 85.03567924 50.31243867 86 52 C86.46664062 52.43957031 86.93328125 52.87914062 87.4140625 53.33203125 C89.33104746 55.34817061 90.39116199 57.38461531 91.625 59.875 C92.05039062 60.71804688 92.47578125 61.56109375 92.9140625 62.4296875 C93.98459247 64.96353181 94.56314418 67.2914939 95 70 C95.66 70 96.32 70 97 70 C99.96044755 76.15492258 102.54379477 82.19906017 104.375 88.78515625 C104.89621623 90.63221626 105.52884691 92.44737049 106.1875 94.25 C107.08465521 97.28652532 107.07156641 99.85107788 107 103 C107.33 103.66 107.66 104.32 108 105 C108 106.32 108 107.64 108 109 C108.33 109.99 108.66 110.98 109 112 C109.22869389 115.49613384 109.18515539 118.99715356 109.1875 122.5 C109.19974609 123.46292969 109.21199219 124.42585937 109.22460938 125.41796875 C109.22654297 126.34222656 109.22847656 127.26648438 109.23046875 128.21875 C109.23457764 129.06373047 109.23868652 129.90871094 109.24291992 130.77929688 C109 133 109 133 107 136 C107.29299023 137.67422986 107.62690101 139.34178227 108 141 C107.67 141.99 107.34 142.98 107 144 C106.71602653 145.66447816 106.44698604 147.331529 106.1875 149 C105.28941332 154.09816122 103.80745008 158.7268356 101.94140625 163.546875 C101.18416441 165.52010269 100.54155997 167.53712244 99.9375 169.5625 C99 172 99 172 96 174 C95.28176852 175.88948076 95.28176852 175.88948076 94.9375 178 C94.20501139 181.79498861 94.20501139 181.79498861 92 184 C91.67 184.99 91.34 185.98 91 187 C90.34 187 89.68 187 89 187 C88.77828125 187.69222656 88.5565625 188.38445312 88.328125 189.09765625 C86.67275549 192.71512551 84.35086337 195.47588113 81.75 198.4375 C81.21914795 199.04440674 80.6882959 199.65131348 80.14135742 200.27661133 C78.44188841 202.19782553 76.7249434 204.10163931 75 206 C74.45230957 206.60650391 73.90461914 207.21300781 73.34033203 207.83789062 C64.60405139 217.38907456 55.17919198 224.51239362 44 231 C43.10796875 231.53238281 42.2159375 232.06476563 41.296875 232.61328125 C17.86013502 245.48754488 -16.27942438 248.11524497 -41.703125 241.2734375 C-43.13752044 240.85612264 -44.5697686 240.43137006 -46 240 C-46.79083984 239.76442383 -47.58167969 239.52884766 -48.39648438 239.28613281 C-56.42502875 236.85082891 -63.79878417 234.35342319 -71 230 C-71.79664063 229.55398438 -72.59328125 229.10796875 -73.4140625 228.6484375 C-88.32516109 220.06006622 -102.12381818 208.57798905 -111.60546875 194.11328125 C-113.05823876 191.82314677 -113.05823876 191.82314677 -115.3125 189.25 C-117 187 -117 187 -118.0625 183.75 C-118.5265625 182.38875 -118.5265625 182.38875 -119 181 C-119.99 180.67 -120.98 180.34 -122 180 C-122.103125 179.05125 -122.20625 178.1025 -122.3125 177.125 C-122.68539295 173.70892499 -122.68539295 173.70892499 -126 172 C-126.144375 170.96875 -126.28875 169.9375 -126.4375 168.875 C-126.92356498 165.52655239 -127.34900926 164.02641862 -128.875 161.1875 C-131.45842497 156.36950672 -134 150.54445948 -134 145 C-134.2165625 143.95199219 -134.2165625 143.95199219 -134.4375 142.8828125 C-137.24662312 129.11030611 -137.27969756 113.71727519 -134 100 C-133.505 99.505 -133.505 99.505 -133 99 C-133.020625 98.236875 -133.04125 97.47375 -133.0625 96.6875 C-132.99389085 93.73730656 -132.36000492 92.56889818 -131 90 C-130.05046308 86.83487693 -129.17109404 83.66491037 -128.34765625 80.46484375 C-126.97134577 75.41341232 -125.88116811 72.62242356 -122 69 C-121.87625 68.113125 -121.7525 67.22625 -121.625 66.3125 C-120.44140713 60.03945778 -116.23639936 55.02763345 -111.6875 50.6875 C-108.88641988 48.36306302 -108.88641988 48.36306302 -108.51953125 45.89453125 C-108.34808594 45.26933594 -108.17664063 44.64414062 -108 44 C-106.515 43.505 -106.515 43.505 -105 43 C-104.33090136 41.66788543 -103.66484455 40.33424284 -103 39 C-101.29164199 37.04513396 -99.58401615 35.203707 -97.75 33.375 C-96.96568604 32.59092773 -96.96568604 32.59092773 -96.16552734 31.79101562 C-90.30997522 26.09931547 -83.77240545 21.52586902 -77 17 C-75.92492187 16.26910156 -74.84984375 15.53820312 -73.7421875 14.78515625 C-71.1762064 13.11470987 -68.85299631 12.06987362 -66 11 C-65.071875 10.525625 -64.14375 10.05125 -63.1875 9.5625 C-45.85441694 1.06589066 -18.90329601 -5.33628956 0 0 Z " fill="#1B3150" transform="translate(551,522)"/>
<path d="M0 0 C0.96412811 0.00125885 1.92825623 0.0025177 2.92160034 0.0038147 C3.96788605 0.01047653 5.01417175 0.01713837 6.09216309 0.02400208 C7.2034256 0.02718445 8.31468811 0.03036682 9.45962524 0.03364563 C13.13602096 0.04623722 16.81230002 0.06712282 20.48864746 0.0896759 C21.74761337 0.09663294 23.00657928 0.10358997 24.30369568 0.11075783 C30.28436652 0.14430199 36.26497534 0.18199502 42.24557543 0.22612303 C49.11760282 0.27669865 55.98945744 0.31104115 62.8616395 0.33130378 C68.83811429 0.35010861 74.81425305 0.39061563 80.79057312 0.43857765 C83.3196809 0.45584263 85.84884233 0.4665954 88.37800598 0.47052574 C118.16666461 0.53036276 118.16666461 0.53036276 130.14489746 8.54670715 C131.00212402 9.10229309 131.85935059 9.65787903 132.74255371 10.2303009 C140.65681494 16.58549231 145.41038926 26.51278747 148.08239746 36.10920715 C148.42060013 37.10058685 148.7588028 38.09196655 149.10725403 39.11338806 C150.44695144 43.83351852 150.35457387 48.46803468 150.32531738 53.34309387 C150.32721573 54.34712753 150.32911407 55.35116119 150.33106995 56.38562012 C150.33475916 59.68679237 150.3241035 62.98774215 150.31286621 66.28889465 C150.31167371 68.58577956 150.3112214 70.88266497 150.31147766 73.17955017 C150.30991623 77.98263114 150.3016495 82.7856372 150.28820801 87.58869934 C150.2711612 93.75954118 150.26739548 99.93030123 150.26815319 106.10116386 C150.26788204 110.83816821 150.26241062 115.5751545 150.25515175 120.31215286 C150.25196064 122.58885181 150.24999665 124.86555281 150.24925804 127.14225388 C150.2471024 130.31210105 150.2383768 133.48185937 150.22766113 136.65168762 C150.22811432 137.6002211 150.2285675 138.54875458 150.22903442 139.52603149 C150.19687641 145.99472821 150.19687641 145.99472821 149.08239746 147.10920715 C147.63949959 147.20216531 146.19209962 147.22667228 144.74621582 147.22273254 C143.82533676 147.22265701 142.9044577 147.22258148 141.95567322 147.22250366 C140.95464066 147.21734238 139.95360809 147.21218109 138.92224121 147.2068634 C137.90263809 147.20544846 136.88303497 147.20403351 135.83253479 147.20257568 C132.56162639 147.19695812 129.29078533 147.18440265 126.01989746 147.17170715 C123.8083099 147.16669442 121.59672128 147.16213112 119.38513184 147.15803528 C113.95086389 147.14698299 108.51663549 147.13022778 103.08239746 147.10920715 C101.02770996 143.38264465 101.02770996 143.38264465 101.51989746 140.92170715 C101.70552246 140.32358215 101.89114746 139.72545715 102.08239746 139.10920715 C101.75239746 138.77920715 101.42239746 138.44920715 101.08239746 138.10920715 C100.99258424 135.44176656 100.96745904 132.80040661 100.98474121 130.13288879 C100.98620148 129.29714828 100.98766174 128.46140778 100.98916626 127.6003418 C100.99298176 125.77947466 100.9991082 123.95861127 101.00723267 122.13775826 C101.01994014 119.25969833 101.02649748 116.38168421 101.03137207 113.50360107 C101.04478017 106.35390368 101.06897434 99.20424966 101.09277344 92.05458069 C101.11246013 86.01894823 101.1281203 79.98333185 101.13833618 73.9476757 C101.1448426 71.1058249 101.15735195 68.26403965 101.17004395 65.42221069 C101.17367533 63.68644774 101.1770272 61.95068416 101.18005371 60.21492004 C101.18780319 59.02181717 101.18780319 59.02181717 101.19570923 57.80461121 C101.28458213 53.82757771 101.28458213 53.82757771 100.08239746 50.10920715 C67.74239746 50.10920715 35.40239746 50.10920715 2.08239746 50.10920715 C2.12201492 81.65792168 2.12201492 81.65792168 2.17248535 113.20661926 C2.17700195 119.29585266 2.17700195 119.29585266 2.17784119 122.14266968 C2.17938101 124.13929466 2.18290672 126.13591869 2.18797302 128.13253784 C2.1952483 131.14943569 2.19630495 134.16627651 2.19592285 137.18318176 C2.19952096 138.07894645 2.20311907 138.97471113 2.20682621 139.8976202 C2.1964238 145.99518082 2.1964238 145.99518082 1.08239746 147.10920715 C-0.31335652 147.21760014 -1.71447591 147.25821215 -3.11437988 147.27033997 C-4.00555511 147.27994751 -4.89673035 147.28955505 -5.81491089 147.29945374 C-7.26953232 147.30582855 -7.26953232 147.30582855 -8.75354004 147.31233215 C-9.74383209 147.31803223 -10.73412415 147.3237323 -11.75442505 147.3296051 C-13.85437954 147.33907115 -15.95434899 147.34559543 -18.05432129 147.34944153 C-21.27203226 147.35914512 -24.48910422 147.39015277 -27.70666504 147.42170715 C-29.74311956 147.42823701 -31.77957867 147.43348755 -33.81604004 147.43733215 C-34.7817392 147.44967896 -35.74743835 147.46202576 -36.74240112 147.4747467 C-37.63988068 147.47174561 -38.53736023 147.46874451 -39.46203613 147.46565247 C-40.64664932 147.47112091 -40.64664932 147.47112091 -41.85519409 147.47669983 C-44.4075351 147.02190794 -45.29291152 146.07465019 -46.91760254 144.10920715 C-46.42260254 143.11920715 -46.42260254 143.11920715 -45.91760254 142.10920715 C-45.83443547 138.99881347 -45.81299913 135.91123001 -45.83581543 132.80110168 C-45.83888199 131.83497452 -45.84194855 130.86884735 -45.84510803 129.8734436 C-45.85227655 127.76886806 -45.86167346 125.66429923 -45.87300301 123.55974197 C-45.89036816 120.22099108 -45.9006863 116.88228795 -45.90892029 113.54350281 C-45.93338332 104.04778003 -45.96870479 94.55212085 -46.0135498 85.05647278 C-46.04046974 79.25106611 -46.0574264 73.44569731 -46.0684185 67.64023972 C-46.07459609 65.43402085 -46.08456055 63.22780901 -46.09849739 61.02162552 C-46.28766024 30.78000923 -46.28766024 30.78000923 -39.79260254 22.85920715 C-38.58023926 21.38000793 -38.58023926 21.38000793 -37.34338379 19.8709259 C-36.54287598 18.95955872 -35.74236816 18.04819153 -34.91760254 17.10920715 C-34.25115723 16.33190247 -33.58471191 15.55459778 -32.89807129 14.7537384 C-28.221125 9.67672746 -23.21833929 6.8168767 -16.91760254 4.10920715 C-16.25244629 3.80112122 -15.58729004 3.49303528 -14.90197754 3.1756134 C-9.91981326 0.91197789 -5.4487509 -0.02026048 0 0 Z " fill="#1B3150" transform="translate(485.9176025390625,151.8907928466797)"/>
<path d="M0 0 C2.28760043 1.70487261 4.43789229 3.49739492 6.58203125 5.37890625 C7.29746094 5.97703125 8.01289062 6.57515625 8.75 7.19140625 C14.00937535 11.95742427 17.78649031 17.39709712 21.51953125 23.37890625 C22.22891846 24.50002808 22.22891846 24.50002808 22.95263672 25.64379883 C25.66928143 30.16084974 27.29577678 34.23052168 28.21875 39.42749023 C28.57247429 41.59749557 28.57247429 41.59749557 29.64453125 44.44140625 C32.4238472 53.14992957 31.96081349 62.60006703 29.58203125 71.37890625 C28.59402658 76.93643253 27.61368894 82.4794447 27.51953125 88.12890625 C26.78522182 94.24025567 22.27494664 98.7166859 18.58203125 103.37890625 C17.57932259 104.77279507 16.57902202 106.16842195 15.58203125 107.56640625 C10.83499018 113.84849593 5.39291847 119.372502 -1.41796875 123.37890625 C-2.17335938 123.83910156 -2.92875 124.29929687 -3.70703125 124.7734375 C-20.61470381 134.62377771 -41.20293064 138.79352236 -60.46484375 134.01171875 C-63.54969503 133.01222693 -66.46796217 131.71981833 -69.41796875 130.37890625 C-70.81732057 129.9446655 -72.21994549 129.52088708 -73.625 129.10546875 C-78.48811531 127.5019016 -82.38515836 125.14117671 -86.54296875 122.19140625 C-87.23874023 121.70599365 -87.93451172 121.22058105 -88.65136719 120.72045898 C-93.66827269 117.13045034 -97.66988026 113.28739365 -101.41796875 108.37890625 C-102.22234375 107.59515625 -103.02671875 106.81140625 -103.85546875 106.00390625 C-105.41796875 104.37890625 -105.41796875 104.37890625 -105.41796875 102.37890625 C-106.07796875 102.37890625 -106.73796875 102.37890625 -107.41796875 102.37890625 C-107.41796875 101.71890625 -107.41796875 101.05890625 -107.41796875 100.37890625 C-108.40796875 100.04890625 -109.39796875 99.71890625 -110.41796875 99.37890625 C-111.48046875 97.12109375 -111.48046875 97.12109375 -112.41796875 94.25390625 C-113.50882462 90.99805674 -114.58843511 88.03165995 -116.10546875 84.94140625 C-120.78780149 72.23221738 -120.73688283 50.86011258 -115.41796875 38.37890625 C-114.42899848 35.33191688 -113.46828057 32.27727579 -112.515625 29.21875 C-111.45845781 26.48365909 -110.20694707 24.6673714 -108.41796875 22.37890625 C-108.41796875 21.71890625 -108.41796875 21.05890625 -108.41796875 20.37890625 C-107.42796875 19.71890625 -106.43796875 19.05890625 -105.41796875 18.37890625 C-104.48984221 17.36590678 -103.59627616 16.32066036 -102.73046875 15.25390625 C-97.58841641 9.14213684 -92.30908041 3.51357325 -85.41796875 -0.62109375 C-84.7940625 -1.0696875 -84.17015625 -1.51828125 -83.52734375 -1.98046875 C-58.71852244 -18.80883006 -24.29352213 -16.28725636 0 0 Z " fill="#F9FCFE" transform="translate(581.41796875,582.62109375)"/>
<path d="M0 0 C0.78117188 -0.00773438 1.56234375 -0.01546875 2.3671875 -0.0234375 C11.72154983 0.00805867 18.65900292 3.55904355 26 9.25 C32.90036289 17.00087274 36.3273781 28.46116265 36.22265625 38.6640625 C35.94750988 41.85962215 35.11543077 44.39743337 33.8359375 47.3203125 C32.9613242 49.2313238 32.9613242 49.2313238 32.4140625 51.2421875 C30.26983405 58.39889805 25.33813713 63.19029837 19.0625 67.0625 C17.5465625 67.6503125 17.5465625 67.6503125 16 68.25 C15.36835937 68.52585937 14.73671875 68.80171875 14.0859375 69.0859375 C5.49210867 72.49221875 -4.25566788 72.62448423 -12.87890625 69.22265625 C-13.57886719 68.90167969 -14.27882813 68.58070313 -15 68.25 C-15.77214844 67.89808594 -16.54429687 67.54617188 -17.33984375 67.18359375 C-22.64330774 64.50980076 -26.75940578 61.29516041 -30 56.25 C-30 55.59 -30 54.93 -30 54.25 C-30.639375 54.085 -31.27875 53.92 -31.9375 53.75 C-34 52.25 -34 52.25 -34.625 48.375 C-34.67785156 47.65570313 -34.73070312 46.93640625 -34.78515625 46.1953125 C-34.8884007 44.16289321 -34.8884007 44.16289321 -36.0625 42.25 C-37.9650398 38.19124843 -37.49815191 33.67803546 -36.0625 29.5625 C-35.711875 28.799375 -35.36125 28.03625 -35 27.25 C-34.87625 26.486875 -34.7525 25.72375 -34.625 24.9375 C-32.93067982 17.65192323 -28.81045585 10.91795736 -22.66796875 6.6171875 C-15.05813953 1.89384523 -8.91119904 -0.08822969 0 0 Z " fill="#1C3251" transform="translate(735,214.75)"/>
<path d="M0 0 C1.53125 1.28125 1.53125 1.28125 2.53125 4.28125 C3.52125 4.28125 4.51125 4.28125 5.53125 4.28125 C5.82 5.23 6.10875 6.17875 6.40625 7.15625 C7.29950109 10.33336578 7.29950109 10.33336578 9.53125 12.28125 C10.24820074 13.8635827 10.90877936 15.47192219 11.53125 17.09375 C12.02625 18.37185547 12.02625 18.37185547 12.53125 19.67578125 C13.02625 20.96548828 13.02625 20.96548828 13.53125 22.28125 C13.923125 23.13074219 14.315 23.98023438 14.71875 24.85546875 C15.6389921 27.60292233 15.45652835 28.59686687 14.53125 31.28125 C14.35335937 32.29251953 14.35335937 32.29251953 14.171875 33.32421875 C13.20906114 38.61006685 11.46082969 42.66303264 8.65234375 47.23828125 C7.44436333 49.21149738 7.44436333 49.21149738 7.078125 51.3515625 C5.78233033 55.92386655 0.41978812 58.7629361 -3.46875 61.03125 C-6.75312748 62.39974062 -10.03057191 63.37305201 -13.46875 64.28125 C-14.45875 64.61125 -15.44875 64.94125 -16.46875 65.28125 C-28.92400682 66.24799376 -38.30134154 63.15672747 -47.9609375 55.23828125 C-53.19817893 50.3873937 -56.95667081 45.38033367 -58.46875 38.28125 C-58.13875 37.29125 -57.80875 36.30125 -57.46875 35.28125 C-57.79875 34.95125 -58.12875 34.62125 -58.46875 34.28125 C-59.75462205 28.06620174 -59.27537711 25.11039861 -56.46875 19.28125 C-56.09281934 17.2888175 -55.74895455 15.2893826 -55.46875 13.28125 C-55.13875 12.62125 -54.80875 11.96125 -54.46875 11.28125 C-53.80875 11.28125 -53.14875 11.28125 -52.46875 11.28125 C-52.46875 10.29125 -52.46875 9.30125 -52.46875 8.28125 C-37.89941064 -8.00212928 -18.5696445 -11.49549422 0 0 Z " fill="#1C3251" transform="translate(904.46875,368.71875)"/>
<path d="M0 0 C0.78568359 -0.01224609 1.57136719 -0.02449219 2.38085938 -0.03710938 C11.07735815 -0.05894159 18.22148451 2.79490798 25.0625 8.1875 C27.5882027 11.3043246 29.33805183 14.57693665 31.0625 18.1875 C31.475 18.94804687 31.8875 19.70859375 32.3125 20.4921875 C35.95894955 28.01298969 35.81758116 36.01330739 35.0625 44.1875 C34.0703125 47.03125 34.0703125 47.03125 33.0625 49.1875 C32.8975 49.909375 32.7325 50.63125 32.5625 51.375 C32.0625 53.1875 32.0625 53.1875 30.0625 55.1875 C29.7325 56.1775 29.4025 57.1675 29.0625 58.1875 C26.00793549 61.58146057 23.02247015 63.95367068 19.0625 66.1875 C18.464375 66.703125 17.86625 67.21875 17.25 67.75 C10.28657743 72.3259634 1.04749543 71.89335595 -6.9375 71.1875 C-14.39874244 69.51466093 -20.21096715 66.16879912 -25.9375 61.1875 C-26.845 60.445 -27.7525 59.7025 -28.6875 58.9375 C-31.85259649 55.06904873 -33.26814115 50.85295705 -34.9375 46.1875 C-35.288125 45.3521875 -35.63875 44.516875 -36 43.65625 C-37.42887896 39.89353541 -38.01860514 36.21326438 -37.9375 32.1875 C-36.5625 29.5625 -36.5625 29.5625 -34.9375 27.1875 C-34.81375 25.6096875 -34.81375 25.6096875 -34.6875 24 C-33.09901821 15.92521759 -27.44029166 9.90652841 -20.78515625 5.3671875 C-19.87056641 4.78324219 -19.87056641 4.78324219 -18.9375 4.1875 C-17.6071875 3.2903125 -17.6071875 3.2903125 -16.25 2.375 C-11.11801372 -0.2603443 -5.63616211 0.00460095 0 0 Z " fill="#1C3251" transform="translate(882.9375,214.8125)"/>
<path d="M0 0 C0.77214844 0.32871094 1.54429688 0.65742188 2.33984375 0.99609375 C8.62597905 4.01887761 11.66537303 7.97615773 15 14 C15.5775 14.969375 16.155 15.93875 16.75 16.9375 C19.94043759 24.7540721 21.78799979 34.63600063 19.0625 42.8125 C18.711875 43.534375 18.36125 44.25625 18 45 C17.835 45.886875 17.67 46.77375 17.5 47.6875 C17 50 17 50 15 52 C14.608125 52.7425 14.21625 53.485 13.8125 54.25 C8.88810579 61.72149467 1.49268175 65.79819362 -7 68 C-7.99 68.33 -8.98 68.66 -10 69 C-21.03097047 69.85619446 -30.12054744 67.75238113 -39 61 C-41.89606411 58.16774747 -44.49559794 55.18111117 -47 52 C-47.57492187 51.30648437 -48.14984375 50.61296875 -48.7421875 49.8984375 C-50 48 -50 48 -49.6875 45.25 C-49.460625 44.5075 -49.23375 43.765 -49 43 C-49.66 42.67 -50.32 42.34 -51 42 C-52.71013373 38.11333244 -51.60745324 34.04968828 -51 30 C-51.66 29.67 -52.32 29.34 -53 29 C-51.25 25.125 -51.25 25.125 -49 24 C-49.32097656 22.91332031 -49.32097656 22.91332031 -49.6484375 21.8046875 C-50.19612641 17.4353471 -48.2487815 15.10065824 -45.94921875 11.50390625 C-42.85550039 7.52981112 -39.16227927 4.78002981 -35 2 C-34.154375 1.401875 -33.30875 0.80375 -32.4375 0.1875 C-22.38312406 -4.71078571 -10.11101187 -4.59930006 0 0 Z " fill="#1C3251" transform="translate(1046,365)"/>
<path d="M0 0 C0.67740234 -0.01224609 1.35480469 -0.02449219 2.05273438 -0.03710938 C8.62633073 -0.05601713 14.19283289 1.05157277 19.4375 5.125 C20.10523438 5.62902344 20.77296875 6.13304687 21.4609375 6.65234375 C23.0625 8.1875 23.0625 8.1875 24.0625 11.1875 C24.7225 11.496875 25.3825 11.80625 26.0625 12.125 C28.0625 13.1875 28.0625 13.1875 28.6875 15.1875 C28.81125 15.8475 28.935 16.5075 29.0625 17.1875 C30.0525 18.1775 30.0525 18.1775 31.0625 19.1875 C35.46318787 27.10552598 36.61854424 35.74253297 34.484375 44.58203125 C33.75 46.625 33.75 46.625 32.0625 50.1875 C31.629375 51.198125 31.19625 52.20875 30.75 53.25 C25.98505669 61.54453095 19.32672389 67.25728457 10.3125 70.5625 C1.3884722 72.29030578 -7.64236949 71.99134438 -15.9375 68.1875 C-16.70964844 67.83558594 -17.48179687 67.48367188 -18.27734375 67.12109375 C-23.77187601 64.35097183 -27.26568207 61.07148859 -30.9375 56.1875 C-31.55625 55.5275 -32.175 54.8675 -32.8125 54.1875 C-34.48776738 51.20924687 -34.13030952 48.52953175 -33.9375 45.1875 C-34.5975 44.8575 -35.2575 44.5275 -35.9375 44.1875 C-37.64763373 40.30083244 -36.54495324 36.23718828 -35.9375 32.1875 C-36.5975 31.8575 -37.2575 31.5275 -37.9375 31.1875 C-36.9475 29.7025 -36.9475 29.7025 -35.9375 28.1875 C-35.9375 27.5275 -35.9375 26.8675 -35.9375 26.1875 C-35.2775 26.1875 -34.6175 26.1875 -33.9375 26.1875 C-34.2675 24.5375 -34.5975 22.8875 -34.9375 21.1875 C-34.2775 21.1875 -33.6175 21.1875 -32.9375 21.1875 C-32.855 20.465625 -32.7725 19.74375 -32.6875 19 C-30.86724207 12.17403277 -24.19139404 6.58492896 -18.25 3.125 C-12.48809698 0.07585735 -6.39671853 0.00605177 0 0 Z " fill="#1C3150" transform="translate(1030.9375,214.8125)"/>
<path d="M0 0 C1.02154175 -0.01389771 1.02154175 -0.01389771 2.0637207 -0.02807617 C8.15485754 0.00972015 12.96966182 1.4384327 18.125 4.625 C18.79015625 5.02460937 19.4553125 5.42421875 20.140625 5.8359375 C22.12581706 7.45449499 22.79988828 8.95769132 23.875 11.25 C24.514375 11.53875 25.15375 11.8275 25.8125 12.125 C28.93276719 13.82696392 29.48359247 16.00338243 30.875 19.25 C31.22949219 19.95125 31.58398438 20.6525 31.94921875 21.375 C35.58526613 29.13190108 36.42791838 37.49198802 34.1796875 45.828125 C33.23166528 48.10656496 32.15711147 50.14198851 30.875 52.25 C30.39289063 53.0440625 29.91078125 53.838125 29.4140625 54.65625 C25.62880042 60.57432472 22.04850406 64.76751053 15.875 68.25 C14.885 68.91 13.895 69.57 12.875 70.25 C3.55690013 72.33255527 -7.52802277 72.82521535 -16.125 68.25 C-16.84945312 67.9096875 -17.57390625 67.569375 -18.3203125 67.21875 C-25.10892423 63.81293801 -31.55431767 59.53269091 -34.25390625 52.171875 C-34.9950086 49.20746559 -35.58605814 46.25649385 -36.125 43.25 C-36.62 41.765 -36.62 41.765 -37.125 40.25 C-37.03882274 38.017731 -36.88577759 35.78761514 -36.6875 33.5625 C-36.58566406 32.38300781 -36.48382812 31.20351563 -36.37890625 29.98828125 C-36.29511719 29.08464844 -36.21132813 28.18101562 -36.125 27.25 C-35.465 27.25 -34.805 27.25 -34.125 27.25 C-34.455 26.26 -34.785 25.27 -35.125 24.25 C-34.3125 20.625 -34.3125 20.625 -33.125 17.25 C-32.465 16.92 -31.805 16.59 -31.125 16.25 C-30.733125 15.528125 -30.34125 14.80625 -29.9375 14.0625 C-25.65216484 7.41284199 -18.48726573 2.35369909 -10.76953125 0.59765625 C-7.18177199 0.12600104 -3.61305076 0.03085968 0 0 Z " fill="#1C3150" transform="translate(1031.125,509.75)"/>
<path d="M0 0 C1.16448728 -0.00241442 2.32897457 -0.00482883 3.52874935 -0.00731641 C6.72447878 -0.0119401 9.92004754 -0.00771509 13.11576509 0.00044787 C16.57575126 0.00707746 20.03572424 0.00206524 23.49571228 -0.00143433 C30.25659152 -0.00645386 37.01742152 -0.00086431 43.77829464 0.00841597 C51.65283691 0.01883444 59.52736874 0.01872893 67.40191661 0.01824339 C81.44551621 0.01774378 95.48909296 0.02688004 109.53268433 0.04142761 C123.16322241 0.05553998 136.7937404 0.06259716 150.42428589 0.06193542 C151.26532215 0.06189547 152.10635841 0.06185551 152.97288062 0.06181435 C154.23225244 0.06175381 154.23225244 0.06175381 155.51706612 0.06169206 C171.04320912 0.06100297 186.56934358 0.06688442 202.09548382 0.07584528 C207.58749165 0.07886427 213.07949793 0.07992511 218.5715065 0.08037758 C225.2542899 0.08105842 231.93705889 0.08550561 238.61983617 0.09471039 C242.03072119 0.09933773 245.44158774 0.1023704 248.85247612 0.10111618 C252.54270555 0.10062878 256.23287464 0.10624843 259.9230957 0.11352539 C261.01022295 0.11197679 262.0973502 0.11042819 263.2174207 0.10883266 C264.69099469 0.11366933 264.69099469 0.11366933 266.19433784 0.11860371 C267.04676036 0.11930813 267.89918288 0.12001256 268.77743638 0.12073833 C270.82662964 0.24723816 270.82662964 0.24723816 272.82662964 1.24723816 C274.3668696 1.31674357 275.90997952 1.33176173 277.45162964 1.30973816 C278.26889526 1.30071472 279.08616089 1.29169128 279.92819214 1.28239441 C280.55467651 1.27079285 281.18116089 1.25919128 281.82662964 1.24723816 C281.82662964 1.90723816 281.82662964 2.56723816 281.82662964 3.24723816 C274.73250663 4.18009135 267.7982321 4.39091679 260.64784241 4.38095093 C258.8458198 4.38434926 258.8458198 4.38434926 257.0073927 4.38781625 C253.6947701 4.39302906 250.38220203 4.39380501 247.06957924 4.39262187 C243.48884645 4.39241696 239.90812162 4.39794499 236.32739258 4.40267944 C229.32280816 4.41096465 222.31823215 4.41373325 215.31364324 4.41429182 C209.62214779 4.41476764 203.93065511 4.41682567 198.23916054 4.41999245 C182.0986993 4.42879032 165.9582447 4.43341275 149.81778105 4.43266197 C148.94873087 4.43262202 148.07968069 4.43258206 147.18429565 4.43254089 C146.31418428 4.43250001 145.44407291 4.43245913 144.54759452 4.43241701 C130.42473049 4.43200996 116.30189304 4.44159665 102.1790367 4.45567926 C87.67389139 4.47002902 73.16875906 4.47695034 58.66360646 4.47608548 C50.52134884 4.47575321 42.37911914 4.47851412 34.2368679 4.48926353 C27.31032203 4.49834973 20.38381678 4.50055904 13.45726755 4.49375411 C9.9225909 4.49048042 6.38799229 4.49046289 2.85332298 4.49910736 C-0.97432165 4.50837246 -4.80185123 4.50221923 -8.62950134 4.49447632 C-9.75175875 4.49961988 -10.87401616 4.50476344 -12.03028136 4.51006287 C-13.05333017 4.50546408 -14.07637898 4.50086528 -15.13042927 4.49612713 C-16.01409619 4.4963445 -16.89776311 4.49656186 -17.80820781 4.49678582 C-20.34665156 4.22895531 -21.98377187 3.5266288 -24.17337036 2.24723816 C-16.0423058 0.66024759 -8.27587758 -0.03997624 0 0 Z " fill="#000626" transform="translate(410.1733703613281,933.7527618408203)"/>
<path d="M0 0 C0.8580313 -0.00538554 1.7160626 -0.01077108 2.60009485 -0.01631981 C5.45649142 -0.03055277 8.3124215 -0.02350724 11.1688385 -0.01637268 C13.22435883 -0.02207867 15.279876 -0.02904381 17.33538818 -0.03717041 C22.90563485 -0.0550912 28.47572389 -0.05393547 34.04599071 -0.04822803 C38.70057511 -0.04513475 43.35512931 -0.05123016 48.00970942 -0.05726677 C58.99214006 -0.07130674 69.9744929 -0.06975496 80.95692444 -0.05836487 C92.27798368 -0.04688287 103.59880605 -0.06096203 114.91983408 -0.08776134 C124.64915951 -0.10992841 134.37841064 -0.11655347 144.10775954 -0.11068493 C149.91453796 -0.10731675 155.72116454 -0.10972146 161.52792168 -0.12693596 C166.9887988 -0.14241904 172.44932534 -0.13843415 177.91018867 -0.11963081 C179.91082315 -0.11594881 181.91148368 -0.11904204 183.91209412 -0.1295166 C186.65021238 -0.14275476 189.38717478 -0.13115419 192.12524414 -0.11352539 C192.91067075 -0.1231304 193.69609736 -0.1327354 194.50532478 -0.14263147 C200.42663291 -0.06457436 204.89665834 1.67413395 210.12611389 4.38768005 C210.12611389 4.71768005 210.12611389 5.04768005 210.12611389 5.38768005 C133.89611389 5.38768005 57.66611389 5.38768005 -20.87388611 5.38768005 C-13.71373975 1.80760687 -8.03538231 -0.06131221 0 0 Z " fill="#000626" transform="translate(442.87388610839844,392.61231994628906)"/>
<path d="M0 0 C2.78035509 0.00084125 5.56070935 0.00016703 8.34106445 -0.0004425 C14.30384651 -0.00096422 20.26661754 0.0021456 26.22939682 0.00779533 C34.85033681 0.01595832 43.47127152 0.01853045 52.09221496 0.01978333 C66.08263851 0.02196634 80.07305619 0.02860599 94.06347656 0.03808594 C107.64550752 0.04727953 121.22753687 0.05435082 134.80957031 0.05859375 C135.64822494 0.05885647 136.48687956 0.0591192 137.35094796 0.05938988 C141.55866716 0.06069502 145.76638638 0.0619587 149.9741056 0.06320179 C184.82404984 0.07355101 219.67398727 0.0911488 254.52392578 0.11352539 C251.17275649 3.46469468 247.06129449 3.23782746 242.50573063 3.25777721 C241.51367463 3.26448506 240.52161863 3.2711929 239.49950033 3.27810401 C238.41701889 3.28044635 237.33453745 3.2827887 236.21925354 3.28520203 C235.06356949 3.29155114 233.90788545 3.29790024 232.71718067 3.30444175 C229.51341805 3.32101404 226.30967378 3.33318137 223.10588586 3.3434521 C219.64909591 3.35558272 216.19233406 3.37333457 212.73556519 3.39031982 C205.96506414 3.42261921 199.19455205 3.44945529 192.42401928 3.47412261 C186.92122767 3.49418843 181.41844422 3.51578513 175.91566277 3.53846169 C160.31509165 3.60256241 144.71451239 3.66248184 129.11390532 3.7171438 C128.27298893 3.72009084 127.43207253 3.72303788 126.56567383 3.72607422 C125.72373122 3.72902395 124.88178861 3.73197369 124.01433259 3.73501281 C110.36459233 3.78309201 96.71491523 3.84117407 83.06523455 3.9037719 C69.05065854 3.96792658 55.03606953 4.02455227 41.02143139 4.07333976 C33.15290045 4.10088812 25.28441028 4.13156706 17.41592598 4.17035484 C10.71773717 4.20331627 4.01956649 4.22930095 -2.67868286 4.24621113 C-6.09613378 4.25503982 -9.51349072 4.26713101 -12.93089104 4.28801918 C-16.6354412 4.30893927 -20.33981775 4.3174564 -24.04441833 4.32279968 C-25.12466906 4.33183419 -26.20491978 4.34086871 -27.31790537 4.35017699 C-32.4398068 4.34443337 -36.68672628 4.18163324 -41.47607422 2.11352539 C-41.47607422 1.78352539 -41.47607422 1.45352539 -41.47607422 1.11352539 C-27.68504442 -0.29915454 -13.844521 -0.01972197 0 0 Z " fill="#000626" transform="translate(433.47607421875,890.886474609375)"/>
<path d="M0 0 C0.85662115 -0.00226556 1.71324231 -0.00453111 2.59582168 -0.00686532 C5.4530399 -0.01317238 8.3102103 -0.0123781 11.16743469 -0.0115509 C13.22106487 -0.01454431 15.27469449 -0.01794726 17.32832336 -0.02172852 C22.89618468 -0.0305508 28.46403063 -0.03290579 34.03189826 -0.0335443 C38.67943796 -0.03449461 43.32697408 -0.03817403 47.9745124 -0.0417164 C58.93416673 -0.04985301 69.89381285 -0.05230123 80.85346985 -0.05158997 C92.16715373 -0.05098828 103.48079007 -0.06156008 114.79446191 -0.07733363 C124.50668935 -0.09039294 134.21890122 -0.09577459 143.93113738 -0.09513456 C149.7327004 -0.09487924 155.53422109 -0.09774928 161.33577538 -0.10831261 C166.78667961 -0.11796736 172.2375008 -0.11809086 177.6884079 -0.11079597 C179.69114363 -0.1097471 181.69388446 -0.11213087 183.6966114 -0.11815643 C186.42528112 -0.12583611 189.15366107 -0.12125847 191.88232422 -0.11352539 C192.67910621 -0.11866895 193.4758882 -0.12381252 194.2968151 -0.12911195 C198.09219575 -0.10525691 201.03418382 -0.01039607 204.25068665 2.13371277 C204.25068665 2.79371277 204.25068665 3.45371277 204.25068665 4.13371277 C129.67068665 4.13371277 55.09068665 4.13371277 -21.74931335 4.13371277 C-21.74931335 3.80371277 -21.74931335 3.47371277 -21.74931335 3.13371277 C-19.76931335 2.80371277 -17.78931335 2.47371277 -15.74931335 2.13371277 C-15.74931335 1.80371277 -15.74931335 1.47371277 -15.74931335 1.13371277 C-10.45173848 0.2517733 -5.36488753 -0.01051536 0 0 Z " fill="#061030" transform="translate(442.7493133544922,348.8662872314453)"/>
<path d="M0 0 C0.66 0 1.32 0 2 0 C3.28091408 2.56182815 3.12536063 4.36496731 3.12584114 7.23464012 C3.12844889 8.35142501 3.13105664 9.4682099 3.13374341 10.61883676 C3.13151268 11.85614498 3.12928196 13.0934532 3.12698364 14.36825562 C3.12932363 16.32813303 3.12932363 16.32813303 3.13171089 18.32760394 C3.13590406 21.96718993 3.13381346 25.60674987 3.13072467 29.24633598 C3.12847034 33.16764888 3.13195062 37.08895717 3.13470459 41.01026917 C3.13916316 48.70231387 3.13818479 56.39434884 3.13529195 64.08639394 C3.13303531 70.34618752 3.13272654 76.60597837 3.13381577 82.86577225 C3.133969 83.75616849 3.13412223 84.64656473 3.13428011 85.56394268 C3.13459984 87.37289599 3.13492405 89.18184929 3.1352527 90.9908026 C3.1381085 107.98073282 3.13482045 124.97065765 3.12945233 141.96058698 C3.12499802 156.50725601 3.12574866 171.05391705 3.13037109 185.60058594 C3.13573899 202.50103405 3.13781925 219.40147741 3.13475883 236.30192626 C3.1344403 238.10979883 3.13412593 239.9176714 3.13381577 241.72554398 C3.13366149 242.61494737 3.13350721 243.50435077 3.13334826 244.42070579 C3.13248871 250.65655379 3.13393415 256.89239877 3.13629532 263.12824631 C3.13911876 270.75278182 3.1383025 278.37730706 3.13301457 286.00184141 C3.13040945 289.88474966 3.12931732 293.76764086 3.13266373 297.65054893 C3.1452097 313.459112 3.0388375 329.21916643 2 345 C1.34 345 0.68 345 0 345 C0 231.15 0 117.3 0 0 Z " fill="#42536E" transform="translate(735,492)"/>
<path d="M0 0 C0.9549234 0.00566483 1.9098468 0.01132965 2.89370728 0.01716614 C3.9395549 0.03370743 4.98540253 0.05024872 6.0629425 0.06729126 C7.16553406 0.07675278 8.26812561 0.08621429 9.40412903 0.09596252 C13.05659863 0.12969959 16.70873293 0.17779923 20.36103821 0.22598267 C22.89022947 0.25214363 25.41943012 0.27741113 27.94863892 0.30181885 C33.93040385 0.36170771 39.91199924 0.43062206 45.89360982 0.50388968 C52.70362573 0.58680206 59.51374698 0.65821475 66.32390153 0.72865558 C80.33252905 0.87381179 94.34096218 1.03342878 108.34931946 1.20254517 C108.34931946 2.19254517 108.34931946 3.18254517 108.34931946 4.20254517 C106.78516824 5.76669639 105.26163802 5.33493772 103.08668518 5.34298706 C102.16697937 5.3486972 101.24727356 5.35440735 100.29969788 5.36029053 C99.28256714 5.36140839 98.2654364 5.36252625 97.21748352 5.36367798 C95.61997253 5.37112534 95.61997253 5.37112534 93.9901886 5.37872314 C90.4484341 5.39339057 86.90672441 5.40015497 83.36494446 5.40567017 C80.91212461 5.4114186 78.45930479 5.41717636 76.00648499 5.42294312 C70.85481048 5.43346666 65.70315164 5.43930021 60.5514679 5.44277954 C53.94582867 5.4482619 47.34039583 5.47227894 40.73482132 5.5007515 C35.66480402 5.51936524 30.59483649 5.52458285 25.5247879 5.52611542 C23.08949914 5.52914618 20.65421134 5.5371889 18.21895599 5.5503006 C14.81205524 5.56733156 11.40565943 5.5654876 7.99873352 5.55899048 C6.4851828 5.57281265 6.4851828 5.57281265 4.9410553 5.58691406 C-0.07651516 5.55689896 -3.56897664 5.4905882 -7.65068054 2.20254517 C-4.43970892 0.06189742 -3.6789979 -0.04083239 0 0 Z " fill="#000626" transform="translate(485.6506805419922,151.79745483398438)"/>
<path d="M0 0 C12.07381603 -0.09257637 24.14754799 -0.1637022 36.22164631 -0.20724869 C41.82782313 -0.22814617 47.4337576 -0.25650345 53.03979492 -0.30175781 C58.44736814 -0.34513817 63.85470788 -0.36912082 69.26244164 -0.37950897 C71.32819483 -0.38691438 73.39393489 -0.40137496 75.459589 -0.42292023 C78.34744767 -0.45185025 81.2343348 -0.45596035 84.12231445 -0.45410156 C84.98114731 -0.46848267 85.83998016 -0.48286377 86.72483826 -0.49768066 C89.1085968 -0.48101807 89.1085968 -0.48101807 93 0 C93.99 1.32 94.98 2.64 96 4 C63.33 4 30.66 4 -3 4 C-2.34 3.67 -1.68 3.34 -1 3 C-0.67 2.01 -0.34 1.02 0 0 Z " fill="#000626" transform="translate(493,196)"/>
<path d="M0 0 C0.66 0 1.32 0 2 0 C2.73457542 5.25243143 3.12275345 10.29401079 3.11352539 15.609375 C3.11367142 16.32255386 3.11381744 17.03573273 3.1139679 17.77052307 C3.11327853 20.09704776 3.10553253 22.42348953 3.09765625 24.75 C3.09578859 26.3752437 3.09436633 28.00048796 3.09336853 29.62573242 C3.08957073 33.88028549 3.07976413 38.13480382 3.06866455 42.38934326 C3.05839127 46.74002615 3.05385829 51.0907147 3.04882812 55.44140625 C3.03813913 63.96095335 3.02109599 72.48047234 3 81 C2.01 81 1.02 81 0 81 C0 54.27 0 27.54 0 0 Z " fill="#5A677F" transform="translate(587,209)"/>
<path d="M0 0 C14.85 0 29.7 0 45 0 C44.67 1.65 44.34 3.3 44 5 C37.91276345 5.02467081 31.82555583 5.04284604 25.73828125 5.05493164 C23.66633599 5.05996852 21.5943943 5.06679825 19.52246094 5.07543945 C16.54881918 5.08753321 13.57522431 5.09323467 10.6015625 5.09765625 C9.67131256 5.10281754 8.74106262 5.10797882 7.78262329 5.11329651 C6.92188202 5.11337204 6.06114075 5.11344757 5.17431641 5.11352539 C4.03514267 5.11685631 4.03514267 5.11685631 2.87295532 5.12025452 C1 5 1 5 -1 4 C-0.67 2.68 -0.34 1.36 0 0 Z " fill="#000626" transform="translate(591,294)"/>
<path d="M0 0 C14.19 0 28.38 0 43 0 C43.66 1.32 44.32 2.64 45 4 C44 5 44 5 42.17137146 5.12025452 C41.37417191 5.11803391 40.57697235 5.11581329 39.75561523 5.11352539 C38.85475693 5.11344986 37.95389862 5.11337433 37.02574158 5.11329651 C36.04658279 5.10813522 35.06742401 5.10297394 34.05859375 5.09765625 C33.06118668 5.0962413 32.0637796 5.09482635 31.03614807 5.09336853 C27.83656876 5.08775114 24.63705831 5.07519571 21.4375 5.0625 C19.27408955 5.05748724 17.11067801 5.05292395 14.94726562 5.04882812 C9.63148675 5.03777607 4.31574829 5.02102104 -1 5 C-0.67 3.35 -0.34 1.7 0 0 Z " fill="#000626" transform="translate(443,294)"/>
<path d="M0 0 C2 2 2 2 2.24291992 4.93896484 C2.23881104 6.18371582 2.23470215 7.4284668 2.23046875 8.7109375 C2.23037308 9.38738815 2.2302774 10.06383881 2.23017883 10.76078796 C2.22644913 12.9657041 2.20752029 15.17017628 2.1875 17.375 C2.18065843 18.87947444 2.17414855 20.38395043 2.16796875 21.88842773 C2.10293829 32.94427787 1.7506503 43.96812155 1 55 C0.34 55 -0.32 55 -1 55 C-1.02526605 47.32788798 -1.04283123 39.6557866 -1.05493164 31.98364258 C-1.05997377 29.37133381 -1.06680725 26.75902789 -1.07543945 24.14672852 C-1.08751036 20.40119732 -1.09322935 16.65570328 -1.09765625 12.91015625 C-1.10281754 11.73413345 -1.10797882 10.55811066 -1.11329651 9.34645081 C-1.11340981 7.72488319 -1.11340981 7.72488319 -1.11352539 6.07055664 C-1.115746 5.11347305 -1.11796661 4.15638947 -1.12025452 3.17030334 C-1 1 -1 1 0 0 Z " fill="#516079" transform="translate(736,782)"/>
<path d="M0 0 C0 0.66 0 1.32 0 2 C-6.9712104 3.06528276 -13.8301241 3.18343252 -20.875 3.1875 C-22.01453125 3.19974609 -23.1540625 3.21199219 -24.328125 3.22460938 C-25.95621094 3.22750977 -25.95621094 3.22750977 -27.6171875 3.23046875 C-28.60315918 3.23457764 -29.58913086 3.23868652 -30.60498047 3.24291992 C-33 3 -33 3 -35 1 C-25.26999303 -2.14272123 -9.60215696 -4.80107848 0 0 Z " fill="#020929" transform="translate(556,763)"/>
<path d="M0 0 C0.66 0.33 1.32 0.66 2 1 C3.29798239 6.1626332 3.13476553 11.39094981 3.11352539 16.67724609 C3.11367142 17.63397217 3.11381744 18.59069824 3.1139679 19.57641602 C3.11327357 22.72544658 3.10550369 25.87441732 3.09765625 29.0234375 C3.09579036 31.21204598 3.09436727 33.40065487 3.09336853 35.58926392 C3.08955679 41.3398759 3.07973798 47.09046248 3.06866455 52.84106445 C3.05842154 58.71304989 3.05386472 64.58503945 3.04882812 70.45703125 C3.0381145 81.9713653 3.02105422 93.48568054 3 105 C2.67 105 2.34 105 2 105 C2 72.99 2 40.98 2 8 C1.34 8 0.68 8 0 8 C-1.125 6.25 -1.125 6.25 -2 4 C-1.125 1.75 -1.125 1.75 0 0 Z " fill="#5C6981" transform="translate(633,188)"/>
<path d="M0 0 C1.74796875 -0.00386719 1.74796875 -0.00386719 3.53125 -0.0078125 C6.5 0.125 6.5 0.125 8.5 1.125 C8.5 1.785 8.5 2.445 8.5 3.125 C9.82 3.455 11.14 3.785 12.5 4.125 C12.5 4.455 12.5 4.785 12.5 5.125 C3.59 5.125 -5.32 5.125 -14.5 5.125 C-11.5 2.125 -11.5 2.125 -8.5 1.125 C-5.64804778 -0.30097611 -3.17538825 -0.0070252 0 0 Z " fill="#050E2E" transform="translate(538.5,564.875)"/>
<path d="M0 0 C0.66 0 1.32 0 2 0 C2 9.24 2 18.48 2 28 C1.01 27.67 0.02 27.34 -1 27 C-1.02886537 22.68751391 -1.04675255 18.37505238 -1.0625 14.0625 C-1.07087891 12.83080078 -1.07925781 11.59910156 -1.08789062 10.33007812 C-1.09111328 9.16025391 -1.09433594 7.99042969 -1.09765625 6.78515625 C-1.10289307 5.70113525 -1.10812988 4.61711426 -1.11352539 3.50024414 C-1 1 -1 1 0 0 Z " fill="#ACB4C2" transform="translate(439,214)"/>
<path d="M0 0 C2.93804996 -0.08086376 5.87388075 -0.1404283 8.8125 -0.1875 C9.64587891 -0.21263672 10.47925781 -0.23777344 11.33789062 -0.26367188 C12.54155273 -0.27817383 12.54155273 -0.27817383 13.76953125 -0.29296875 C14.87711792 -0.31653442 14.87711792 -0.31653442 16.00708008 -0.34057617 C18.52230522 0.08925833 19.39441516 1.07463062 21 3 C17.96570323 4.51714839 14.82398333 4.14363916 11.5 4.125 C10.81035156 4.12886719 10.12070312 4.13273438 9.41015625 4.13671875 C4.25333293 4.12666646 4.25333293 4.12666646 2 3 C2 2.34 2 1.68 2 1 C1.34 0.67 0.68 0.34 0 0 Z " fill="#000626" transform="translate(528,522)"/>
<path d="M0 0 C0.99 0.495 0.99 0.495 2 1 C3.74451341 6.52429247 4.20612487 11.22850374 4 17 C3.01 16.67 2.02 16.34 1 16 C1.01160156 15.39671875 1.02320313 14.7934375 1.03515625 14.171875 C1.04417969 13.37265625 1.05320312 12.5734375 1.0625 11.75 C1.07410156 10.96109375 1.08570313 10.1721875 1.09765625 9.359375 C1.00347111 7.0838619 0.57537619 5.19277224 0 3 C0 2.01 0 1.02 0 0 Z " fill="#ABB3C2" transform="translate(732,475)"/>
<path d="M0 0 C1.83117102 3.13188377 2.2718057 5.44820595 2.25 9.0625 C2.25515625 9.91972656 2.2603125 10.77695313 2.265625 11.66015625 C2 14 2 14 0 17 C-0.97771193 14.0668642 -1.13419011 12.11821006 -1.125 9.0625 C-1.12757813 8.20785156 -1.13015625 7.35320312 -1.1328125 6.47265625 C-1.00930254 4.17319148 -0.64420687 2.20359652 0 0 Z " fill="#5C6981" transform="translate(769,242)"/>
<path d="M0 0 C0.99 0 1.98 0 3 0 C3 4.33333333 3 8.66666667 3 13 C2.34 13 1.68 13 1 13 C0.63901937 11.02206479 0.28638652 9.04260427 -0.0625 7.0625 C-0.25972656 5.96035156 -0.45695313 4.85820312 -0.66015625 3.72265625 C-0.77230469 2.82417969 -0.88445313 1.92570313 -1 1 C-0.67 0.67 -0.34 0.34 0 0 Z " fill="#5A677F" transform="translate(846,246)"/>
<path d="M0 0 C0.66 0 1.32 0 2 0 C1.67 3.96 1.34 7.92 1 12 C0.01 12 -0.98 12 -2 12 C-2.28571429 3.42857143 -2.28571429 3.42857143 0 0 Z " fill="#A7AFBE" transform="translate(994,538)"/>
<path d="M0 0 C0.66 0 1.32 0 2 0 C2 1.65 2 3.3 2 5 C2.33 5 2.66 5 3 5 C3 6.65 3 8.3 3 10 C1.68 10.33 0.36 10.66 -1 11 C-1.93423645 7.98968256 -2.04449911 7.13349732 -1 4 C-0.65772583 2.66893378 -0.32248257 1.33599921 0 0 Z " fill="#828DA0" transform="translate(611,650)"/>
<path d="M0 0 C4.17950077 3.45889719 5.32762134 6.98286401 7 12 C6.01 12 5.02 12 4 12 C3.13624104 10.38007835 2.28424146 8.75388139 1.4375 7.125 C0.72400391 5.76761719 0.72400391 5.76761719 -0.00390625 4.3828125 C-0.33261719 3.59648437 -0.66132812 2.81015625 -1 2 C-0.67 1.34 -0.34 0.68 0 0 Z " fill="#606E85" transform="translate(847,406)"/>
<path d="M0 0 C3.85593074 1.58561638 6.33216291 4.06509954 9.25 7 C10.14203125 7.886875 11.0340625 8.77375 11.953125 9.6875 C14 12 14 12 14 14 C10.6673468 12.57904457 8.76393478 10.8834126 6.4375 8.125 C5.85871094 7.44695313 5.27992188 6.76890625 4.68359375 6.0703125 C3.06788799 4.08348175 1.5200601 2.06062859 0 0 Z " fill="#AEB6C4" transform="translate(617,551)"/>
<path d="M0 0 C0.99 0 1.98 0 3 0 C3 3.66666667 3 7.33333333 3 11 C2.34 11 1.68 11 1 11 C-0.28317892 7.15046324 -0.06643637 4.05261865 0 0 Z " fill="#59677F" transform="translate(698,247)"/>
<path d="M0 0 C0.99 0 1.98 0 3 0 C3 2.97 3 5.94 3 9 C2.01 9 1.02 9 0 9 C-0.87890625 2.84765625 -0.87890625 2.84765625 -1 1 C-0.67 0.67 -0.34 0.34 0 0 Z " fill="#59677F" transform="translate(846,394)"/>
<path d="M0 0 C0.99 0.33 1.98 0.66 3 1 C3 3.64 3 6.28 3 9 C2.01 9.33 1.02 9.66 0 10 C0 6.7 0 3.4 0 0 Z " fill="#B3BBC8" transform="translate(917,246)"/>
<path d="M0 0 C3.8665284 3.222107 4.88059018 6.14922412 6 11 C3 10 3 10 1.83203125 7.93359375 C1.49558594 7.10988281 1.15914062 6.28617187 0.8125 5.4375 C0.46832031 4.61121094 0.12414062 3.78492188 -0.23046875 2.93359375 C-0.48441406 2.29550781 -0.73835937 1.65742188 -1 1 C-0.67 0.67 -0.34 0.34 0 0 Z " fill="#B0B8C6" transform="translate(766,427)"/>
<path d="M0 0 C3.21043882 1.38188453 5.04936365 2.92421903 7.25 5.625 C8.03117187 6.57246094 8.03117187 6.57246094 8.828125 7.5390625 C9.40820312 8.26222656 9.40820312 8.26222656 10 9 C9.67 9.66 9.34 10.32 9 11 C7.68141572 9.73548068 6.37032369 8.46314525 5.0625 7.1875 C4.33160156 6.47980469 3.60070312 5.77210938 2.84765625 5.04296875 C1 3 1 3 0 0 Z " fill="#57647D" transform="translate(478,690)"/>
</svg>
